<svg width="14" height="11" viewBox="0 0 14 11" fill="none" xmlns="http://www.w3.org/2000/svg">
<path d="M6.45202 10.046C6.51318 10.1349 6.59502 10.2075 6.69048 10.2577C6.78594 10.3078 6.89217 10.3341 7.00002 10.3341C7.10786 10.3341 7.21409 10.3078 7.30956 10.2577C7.40502 10.2075 7.48686 10.1349 7.54802 10.046L13.548 1.37937C13.6175 1.27941 13.6582 1.16233 13.6658 1.04084C13.6734 0.919361 13.6475 0.798123 13.591 0.690303C13.5345 0.582484 13.4496 0.492206 13.3454 0.42928C13.2412 0.366353 13.1217 0.333183 13 0.333375H1.00002C0.878581 0.333876 0.759578 0.367473 0.655806 0.43055C0.552034 0.493628 0.467421 0.5838 0.411065 0.69137C0.354709 0.79894 0.328742 0.919838 0.335958 1.04106C0.343174 1.16229 0.383299 1.27925 0.452019 1.37937L6.45202 10.046Z" fill="#242424"/>
</svg>
