<svg width="323" height="72" viewBox="0 0 323 72" fill="none" xmlns="http://www.w3.org/2000/svg">
<path d="M42.5302 8.29477C42.7184 8.18097 42.9208 8.09309 43.1321 8.03348L43.2551 7.43382L44.2595 7.41553L44.4045 8.01127C44.6174 8.06426 44.8224 8.14553 45.0142 8.25296L45.5216 7.9172L46.2452 8.62269L45.9306 9.14527C46.0435 9.33471 46.1305 9.5386 46.1895 9.75146L46.7837 9.87557L46.8018 10.8894L46.2115 11.0344C46.1592 11.2494 46.0787 11.4563 45.9721 11.6497L46.3047 12.1632L45.6057 12.8922L45.088 12.5747C44.9003 12.6886 44.6983 12.7764 44.4874 12.836L44.3579 13.4356L43.3534 13.4539L43.2085 12.8582C42.996 12.8052 42.7914 12.7239 42.6001 12.6165L42.0914 12.9523L41.3652 12.2481L41.6797 11.7255C41.567 11.5356 41.4799 11.3313 41.4209 11.118L40.8267 10.9874L40.8086 9.97355L41.3989 9.82723C41.4514 9.61233 41.5319 9.40541 41.6383 9.21189L41.3057 8.69846L42.0124 7.9773L42.5302 8.29477ZM43.0661 9.64564C42.9179 9.8004 42.8185 9.99605 42.7805 10.2078C42.7424 10.4196 42.7675 10.638 42.8524 10.8354C42.9374 11.0328 43.0784 11.2004 43.2577 11.3169C43.437 11.4334 43.6465 11.4937 43.8597 11.49C44.073 11.4864 44.2803 11.419 44.4556 11.2964C44.6309 11.1738 44.7662 11.0015 44.8445 10.8013C44.9227 10.6011 44.9404 10.3819 44.8953 10.1716C44.8501 9.96123 44.7442 9.76911 44.5909 9.61951C44.4889 9.51953 44.3683 9.44087 44.2361 9.38804C44.1039 9.33522 43.9627 9.30928 43.8205 9.31171C43.6784 9.31414 43.5381 9.34489 43.4077 9.40219C43.2773 9.4595 43.1595 9.54223 43.0609 9.64564H43.0661Z" fill="#E0E0E0"/>
<path d="M42.7604 41.9411C42.8688 41.8751 42.9855 41.8241 43.1074 41.7895L43.1785 41.4433L43.7585 41.4329L43.8413 41.7765C43.9643 41.8065 44.0827 41.853 44.1934 41.9149L44.4859 41.7216L44.9027 42.1279L44.728 42.4271C44.7933 42.5365 44.8438 42.6542 44.8781 42.7772L45.2212 42.8491L45.2315 43.4343L44.8911 43.518C44.8613 43.6421 44.8152 43.7616 44.7539 43.8733L44.9454 44.1686L44.5429 44.5892L44.2439 44.4063C44.1352 44.4722 44.0186 44.5235 43.897 44.5592L43.8219 44.9093L43.242 44.9198L43.1591 44.5762C43.0361 44.5462 42.9177 44.4996 42.807 44.4377L42.5145 44.631L42.0977 44.2247L42.2789 43.923C42.2137 43.8133 42.1628 43.6956 42.1275 43.5728L41.7857 43.501L41.7754 42.9157L42.1158 42.8321C42.1456 42.7079 42.1917 42.5884 42.253 42.4767L42.0615 42.1815L42.464 41.7608L42.763 41.9437L42.7604 41.9411ZM43.0698 42.7249C42.9841 42.8143 42.9266 42.9273 42.9045 43.0497C42.8824 43.172 42.8969 43.2982 42.9459 43.4123C42.995 43.5264 43.0765 43.6233 43.1801 43.6906C43.2838 43.7579 43.4049 43.7926 43.5281 43.7904C43.6513 43.7882 43.7711 43.7492 43.8723 43.6782C43.9735 43.6073 44.0516 43.5076 44.0966 43.3918C44.1416 43.276 44.1516 43.1494 44.1253 43.0279C44.099 42.9064 44.0375 42.7955 43.9487 42.7093C43.8904 42.6517 43.8213 42.6063 43.7455 42.5756C43.6698 42.545 43.5888 42.5297 43.5071 42.5307C43.4255 42.5317 43.3449 42.5488 43.2698 42.5813C43.1948 42.6137 43.1268 42.6608 43.0698 42.7197V42.7249Z" fill="#E0E0E0"/>
<path d="M30.1379 11.5204C30.212 11.4752 30.2917 11.4401 30.3748 11.4159L30.424 11.1794H30.8188L30.8784 11.4068C30.9622 11.4283 31.0431 11.4603 31.1191 11.5021L31.3185 11.3715L31.6032 11.6485L31.4738 11.8549C31.5186 11.9296 31.5534 12.01 31.5773 12.094L31.8116 12.1436V12.5355L31.5786 12.593C31.5584 12.6778 31.527 12.7595 31.4854 12.836L31.6149 13.0372L31.3405 13.3246L31.1359 13.194C31.0619 13.2392 30.9822 13.2743 30.8991 13.2985L30.8499 13.535H30.4616L30.4046 13.2998C30.3206 13.2794 30.2396 13.2477 30.1638 13.2057L29.9645 13.3364L29.6797 13.0581L29.8092 12.853C29.7644 12.7783 29.7296 12.6979 29.7056 12.6139L29.4713 12.5643L29.4648 12.1723L29.6965 12.1149C29.7179 12.0302 29.7496 11.9486 29.791 11.8719L29.6616 11.6707L29.936 11.3832L30.1405 11.5139L30.1379 11.5204ZM30.3489 12.0522C30.2906 12.1131 30.2515 12.1902 30.2366 12.2736C30.2217 12.3569 30.2316 12.4429 30.2651 12.5206C30.2985 12.5983 30.3541 12.6643 30.4247 12.7101C30.4953 12.756 30.5778 12.7797 30.6617 12.7782C30.7457 12.7767 30.8273 12.7502 30.8963 12.7019C30.9653 12.6536 31.0186 12.5858 31.0494 12.507C31.0802 12.4282 31.0871 12.3419 31.0694 12.2591C31.0516 12.1762 31.0099 12.1006 30.9496 12.0417C30.9094 12.0026 30.8621 11.9718 30.8102 11.9511C30.7583 11.9305 30.7029 11.9203 30.6471 11.9213C30.5913 11.9223 30.5363 11.9343 30.4851 11.9568C30.434 11.9792 30.3877 12.0116 30.3489 12.0522Z" fill="#E0E0E0"/>
<path d="M49.4602 10.6803C49.6063 10.5912 49.7634 10.5222 49.9275 10.4752L50.0233 10.0088L50.8 9.99438L50.9126 10.4582C51.0786 10.4991 51.2383 10.5624 51.3876 10.6463L51.776 10.385L52.3494 10.9416L52.106 11.3439C52.1946 11.4916 52.263 11.6507 52.3093 11.8169L52.7727 11.9136L52.7856 12.6974L52.3274 12.8111C52.2857 12.9795 52.2221 13.1416 52.1384 13.2932L52.3973 13.6929L51.8549 14.2599L51.4511 14.013C51.3049 14.1018 51.1478 14.1708 50.9838 14.2181L50.8867 14.6845L50.11 14.6989L49.9974 14.2351C49.8297 14.1951 49.6681 14.1323 49.5172 14.0483L49.1289 14.3096L48.5658 13.7622L48.8104 13.3546C48.7224 13.2066 48.654 13.0476 48.6072 12.8816L48.1451 12.785L48.1309 12.0011L48.5904 11.8874C48.631 11.7203 48.6937 11.5595 48.7768 11.4093L48.5179 11.0095L49.0603 10.4425L49.4602 10.6803ZM49.877 11.7254C49.7619 11.846 49.6847 11.9983 49.6554 12.1631C49.626 12.3279 49.6457 12.4978 49.712 12.6513C49.7783 12.8048 49.8882 12.935 50.0279 13.0255C50.1675 13.1159 50.3306 13.1625 50.4965 13.1594C50.6624 13.1563 50.8236 13.1036 50.9598 13.008C51.096 12.9124 51.2011 12.7782 51.2617 12.6223C51.3223 12.4664 51.3358 12.2959 51.3004 12.1323C51.2649 11.9687 51.1822 11.8194 51.0627 11.7032C50.9828 11.6266 50.8887 11.5667 50.7859 11.5269C50.683 11.4871 50.5733 11.4682 50.4632 11.4712C50.353 11.4742 50.2446 11.4992 50.144 11.5446C50.0434 11.59 49.9527 11.655 49.877 11.7359V11.7254Z" fill="#EF0627"/>
<path d="M70.126 30.1595C70.3132 30.0457 70.5148 29.9578 70.7253 29.8982L70.8547 29.2986L71.8579 29.2803L72.0029 29.876C72.216 29.9284 72.4211 30.0097 72.6125 30.1177L73.1187 29.782L73.841 30.4861L73.5277 31.0087C73.6398 31.1985 73.7268 31.4023 73.7866 31.6149L74.3807 31.7455L74.3989 32.758L73.8086 32.9044C73.7567 33.119 73.6761 33.3256 73.5691 33.5184L73.9018 34.0305L73.2054 34.7517L72.6876 34.4342C72.4998 34.5479 72.2978 34.6358 72.087 34.6955L71.9576 35.2952L70.9544 35.3121L70.8094 34.719C70.5969 34.666 70.3923 34.5847 70.201 34.4773L69.6936 34.8131L68.9713 34.1089L69.2859 33.5863C69.1731 33.3973 69.086 33.1939 69.027 32.9814L68.4328 32.8508L68.416 31.8448L69.005 31.6985C69.0575 31.4836 69.138 31.2767 69.2444 31.0832L68.9118 30.5724L69.6095 29.8434L70.1272 30.1608L70.126 30.1595ZM70.6606 31.5091C70.5127 31.6638 70.4137 31.8593 70.376 32.0708C70.3382 32.2824 70.3635 32.5005 70.4485 32.6975C70.5336 32.8946 70.6746 33.0618 70.8537 33.1779C71.0329 33.2941 71.2422 33.3541 71.4551 33.3503C71.668 33.3464 71.8751 33.279 72.05 33.1564C72.2249 33.0338 72.36 32.8617 72.438 32.6617C72.516 32.4617 72.5335 32.2429 72.4883 32.0328C72.4431 31.8228 72.3373 31.631 72.1841 31.4816C72.0824 31.3823 71.9622 31.3041 71.8306 31.2517C71.6989 31.1993 71.5582 31.1736 71.4167 31.1761C71.2751 31.1787 71.1355 31.2094 71.0057 31.2665C70.876 31.3237 70.7587 31.4061 70.6606 31.5091Z" fill="#E0E0E0"/>
<path d="M77.2178 10.4478C77.2186 10.0258 77.1229 9.60932 76.9382 9.23075C76.7535 8.85217 76.4848 8.5217 76.1529 8.26504C75.821 8.00838 75.4349 7.83244 75.0247 7.75091C74.6145 7.66938 74.1912 7.68446 73.7877 7.79497C73.3842 7.90548 73.0113 8.10845 72.6982 8.38808C72.3851 8.66772 72.1401 9.01649 71.9823 9.40726C71.8245 9.79804 71.7581 10.2203 71.7884 10.6412C71.8186 11.062 71.9446 11.4702 72.1566 11.8339L72.1644 11.8444C72.2679 12.0221 72.3987 12.1488 72.5307 12.3343L74.1112 14.4455C74.157 14.5054 74.2159 14.554 74.2832 14.5873C74.3505 14.6207 74.4245 14.6381 74.4995 14.6381C74.5745 14.6381 74.6486 14.6207 74.7159 14.5873C74.7832 14.554 74.842 14.5054 74.8879 14.4455L76.4412 12.3696C76.5823 12.2029 76.7141 12.0285 76.836 11.847L76.8425 11.8391C77.089 11.4177 77.2186 10.9372 77.2178 10.4478ZM74.4995 11.6419C74.263 11.6416 74.0319 11.5706 73.8354 11.4378C73.6389 11.305 73.4858 11.1164 73.3955 10.8958C73.3051 10.6752 73.2816 10.4325 73.3279 10.1984C73.3742 9.96433 73.4882 9.74936 73.6556 9.58067C73.8229 9.41197 74.036 9.29713 74.268 9.25066C74.4999 9.20419 74.7404 9.22817 74.9588 9.31957C75.1773 9.41098 75.364 9.5657 75.4954 9.76419C75.6268 9.96268 75.6969 10.196 75.6969 10.4347C75.6969 10.5934 75.6659 10.7504 75.6057 10.897C75.5455 11.0435 75.4573 11.1767 75.3461 11.2888C75.2349 11.4009 75.1029 11.4898 74.9576 11.5504C74.8124 11.611 74.6567 11.642 74.4995 11.6419Z" fill="#E0E0E0"/>
<path d="M29.3601 49.9325C29.6356 49.7392 29.8487 49.4686 29.9732 49.1541C30.0977 48.8397 30.128 48.4953 30.0604 48.1636C29.883 47.2243 29.0248 46.5959 28.1589 46.7644C27.2929 46.9329 26.722 47.8291 26.8994 48.7698C26.9573 49.1062 27.1128 49.4178 27.3462 49.665C27.5796 49.9122 27.8805 50.084 28.2106 50.1585C25.8522 51.0051 26.4774 53.6494 26.4774 53.6494L32.2285 52.5467C32.2285 52.5467 31.8402 49.8267 29.3601 49.9325Z" fill="#EF0627"/>
<path d="M36.3289 61.2046L35.1509 60.9094C35.1509 60.9094 34.9063 61.9127 33.8682 61.6737C33.6674 61.6313 33.4848 61.5269 33.3456 61.375C33.2064 61.223 33.1176 61.031 33.0915 60.8258C33.067 60.6538 33.0832 60.4785 33.1388 60.3141C33.1944 60.1497 33.2877 60.0009 33.4112 59.8799C33.6934 59.5951 34.2086 59.4004 34.9645 59.7414L35.6234 57.0462L34.452 56.7549L34.0636 58.3344C34.0636 58.3344 32.3174 58.354 31.8722 60.1804C31.445 61.9284 32.8986 62.7201 33.564 62.8847C34.074 63.0115 35.8357 63.3185 36.3289 61.2046Z" fill="#EF0627"/>
<path d="M34.572 56.1969L35.7598 56.4922L36.0332 55.3721L34.8455 55.0768L34.572 56.1969Z" fill="#EF0627"/>
<path d="M81.2446 65.2769C81.2446 65.2952 68.6446 65.3109 53.1063 65.3109C37.568 65.3109 24.9668 65.2899 24.9668 65.2769C24.9668 65.2638 37.5629 65.2429 53.1063 65.2429C68.6498 65.2429 81.2446 65.2573 81.2446 65.2769Z" fill="black"/>
<path d="M28.157 32.3934H30.8611L30.6229 33.6175H25.752L25.9448 32.6442L28.8767 30.3253C29.6016 29.74 29.8229 29.3977 29.8229 28.9705C29.8229 28.5433 29.5006 28.2559 28.8767 28.2559C28.6134 28.2599 28.3542 28.3227 28.1178 28.44C27.8814 28.5572 27.6738 28.7259 27.5098 28.9339L26.5079 28.201C27.0257 27.4864 27.9874 27.0134 29.0968 27.0134C30.4572 27.0134 31.3478 27.7463 31.3478 28.7575C31.3478 29.527 30.9996 30.1763 29.8682 31.0582L28.157 32.3934Z" fill="#263238"/>
<path d="M37.3026 32.2549H36.2464L35.9797 33.6176H34.5274L34.8031 32.2549H31.3379L31.5308 31.2437L35.3183 27.1245H36.9441L33.4154 31.0295H35.106L35.3454 29.8145H36.7331L36.4936 31.0295H37.5511L37.3026 32.2549Z" fill="#263238"/>
<path d="M41.5496 25.8076H42.8919L38.1685 34.5451H36.8301L41.5496 25.8076Z" fill="#263238"/>
<path d="M47.6804 27.1245L47.4875 28.0991L44.0508 33.6176H42.3965L45.6947 28.3487H43.6094L43.3971 29.4069H42.0742L42.526 27.1245H47.6804Z" fill="#263238"/>
<path d="M25.1504 38.7401L25.5271 38.019C25.8628 38.2355 26.2523 38.3518 26.6506 38.3547C27.0182 38.3547 27.2305 38.2385 27.2305 38.0529C27.2305 37.5944 25.5892 37.8478 25.5892 36.7765C25.5892 36.041 26.2118 35.5589 27.2111 35.5589C27.6349 35.5447 28.0548 35.6458 28.4266 35.8516L28.0797 36.5675C27.8011 36.3945 27.48 36.3039 27.1529 36.3062C26.7568 36.3062 26.5445 36.4525 26.5445 36.6381C26.5445 37.1058 28.1858 36.8379 28.1858 37.8896C28.1858 38.6199 27.549 39.102 26.56 39.102C25.9801 39.1046 25.4546 38.9492 25.1504 38.7401Z" fill="#263238"/>
<path d="M29.8878 36.3728L29.7778 36.9476H31.278L31.1343 37.6674H29.6328L29.5111 38.2919H31.2832L31.1278 39.0366H28.416L29.0969 35.6333H31.7414L31.5912 36.3793L29.8878 36.3728Z" fill="#263238"/>
<path d="M34.2063 38.0137L34.781 39.0366H33.7817L33.2795 38.1312H32.798L32.6194 39.0366H31.6641L32.3385 35.6333H33.7817C34.6451 35.6333 35.1422 36.0383 35.1422 36.7203C35.149 37.0098 35.0609 37.2934 34.8917 37.5273C34.7225 37.7611 34.4816 37.9321 34.2063 38.0137ZM33.6471 36.3871H33.1449L32.9468 37.3852H33.5164C33.9371 37.3852 34.183 37.1814 34.183 36.8065C34.1778 36.5191 33.9746 36.3871 33.6471 36.3871Z" fill="#263238"/>
<path d="M39.3302 35.6333L37.219 39.0366H36.278L35.5039 35.6333H36.4838L36.9666 37.8543L38.3465 35.6333H39.3302Z" fill="#263238"/>
<path d="M39.5311 35.6333H40.4877L39.8068 39.0366H38.8516L39.5311 35.6333Z" fill="#263238"/>
<path d="M40.6367 37.6047C40.6367 36.4211 41.5001 35.5588 42.7544 35.5588C43.377 35.5588 43.8844 35.7888 44.1252 36.2016L43.4314 36.7569C43.3539 36.6301 43.244 36.5269 43.1132 36.4579C42.9825 36.3889 42.8357 36.3568 42.6884 36.3649C42.0321 36.3649 41.5972 36.8757 41.5972 37.5473C41.5972 38.0058 41.9066 38.3128 42.423 38.3128C42.5807 38.3136 42.7366 38.2788 42.8792 38.211C43.0219 38.1432 43.1477 38.0441 43.2476 37.9209L43.8119 38.4801C43.4314 38.9438 42.9343 39.1137 42.3311 39.1137C41.2982 39.1045 40.6367 38.4957 40.6367 37.6047Z" fill="#263238"/>
<path d="M45.5213 36.3728L45.41 36.9476H46.9102L46.7704 37.6674H45.265L45.1446 38.2919H46.9154L46.7613 39.0366H44.0547L44.7278 35.6333H47.3723L47.2234 36.3793L45.5213 36.3728Z" fill="#263238"/>
<path d="M28.8254 25.2027H26.9395C26.9395 22.5533 28.0022 19.8463 29.8545 17.769C31.8039 15.586 34.3345 14.384 36.9738 14.384C42.3677 14.384 46.1358 18.3583 46.1358 24.0518H44.2537C44.2537 19.4099 41.3296 16.2914 36.9777 16.2914C32.7113 16.2875 28.8254 20.5361 28.8254 25.2027Z" fill="#407BFF"/>
<path d="M29.8587 24.6737C30.1603 24.6737 30.405 24.7037 30.4037 24.7311C30.4024 24.7586 30.1591 24.7795 29.8587 24.7795C29.5584 24.7795 29.3125 24.7546 29.3125 24.722C29.3125 24.6893 29.5584 24.6684 29.8587 24.6737Z" fill="#263238"/>
<path d="M31.1619 20.5008C31.4208 20.668 31.5955 20.8392 31.567 20.8849C31.5385 20.9306 31.3081 20.8379 31.0493 20.6798C30.7904 20.5217 30.6182 20.348 30.6454 20.2957C30.6726 20.2434 30.9095 20.3349 31.1619 20.5008Z" fill="#263238"/>
<path d="M34.4244 17.6254C34.5473 17.9037 34.6082 18.148 34.5538 18.1689C34.4994 18.1898 34.3609 17.9873 34.2289 17.7142C34.0969 17.4412 34.036 17.1916 34.0995 17.1707C34.1629 17.1498 34.3027 17.3432 34.4244 17.6254Z" fill="#263238"/>
<path d="M38.7226 17.2832C38.6475 17.5785 38.5453 17.8058 38.4948 17.7954C38.4443 17.7849 38.4547 17.5341 38.5194 17.2349C38.5841 16.9357 38.6851 16.7123 38.7472 16.7241C38.8093 16.7358 38.7977 16.9893 38.7226 17.2832Z" fill="#263238"/>
<path d="M42.2314 19.7733C41.9803 19.9405 41.7538 20.0424 41.724 20.0006C41.6942 19.9588 41.869 19.7785 42.1123 19.5995C42.3557 19.4205 42.5835 19.3199 42.6198 19.3722C42.656 19.4245 42.4825 19.6047 42.2314 19.7733Z" fill="#263238"/>
<path d="M43.3867 23.8756C43.0864 23.8756 42.8418 23.852 42.8418 23.8259C42.8418 23.7998 43.0851 23.7737 43.3867 23.7697C43.6884 23.7658 43.9317 23.788 43.933 23.8194C43.9343 23.8507 43.6909 23.8756 43.3867 23.8756Z" fill="#263238"/>
<path d="M36.4617 24.4425C36.3677 24.4431 36.2763 24.4113 36.2028 24.3523L33.0327 21.8701C32.9448 21.8008 32.8878 21.6991 32.8742 21.5874C32.8606 21.4756 32.8916 21.363 32.9602 21.2743C33.0289 21.1856 33.1297 21.1281 33.2404 21.1144C33.351 21.1006 33.4626 21.1319 33.5505 21.2012L36.4422 23.4639L40.4355 19.7628C40.5171 19.6864 40.6253 19.6458 40.7365 19.6499C40.8477 19.6541 40.9527 19.7027 41.0284 19.785C41.1041 19.8673 41.1443 19.9765 41.1402 20.0888C41.136 20.201 41.0879 20.3069 41.0064 20.3833L36.7516 24.3288C36.6728 24.4026 36.5691 24.4432 36.4617 24.4425Z" fill="#407BFF"/>
<path d="M38.612 11.5857H34.9773C34.9208 11.5857 34.875 11.6319 34.875 11.6889V13.0176C34.875 13.0746 34.9208 13.1208 34.9773 13.1208H38.612C38.6685 13.1208 38.7143 13.0746 38.7143 13.0176V11.6889C38.7143 11.6319 38.6685 11.5857 38.612 11.5857Z" fill="#407BFF"/>
<path d="M37.7851 12.3538H35.8008V14.1697H37.7851V12.3538Z" fill="#407BFF"/>
<path d="M28.6033 16.2836L27.1127 18.1467C27.0548 18.2191 27.066 18.3252 27.1377 18.3837L28.1569 19.2143C28.2287 19.2728 28.3338 19.2615 28.3917 19.1891L29.8823 17.3259C29.9403 17.2535 29.9291 17.1474 29.8573 17.0889L28.8381 16.2583C28.7664 16.1998 28.6613 16.2111 28.6033 16.2836Z" fill="#407BFF"/>
<path d="M38.6127 13.1207C38.6127 13.1429 37.7985 13.1599 36.8005 13.1599C35.8025 13.1599 34.9883 13.1429 34.9883 13.1207C34.9883 13.0985 35.8012 13.0815 36.8005 13.0815C37.7998 13.0815 38.6127 13.0998 38.6127 13.1207Z" fill="#263238"/>
<path d="M28.5709 18.8691C28.5502 18.8927 28.2758 18.681 27.9366 18.4236C27.5975 18.1663 27.3218 17.9572 27.3386 17.9311C27.3554 17.905 27.6596 18.0748 28.0027 18.3348C28.3457 18.5948 28.5903 18.8469 28.5709 18.8691Z" fill="#263238"/>
<path d="M28.8867 18.4001C28.8659 18.4237 28.5915 18.212 28.2524 17.9546C27.9133 17.6973 27.6362 17.4882 27.6531 17.4621C27.6699 17.436 27.9754 17.6058 28.3184 17.8671C28.6614 18.1284 28.9061 18.3779 28.8867 18.4001Z" fill="#263238"/>
<path d="M29.2737 18.0068C29.2543 18.0304 28.9798 17.8187 28.6407 17.5613C28.3016 17.304 28.0297 17.0949 28.0414 17.0688C28.053 17.0427 28.3637 17.2125 28.7054 17.4738C29.0471 17.7351 29.2944 17.9846 29.2737 18.0068Z" fill="#263238"/>
<path d="M29.6479 17.5378C29.6284 17.5614 29.3527 17.3497 29.0136 17.0923C28.6745 16.835 28.3987 16.6259 28.4169 16.5998C28.435 16.5737 28.7392 16.7435 29.0809 17.0048C29.4226 17.2661 29.6673 17.5156 29.6479 17.5378Z" fill="#263238"/>
<path d="M45.9205 16.8724L44.316 15.1083C44.2537 15.0397 44.1481 15.0352 44.0801 15.0981L43.1151 15.9922C43.0471 16.0551 43.0426 16.1617 43.105 16.2303L44.7095 17.9944C44.7718 18.063 44.8775 18.0676 44.9454 18.0046L45.9104 17.1106C45.9784 17.0476 45.9829 16.941 45.9205 16.8724Z" fill="#407BFF"/>
<path d="M43.3897 16.4575C43.3703 16.4339 43.6176 16.1962 43.9205 15.8905C44.2234 15.5848 44.468 15.3457 44.4913 15.3679C44.5146 15.3901 44.3036 15.6684 43.9968 15.9715C43.69 16.2746 43.4079 16.4797 43.3897 16.4575Z" fill="#263238"/>
<path d="M43.8039 16.8415C43.7832 16.818 44.0318 16.5802 44.3334 16.2745C44.635 15.9688 44.8822 15.7297 44.9055 15.7519C44.9288 15.7741 44.7165 16.0524 44.411 16.3555C44.1055 16.6586 43.8221 16.8637 43.8039 16.8415Z" fill="#263238"/>
<path d="M44.1301 17.2871C44.1094 17.2635 44.3579 17.0258 44.6595 16.7201C44.9611 16.4143 45.2084 16.1753 45.2317 16.1975C45.255 16.2197 45.0427 16.4967 44.7359 16.7997C44.4291 17.1028 44.1482 17.3093 44.1301 17.2871Z" fill="#263238"/>
<path d="M44.5344 17.7351C44.5137 17.7115 44.7622 17.4738 45.0638 17.1681C45.3654 16.8623 45.6127 16.6233 45.636 16.6455C45.6593 16.6677 45.447 16.946 45.1402 17.2491C44.8334 17.5521 44.5525 17.7533 44.5344 17.7351Z" fill="#263238"/>
<path d="M35.3864 13.1194C35.3566 13.1194 35.332 12.7797 35.332 12.363C35.332 11.9462 35.3566 11.6052 35.3864 11.6052C35.4162 11.6052 35.4421 11.9449 35.4421 12.363C35.4421 12.781 35.4175 13.1194 35.3864 13.1194Z" fill="#263238"/>
<path d="M36.0973 13.1194C36.0676 13.1194 36.043 12.7797 36.043 12.363C36.043 11.9462 36.0676 11.6052 36.0973 11.6052C36.1271 11.6052 36.1517 11.9449 36.1517 12.363C36.1517 12.781 36.1271 13.1194 36.0973 13.1194Z" fill="#263238"/>
<path d="M36.8063 13.1194C36.7765 13.1194 36.752 12.7797 36.752 12.363C36.752 11.9462 36.7765 11.6052 36.8063 11.6052C36.8361 11.6052 36.8607 11.9449 36.8607 12.363C36.8607 12.781 36.8374 13.1194 36.8063 13.1194Z" fill="#263238"/>
<path d="M37.5192 13.1194C37.4881 13.1194 37.4648 12.7797 37.4648 12.363C37.4648 11.9462 37.4881 11.6052 37.5192 11.6052C37.5503 11.6052 37.5736 11.9449 37.5736 12.363C37.5736 12.781 37.549 13.1194 37.5192 13.1194Z" fill="#263238"/>
<path d="M38.2301 13.1194C38.2004 13.1194 38.1758 12.7797 38.1758 12.363C38.1758 11.9462 38.2004 11.6052 38.2301 11.6052C38.2599 11.6052 38.2845 11.9449 38.2845 12.363C38.2845 12.781 38.2547 13.1194 38.2301 13.1194Z" fill="#263238"/>
<path d="M37.2323 24.5518C37.6033 24.1774 37.6033 23.5702 37.2323 23.1957C36.8612 22.8212 36.2597 22.8212 35.8886 23.1957C35.5176 23.5702 35.5176 24.1774 35.8886 24.5518C36.2597 24.9263 36.8612 24.9263 37.2323 24.5518Z" fill="#407BFF"/>
<path d="M37.5094 23.8754C37.5004 23.8754 37.5017 23.7905 37.4615 23.6454C37.404 23.4431 37.2815 23.2657 37.1133 23.1412C36.9785 23.0401 36.8186 22.9789 36.6513 22.9643C36.484 22.9497 36.316 22.9822 36.166 23.0584C36.016 23.1345 35.8899 23.2513 35.8018 23.3955C35.7137 23.5398 35.6671 23.7059 35.6671 23.8754C35.6671 24.0448 35.7137 24.211 35.8018 24.3552C35.8899 24.4995 36.016 24.6162 36.166 24.6924C36.316 24.7685 36.484 24.8011 36.6513 24.7865C36.8186 24.7719 36.9785 24.7106 37.1133 24.6096C37.2812 24.4848 37.4036 24.3075 37.4615 24.1053C37.5017 23.9603 37.5004 23.8754 37.5094 23.8754C37.5185 23.8754 37.5094 23.8963 37.5094 23.9368C37.5115 23.9966 37.5054 24.0564 37.4913 24.1145C37.4448 24.3326 37.3239 24.5273 37.1496 24.6645C37.0193 24.7677 36.8654 24.8359 36.7019 24.8629C36.5385 24.8898 36.371 24.8746 36.215 24.8186C36.0219 24.7496 35.8547 24.6218 35.7364 24.4529C35.6182 24.2839 35.5547 24.0822 35.5547 23.8754C35.5547 23.6686 35.6182 23.4668 35.7364 23.2979C35.8547 23.129 36.0219 23.0012 36.215 22.9321C36.371 22.8763 36.5383 22.8611 36.7017 22.8878C36.865 22.9145 37.0191 22.9823 37.1496 23.085C37.3238 23.2228 37.4447 23.4179 37.4913 23.6363C37.5054 23.6944 37.5115 23.7542 37.5094 23.814C37.5159 23.8519 37.5133 23.8754 37.5094 23.8754Z" fill="#263238"/>
<path d="M69.9999 27.1598L71.6231 26.8985C72.687 27.7649 74.0336 28.1982 75.398 28.1134C76.7624 28.0286 78.0461 27.4317 78.9966 26.4401C79.9471 25.4484 80.4957 24.1338 80.5346 22.7547C80.5734 21.3755 80.0997 20.0316 79.2066 18.987C78.3135 17.9425 77.0655 17.2729 75.708 17.11C74.3506 16.947 72.9818 17.3025 71.8709 18.1064C70.7599 18.9104 69.9871 20.1047 69.7043 21.4546C69.4216 22.8045 69.6494 24.2123 70.343 25.4013L69.9999 27.1598Z" fill="white"/>
<path d="M69.9999 27.1598C69.9999 27.1598 69.9999 27.1232 70.018 27.0487L70.0802 26.7143C70.1358 26.4138 70.2187 25.9735 70.3261 25.3987C70.3264 25.3968 70.3271 25.395 70.3281 25.3935C70.3292 25.3919 70.3305 25.3905 70.3321 25.3895C70.3337 25.3885 70.3355 25.3879 70.3374 25.3877C70.3393 25.3875 70.3412 25.3877 70.3429 25.3883C70.3441 25.3876 70.3455 25.3872 70.3468 25.3872C70.3482 25.3872 70.3495 25.3876 70.3507 25.3883L70.3274 25.4065C69.8642 24.6174 69.6022 23.7245 69.565 22.808C69.5535 22.5228 69.5643 22.2371 69.5973 21.9536C69.6358 21.6501 69.6973 21.3501 69.7812 21.0561C70.0869 19.9902 70.7027 19.0415 71.5487 18.333C72.3948 17.6244 73.4322 17.1885 74.5265 17.0818C75.3851 17.0001 76.2508 17.1239 77.0531 17.4433C77.8553 17.7627 78.5716 18.2687 79.1437 18.92L79.3638 19.1813C79.4324 19.2728 79.4932 19.3681 79.5605 19.4596C79.6884 19.6455 79.8046 19.8392 79.9087 20.0396C79.9657 20.1363 80.0019 20.2435 80.0498 20.3441C80.0977 20.4446 80.1469 20.5452 80.1793 20.6524C80.256 20.8597 80.3196 21.0718 80.3696 21.2873C80.5687 22.1247 80.5753 22.9971 80.389 23.8375C80.1393 24.9303 79.5671 25.921 78.7478 26.6787C77.9285 27.4363 76.9007 27.9252 75.8002 28.0808C75.4979 28.1223 75.1928 28.1402 74.8877 28.1344C74.6044 28.1208 74.3221 28.0903 74.0424 28.043C73.1518 27.8756 72.317 27.4857 71.6141 26.909H71.6257L70.4115 27.0932L70.1022 27.1389L69.9999 27.1533L70.1074 27.1337L70.4193 27.0814L71.6205 26.8802H71.6322C72.3344 27.4475 73.1653 27.8295 74.0502 27.992C74.3277 28.0387 74.6078 28.0679 74.889 28.0795C75.192 28.0845 75.4949 28.0657 75.7951 28.0234C76.8823 27.8646 77.8966 27.378 78.705 26.6273C79.5135 25.8766 80.0784 24.8969 80.3256 23.8166C80.5084 22.9858 80.5009 22.1239 80.3035 21.2965C80.2528 21.084 80.1902 20.8746 80.1159 20.6694C80.0835 20.5635 80.0291 20.4669 79.9864 20.365C79.9437 20.2631 79.9023 20.1598 79.8466 20.0645C79.7441 19.8665 79.6291 19.6753 79.5023 19.4922C79.4376 19.4008 79.3729 19.3067 79.3081 19.2166L79.0907 18.9553C78.5255 18.3119 77.8182 17.8118 77.0259 17.4956C76.2336 17.1794 75.3787 17.056 74.5304 17.1354C73.7794 17.2103 73.052 17.4416 72.394 17.8146C71.7361 18.1877 71.162 18.6944 70.708 19.3028C70.3123 19.835 70.0166 20.4359 69.8355 21.0757C69.7519 21.3667 69.69 21.6637 69.6504 21.964C69.6161 22.2453 69.604 22.5288 69.6142 22.8119C69.6458 23.722 69.8997 24.6102 70.3533 25.3974C70.3557 25.4001 70.3571 25.4036 70.3571 25.4072C70.3571 25.4108 70.3557 25.4143 70.3533 25.417C70.3507 25.4191 70.3475 25.4203 70.3442 25.4203C70.3409 25.4203 70.3377 25.4191 70.3352 25.417L70.3585 25.4092C70.2446 25.9775 70.1565 26.4138 70.0996 26.7156C70.0698 26.8632 70.0465 26.9769 70.031 27.0527C70.0154 27.1284 69.9999 27.1598 69.9999 27.1598Z" fill="#263238"/>
<path d="M76.7168 22.7622C76.7165 22.6512 76.7489 22.5427 76.8098 22.4503C76.8708 22.358 76.9575 22.2859 77.059 22.2434C77.1605 22.2008 77.2723 22.1896 77.3801 22.2111C77.488 22.2327 77.587 22.2861 77.6648 22.3646C77.7425 22.4431 77.7954 22.543 77.8168 22.6519C77.8382 22.7607 77.8271 22.8735 77.7849 22.976C77.7427 23.0785 77.6713 23.166 77.5798 23.2275C77.4883 23.2889 77.3808 23.3216 77.2708 23.3214C77.124 23.321 76.9833 23.262 76.8794 23.1572C76.7756 23.0524 76.7171 22.9104 76.7168 22.7622Z" fill="#263238"/>
<path d="M74.4961 22.7622C74.4958 22.6513 74.5282 22.5428 74.5891 22.4505C74.6499 22.3581 74.7366 22.2861 74.838 22.2435C74.9394 22.2009 75.0511 22.1896 75.1589 22.2111C75.2667 22.2325 75.3658 22.2858 75.4436 22.3641C75.5214 22.4425 75.5744 22.5423 75.5959 22.6511C75.6175 22.7598 75.6066 22.8726 75.5646 22.9751C75.5226 23.0776 75.4514 23.1652 75.3601 23.2268C75.2687 23.2885 75.1613 23.3214 75.0514 23.3214C74.9044 23.3214 74.7633 23.2625 74.6592 23.1577C74.5551 23.0529 74.4964 22.9106 74.4961 22.7622Z" fill="#263238"/>
<path d="M72.2815 23.0419C72.2265 22.9459 72.201 22.8356 72.2082 22.725C72.2154 22.6144 72.2549 22.5084 72.3218 22.4205C72.3886 22.3325 72.4798 22.2666 72.5838 22.2309C72.6878 22.1953 72.8 22.1916 72.9061 22.2203C73.0121 22.249 73.1074 22.3087 73.1798 22.3921C73.2523 22.4754 73.2986 22.5786 73.3129 22.6885C73.3272 22.7984 73.309 22.9101 73.2604 23.0095C73.2118 23.109 73.1351 23.1916 73.04 23.247C72.9124 23.321 72.7609 23.3409 72.6188 23.3025C72.4766 23.2641 72.3553 23.1704 72.2815 23.0419Z" fill="#263238"/>
<path d="M33.5049 42.8191C33.1645 42.6558 32.5911 42.3148 32.2364 42.1816C31.8858 42.0302 31.4947 42.0035 31.1271 42.1058C30.9187 42.1764 30.7103 42.3449 30.709 42.567L32.1005 43.603L33.5049 43.2294V42.8191Z" fill="#FF9A6C"/>
<path d="M31.9804 42.8047C31.9804 42.8047 29.4809 42.2573 29.0641 42.0417C28.6473 41.8262 26.4752 40.7288 26.1115 40.7288C25.7478 40.7288 25.4371 40.828 25.3711 41.1939L25.8461 41.5662L25.907 41.7569L26.7199 42.1841L26.8636 42.4533L28.9346 43.569C28.9346 43.569 31.1067 44.6821 31.4691 44.7448C31.8316 44.8075 33.6412 44.9603 34.4152 45.6253L37.5219 44.3372C37.5219 44.3372 36.6248 43.0516 35.9336 42.7342C35.3175 42.452 34.2832 42.452 33.5596 42.7511L31.9804 42.8047Z" fill="#FFBF9D"/>
<path d="M34.0586 44.9093C34.0586 44.9093 38.0131 53.6129 38.6499 55.3609C38.6499 55.3609 43.0704 54.6267 43.2218 52.151L37.5264 44.3123L34.0586 44.9093Z" fill="#FFBF9D"/>
<path d="M30.3869 43.002C30.3869 43.002 30.3714 43.002 30.3442 43.002C30.3038 42.9979 30.2638 42.9896 30.2251 42.9772C30.0833 42.9336 29.9456 42.8777 29.8135 42.81C29.6452 42.7277 29.4497 42.6192 29.2349 42.4977C29.1274 42.4376 29.0148 42.3736 28.897 42.3122C28.7792 42.2508 28.6511 42.1972 28.5203 42.1398C28.2783 42.0291 28.0282 41.9374 27.7722 41.8654C27.5379 41.8066 27.3126 41.7622 27.1431 41.8197C27.0773 41.8463 27.0176 41.8862 26.9678 41.937C26.9179 41.9877 26.8789 42.0483 26.8531 42.1149C26.834 42.1658 26.812 42.2156 26.7871 42.2639C26.7871 42.2639 26.7871 42.2482 26.7936 42.2221C26.8022 42.182 26.8139 42.1427 26.8285 42.1045C26.8514 42.0435 26.8823 41.986 26.9204 41.9333C26.9708 41.8614 27.041 41.806 27.1224 41.774C27.2227 41.74 27.3293 41.7293 27.4343 41.7426C27.5517 41.7543 27.6681 41.7748 27.7825 41.804C28.044 41.8735 28.2994 41.9644 28.5462 42.0757C28.6757 42.1332 28.8051 42.1868 28.9255 42.2508C29.0459 42.3148 29.1572 42.3815 29.2646 42.4429C29.4782 42.567 29.6698 42.6793 29.8342 42.7655C29.9616 42.8358 30.0935 42.8973 30.229 42.9498C30.33 42.9876 30.3869 42.9955 30.3869 43.002Z" fill="#FF9A6C"/>
<path d="M28.0026 41.7504C27.8807 41.7255 27.7627 41.6842 27.6518 41.6276C27.3848 41.5004 27.1103 41.39 26.8298 41.297C26.6763 41.2532 26.516 41.2394 26.3573 41.2565C26.2941 41.2585 26.2318 41.2734 26.1744 41.3003C26.117 41.3273 26.0656 41.3657 26.0234 41.4133C25.9728 41.4841 25.9395 41.5661 25.9263 41.6524C25.9251 41.6859 25.9186 41.719 25.9069 41.7504C25.9008 41.7171 25.9008 41.683 25.9069 41.6498C25.9117 41.5565 25.9412 41.4663 25.9923 41.3885C26.0319 41.334 26.0833 41.2894 26.1425 41.2578C26.2102 41.2253 26.2828 41.2046 26.3573 41.1964C26.5243 41.1752 26.6938 41.1881 26.8557 41.2343C27.1402 41.3264 27.4157 41.4445 27.679 41.5871C27.7896 41.6356 27.8977 41.6901 28.0026 41.7504Z" fill="#FF9A6C"/>
<path d="M34.2428 42.5578C34.2428 42.5578 34.2078 42.5787 34.1418 42.6023C34.0471 42.6368 33.9508 42.6664 33.8532 42.6911C33.5318 42.7755 33.2024 42.825 32.8707 42.8387C32.539 42.8532 32.2067 42.833 31.8792 42.7786C31.7497 42.7564 31.6539 42.7342 31.5853 42.7146C31.5486 42.709 31.5131 42.6971 31.4805 42.6793C31.4805 42.6689 31.6358 42.6989 31.8869 42.7303C32.2123 42.7709 32.5405 42.7845 32.8681 42.7708C33.1959 42.7537 33.5219 42.71 33.8428 42.6402C34.0823 42.5931 34.2337 42.5487 34.2428 42.5578Z" fill="#FF9A6C"/>
<path d="M71.0622 37.3908L65.3098 36.1889L63.8859 35.1111L56.2876 36.59C56.1659 36.8147 54.9349 38.5497 54.9349 38.5497L51.9422 39.5752C50.6703 39.9125 49.535 40.6435 48.6958 41.6655C47.8979 42.6602 47.2441 43.7643 46.7542 44.9447C45.408 48.1338 43.465 51.818 43.465 51.818L42.247 49.8374L37.1133 52.2778C37.1133 52.2778 40.1202 58.3959 41.1156 59.2699C42.2224 60.2406 44.7672 60.353 46.5264 58.5422C47.5865 57.4501 50.6504 53.1335 51.2885 52.0531L52.2361 56.5708L53.1072 61.7274L51.6989 65.277H72.2544L71.4039 61.922C71.4039 61.922 72.2414 53.178 72.4731 51.5501C73.0181 47.7105 71.0622 37.3908 71.0622 37.3908Z" fill="#407BFF"/>
<path d="M71.0608 37.3909C71.0608 37.3909 75.177 38.5562 76.0831 42.6859C76.632 45.1878 78.496 52.3197 79.1522 58.1908C79.5406 61.6817 79.5302 64.9073 79.5406 65.277H73.2237L70.5469 38.5562L71.0608 37.3909Z" fill="#407BFF"/>
<path d="M60.504 40.9366C60.504 40.9366 60.504 40.9523 60.4872 40.9797L60.429 41.0999C60.3772 41.2057 60.2995 41.3612 60.2154 41.5585C60.0329 41.9504 59.818 42.5318 59.4711 43.1811L59.4543 43.2137L59.4258 43.1889C58.9986 42.8218 58.5352 42.3802 58.0563 41.9034C57.2084 41.0542 56.4654 40.2638 55.9166 39.7033L55.2629 39.0409L55.083 38.862C55.0611 38.8422 55.0412 38.8203 55.0234 38.7966C55.0484 38.8125 55.0715 38.8314 55.092 38.8528L55.2784 39.0226C55.4389 39.1716 55.6668 39.3924 55.9477 39.6693C56.5056 40.222 57.255 41.0071 58.1003 41.855C58.5792 42.3319 59.04 42.7695 59.462 43.1432L59.4154 43.151C59.7649 42.5109 59.9876 41.9321 60.1791 41.5428C60.2736 41.3455 60.3526 41.194 60.4095 41.0908C60.4354 41.045 60.4574 41.0058 60.4756 40.9758C60.4836 40.9617 60.4932 40.9486 60.504 40.9366Z" fill="black"/>
<path d="M65.3906 36.3364C65.3902 36.3673 65.3863 36.3979 65.379 36.4279C65.366 36.4932 65.3505 36.5794 65.3311 36.6892C65.2845 36.9139 65.2016 37.2379 65.0955 37.6324C64.8716 38.4163 64.5091 39.4993 64.06 40.6686C63.8231 41.2879 63.5901 41.8732 63.3726 42.3918L63.3558 42.4323L63.3234 42.4036C62.7371 41.881 62.2115 41.4695 61.8556 41.1638C61.6769 41.0109 61.5371 40.8881 61.4426 40.8019L61.3378 40.7026C61.3132 40.6791 61.3015 40.6673 61.3028 40.666C61.3177 40.6739 61.3316 40.6835 61.3443 40.6947L61.4556 40.7875L61.8788 41.135C62.2426 41.4329 62.772 41.8366 63.3649 42.3565L63.3157 42.3683C63.5292 41.8457 63.7609 41.263 63.9965 40.6451C64.4405 39.4693 64.8094 38.4045 65.0437 37.6194C65.1602 37.2274 65.2457 36.906 65.3026 36.6826C65.3272 36.5768 65.3479 36.4919 65.3634 36.4213C65.3704 36.3924 65.3795 36.364 65.3906 36.3364Z" fill="black"/>
<path d="M52.074 55.992C52.0686 55.9831 52.0646 55.9734 52.0623 55.9632L52.0351 55.8744C52.0118 55.7873 51.9795 55.6723 51.9381 55.5295C51.8941 55.3806 51.8513 55.1964 51.7996 54.9821C51.7478 54.7678 51.6921 54.5222 51.6365 54.2505C51.3501 52.833 51.1487 51.3994 51.0333 49.9575C50.887 48.2683 50.8546 46.7332 50.8624 45.624C50.8624 45.0688 50.8766 44.6193 50.8922 44.3097C50.8999 44.1582 50.9051 44.0393 50.909 43.9518C50.909 43.9152 50.909 43.8838 50.9155 43.859C50.9141 43.8486 50.9141 43.838 50.9155 43.8276C50.9165 43.8385 50.9165 43.8494 50.9155 43.8603V43.9531C50.9155 44.0406 50.9155 44.1595 50.9155 44.3097C50.9155 44.6207 50.9051 45.0688 50.9077 45.624C50.9077 46.7319 50.9517 48.2656 51.098 49.951C51.2144 51.3907 51.4089 52.823 51.6805 54.2413C51.7335 54.5131 51.7827 54.7639 51.8332 54.973C51.8837 55.182 51.9212 55.374 51.9627 55.523L52.0481 55.8705L52.0675 55.9606C52.074 55.9815 52.0753 55.992 52.074 55.992Z" fill="black"/>
<path d="M71.4043 41.9712C71.412 41.9825 71.4181 41.9948 71.4224 42.0078C71.4341 42.0352 71.4496 42.0705 71.4677 42.1149C71.5091 42.2142 71.5648 42.354 71.6373 42.5304C71.6735 42.6218 71.7163 42.7211 71.7577 42.8321L71.8806 43.1979C71.9247 43.3286 71.9713 43.471 72.0217 43.6199C72.0722 43.7689 72.1059 43.9322 72.1512 44.1007C72.5395 45.445 72.7337 47.3903 72.6224 49.5185C72.511 51.6468 72.2625 53.5685 72.1046 54.9482C72.0256 55.638 71.9609 56.1984 71.9156 56.5904C71.8936 56.7798 71.8755 56.93 71.8625 57.0359L71.847 57.1521C71.8461 57.1655 71.8434 57.1786 71.8392 57.1913C71.8375 57.1783 71.8375 57.1651 71.8392 57.1521L71.8483 57.0346C71.8586 56.9274 71.8729 56.7733 71.8897 56.5877C71.926 56.1958 71.9829 55.6366 72.0567 54.9429C72.1978 53.5555 72.436 51.6402 72.5499 49.5159C72.6638 47.3916 72.4722 45.4568 72.1007 44.1125L71.9713 43.6317L71.8418 43.211C71.8004 43.0804 71.7616 42.9563 71.7253 42.8439C71.6891 42.7315 71.6451 42.6309 71.6101 42.5395C71.5428 42.3605 71.491 42.2207 71.4522 42.1201C71.4367 42.0744 71.4237 42.0391 71.4134 42.0104C71.4084 41.9979 71.4053 41.9846 71.4043 41.9712Z" fill="black"/>
<path d="M43.4967 56.2664C43.4784 56.2664 43.4562 55.2709 43.4483 54.0454C43.4405 52.82 43.4483 51.8245 43.4679 51.8245C43.4875 51.8245 43.5084 52.82 43.5163 54.0454C43.5241 55.2709 43.5163 56.2664 43.4967 56.2664Z" fill="black"/>
<path d="M62.1771 62.2957V62.2408C62.1771 62.2016 62.1875 62.1494 62.1953 62.0814C62.2134 61.9377 62.238 61.7326 62.2703 61.4687C62.2872 61.3381 62.3053 61.1878 62.326 61.0271C62.3467 60.8664 62.3622 60.6888 62.3817 60.5045C62.4192 60.1257 62.471 59.6958 62.5111 59.2177C62.5305 58.9799 62.5499 58.7291 62.5719 58.4691C62.594 58.2091 62.6043 57.9374 62.6211 57.6565C62.66 57.0947 62.6768 56.4924 62.6988 55.8601C62.7273 54.5942 62.7234 53.2015 62.6587 51.7422C62.5939 50.2829 62.4619 48.8954 62.3156 47.6373C62.2341 47.0089 62.1629 46.4119 62.071 45.8566C62.0283 45.5784 61.9907 45.3092 61.9416 45.0519C61.8924 44.7945 61.8522 44.5476 61.8121 44.3111C61.7332 43.8395 61.6425 43.4162 61.5688 43.0425C61.5312 42.8557 61.4976 42.682 61.4652 42.52C61.4328 42.358 61.3979 42.2156 61.3681 42.0849L61.2387 41.4826C61.2257 41.416 61.2141 41.3638 61.2063 41.3259C61.1986 41.288 61.1973 41.271 61.1973 41.271C61.2038 41.288 61.209 41.3054 61.2128 41.3233L61.2529 41.4787L61.3966 42.0797L61.4989 42.5134C61.5325 42.6728 61.5688 42.8453 61.6089 43.036C61.6853 43.4083 61.7798 43.8316 61.8613 44.3033C61.9045 44.5393 61.9476 44.7862 61.9907 45.044C62.0373 45.3053 62.0749 45.5666 62.1202 45.8488C62.2134 46.4053 62.2872 47.0024 62.3713 47.6308C62.5202 48.8902 62.647 50.279 62.7195 51.7396C62.792 53.2002 62.7868 54.5955 62.7545 55.8627C62.7299 56.4964 62.7117 57.0986 62.6703 57.6604C62.6522 57.9413 62.6393 58.213 62.6173 58.4743C62.5952 58.7356 62.5719 58.9851 62.5512 59.2242C62.515 59.7024 62.4593 60.1387 62.4218 60.5098C62.3998 60.6992 62.3791 60.8756 62.361 61.0323C62.3428 61.1891 62.3182 61.3407 62.2988 61.4739C62.2613 61.7352 62.2315 61.9416 62.2121 62.084L62.1875 62.2434C62.1855 62.2611 62.1821 62.2786 62.1771 62.2957Z" fill="black"/>
<path d="M64.9141 48.1938H64.94L65.0215 48.1847L65.3386 48.1481L66.5515 48.0175L70.8684 47.5654H70.9008V47.5981C70.9331 48.9163 70.972 50.4083 71.0121 51.9904V52.0047L71.003 52.0139L70.4853 52.5796L68.598 54.615L68.5812 54.6333L68.5592 54.6216L65.3788 53.0277L65.3645 53.0212V53.0094C65.226 51.5527 65.1056 50.3482 65.0319 49.5029C64.993 49.0874 64.9633 48.7608 64.9425 48.5348C64.9335 48.4264 64.9257 48.3428 64.9205 48.2814C64.9154 48.22 64.9205 48.1978 64.9205 48.1978C64.9205 48.1978 64.9205 48.2291 64.9322 48.2866C64.9438 48.3441 64.949 48.4342 64.962 48.5479C64.9853 48.7765 65.0202 49.1044 65.0655 49.5225C65.1522 50.3612 65.2752 51.5592 65.4254 53.0081L65.4098 52.9859L68.5941 54.5706L68.5566 54.5771L70.44 52.5339L70.9577 51.9695L70.9487 51.993C70.9111 50.4109 70.8749 48.9202 70.8438 47.6007L70.8775 47.6294L66.5735 48.0449L65.3529 48.1599L65.028 48.1886L64.9438 48.1964L64.9141 48.1938Z" fill="black"/>
<path d="M70.9086 49.1136C70.8353 49.1342 70.7604 49.1486 70.6847 49.1567C70.5397 49.1802 70.33 49.2103 70.0698 49.2443C69.5521 49.3109 68.8285 49.388 68.0324 49.465L65.9924 49.6662L65.375 49.7316C65.3001 49.7437 65.2243 49.7494 65.1484 49.7485C65.2218 49.728 65.2967 49.7136 65.3724 49.7054C65.5174 49.6819 65.727 49.6519 65.9872 49.6179C66.505 49.5513 67.2286 49.4742 68.0259 49.3971L70.0647 49.1959L70.6821 49.1306C70.757 49.1184 70.8328 49.1128 70.9086 49.1136Z" fill="black"/>
<g opacity="0.3">
<path d="M72.1584 54.2518L72.3758 56.9209C72.8561 54.6346 73.6107 52.1772 73.4929 49.8438C73.3751 47.5105 73.1577 45.2778 71.8555 43.1653C72.4216 44.7558 72.6813 46.4409 72.6205 48.1298C72.5014 50.8603 72.1584 54.2518 72.1584 54.2518Z" fill="black"/>
</g>
<path d="M42.6427 49.2834C42.5728 49.1226 42.4491 48.9917 42.2932 48.9137C42.112 48.851 41.9153 48.9398 41.7431 49.026L37.0469 51.3855C36.7376 51.541 36.3997 51.7252 36.2858 52.0518C36.1369 52.4698 36.4152 52.9114 36.6741 53.2707C37.1065 53.8704 37.6242 54.5236 38.3569 54.6085L42.3968 51.8127C42.89 51.7395 43.1967 51.1843 43.1734 50.6813C43.1501 50.1783 42.8939 49.7198 42.6427 49.2834Z" fill="#407BFF"/>
<path d="M43.1501 50.9923C43.1381 51.0091 43.1242 51.0245 43.1087 51.038L42.9792 51.1595C42.8679 51.264 42.7035 51.4116 42.4977 51.5893C42.0848 51.946 41.4984 52.4202 40.8149 52.9036C40.1315 53.387 39.5063 53.7855 39.0312 54.0546C38.7956 54.1918 38.6028 54.2989 38.4681 54.3694L38.3128 54.4491C38.2766 54.4674 38.2572 54.4753 38.2559 54.4727C38.2708 54.4584 38.2878 54.4465 38.3063 54.4374L38.4552 54.3459L39.0066 54.0128C39.4713 53.7306 40.1043 53.3256 40.78 52.8435C41.4557 52.3614 42.0459 51.895 42.4627 51.5488L42.9585 51.1347L43.088 51.0236C43.132 51.0027 43.1488 50.9897 43.1501 50.9923Z" fill="black"/>
<g opacity="0.3">
<path d="M65.3293 36.6357C64.7766 38.4883 64.0025 40.5838 63.3488 42.3841C62.7922 41.9073 62.013 41.2762 61.4551 40.7981C61.9352 41.7595 62.5117 42.6687 63.1754 43.5116C63.253 43.6096 63.3566 43.7167 63.477 43.6932C63.5974 43.6697 63.6517 43.5442 63.6931 43.4319L64.7119 40.7106C65.1882 39.4381 65.6477 37.9539 65.3293 36.6357Z" fill="black"/>
</g>
<path d="M56.5905 16.4811C58.2732 15.9925 59.8472 16.4811 61.3993 17.2937C62.9513 18.1063 64.203 19.4481 65.0133 21.0093C65.8676 22.6541 66.2456 24.5706 65.9362 26.401C65.6269 28.2313 64.6017 29.9558 63.0665 30.9736C60.9682 32.3688 58.0765 32.2957 55.9161 31.0036C53.7557 29.7115 52.3331 27.3299 51.9564 24.8228C51.6975 23.0957 51.9072 21.2745 52.7059 19.7276C53.5046 18.1808 54.9168 16.9266 56.5892 16.4798" fill="#263238"/>
<path d="M62.1147 21.7971C61.7898 21.1661 61.804 20.4175 61.6267 19.7277C61.2383 18.2109 59.8662 17.1148 58.3751 16.6771C56.9887 16.2682 55.3849 16.5752 53.8446 17.2781C52.7909 17.7601 51.8317 18.4996 51.2026 19.4794C50.7912 20.1362 50.5413 20.8827 50.4737 21.6568C50.4062 22.4308 50.5229 23.21 50.8143 23.9292L58.5019 21.8885C59.3019 22.4111 60.1212 22.9507 61.0467 23.195C61.316 23.2791 61.6021 23.2921 61.8778 23.2329C62.0146 23.2002 62.1392 23.1285 62.2367 23.0264C62.3343 22.9242 62.4006 22.7959 62.4279 22.6567C62.4603 22.3458 62.2557 22.0727 62.1147 21.7971Z" fill="#263238"/>
<path d="M63.9505 35.5551L61.9662 21.469C61.8782 20.8027 61.5779 20.1233 60.9138 20.1547L53.9239 19.4753C51.7337 19.5772 50.706 22.4802 50.9001 24.6789C51.1163 27.1272 51.4748 30.1072 52.0327 31.8735C53.155 35.4232 55.9885 35.4597 55.9885 35.4597C55.9885 35.4597 56.1607 36.1652 56.3768 37.4847L60.9073 40.5262L63.9505 35.5551Z" fill="#FFBF9D"/>
<path d="M52.588 27.3585C52.6054 27.4803 52.6692 27.5905 52.766 27.6654C52.8627 27.7403 52.9847 27.7741 53.1057 27.7596C53.1653 27.7553 53.2234 27.7391 53.2766 27.7118C53.3298 27.6845 53.377 27.6467 53.4155 27.6007C53.454 27.5546 53.483 27.5013 53.5007 27.4438C53.5184 27.3862 53.5245 27.3257 53.5187 27.2658C53.501 27.144 53.4371 27.0339 53.3404 26.9588C53.2438 26.8838 53.1221 26.8495 53.0009 26.8634C52.9414 26.868 52.8833 26.8845 52.8302 26.912C52.7771 26.9395 52.7299 26.9774 52.6915 27.0235C52.653 27.0696 52.6241 27.1229 52.6063 27.1805C52.5885 27.238 52.5823 27.2985 52.588 27.3585Z" fill="#263238"/>
<path d="M51.7749 26.124C51.8409 26.1762 52.1516 25.8627 52.6499 25.7856C53.1483 25.7085 53.5496 25.9058 53.5949 25.8353C53.6169 25.8039 53.5418 25.7046 53.3658 25.6106C53.1276 25.4939 52.8597 25.4538 52.5982 25.4956C52.3392 25.5344 52.0993 25.6557 51.9134 25.8418C51.7775 25.9829 51.7425 26.0966 51.7749 26.124Z" fill="#263238"/>
<path d="M57.1876 26.6033C57.2047 26.7254 57.2684 26.8358 57.3652 26.9111C57.462 26.9863 57.5841 27.0202 57.7054 27.0057C57.7649 27.0015 57.823 26.9852 57.8762 26.9579C57.9294 26.9306 57.9766 26.8928 58.0151 26.8468C58.0536 26.8008 58.0826 26.7474 58.1003 26.6899C58.118 26.6324 58.1241 26.5718 58.1183 26.5119C58.1012 26.3898 58.0374 26.2794 57.9407 26.2041C57.8439 26.1289 57.7218 26.095 57.6005 26.1095C57.541 26.1139 57.483 26.1303 57.4299 26.1576C57.3768 26.185 57.3296 26.2228 57.2911 26.2688C57.2527 26.3148 57.2237 26.368 57.2059 26.4255C57.1881 26.483 57.1819 26.5434 57.1876 26.6033Z" fill="#263238"/>
<path d="M56.5069 25.4591C56.5729 25.5114 56.8849 25.1978 57.3819 25.1207C57.879 25.0437 58.2815 25.2409 58.3268 25.1704C58.3489 25.139 58.2738 25.0397 58.0977 24.9457C57.8592 24.8288 57.5908 24.7886 57.3288 24.8307C57.0666 24.8697 56.8238 24.9929 56.6363 25.1821C56.5069 25.3128 56.4719 25.4434 56.5069 25.4591Z" fill="#263238"/>
<path d="M55.4357 29.4658C55.4357 29.437 55.116 29.4305 54.606 29.4435C54.4765 29.4435 54.3471 29.4435 54.3173 29.3586C54.2875 29.2737 54.3057 29.1248 54.3445 28.9667C54.417 28.6383 54.4933 28.2939 54.5736 27.9333C54.8843 26.4622 55.0914 25.2616 55.0305 25.2498C54.9697 25.2381 54.672 26.4256 54.36 27.8889C54.2862 28.2508 54.215 28.597 54.149 28.9275C54.1231 29.0804 54.0649 29.258 54.1594 29.4396C54.1842 29.4823 54.2185 29.5186 54.2596 29.5456C54.3007 29.5726 54.3475 29.5895 54.3963 29.5951C54.4693 29.6051 54.5433 29.6051 54.6163 29.5951C55.125 29.5402 55.4383 29.4932 55.4357 29.4658Z" fill="#263238"/>
<path d="M55.9883 35.4598C57.6902 35.2237 59.2937 34.5149 60.6197 33.4126C60.6197 33.4126 59.4897 36.2672 56.2187 36.5546L55.9883 35.4598Z" fill="#FF9A6C"/>
<path d="M55.8282 30.6444C55.9046 30.5096 56.0137 30.3966 56.1453 30.3162C56.2769 30.2357 56.4266 30.1904 56.5803 30.1845C56.692 30.178 56.8039 30.1944 56.9091 30.2328C57.0144 30.2712 57.1108 30.3308 57.1926 30.4079C57.2717 30.4815 57.3266 30.5778 57.3497 30.6839C57.3729 30.79 57.3632 30.9007 57.322 31.001C57.2172 31.2114 56.9427 31.2989 56.6955 31.2623C56.4478 31.2147 56.212 31.1179 56.0017 30.9775C55.939 30.9451 55.8832 30.9007 55.8373 30.8469C55.8147 30.8221 55.8 30.7911 55.7949 30.7578C55.7899 30.7246 55.7947 30.6905 55.8088 30.66" fill="#FF9A6C"/>
<path d="M56.9515 29.5873C56.8687 29.5951 56.9515 30.1412 56.5463 30.5985C56.1412 31.0557 55.56 31.0858 55.5665 31.1615C55.5665 31.1981 55.7114 31.2478 55.9548 31.2177C56.272 31.1733 56.5635 31.0174 56.778 30.7774C56.9839 30.5475 57.093 30.2458 57.0822 29.9361C57.068 29.7048 56.9877 29.5794 56.9515 29.5873Z" fill="#263238"/>
<path d="M56.3653 23.9592C56.4352 24.0899 56.9219 23.9475 57.516 23.9279C58.1102 23.9083 58.6072 23.9971 58.6655 23.8626C58.6914 23.7986 58.5904 23.6836 58.3794 23.5804C58.1009 23.4576 57.7984 23.4004 57.4947 23.4131C57.1911 23.4258 56.8943 23.508 56.6268 23.6535C56.4261 23.7737 56.3342 23.8978 56.3653 23.9592Z" fill="#263238"/>
<path d="M51.5888 23.9069C51.6936 24.0075 52.0185 23.8364 52.4301 23.7671C52.8418 23.6979 53.2068 23.7266 53.2638 23.5947C53.2909 23.5307 53.2184 23.4261 53.0502 23.3412C52.8258 23.2437 52.5778 23.2155 52.3375 23.2601C52.0972 23.3048 51.8754 23.4203 51.7001 23.5921C51.5693 23.7319 51.5396 23.8573 51.5888 23.9069Z" fill="#263238"/>
<path d="M63.2485 20.5912C62.3061 18.5741 58.8966 16.0696 56.7323 16.5177L53.5234 19.0993C53.7161 19.685 54.062 20.2074 54.5245 20.6112C54.987 21.015 55.549 21.2853 56.1511 21.3934C56.7919 21.5005 57.5426 21.4522 57.9801 21.9382C58.4177 22.4242 58.3128 23.2603 58.7361 23.7763C59.3225 24.4923 60.6376 24.278 61.1114 25.0749C61.3198 25.4225 61.2952 25.8745 61.5075 26.2194C61.7922 26.678 63.0983 27.1339 63.5785 26.9014C64.0588 26.6688 63.95 25.8013 64.0549 25.3219C64.2348 24.5053 64.064 24.1173 63.9138 23.694C63.563 22.6907 63.6989 21.5528 63.2485 20.5912Z" fill="#263238"/>
<path d="M62.1435 27.5336C62.1034 27.2619 62.317 26.576 62.5759 26.4885C63.2671 26.269 64.5525 26.1292 64.8385 27.9426C65.2269 30.4248 62.6846 30.3059 62.6678 30.2354C62.651 30.1648 62.2833 28.4664 62.1435 27.5336Z" fill="#FFBF9D"/>
<path d="M63.2697 29.1772C63.28 29.1667 63.3176 29.2007 63.3991 29.2216C63.5077 29.2499 63.6231 29.2339 63.7201 29.1772C63.9635 29.04 64.1162 28.5893 64.058 28.1398C64.0305 27.9265 63.9562 27.7221 63.8405 27.5415C63.8054 27.4677 63.753 27.4036 63.6878 27.3549C63.6226 27.3062 63.5466 27.2743 63.4664 27.2619C63.4152 27.2566 63.3638 27.2696 63.3212 27.2988C63.2785 27.3279 63.2475 27.3713 63.2334 27.4213C63.2114 27.4958 63.2334 27.5428 63.2218 27.5519C63.2101 27.5611 63.1635 27.5193 63.1661 27.4135C63.1704 27.3502 63.196 27.2902 63.2386 27.2436C63.2978 27.1808 63.3792 27.1441 63.4651 27.1417C63.6567 27.1247 63.8535 27.2724 63.9725 27.454C64.1112 27.652 64.2 27.8811 64.2314 28.1216C64.2949 28.6232 64.1149 29.1314 63.7758 29.2974C63.7131 29.3274 63.6446 29.343 63.5752 29.343C63.5057 29.343 63.4372 29.3274 63.3745 29.2974C63.2839 29.232 63.2619 29.1824 63.2697 29.1772Z" fill="#FF9A6C"/>
<path d="M54.1536 18.2645C54.041 19.3096 52.6598 20.7794 52.0825 21.6455C50.9732 23.2982 50.7764 23.8273 51.1674 27.1927C50.4321 26.0992 49.8419 25.0123 49.7435 23.6941C49.6451 22.3759 49.9739 21.008 50.7713 19.9602C51.5686 18.9125 52.8514 18.2226 54.1601 18.2618" fill="#263238"/>
<path d="M60.0175 14.72C60.5353 14.1438 61.2834 13.7689 62.0601 13.5729C63.1668 13.2933 64.3823 13.3691 65.3894 13.8551C66.3964 14.3411 67.1757 15.253 67.3789 16.2982C67.4788 16.8351 67.4318 17.3893 67.243 17.9012C67.0541 18.4132 66.7306 18.8635 66.3071 19.2037C66.883 19.7672 67.585 20.1822 68.3536 20.4135C68.1439 20.7309 67.7569 20.9165 67.3659 20.9831C66.9729 21.0327 66.5752 21.03 66.1828 20.9753C66.4507 21.3791 66.8514 21.6744 67.3142 21.8088C66.6771 21.9572 66.0127 21.9351 65.3868 21.7448C64.7745 21.5575 64.1886 21.2918 63.6432 20.9543C61.7494 19.8452 60.7048 18.8732 59.4259 17.1656C59.2589 16.4288 59.4958 15.2974 60.0175 14.72Z" fill="#263238"/>
<path d="M64.1007 19.9562C62.7105 17.9063 60.941 16.8102 59.3398 16.4692L64.1007 19.9562Z" fill="#263238"/>
<path d="M59.3398 16.4692C59.4132 16.4989 59.489 16.5221 59.5664 16.5385C59.7126 16.5803 59.9236 16.6443 60.1773 16.7423C60.8379 17.0013 61.4589 17.3531 62.0219 17.7874C62.585 18.2207 63.0982 18.7163 63.5519 19.265C63.7228 19.478 63.8613 19.657 63.9506 19.7746C63.9951 19.8412 64.0453 19.9037 64.1007 19.9614C64.0633 19.8899 64.02 19.8217 63.9713 19.7576C63.8885 19.6269 63.7564 19.4506 63.5894 19.235C63.1472 18.6698 62.6376 18.1617 62.0724 17.7221C61.5026 17.2834 60.8696 16.9354 60.1955 16.69C59.9921 16.617 59.7847 16.5564 59.5741 16.5084C59.4972 16.4891 59.4189 16.476 59.3398 16.4692Z" fill="#455A64"/>
<path d="M65.7579 21.7029L65.7268 21.7133L65.6362 21.7499C65.5585 21.7839 65.442 21.8283 65.2893 21.8806C64.8576 22.0264 64.4099 22.1186 63.956 22.1549C63.2832 22.2055 62.6066 22.1615 61.9458 22.0243C61.1364 21.8526 60.3449 21.6037 59.5822 21.2809C58.7667 20.9451 57.9978 20.6002 57.313 20.2619C56.7048 19.9649 56.1194 19.6225 55.5617 19.2376C55.1867 18.977 54.8327 18.6869 54.5028 18.3701C54.3837 18.2591 54.2983 18.1663 54.2439 18.1088L54.1753 18.0396C54.1598 18.0252 54.152 18.0174 54.1507 18.0187C54.1495 18.02 54.1508 18.0278 54.1702 18.0448L54.2336 18.1193C54.2893 18.1846 54.3721 18.28 54.4925 18.395C54.8168 18.721 55.168 19.0186 55.5423 19.2846C56.0981 19.6787 56.6836 20.0282 57.2936 20.3298C57.9797 20.6734 58.7473 21.0209 59.564 21.358C60.3316 21.6817 61.1283 21.9298 61.9432 22.0987C62.6106 22.2332 63.2936 22.271 63.9716 22.2111C64.4248 22.1693 64.871 22.0701 65.2996 21.9158C65.4511 21.857 65.5663 21.8087 65.6427 21.7695L65.7294 21.7264C65.7488 21.7094 65.7592 21.7042 65.7579 21.7029Z" fill="#455A64"/>
<path d="M58.4237 34.0058L58.1895 33.5433C58.2063 33.5341 59.8321 32.6928 60.4573 32.1624C61.9303 30.9134 63.2843 28.9184 63.2986 28.8962L63.7257 29.1902C63.6688 29.2751 62.3187 31.2648 60.79 32.5608C60.1169 33.1278 58.4923 33.9705 58.4237 34.0058Z" fill="#455A64"/>
<path d="M59.6353 32.5623C59.6353 32.5623 57.4141 33.563 57.4141 33.7851C57.4141 34.0072 57.7661 34.4514 58.0302 34.4292C58.2943 34.407 59.058 33.9732 59.1952 33.7955C59.3324 33.6179 59.5758 33.1606 59.8424 32.9385L59.6353 32.5623Z" fill="#263238"/>
<path d="M63.7073 25.8351L63.1895 25.8103C63.2083 24.3034 62.9511 22.8059 62.4309 21.3932C61.3074 18.472 59.147 16.9042 56.0119 16.7318C55.7267 16.7192 55.441 16.7389 55.1602 16.7906L55.3867 16.5737C55.4964 16.4691 55.6241 16.3855 55.7634 16.3268C55.9543 16.2463 56.1618 16.214 56.3679 16.2327C60.3262 16.5789 62.1151 19.1187 62.9189 21.2194C63.4666 22.6944 63.734 24.2603 63.7073 25.8351Z" fill="#455A64"/>
<path d="M63.4486 30.5869C64.3544 30.5869 65.0887 29.5212 65.0887 28.2065C65.0887 26.8919 64.3544 25.8262 63.4486 25.8262C62.5429 25.8262 61.8086 26.8919 61.8086 28.2065C61.8086 29.5212 62.5429 30.5869 63.4486 30.5869Z" fill="#455A64"/>
<path d="M65.0891 28.2064C65.0875 28.1956 65.0875 28.1846 65.0891 28.1737C65.0891 28.1476 65.0891 28.1163 65.0813 28.0771C65.0755 27.9537 65.063 27.8307 65.0438 27.7086C64.9769 27.2586 64.8033 26.8314 64.5377 26.4636C64.4482 26.3447 64.3448 26.2372 64.2296 26.1435C64.1042 26.0438 63.9628 25.9665 63.8115 25.9149C63.6496 25.8619 63.4782 25.8454 63.3093 25.8666C63.1306 25.8936 62.9595 25.9582 62.807 26.056C62.4839 26.2829 62.2345 26.601 62.0899 26.9705C61.9283 27.3639 61.8451 27.7857 61.8451 28.2116C61.8451 28.6376 61.9283 29.0593 62.0899 29.4528C62.2343 29.8223 62.4838 30.1405 62.807 30.3673C62.9595 30.4651 63.1306 30.5296 63.3093 30.5567C63.4782 30.5772 63.6495 30.5607 63.8115 30.5084C63.9628 30.4568 64.1042 30.3794 64.2296 30.2797C64.3445 30.1857 64.4479 30.0783 64.5377 29.9597C64.8033 29.5918 64.9769 29.1647 65.0438 28.7146C65.0629 28.5926 65.0755 28.4696 65.0813 28.3462C65.0813 28.307 65.0813 28.2756 65.0891 28.2495C65.0874 28.2387 65.0874 28.2277 65.0891 28.2169C65.0911 28.2276 65.0911 28.2387 65.0891 28.2495V28.3462C65.0877 28.4707 65.0791 28.595 65.0632 28.7185C65.0053 29.1767 64.8354 29.6131 64.5687 29.9884C64.4781 30.1115 64.3729 30.2229 64.2555 30.3202C64.1261 30.4258 63.9793 30.5076 63.8219 30.5619C63.6522 30.6181 63.4724 30.6364 63.295 30.6155C63.1077 30.5884 62.9282 30.5216 62.7682 30.4195C62.4333 30.1896 62.1741 29.8638 62.0239 29.4841C61.8573 29.0828 61.7715 28.652 61.7715 28.2169C61.7715 27.7817 61.8573 27.3509 62.0239 26.9496C62.1741 26.5699 62.4333 26.2442 62.7682 26.0142C62.9282 25.9121 63.1077 25.8453 63.295 25.8182C63.4724 25.7973 63.6522 25.8156 63.8219 25.8718C63.9793 25.9262 64.1261 26.008 64.2555 26.1135C64.3732 26.2105 64.4784 26.322 64.5687 26.4453C64.8358 26.8204 65.0057 27.2569 65.0632 27.7152C65.079 27.8382 65.0877 27.9621 65.0891 28.0862V28.1842C65.09 28.1916 65.09 28.199 65.0891 28.2064Z" fill="#263238"/>
<path d="M63.7008 29.5886C64.2778 29.5886 64.7455 28.9101 64.7455 28.0731C64.7455 27.2361 64.2778 26.5576 63.7008 26.5576C63.1239 26.5576 62.6562 27.2361 62.6562 28.0731C62.6562 28.9101 63.1239 29.5886 63.7008 29.5886Z" fill="#455A64"/>
<path d="M64.7458 28.0733C64.7381 28.0733 64.7458 27.9583 64.7083 27.7558C64.665 27.4719 64.5539 27.2029 64.3847 26.9719C64.2696 26.8135 64.1099 26.6938 63.9265 26.6283C63.8246 26.5952 63.7168 26.585 63.6106 26.5983C63.4987 26.6151 63.3915 26.6556 63.2961 26.7172C63.0929 26.86 62.9359 27.0599 62.8443 27.292C62.7419 27.5404 62.6896 27.8069 62.6903 28.0759C62.689 28.345 62.7414 28.6115 62.8443 28.8598C62.9359 29.0919 63.0929 29.2918 63.2961 29.4346C63.3915 29.4961 63.4987 29.5366 63.6106 29.5535C63.7168 29.5668 63.8246 29.5565 63.9265 29.5234C64.1099 29.458 64.2696 29.3382 64.3847 29.1798C64.5539 28.9489 64.665 28.6799 64.7083 28.396C64.7407 28.1935 64.7381 28.0785 64.7458 28.0798C64.7475 28.1072 64.7475 28.1347 64.7458 28.1621C64.7457 28.2416 64.7405 28.321 64.7303 28.3999C64.696 28.693 64.5886 28.9725 64.4183 29.2125C64.2997 29.3818 64.1326 29.5104 63.9394 29.5809C63.8304 29.6183 63.7146 29.6308 63.6003 29.6175C63.479 29.5985 63.363 29.554 63.2598 29.4868C63.0447 29.3395 62.8779 29.1307 62.7809 28.8872C62.6741 28.63 62.6191 28.354 62.6191 28.0752C62.6191 27.7964 62.6741 27.5204 62.7809 27.2633C62.8779 27.0198 63.0447 26.811 63.2598 26.6636C63.3626 26.5967 63.4781 26.5522 63.599 26.533C63.7137 26.5197 63.83 26.5322 63.9394 26.5695C64.1326 26.6401 64.2997 26.7687 64.4183 26.938C64.5886 27.1779 64.696 27.4575 64.7303 27.7506C64.7405 27.8294 64.7457 27.9088 64.7458 27.9883C64.7476 28.0166 64.7476 28.045 64.7458 28.0733Z" fill="#263238"/>
<path d="M63.7742 29.1628C64.1888 29.1628 64.525 28.675 64.525 28.0732C64.525 27.4715 64.1888 26.9836 63.7742 26.9836C63.3596 26.9836 63.0234 27.4715 63.0234 28.0732C63.0234 28.675 63.3596 29.1628 63.7742 29.1628Z" fill="#455A64"/>
<path d="M64.5243 28.0731C64.5178 28.0731 64.5178 27.9908 64.4945 27.8458C64.4612 27.6419 64.3805 27.4489 64.259 27.2827C64.1771 27.1699 64.0634 27.0848 63.9328 27.0384C63.8584 27.0144 63.7795 27.0076 63.7022 27.0187C63.6249 27.0298 63.551 27.0584 63.4862 27.1024C63.2053 27.2892 63.0564 27.6812 63.0551 28.0718C63.0539 28.4624 63.2053 28.8557 63.4862 29.0425C63.551 29.0865 63.6249 29.1151 63.7022 29.1261C63.7795 29.1372 63.8584 29.1305 63.9328 29.1065C64.0634 29.0601 64.1771 28.9749 64.259 28.8622C64.3805 28.6959 64.4612 28.503 64.4945 28.2991C64.5178 28.1541 64.5178 28.0718 64.5243 28.0731C64.5274 28.0926 64.5274 28.1124 64.5243 28.1319C64.525 28.1891 64.522 28.2462 64.5153 28.303C64.492 28.5154 64.4153 28.7182 64.2926 28.8922C64.2052 29.0127 64.0839 29.1038 63.9444 29.1535C63.8649 29.1805 63.7806 29.1898 63.6972 29.181C63.6088 29.1686 63.5241 29.1375 63.4487 29.0895C63.292 28.9825 63.1707 28.8305 63.1005 28.6532C63.0226 28.4671 62.9824 28.2672 62.9824 28.0653C62.9824 27.8633 63.0226 27.6634 63.1005 27.4774C63.1707 27.3 63.292 27.148 63.4487 27.041C63.5241 26.993 63.6088 26.9619 63.6972 26.9495C63.7806 26.9407 63.8649 26.95 63.9444 26.977C64.0839 27.0267 64.2052 27.1178 64.2926 27.2383C64.4153 27.4123 64.492 27.6151 64.5153 27.8275C64.522 27.8843 64.525 27.9414 64.5243 27.9986C64.529 28.0232 64.529 28.0485 64.5243 28.0731Z" fill="#263238"/>
<path d="M126.909 39.817C127.044 39.817 127.152 39.8567 127.231 39.936C127.31 40.0153 127.35 40.118 127.35 40.244V41H120.658V40.573C120.658 40.4843 120.677 40.3933 120.714 40.3C120.751 40.2067 120.81 40.1203 120.889 40.041L124.102 36.814C124.368 36.5433 124.611 36.2843 124.83 36.037C125.049 35.785 125.236 35.533 125.39 35.281C125.544 35.029 125.663 34.7747 125.747 34.518C125.831 34.2567 125.873 33.979 125.873 33.685C125.873 33.391 125.826 33.1343 125.733 32.915C125.64 32.691 125.511 32.5067 125.348 32.362C125.189 32.2173 125 32.11 124.781 32.04C124.562 31.9653 124.326 31.928 124.074 31.928C123.817 31.928 123.582 31.9653 123.367 32.04C123.152 32.1147 122.961 32.2197 122.793 32.355C122.63 32.4857 122.492 32.642 122.38 32.824C122.268 33.006 122.189 33.2067 122.142 33.426C122.086 33.5893 122.009 33.699 121.911 33.755C121.818 33.8063 121.685 33.8203 121.512 33.797L120.861 33.685C120.926 33.2277 121.052 32.824 121.239 32.474C121.43 32.1193 121.668 31.823 121.953 31.585C122.242 31.347 122.571 31.1673 122.94 31.046C123.309 30.92 123.708 30.857 124.137 30.857C124.562 30.857 124.958 30.92 125.327 31.046C125.696 31.172 126.015 31.3563 126.286 31.599C126.557 31.837 126.769 32.1287 126.923 32.474C127.077 32.8193 127.154 33.2113 127.154 33.65C127.154 34.0233 127.098 34.371 126.986 34.693C126.874 35.0103 126.722 35.3137 126.531 35.603C126.34 35.8923 126.118 36.1747 125.866 36.45C125.619 36.7253 125.355 37.003 125.075 37.283L122.429 39.985C122.616 39.9337 122.805 39.894 122.996 39.866C123.187 39.8333 123.372 39.817 123.549 39.817H126.909ZM133.231 37.381V33.244C133.231 33.1227 133.236 32.9897 133.245 32.845C133.254 32.7003 133.268 32.5533 133.287 32.404L129.633 37.381H133.231ZM135.842 37.381V38.095C135.842 38.1697 135.819 38.2327 135.772 38.284C135.73 38.3353 135.662 38.361 135.569 38.361H134.323V41H133.231V38.361H128.779C128.686 38.361 128.604 38.3353 128.534 38.284C128.469 38.228 128.427 38.1603 128.408 38.081L128.282 37.444L133.161 30.969H134.323V37.381H135.842ZM142.064 34.854C142.368 34.532 142.704 34.2753 143.072 34.084C143.441 33.8927 143.866 33.797 144.346 33.797C144.734 33.797 145.074 33.8623 145.368 33.993C145.667 34.119 145.914 34.301 146.11 34.539C146.311 34.7723 146.463 35.0547 146.565 35.386C146.668 35.7173 146.719 36.0837 146.719 36.485V41H145.466V36.485C145.466 35.9483 145.343 35.533 145.095 35.239C144.853 34.9403 144.482 34.791 143.982 34.791C143.614 34.791 143.268 34.8797 142.946 35.057C142.629 35.2343 142.335 35.4747 142.064 35.778V41H140.811V30.689H142.064V34.854ZM149.801 35.33C150.025 34.8447 150.3 34.4667 150.627 34.196C150.954 33.9207 151.353 33.783 151.824 33.783C151.973 33.783 152.116 33.7993 152.251 33.832C152.391 33.8647 152.515 33.916 152.622 33.986L152.531 34.917C152.503 35.0337 152.433 35.092 152.321 35.092C152.256 35.092 152.16 35.078 152.034 35.05C151.908 35.022 151.766 35.008 151.607 35.008C151.383 35.008 151.182 35.0407 151.005 35.106C150.832 35.1713 150.676 35.2693 150.536 35.4C150.401 35.526 150.277 35.6847 150.165 35.876C150.058 36.0627 149.96 36.2773 149.871 36.52V41H148.618V33.909H149.332C149.467 33.909 149.561 33.9347 149.612 33.986C149.663 34.0373 149.698 34.126 149.717 34.252L149.801 35.33ZM157.806 35.078C157.75 35.1807 157.664 35.232 157.547 35.232C157.477 35.232 157.398 35.2063 157.309 35.155C157.221 35.1037 157.111 35.0477 156.98 34.987C156.854 34.9217 156.703 34.8633 156.525 34.812C156.348 34.756 156.138 34.728 155.895 34.728C155.685 34.728 155.496 34.756 155.328 34.812C155.16 34.8633 155.016 34.9357 154.894 35.029C154.778 35.1223 154.687 35.232 154.621 35.358C154.561 35.4793 154.53 35.6123 154.53 35.757C154.53 35.939 154.582 36.0907 154.684 36.212C154.792 36.3333 154.932 36.4383 155.104 36.527C155.277 36.6157 155.473 36.695 155.692 36.765C155.912 36.8303 156.136 36.9027 156.364 36.982C156.598 37.0567 156.824 37.1407 157.043 37.234C157.263 37.3273 157.459 37.444 157.631 37.584C157.804 37.724 157.942 37.8967 158.044 38.102C158.152 38.3027 158.205 38.5453 158.205 38.83C158.205 39.1567 158.147 39.46 158.03 39.74C157.914 40.0153 157.741 40.2557 157.512 40.461C157.284 40.6617 157.004 40.8203 156.672 40.937C156.341 41.0537 155.958 41.112 155.524 41.112C155.03 41.112 154.582 41.0327 154.18 40.874C153.779 40.7107 153.438 40.503 153.158 40.251L153.452 39.775C153.49 39.7143 153.534 39.6677 153.585 39.635C153.637 39.6023 153.702 39.586 153.781 39.586C153.865 39.586 153.954 39.6187 154.047 39.684C154.141 39.7493 154.253 39.8217 154.383 39.901C154.519 39.9803 154.682 40.0527 154.873 40.118C155.065 40.1833 155.303 40.216 155.587 40.216C155.83 40.216 156.042 40.1857 156.224 40.125C156.406 40.0597 156.558 39.9733 156.679 39.866C156.801 39.7587 156.889 39.635 156.945 39.495C157.006 39.355 157.036 39.2057 157.036 39.047C157.036 38.851 156.983 38.69 156.875 38.564C156.773 38.4333 156.635 38.3237 156.462 38.235C156.29 38.1417 156.091 38.0623 155.867 37.997C155.648 37.927 155.422 37.8547 155.188 37.78C154.96 37.7053 154.733 37.6213 154.509 37.528C154.29 37.43 154.094 37.3087 153.921 37.164C153.749 37.0193 153.609 36.842 153.501 36.632C153.399 36.4173 153.347 36.1583 153.347 35.855C153.347 35.5843 153.403 35.3253 153.515 35.078C153.627 34.826 153.791 34.6067 154.005 34.42C154.22 34.2287 154.484 34.077 154.796 33.965C155.109 33.853 155.466 33.797 155.867 33.797C156.334 33.797 156.752 33.8717 157.12 34.021C157.494 34.1657 157.816 34.3663 158.086 34.623L157.806 35.078ZM170.651 38.928C170.726 38.928 170.791 38.9583 170.847 39.019L171.386 39.6C170.975 40.076 170.476 40.447 169.888 40.713C169.305 40.979 168.598 41.112 167.767 41.112C167.048 41.112 166.395 40.9883 165.807 40.741C165.219 40.489 164.717 40.139 164.302 39.691C163.887 39.2383 163.565 38.697 163.336 38.067C163.107 37.437 162.993 36.744 162.993 35.988C162.993 35.232 163.112 34.539 163.35 33.909C163.588 33.279 163.922 32.7377 164.351 32.285C164.785 31.8323 165.303 31.4823 165.905 31.235C166.507 30.983 167.172 30.857 167.9 30.857C168.614 30.857 169.244 30.9713 169.79 31.2C170.336 31.4287 170.817 31.739 171.232 32.131L170.784 32.754C170.756 32.8007 170.719 32.8403 170.672 32.873C170.63 32.901 170.572 32.915 170.497 32.915C170.413 32.915 170.31 32.8707 170.189 32.782C170.068 32.6887 169.909 32.586 169.713 32.474C169.517 32.362 169.272 32.2617 168.978 32.173C168.684 32.0797 168.322 32.033 167.893 32.033C167.375 32.033 166.901 32.124 166.472 32.306C166.043 32.4833 165.672 32.7423 165.359 33.083C165.051 33.4237 164.811 33.839 164.638 34.329C164.465 34.819 164.379 35.372 164.379 35.988C164.379 36.6133 164.468 37.171 164.645 37.661C164.827 38.151 165.072 38.5663 165.38 38.907C165.693 39.243 166.059 39.4997 166.479 39.677C166.904 39.8543 167.361 39.943 167.851 39.943C168.15 39.943 168.418 39.9267 168.656 39.894C168.899 39.8567 169.12 39.8007 169.321 39.726C169.526 39.6513 169.715 39.558 169.888 39.446C170.065 39.3293 170.24 39.1917 170.413 39.033C170.492 38.963 170.572 38.928 170.651 38.928ZM178.388 33.909V41H177.646C177.469 41 177.357 40.9137 177.31 40.741L177.212 39.978C176.904 40.3187 176.559 40.594 176.176 40.804C175.794 41.0093 175.355 41.112 174.86 41.112C174.473 41.112 174.13 41.049 173.831 40.923C173.537 40.7923 173.29 40.6103 173.089 40.377C172.889 40.1437 172.737 39.8613 172.634 39.53C172.536 39.1987 172.487 38.8323 172.487 38.431V33.909H173.733V38.431C173.733 38.9677 173.855 39.383 174.097 39.677C174.345 39.971 174.72 40.118 175.224 40.118C175.593 40.118 175.936 40.0317 176.253 39.859C176.575 39.6817 176.872 39.439 177.142 39.131V33.909H178.388ZM184.494 35.078C184.438 35.1807 184.352 35.232 184.235 35.232C184.165 35.232 184.086 35.2063 183.997 35.155C183.908 35.1037 183.799 35.0477 183.668 34.987C183.542 34.9217 183.39 34.8633 183.213 34.812C183.036 34.756 182.826 34.728 182.583 34.728C182.373 34.728 182.184 34.756 182.016 34.812C181.848 34.8633 181.703 34.9357 181.582 35.029C181.465 35.1223 181.374 35.232 181.309 35.358C181.248 35.4793 181.218 35.6123 181.218 35.757C181.218 35.939 181.269 36.0907 181.372 36.212C181.479 36.3333 181.619 36.4383 181.792 36.527C181.965 36.6157 182.161 36.695 182.38 36.765C182.599 36.8303 182.823 36.9027 183.052 36.982C183.285 37.0567 183.512 37.1407 183.731 37.234C183.95 37.3273 184.146 37.444 184.319 37.584C184.492 37.724 184.629 37.8967 184.732 38.102C184.839 38.3027 184.893 38.5453 184.893 38.83C184.893 39.1567 184.835 39.46 184.718 39.74C184.601 40.0153 184.429 40.2557 184.2 40.461C183.971 40.6617 183.691 40.8203 183.36 40.937C183.029 41.0537 182.646 41.112 182.212 41.112C181.717 41.112 181.269 41.0327 180.868 40.874C180.467 40.7107 180.126 40.503 179.846 40.251L180.14 39.775C180.177 39.7143 180.222 39.6677 180.273 39.635C180.324 39.6023 180.39 39.586 180.469 39.586C180.553 39.586 180.642 39.6187 180.735 39.684C180.828 39.7493 180.94 39.8217 181.071 39.901C181.206 39.9803 181.37 40.0527 181.561 40.118C181.752 40.1833 181.99 40.216 182.275 40.216C182.518 40.216 182.73 40.1857 182.912 40.125C183.094 40.0597 183.246 39.9733 183.367 39.866C183.488 39.7587 183.577 39.635 183.633 39.495C183.694 39.355 183.724 39.2057 183.724 39.047C183.724 38.851 183.67 38.69 183.563 38.564C183.46 38.4333 183.323 38.3237 183.15 38.235C182.977 38.1417 182.779 38.0623 182.555 37.997C182.336 37.927 182.109 37.8547 181.876 37.78C181.647 37.7053 181.421 37.6213 181.197 37.528C180.978 37.43 180.782 37.3087 180.609 37.164C180.436 37.0193 180.296 36.842 180.189 36.632C180.086 36.4173 180.035 36.1583 180.035 35.855C180.035 35.5843 180.091 35.3253 180.203 35.078C180.315 34.826 180.478 34.6067 180.693 34.42C180.908 34.2287 181.171 34.077 181.484 33.965C181.797 33.853 182.154 33.797 182.555 33.797C183.022 33.797 183.439 33.8717 183.808 34.021C184.181 34.1657 184.503 34.3663 184.774 34.623L184.494 35.078ZM188.598 41.112C188.038 41.112 187.606 40.9557 187.303 40.643C187.004 40.3303 186.855 39.88 186.855 39.292V34.952H186.001C185.926 34.952 185.863 34.931 185.812 34.889C185.76 34.8423 185.735 34.7723 185.735 34.679V34.182L186.897 34.035L187.184 31.844C187.198 31.774 187.228 31.718 187.275 31.676C187.326 31.6293 187.391 31.606 187.471 31.606H188.101V34.049H190.152V34.952H188.101V39.208C188.101 39.5067 188.173 39.7283 188.318 39.873C188.462 40.0177 188.649 40.09 188.878 40.09C189.008 40.09 189.12 40.0737 189.214 40.041C189.312 40.0037 189.396 39.964 189.466 39.922C189.536 39.88 189.594 39.8427 189.641 39.81C189.692 39.7727 189.736 39.754 189.774 39.754C189.839 39.754 189.897 39.7937 189.949 39.873L190.313 40.468C190.098 40.6687 189.839 40.8273 189.536 40.944C189.232 41.056 188.92 41.112 188.598 41.112ZM194.386 33.797C194.904 33.797 195.371 33.8833 195.786 34.056C196.201 34.2287 196.556 34.4737 196.85 34.791C197.144 35.1083 197.368 35.4933 197.522 35.946C197.681 36.394 197.76 36.8957 197.76 37.451C197.76 38.011 197.681 38.515 197.522 38.963C197.368 39.411 197.144 39.7937 196.85 40.111C196.556 40.4283 196.201 40.6733 195.786 40.846C195.371 41.014 194.904 41.098 194.386 41.098C193.863 41.098 193.392 41.014 192.972 40.846C192.557 40.6733 192.202 40.4283 191.908 40.111C191.614 39.7937 191.388 39.411 191.229 38.963C191.075 38.515 190.998 38.011 190.998 37.451C190.998 36.8957 191.075 36.394 191.229 35.946C191.388 35.4933 191.614 35.1083 191.908 34.791C192.202 34.4737 192.557 34.2287 192.972 34.056C193.392 33.8833 193.863 33.797 194.386 33.797ZM194.386 40.125C195.086 40.125 195.609 39.8917 195.954 39.425C196.299 38.9537 196.472 38.298 196.472 37.458C196.472 36.6133 196.299 35.9553 195.954 35.484C195.609 35.0127 195.086 34.777 194.386 34.777C194.031 34.777 193.721 34.8377 193.455 34.959C193.194 35.0803 192.974 35.2553 192.797 35.484C192.624 35.7127 192.494 35.995 192.405 36.331C192.321 36.6623 192.279 37.038 192.279 37.458C192.279 38.298 192.452 38.9537 192.797 39.425C193.147 39.8917 193.677 40.125 194.386 40.125ZM199.341 41V33.909H200.09C200.267 33.909 200.377 33.9953 200.419 34.168L200.51 34.896C200.771 34.574 201.065 34.3103 201.392 34.105C201.718 33.8997 202.096 33.797 202.526 33.797C203.002 33.797 203.387 33.93 203.681 34.196C203.979 34.462 204.194 34.8213 204.325 35.274C204.427 35.0173 204.558 34.7957 204.717 34.609C204.88 34.4223 205.062 34.2683 205.263 34.147C205.463 34.0257 205.676 33.937 205.9 33.881C206.128 33.825 206.359 33.797 206.593 33.797C206.966 33.797 207.297 33.8577 207.587 33.979C207.881 34.0957 208.128 34.2683 208.329 34.497C208.534 34.7257 208.69 35.008 208.798 35.344C208.905 35.6753 208.959 36.0557 208.959 36.485V41H207.706V36.485C207.706 35.9297 207.584 35.5097 207.342 35.225C207.099 34.9357 206.749 34.791 206.292 34.791C206.086 34.791 205.89 34.8283 205.704 34.903C205.522 34.973 205.361 35.078 205.221 35.218C205.081 35.358 204.969 35.5353 204.885 35.75C204.805 35.96 204.766 36.205 204.766 36.485V41H203.513V36.485C203.513 35.9157 203.398 35.491 203.17 35.211C202.941 34.931 202.607 34.791 202.169 34.791C201.861 34.791 201.576 34.875 201.315 35.043C201.053 35.2063 200.813 35.4303 200.594 35.715V41H199.341ZM215.598 36.681C215.598 36.3917 215.556 36.128 215.472 35.89C215.393 35.6473 215.274 35.4397 215.115 35.267C214.961 35.0897 214.772 34.9543 214.548 34.861C214.324 34.763 214.07 34.714 213.785 34.714C213.188 34.714 212.714 34.889 212.364 35.239C212.019 35.5843 211.804 36.065 211.72 36.681H215.598ZM216.606 40.006C216.452 40.1927 216.268 40.356 216.053 40.496C215.839 40.6313 215.608 40.7433 215.36 40.832C215.118 40.9207 214.866 40.986 214.604 41.028C214.343 41.0747 214.084 41.098 213.827 41.098C213.337 41.098 212.885 41.0163 212.469 40.853C212.059 40.685 211.702 40.4423 211.398 40.125C211.1 39.803 210.866 39.4063 210.698 38.935C210.53 38.4637 210.446 37.9223 210.446 37.311C210.446 36.8163 210.521 36.3543 210.67 35.925C210.824 35.4957 211.044 35.1247 211.328 34.812C211.613 34.4947 211.961 34.2473 212.371 34.07C212.782 33.888 213.244 33.797 213.757 33.797C214.182 33.797 214.574 33.8693 214.933 34.014C215.297 34.154 215.61 34.3593 215.871 34.63C216.137 34.896 216.345 35.2273 216.494 35.624C216.644 36.016 216.718 36.464 216.718 36.968C216.718 37.164 216.697 37.2947 216.655 37.36C216.613 37.4253 216.534 37.458 216.417 37.458H211.678C211.692 37.906 211.753 38.2957 211.86 38.627C211.972 38.9583 212.126 39.236 212.322 39.46C212.518 39.6793 212.752 39.845 213.022 39.957C213.293 40.0643 213.596 40.118 213.932 40.118C214.245 40.118 214.513 40.083 214.737 40.013C214.966 39.9383 215.162 39.859 215.325 39.775C215.489 39.691 215.624 39.614 215.731 39.544C215.843 39.4693 215.939 39.432 216.018 39.432C216.121 39.432 216.2 39.4717 216.256 39.551L216.606 40.006ZM219.432 35.33C219.656 34.8447 219.931 34.4667 220.258 34.196C220.584 33.9207 220.983 33.783 221.455 33.783C221.604 33.783 221.746 33.7993 221.882 33.832C222.022 33.8647 222.145 33.916 222.253 33.986L222.162 34.917C222.134 35.0337 222.064 35.092 221.952 35.092C221.886 35.092 221.791 35.078 221.665 35.05C221.539 35.022 221.396 35.008 221.238 35.008C221.014 35.008 220.813 35.0407 220.636 35.106C220.463 35.1713 220.307 35.2693 220.167 35.4C220.031 35.526 219.908 35.6847 219.796 35.876C219.688 36.0627 219.59 36.2773 219.502 36.52V41H218.249V33.909H218.963C219.098 33.909 219.191 33.9347 219.243 33.986C219.294 34.0373 219.329 34.126 219.348 34.252L219.432 35.33ZM232.055 32.537C232.013 32.607 231.966 32.6607 231.915 32.698C231.868 32.7307 231.81 32.747 231.74 32.747C231.66 32.747 231.567 32.7073 231.46 32.628C231.352 32.5487 231.217 32.4623 231.054 32.369C230.895 32.271 230.701 32.1823 230.473 32.103C230.249 32.0237 229.976 31.984 229.654 31.984C229.35 31.984 229.082 32.026 228.849 32.11C228.62 32.1893 228.426 32.299 228.268 32.439C228.114 32.579 227.997 32.7447 227.918 32.936C227.838 33.1227 227.799 33.3257 227.799 33.545C227.799 33.825 227.866 34.0583 228.002 34.245C228.142 34.427 228.324 34.5833 228.548 34.714C228.776 34.8447 229.033 34.959 229.318 35.057C229.607 35.1503 229.901 35.2483 230.2 35.351C230.503 35.4537 230.797 35.5703 231.082 35.701C231.371 35.827 231.628 35.988 231.852 36.184C232.08 36.38 232.262 36.6203 232.398 36.905C232.538 37.1897 232.608 37.5397 232.608 37.955C232.608 38.3937 232.533 38.8067 232.384 39.194C232.234 39.5767 232.015 39.9103 231.726 40.195C231.441 40.4797 231.089 40.7037 230.669 40.867C230.253 41.0303 229.78 41.112 229.248 41.112C228.594 41.112 228.002 40.9953 227.47 40.762C226.938 40.524 226.483 40.2043 226.105 39.803L226.497 39.159C226.534 39.1077 226.578 39.0657 226.63 39.033C226.686 38.9957 226.746 38.977 226.812 38.977C226.872 38.977 226.94 39.0027 227.015 39.054C227.094 39.1007 227.183 39.1613 227.281 39.236C227.379 39.3107 227.491 39.3923 227.617 39.481C227.743 39.5697 227.885 39.6513 228.044 39.726C228.207 39.8007 228.391 39.8637 228.597 39.915C228.802 39.9617 229.033 39.985 229.29 39.985C229.612 39.985 229.899 39.9407 230.151 39.852C230.403 39.7633 230.615 39.6397 230.788 39.481C230.965 39.3177 231.1 39.124 231.194 38.9C231.287 38.676 231.334 38.4263 231.334 38.151C231.334 37.8477 231.264 37.6003 231.124 37.409C230.988 37.213 230.809 37.0497 230.585 36.919C230.361 36.7883 230.104 36.6787 229.815 36.59C229.525 36.4967 229.231 36.4033 228.933 36.31C228.634 36.212 228.34 36.1 228.051 35.974C227.761 35.848 227.505 35.6847 227.281 35.484C227.057 35.2833 226.875 35.0337 226.735 34.735C226.599 34.4317 226.532 34.0583 226.532 33.615C226.532 33.2603 226.599 32.9173 226.735 32.586C226.875 32.2547 227.075 31.9607 227.337 31.704C227.603 31.4473 227.927 31.242 228.31 31.088C228.697 30.934 229.14 30.857 229.64 30.857C230.2 30.857 230.708 30.9457 231.166 31.123C231.628 31.3003 232.034 31.557 232.384 31.893L232.055 32.537ZM239.925 33.909V41H239.183C239.006 41 238.894 40.9137 238.847 40.741L238.749 39.978C238.441 40.3187 238.096 40.594 237.713 40.804C237.331 41.0093 236.892 41.112 236.397 41.112C236.01 41.112 235.667 41.049 235.368 40.923C235.074 40.7923 234.827 40.6103 234.626 40.377C234.426 40.1437 234.274 39.8613 234.171 39.53C234.073 39.1987 234.024 38.8323 234.024 38.431V33.909H235.27V38.431C235.27 38.9677 235.392 39.383 235.634 39.677C235.882 39.971 236.257 40.118 236.761 40.118C237.13 40.118 237.473 40.0317 237.79 39.859C238.112 39.6817 238.409 39.439 238.679 39.131V33.909H239.925ZM243.154 39.292C243.383 39.6 243.632 39.817 243.903 39.943C244.174 40.069 244.477 40.132 244.813 40.132C245.476 40.132 245.984 39.8963 246.339 39.425C246.694 38.9537 246.871 38.2817 246.871 37.409C246.871 36.947 246.829 36.5503 246.745 36.219C246.666 35.8877 246.549 35.617 246.395 35.407C246.241 35.1923 246.052 35.036 245.828 34.938C245.604 34.84 245.35 34.791 245.065 34.791C244.659 34.791 244.302 34.8843 243.994 35.071C243.691 35.2577 243.411 35.5213 243.154 35.862V39.292ZM243.091 35.008C243.39 34.6393 243.735 34.343 244.127 34.119C244.519 33.895 244.967 33.783 245.471 33.783C245.882 33.783 246.253 33.8623 246.584 34.021C246.915 34.175 247.198 34.406 247.431 34.714C247.664 35.0173 247.844 35.3953 247.97 35.848C248.096 36.3007 248.159 36.821 248.159 37.409C248.159 37.9317 248.089 38.4193 247.949 38.872C247.809 39.32 247.606 39.7097 247.34 40.041C247.079 40.3677 246.757 40.6267 246.374 40.818C245.996 41.0047 245.569 41.098 245.093 41.098C244.659 41.098 244.286 41.0257 243.973 40.881C243.665 40.7317 243.392 40.5263 243.154 40.265V43.401H241.901V33.909H242.65C242.827 33.909 242.937 33.9953 242.979 34.168L243.091 35.008ZM251.002 39.292C251.23 39.6 251.48 39.817 251.751 39.943C252.021 40.069 252.325 40.132 252.661 40.132C253.323 40.132 253.832 39.8963 254.187 39.425C254.541 38.9537 254.719 38.2817 254.719 37.409C254.719 36.947 254.677 36.5503 254.593 36.219C254.513 35.8877 254.397 35.617 254.243 35.407C254.089 35.1923 253.9 35.036 253.676 34.938C253.452 34.84 253.197 34.791 252.913 34.791C252.507 34.791 252.15 34.8843 251.842 35.071C251.538 35.2577 251.258 35.5213 251.002 35.862V39.292ZM250.939 35.008C251.237 34.6393 251.583 34.343 251.975 34.119C252.367 33.895 252.815 33.783 253.319 33.783C253.729 33.783 254.1 33.8623 254.432 34.021C254.763 34.175 255.045 34.406 255.279 34.714C255.512 35.0173 255.692 35.3953 255.818 35.848C255.944 36.3007 256.007 36.821 256.007 37.409C256.007 37.9317 255.937 38.4193 255.797 38.872C255.657 39.32 255.454 39.7097 255.188 40.041C254.926 40.3677 254.604 40.6267 254.222 40.818C253.844 41.0047 253.417 41.098 252.941 41.098C252.507 41.098 252.133 41.0257 251.821 40.881C251.513 40.7317 251.24 40.5263 251.002 40.265V43.401H249.749V33.909H250.498C250.675 33.909 250.785 33.9953 250.827 34.168L250.939 35.008ZM260.585 33.797C261.103 33.797 261.57 33.8833 261.985 34.056C262.401 34.2287 262.755 34.4737 263.049 34.791C263.343 35.1083 263.567 35.4933 263.721 35.946C263.88 36.394 263.959 36.8957 263.959 37.451C263.959 38.011 263.88 38.515 263.721 38.963C263.567 39.411 263.343 39.7937 263.049 40.111C262.755 40.4283 262.401 40.6733 261.985 40.846C261.57 41.014 261.103 41.098 260.585 41.098C260.063 41.098 259.591 41.014 259.171 40.846C258.756 40.6733 258.401 40.4283 258.107 40.111C257.813 39.7937 257.587 39.411 257.428 38.963C257.274 38.515 257.197 38.011 257.197 37.451C257.197 36.8957 257.274 36.394 257.428 35.946C257.587 35.4933 257.813 35.1083 258.107 34.791C258.401 34.4737 258.756 34.2287 259.171 34.056C259.591 33.8833 260.063 33.797 260.585 33.797ZM260.585 40.125C261.285 40.125 261.808 39.8917 262.153 39.425C262.499 38.9537 262.671 38.298 262.671 37.458C262.671 36.6133 262.499 35.9553 262.153 35.484C261.808 35.0127 261.285 34.777 260.585 34.777C260.231 34.777 259.92 34.8377 259.654 34.959C259.393 35.0803 259.174 35.2553 258.996 35.484C258.824 35.7127 258.693 35.995 258.604 36.331C258.52 36.6623 258.478 37.038 258.478 37.458C258.478 38.298 258.651 38.9537 258.996 39.425C259.346 39.8917 259.876 40.125 260.585 40.125ZM266.723 35.33C266.947 34.8447 267.222 34.4667 267.549 34.196C267.875 33.9207 268.274 33.783 268.746 33.783C268.895 33.783 269.037 33.7993 269.173 33.832C269.313 33.8647 269.436 33.916 269.544 33.986L269.453 34.917C269.425 35.0337 269.355 35.092 269.243 35.092C269.177 35.092 269.082 35.078 268.956 35.05C268.83 35.022 268.687 35.008 268.529 35.008C268.305 35.008 268.104 35.0407 267.927 35.106C267.754 35.1713 267.598 35.2693 267.458 35.4C267.322 35.526 267.199 35.6847 267.087 35.876C266.979 36.0627 266.881 36.2773 266.793 36.52V41H265.54V33.909H266.254C266.389 33.909 266.482 33.9347 266.534 33.986C266.585 34.0373 266.62 34.126 266.639 34.252L266.723 35.33ZM272.816 41.112C272.256 41.112 271.825 40.9557 271.521 40.643C271.223 40.3303 271.073 39.88 271.073 39.292V34.952H270.219C270.145 34.952 270.082 34.931 270.03 34.889C269.979 34.8423 269.953 34.7723 269.953 34.679V34.182L271.115 34.035L271.402 31.844C271.416 31.774 271.447 31.718 271.493 31.676C271.545 31.6293 271.61 31.606 271.689 31.606H272.319V34.049H274.37V34.952H272.319V39.208C272.319 39.5067 272.392 39.7283 272.536 39.873C272.681 40.0177 272.868 40.09 273.096 40.09C273.227 40.09 273.339 40.0737 273.432 40.041C273.53 40.0037 273.614 39.964 273.684 39.922C273.754 39.88 273.813 39.8427 273.859 39.81C273.911 39.7727 273.955 39.754 273.992 39.754C274.058 39.754 274.116 39.7937 274.167 39.873L274.531 40.468C274.317 40.6687 274.058 40.8273 273.754 40.944C273.451 41.056 273.138 41.112 272.816 41.112Z" fill="#242424"/>
<rect x="0.5" y="0.5" width="322" height="71" rx="7.5" stroke="#005AFF"/>
</svg>
