<svg width="340" height="288" viewBox="0 0 340 288" fill="none" xmlns="http://www.w3.org/2000/svg">
<path d="M136.912 32.7244C137.501 32.3718 138.134 32.0995 138.795 31.9148L139.179 30.0567L142.321 30L142.774 31.8459C143.44 32.0101 144.081 32.262 144.681 32.5948L146.268 31.5545L148.53 33.7405L147.547 35.3597C147.9 35.9467 148.172 36.5785 148.356 37.238L150.214 37.6226L150.271 40.7639L148.425 41.2133C148.262 41.8794 148.01 42.5206 147.676 43.1199L148.717 44.7109L146.531 46.9697L144.911 45.986C144.324 46.3388 143.693 46.6111 143.033 46.7956L142.628 48.6537L139.487 48.7104L139.034 46.8645C138.369 46.7002 137.729 46.4484 137.131 46.1156L135.54 47.1559L133.269 44.974L134.253 43.3547C133.9 42.7662 133.628 42.1331 133.443 41.4724L131.585 41.0676L131.528 37.9262L133.374 37.4728C133.538 36.8069 133.79 36.1658 134.123 35.5662L133.083 33.9753L135.293 31.7407L136.912 32.7244ZM138.588 36.9101C138.125 37.3897 137.814 37.9959 137.695 38.6521C137.576 39.3083 137.654 39.9851 137.92 40.5968C138.186 41.2085 138.627 41.7277 139.188 42.0887C139.748 42.4497 140.403 42.6364 141.07 42.6251C141.737 42.6137 142.386 42.405 142.934 42.0251C143.482 41.6452 143.905 41.1114 144.15 40.491C144.395 39.8706 144.45 39.1916 144.309 38.5398C144.168 37.888 143.836 37.2927 143.357 36.8292C143.038 36.5194 142.661 36.2756 142.247 36.112C141.834 35.9483 141.392 35.8679 140.948 35.8754C140.503 35.883 140.064 35.9782 139.657 36.1558C139.249 36.3334 138.88 36.5897 138.572 36.9101H138.588Z" fill="#E0E0E0"/>
<path d="M137.641 136.979C137.98 136.775 138.345 136.617 138.726 136.51L138.948 135.437L140.762 135.405L141.021 136.469C141.406 136.562 141.776 136.707 142.122 136.899L143.037 136.299L144.34 137.558L143.794 138.485C143.998 138.824 144.156 139.189 144.264 139.57L145.336 139.793L145.369 141.606L144.304 141.866C144.211 142.25 144.067 142.621 143.875 142.967L144.474 143.882L143.215 145.185L142.28 144.618C141.94 144.822 141.576 144.981 141.195 145.092L140.96 146.177L139.147 146.209L138.888 145.145C138.503 145.052 138.133 144.907 137.787 144.715L136.872 145.315L135.568 144.056L136.135 143.12C135.931 142.781 135.772 142.416 135.661 142.036L134.593 141.813L134.56 139.999L135.625 139.74C135.718 139.356 135.862 138.985 136.054 138.639L135.455 137.724L136.714 136.421L137.649 136.988L137.641 136.979ZM138.608 139.408C138.34 139.685 138.16 140.035 138.091 140.415C138.022 140.794 138.067 141.185 138.221 141.538C138.374 141.892 138.629 142.192 138.953 142.4C139.277 142.609 139.656 142.717 140.041 142.71C140.427 142.703 140.801 142.582 141.118 142.362C141.434 142.142 141.679 141.833 141.819 141.475C141.96 141.116 141.992 140.724 141.909 140.347C141.827 139.971 141.635 139.627 141.357 139.36C141.174 139.181 140.959 139.041 140.722 138.946C140.485 138.851 140.231 138.803 139.976 138.806C139.721 138.809 139.469 138.863 139.234 138.963C138.999 139.064 138.787 139.209 138.608 139.392V139.408Z" fill="#E0E0E0"/>
<path d="M98.1633 42.7192C98.3949 42.5791 98.644 42.4702 98.9041 42.3953L99.0579 41.6626H100.293L100.479 42.367C100.741 42.4336 100.994 42.5329 101.232 42.6625L101.855 42.2577L102.746 43.1159L102.341 43.7555C102.481 43.9871 102.59 44.2362 102.665 44.4963L103.398 44.6501V45.8645L102.669 46.0427C102.605 46.3054 102.507 46.5586 102.377 46.7956L102.782 47.419L101.924 48.3096L101.284 47.9048C101.053 48.0449 100.804 48.1538 100.544 48.2286L100.39 48.9614H99.1753L98.9972 48.2327C98.7344 48.1693 98.4812 48.0713 98.2443 47.9412L97.6209 48.346L96.7303 47.4838L97.1351 46.8482C96.995 46.6166 96.8861 46.3675 96.8112 46.1074L96.0785 45.9536L96.0583 44.7392L96.7829 44.561C96.8496 44.2987 96.9488 44.0457 97.0784 43.8081L96.6736 43.1847L97.5318 42.2941L98.1714 42.6989L98.1633 42.7192ZM98.8232 44.3667C98.6408 44.5557 98.5186 44.7944 98.4719 45.0528C98.4252 45.3111 98.4561 45.5776 98.5608 45.8183C98.6655 46.0591 98.8393 46.2635 99.0601 46.4055C99.2809 46.5476 99.5389 46.621 99.8014 46.6165C100.064 46.6119 100.319 46.5297 100.535 46.3801C100.751 46.2305 100.917 46.0203 101.014 45.776C101.11 45.5318 101.132 45.2645 101.076 45.0079C101.021 44.7512 100.89 44.5169 100.701 44.3344C100.576 44.2131 100.428 44.1177 100.266 44.0537C100.103 43.9897 99.93 43.9583 99.7556 43.9613C99.5812 43.9643 99.409 44.0017 99.249 44.0712C99.089 44.1408 98.9443 44.2412 98.8232 44.3667Z" fill="#E0E0E0"/>
<path d="M158.594 40.1162C159.051 39.8402 159.542 39.6265 160.055 39.4807L160.355 38.0355L162.784 37.991L163.136 39.428C163.655 39.555 164.155 39.751 164.622 40.011L165.836 39.2014L167.629 40.9259L166.868 42.1727C167.145 42.6303 167.359 43.1232 167.504 43.6381L168.953 43.9377L168.994 46.3665L167.561 46.7187C167.43 47.2405 167.231 47.7427 166.969 48.2125L167.779 49.4512L166.083 51.2081L164.82 50.443C164.363 50.7181 163.872 50.9318 163.359 51.0785L163.055 52.5237L160.626 52.5682L160.274 51.1312C159.749 51.0072 159.244 50.8125 158.772 50.5523L157.558 51.3619L155.797 49.6657L156.562 48.4027C156.286 47.9444 156.073 47.4516 155.926 46.9373L154.481 46.6377L154.437 44.2089L155.874 43.8567C156.001 43.3389 156.197 42.8405 156.457 42.3751L155.647 41.1364L157.343 39.3795L158.594 40.1162ZM159.897 43.3547C159.537 43.7283 159.296 44.2002 159.204 44.7109C159.112 45.2216 159.174 45.748 159.381 46.2237C159.589 46.6993 159.932 47.1028 160.369 47.383C160.806 47.6633 161.316 47.8077 161.835 47.7981C162.353 47.7885 162.858 47.6252 163.284 47.3289C163.71 47.0327 164.038 46.6168 164.228 46.1337C164.417 45.6507 164.459 45.1224 164.349 44.6154C164.238 44.1085 163.979 43.6458 163.606 43.2859C163.356 43.0486 163.061 42.863 162.74 42.7396C162.418 42.6162 162.075 42.5575 161.73 42.5669C161.386 42.5763 161.047 42.6536 160.732 42.7944C160.418 42.9351 160.134 43.1365 159.897 43.3871V43.3547Z" fill="#EF0627"/>
<path d="M223.222 100.474C223.808 100.121 224.438 99.8486 225.097 99.664L225.501 97.8059L228.639 97.7493L229.092 99.5952C229.758 99.7576 230.4 100.01 230.999 100.344L232.582 99.3037L234.84 101.486L233.861 103.105C234.211 103.693 234.483 104.325 234.67 104.983L236.528 105.388L236.585 108.525L234.739 108.979C234.577 109.644 234.325 110.284 233.99 110.881L235.031 112.468L232.853 114.703L231.233 113.719C230.646 114.071 230.015 114.344 229.355 114.529L228.95 116.387L225.813 116.439L225.36 114.602C224.695 114.437 224.055 114.186 223.457 113.853L221.87 114.893L219.611 112.711L220.595 111.092C220.242 110.506 219.97 109.876 219.785 109.218L217.927 108.813L217.875 105.696L219.717 105.242C219.881 104.576 220.133 103.935 220.465 103.336L219.425 101.753L221.607 99.494L223.226 100.478L223.222 100.474ZM224.894 104.655C224.432 105.135 224.122 105.741 224.004 106.396C223.886 107.052 223.965 107.727 224.231 108.338C224.497 108.948 224.938 109.466 225.498 109.826C226.059 110.186 226.713 110.372 227.379 110.36C228.045 110.349 228.692 110.139 229.239 109.76C229.787 109.38 230.209 108.847 230.453 108.227C230.697 107.607 230.752 106.929 230.61 106.278C230.469 105.627 230.138 105.033 229.659 104.57C229.341 104.262 228.965 104.02 228.553 103.858C228.141 103.695 227.701 103.616 227.259 103.624C226.816 103.632 226.379 103.727 225.974 103.904C225.568 104.081 225.201 104.336 224.894 104.655Z" fill="#E0E0E0"/>
<path d="M245.401 39.3957C245.404 38.0882 245.105 36.7977 244.527 35.6247C243.949 34.4517 243.109 33.4277 242.071 32.6324C241.033 31.8371 239.826 31.2919 238.543 31.0393C237.26 30.7867 235.936 30.8334 234.674 31.1758C233.412 31.5183 232.246 32.1472 231.267 33.0136C230.288 33.8801 229.522 34.9608 229.028 36.1716C228.535 37.3825 228.327 38.6908 228.422 39.995C228.516 41.2991 228.91 42.5638 229.573 43.6908L229.598 43.7232C229.921 44.2737 230.33 44.6664 230.743 45.2412L235.686 51.783C235.829 51.9687 236.013 52.119 236.224 52.2224C236.434 52.3259 236.666 52.3797 236.9 52.3797C237.135 52.3797 237.366 52.3259 237.577 52.2224C237.788 52.119 237.972 51.9687 238.115 51.783L242.973 45.3505C243.414 44.8342 243.826 44.2936 244.207 43.7313L244.228 43.707C244.998 42.4012 245.404 40.9121 245.401 39.3957ZM236.9 43.0957C236.161 43.0949 235.438 42.8749 234.823 42.4634C234.209 42.0519 233.73 41.4674 233.448 40.7839C233.165 40.1003 233.092 39.3484 233.236 38.6231C233.381 37.8978 233.738 37.2316 234.261 36.7089C234.784 36.1862 235.451 35.8304 236.176 35.6864C236.902 35.5424 237.654 35.6167 238.337 35.8999C239.02 36.1831 239.604 36.6626 240.015 37.2776C240.426 37.8926 240.645 38.6156 240.645 39.3553C240.645 39.8468 240.548 40.3335 240.36 40.7876C240.172 41.2417 239.896 41.6542 239.548 42.0016C239.2 42.349 238.787 42.6244 238.333 42.8122C237.879 42.9999 237.392 43.0963 236.9 43.0957Z" fill="#E0E0E0"/>
<path d="M95.7307 161.742C96.5922 161.143 97.2589 160.304 97.6482 159.33C98.0375 158.356 98.1323 157.288 97.9207 156.261C97.3661 153.35 94.6822 151.403 91.974 151.925C89.2658 152.447 87.4806 155.224 88.0352 158.139C88.2163 159.182 88.7026 160.147 89.4326 160.913C90.1626 161.679 91.1034 162.211 92.136 162.442C84.7603 165.065 86.7155 173.259 86.7155 173.259L104.701 169.842C104.701 169.842 103.487 161.414 95.7307 161.742Z" fill="#EF0627"/>
<path d="M117.522 196.669L113.838 195.754C113.838 195.754 113.073 198.863 109.827 198.123C109.199 197.991 108.628 197.668 108.192 197.197C107.757 196.726 107.479 196.131 107.398 195.495C107.321 194.962 107.372 194.419 107.546 193.91C107.719 193.4 108.011 192.939 108.398 192.564C109.28 191.682 110.891 191.079 113.255 192.135L115.316 183.784L111.652 182.881L110.438 187.776C110.438 187.776 104.977 187.836 103.584 193.496C102.248 198.912 106.794 201.365 108.875 201.875C110.47 202.268 115.98 203.219 117.522 196.669Z" fill="#EF0627"/>
<path d="M112.029 181.152L115.744 182.067L116.599 178.596L112.884 177.681L112.029 181.152Z" fill="#EF0627"/>
<path d="M258 209.287C258 209.344 218.596 209.392 170.002 209.392C121.408 209.392 82 209.328 82 209.287C82 209.247 121.392 209.182 170.002 209.182C218.612 209.182 258 209.226 258 209.287Z" fill="black"/>
<path d="M91.9781 107.396H100.435L99.6898 111.189H84.4567L85.0599 108.173L94.2289 100.988C96.4958 99.1742 97.1881 98.1136 97.1881 96.7899C97.1881 95.4662 96.1801 94.5756 94.2289 94.5756C93.4053 94.588 92.5948 94.7828 91.8556 95.1461C91.1164 95.5094 90.467 96.0321 89.9541 96.6766L86.8208 94.4056C88.4401 92.1912 91.4478 90.7258 94.9171 90.7258C99.1716 90.7258 101.957 92.9968 101.957 96.1301C101.957 98.5144 100.868 100.526 97.3297 103.259L91.9781 107.396Z" fill="#263238"/>
<path d="M120.582 106.967H117.279L116.445 111.189H111.903L112.766 106.967H101.929L102.532 103.834L114.377 91.0701H119.461L108.426 103.17H113.713L114.462 99.4051H118.801L118.052 103.17H121.36L120.582 106.967Z" fill="#263238"/>
<path d="M133.86 86.9895H138.058L123.286 114.063H119.101L133.86 86.9895Z" fill="#263238"/>
<path d="M153.032 91.0701L152.429 94.09L141.681 111.189H136.508L146.822 94.8632H140.301L139.637 98.1421H135.5L136.912 91.0701H153.032Z" fill="#263238"/>
<path d="M82.5746 127.062L83.7526 124.827C84.8025 125.498 86.0205 125.859 87.2663 125.868C88.416 125.868 89.0799 125.507 89.0799 124.933C89.0799 123.512 83.9469 124.297 83.9469 120.978C83.9469 118.699 85.894 117.205 89.0192 117.205C90.3446 117.161 91.6575 117.474 92.8203 118.112L91.7354 120.33C90.8643 119.794 89.8599 119.513 88.837 119.52C87.5983 119.52 86.9344 119.974 86.9344 120.549C86.9344 121.998 92.0674 121.168 92.0674 124.427C92.0674 126.689 90.0757 128.183 86.983 128.183C85.1694 128.191 83.5259 127.71 82.5746 127.062Z" fill="#263238"/>
<path d="M97.3908 119.727L97.0467 121.508H101.738L101.289 123.738H96.5933L96.2128 125.673H101.755L101.269 127.981H92.7881L94.9174 117.435H103.188L102.718 119.747L97.3908 119.727Z" fill="#263238"/>
<path d="M110.896 124.811L112.693 127.981H109.568L107.997 125.175H106.491L105.933 127.981H102.945L105.054 117.435H109.568C112.268 117.435 113.822 118.69 113.822 120.803C113.844 121.7 113.568 122.579 113.039 123.304C112.51 124.028 111.756 124.558 110.896 124.811ZM109.147 119.771H107.576L106.957 122.864H108.738C110.054 122.864 110.823 122.232 110.823 121.071C110.806 120.18 110.171 119.771 109.147 119.771Z" fill="#263238"/>
<path d="M126.918 117.435L120.315 127.981H117.372L114.952 117.435H118.016L119.526 124.317L123.841 117.435H126.918Z" fill="#263238"/>
<path d="M127.549 117.435H130.541L128.412 127.981H125.424L127.549 117.435Z" fill="#263238"/>
<path d="M131.006 123.544C131.006 119.876 133.706 117.205 137.629 117.205C139.576 117.205 141.163 117.917 141.916 119.196L139.746 120.917C139.504 120.524 139.16 120.204 138.751 119.99C138.342 119.777 137.883 119.677 137.422 119.702C135.37 119.702 134.01 121.285 134.01 123.366C134.01 124.787 134.977 125.738 136.593 125.738C137.086 125.74 137.573 125.633 138.019 125.422C138.465 125.212 138.859 124.905 139.171 124.524L140.936 126.256C139.746 127.693 138.192 128.22 136.305 128.22C133.075 128.191 131.006 126.305 131.006 123.544Z" fill="#263238"/>
<path d="M146.276 119.727L145.928 121.508H150.619L150.182 123.738H145.474L145.098 125.673H150.635L150.154 127.981H141.689L143.794 117.435H152.064L151.599 119.747L146.276 119.727Z" fill="#263238"/>
<path d="M94.0638 85.1152H88.1657C88.1657 76.9057 91.4892 68.518 97.282 62.0814C103.379 55.317 111.293 51.5928 119.547 51.5928C136.415 51.5928 148.199 63.9072 148.199 81.5488H142.313C142.313 67.1659 133.169 57.503 119.559 57.503C106.216 57.4909 94.0638 70.6554 94.0638 85.1152Z" fill="#407BFF"/>
<path d="M97.2985 83.4756C98.2417 83.4756 99.0068 83.5687 99.0027 83.6537C98.9987 83.7387 98.2376 83.8035 97.2985 83.8035C96.3593 83.8035 95.5901 83.7266 95.5901 83.6254C95.5901 83.5242 96.3593 83.4594 97.2985 83.4756Z" fill="#263238"/>
<path d="M101.37 70.5461C102.18 71.0642 102.727 71.5946 102.637 71.7362C102.548 71.8779 101.828 71.5905 101.018 71.1007C100.209 70.6109 99.6702 70.0725 99.7552 69.9105C99.8402 69.7486 100.581 70.032 101.37 70.5461Z" fill="#263238"/>
<path d="M111.572 61.6362C111.956 62.4984 112.147 63.2554 111.977 63.3202C111.807 63.385 111.374 62.7575 110.961 61.9115C110.548 61.0654 110.357 60.2922 110.556 60.2274C110.754 60.1627 111.191 60.7618 111.572 61.6362Z" fill="#263238"/>
<path d="M125.012 60.5755C124.777 61.4904 124.457 62.1948 124.299 62.1624C124.141 62.13 124.174 61.3528 124.376 60.4257C124.579 59.4987 124.894 58.8065 125.089 58.8429C125.283 58.8794 125.247 59.6647 125.012 60.5755Z" fill="#263238"/>
<path d="M135.99 68.2911C135.205 68.8093 134.496 69.125 134.403 68.9955C134.31 68.866 134.857 68.3073 135.618 67.7527C136.379 67.1981 137.091 66.8864 137.205 67.0484C137.318 67.2103 136.775 67.7689 135.99 68.2911Z" fill="#263238"/>
<path d="M139.605 81.0021C138.666 81.0021 137.901 80.9293 137.901 80.8483C137.901 80.7673 138.662 80.6864 139.605 80.6742C140.548 80.6621 141.309 80.7309 141.313 80.8281C141.317 80.9252 140.556 81.0021 139.605 81.0021Z" fill="#263238"/>
<path d="M117.948 82.759C117.654 82.7611 117.368 82.6625 117.138 82.4797L107.225 74.7883C106.95 74.5736 106.771 74.2585 106.729 73.9123C106.686 73.5661 106.783 73.2172 106.998 72.9424C107.213 72.6675 107.528 72.4892 107.874 72.4467C108.22 72.4042 108.569 72.5009 108.844 72.7157L117.887 79.727L130.376 68.2587C130.631 68.0219 130.969 67.8962 131.317 67.9091C131.665 67.922 131.993 68.0725 132.23 68.3275C132.466 68.5825 132.592 68.9211 132.579 69.2688C132.566 69.6165 132.416 69.9448 132.161 70.1815L118.855 82.4069C118.608 82.6354 118.284 82.7614 117.948 82.759Z" fill="#407BFF"/>
<path d="M124.672 42.9216H113.304C113.128 42.9216 112.985 43.0648 112.985 43.2414V47.3584C112.985 47.535 113.128 47.6782 113.304 47.6782H124.672C124.848 47.6782 124.991 47.535 124.991 47.3584V43.2414C124.991 43.0648 124.848 42.9216 124.672 42.9216Z" fill="#407BFF"/>
<path d="M122.089 45.302H115.883V50.9289H122.089V45.302Z" fill="#407BFF"/>
<path d="M93.3715 57.4786L88.7099 63.2517C88.5287 63.4761 88.5637 63.8048 88.7881 63.986L91.9755 66.5597C92.1998 66.7409 92.5286 66.7059 92.7098 66.4815L97.3714 60.7084C97.5526 60.484 97.5176 60.1552 97.2932 59.974L94.1059 57.4004C93.8815 57.2192 93.5527 57.2542 93.3715 57.4786Z" fill="#407BFF"/>
<path d="M124.672 47.6781C124.672 47.7469 122.125 47.7995 119.004 47.7995C115.883 47.7995 113.337 47.7469 113.337 47.6781C113.337 47.6093 115.879 47.5566 119.004 47.5566C122.129 47.5566 124.672 47.6133 124.672 47.6781Z" fill="#263238"/>
<path d="M93.2666 65.4899C93.2018 65.5628 92.3436 64.907 91.283 64.1095C90.2224 63.3121 89.3601 62.6644 89.4127 62.5834C89.4654 62.5024 90.4167 63.0287 91.4894 63.8343C92.5622 64.6398 93.3273 65.4211 93.2666 65.4899Z" fill="#263238"/>
<path d="M94.2543 64.0366C94.1896 64.1094 93.3314 63.4536 92.2708 62.6562C91.2101 61.8587 90.3438 61.211 90.3965 61.13C90.4491 61.0491 91.4045 61.5753 92.4772 62.3849C93.55 63.1946 94.3151 63.9677 94.2543 64.0366Z" fill="#263238"/>
<path d="M95.4646 62.8181C95.4039 62.8909 94.5457 62.2351 93.4851 61.4377C92.4245 60.6402 91.5744 59.9925 91.6108 59.9115C91.6472 59.8306 92.6188 60.3568 93.6875 61.1664C94.7562 61.9761 95.5294 62.7492 95.4646 62.8181Z" fill="#263238"/>
<path d="M96.6385 61.3649C96.5778 61.4378 95.7156 60.782 94.655 59.9845C93.5944 59.1871 92.7321 58.5394 92.7888 58.4584C92.8454 58.3774 93.7968 58.9037 94.8655 59.7133C95.9342 60.5229 96.6993 61.2961 96.6385 61.3649Z" fill="#263238"/>
<path d="M147.522 59.3032L142.504 53.8368C142.309 53.6244 141.979 53.6103 141.767 53.8053L138.749 56.5756C138.536 56.7706 138.522 57.101 138.717 57.3134L143.735 62.7798C143.93 62.9923 144.26 63.0064 144.473 62.8114L147.491 60.0411C147.703 59.846 147.717 59.5157 147.522 59.3032Z" fill="#407BFF"/>
<path d="M139.613 58.017C139.552 57.9442 140.326 57.2074 141.273 56.2602C142.22 55.3129 142.985 54.5721 143.058 54.6409C143.131 54.7097 142.471 55.572 141.512 56.5111C140.552 57.4503 139.67 58.0859 139.613 58.017Z" fill="#263238"/>
<path d="M140.904 59.2072C140.84 59.1344 141.617 58.3976 142.56 57.4503C143.503 56.5031 144.277 55.7623 144.349 55.8311C144.422 55.8999 143.758 56.7622 142.803 57.7013C141.848 58.6405 140.961 59.276 140.904 59.2072Z" fill="#263238"/>
<path d="M141.929 60.5876C141.864 60.5147 142.641 59.778 143.584 58.8307C144.527 57.8835 145.301 57.1426 145.374 57.2115C145.446 57.2803 144.783 58.1385 143.823 59.0776C142.864 60.0168 141.985 60.6564 141.929 60.5876Z" fill="#263238"/>
<path d="M143.192 61.976C143.127 61.9032 143.904 61.1664 144.847 60.2191C145.79 59.2719 146.564 58.5311 146.637 58.5999C146.709 58.6687 146.046 59.531 145.086 60.4701C144.127 61.4093 143.248 62.0327 143.192 61.976Z" fill="#263238"/>
<path d="M114.58 47.6742C114.487 47.6742 114.41 46.6217 114.41 45.3303C114.41 44.039 114.487 42.9824 114.58 42.9824C114.673 42.9824 114.754 44.0349 114.754 45.3303C114.754 46.6257 114.677 47.6742 114.58 47.6742Z" fill="#263238"/>
<path d="M116.806 47.6742C116.713 47.6742 116.636 46.6217 116.636 45.3303C116.636 44.039 116.713 42.9824 116.806 42.9824C116.9 42.9824 116.976 44.0349 116.976 45.3303C116.976 46.6257 116.9 47.6742 116.806 47.6742Z" fill="#263238"/>
<path d="M119.028 47.6742C118.935 47.6742 118.858 46.6217 118.858 45.3303C118.858 44.039 118.935 42.9824 119.028 42.9824C119.122 42.9824 119.198 44.0349 119.198 45.3303C119.198 46.6257 119.126 47.6742 119.028 47.6742Z" fill="#263238"/>
<path d="M121.255 47.6742C121.158 47.6742 121.085 46.6217 121.085 45.3303C121.085 44.039 121.158 42.9824 121.255 42.9824C121.352 42.9824 121.425 44.0349 121.425 45.3303C121.425 46.6257 121.348 47.6742 121.255 47.6742Z" fill="#263238"/>
<path d="M123.478 47.6742C123.385 47.6742 123.308 46.6217 123.308 45.3303C123.308 44.039 123.385 42.9824 123.478 42.9824C123.571 42.9824 123.648 44.0349 123.648 45.3303C123.648 46.6257 123.555 47.6742 123.478 47.6742Z" fill="#263238"/>
<path d="M120.354 83.0981C121.514 81.9377 121.514 80.0564 120.354 78.896C119.193 77.7357 117.312 77.7357 116.151 78.896C114.991 80.0564 114.991 81.9377 116.151 83.0981C117.312 84.2585 119.193 84.2585 120.354 83.0981Z" fill="#407BFF"/>
<path d="M121.223 81.0023C121.195 81.0023 121.199 80.7392 121.073 80.2899C120.893 79.6629 120.51 79.1133 119.984 78.7273C119.563 78.4143 119.062 78.2245 118.539 78.1792C118.016 78.1339 117.491 78.2349 117.021 78.4709C116.552 78.7068 116.158 79.0685 115.883 79.5155C115.607 79.9625 115.461 80.4772 115.461 81.0023C115.461 81.5274 115.607 82.0422 115.883 82.4892C116.158 82.9362 116.552 83.2979 117.021 83.5338C117.491 83.7698 118.016 83.8708 118.539 83.8255C119.062 83.7802 119.563 83.5904 119.984 83.2774C120.509 82.8905 120.892 82.3413 121.073 81.7148C121.199 81.2655 121.195 81.0023 121.223 81.0023C121.251 81.0023 121.223 81.0671 121.223 81.1926C121.229 81.3778 121.21 81.5631 121.166 81.7431C121.021 82.419 120.643 83.0222 120.097 83.4474C119.69 83.7672 119.209 83.9787 118.698 84.0622C118.186 84.1457 117.663 84.0985 117.175 83.9251C116.571 83.711 116.048 83.3151 115.678 82.7917C115.308 82.2683 115.11 81.6432 115.11 81.0023C115.11 80.3615 115.308 79.7364 115.678 79.213C116.048 78.6896 116.571 78.2937 117.175 78.0796C117.662 77.9067 118.186 77.8595 118.697 77.9423C119.208 78.025 119.689 78.2352 120.097 78.5532C120.642 78.9803 121.02 79.5847 121.166 80.2615C121.21 80.4416 121.229 80.6268 121.223 80.8121C121.243 80.9295 121.235 81.0023 121.223 81.0023Z" fill="#263238"/>
<path d="M222.843 91.1792L227.919 90.3696C231.246 93.0542 235.457 94.397 239.724 94.1342C243.991 93.8713 248.006 92.0218 250.978 88.9492C253.951 85.8766 255.667 81.8032 255.788 77.5298C255.91 73.2563 254.428 69.092 251.635 65.8554C248.842 62.6189 244.939 60.5442 240.694 60.0393C236.449 59.5344 232.168 60.6358 228.694 63.1269C225.219 65.618 222.802 69.3187 221.918 73.5014C221.034 77.6842 221.746 82.0464 223.915 85.7305L222.843 91.1792Z" fill="white"/>
<path d="M222.842 91.1792C222.842 91.1792 222.842 91.0659 222.899 90.8351L223.093 89.7988C223.268 88.8678 223.527 87.5035 223.863 85.7224C223.863 85.7166 223.866 85.711 223.869 85.7061C223.872 85.7012 223.876 85.6971 223.881 85.694C223.886 85.6909 223.892 85.6889 223.898 85.6883C223.904 85.6876 223.91 85.6882 223.915 85.69C223.919 85.6879 223.923 85.6867 223.927 85.6867C223.932 85.6867 223.936 85.6879 223.94 85.69L223.867 85.7467C222.418 83.3013 221.599 80.5348 221.482 77.695C221.446 76.8112 221.48 75.9259 221.583 75.0475C221.704 74.1072 221.896 73.1774 222.158 72.2664C223.114 68.9638 225.04 66.0243 227.686 63.8287C230.332 61.6331 233.576 60.2826 236.999 59.9521C239.684 59.6987 242.391 60.0824 244.9 61.0721C247.409 62.0617 249.649 63.6294 251.438 65.6478L252.127 66.4574C252.341 66.7408 252.531 67.0363 252.742 67.3196C253.142 67.8957 253.505 68.496 253.831 69.117C254.009 69.4166 254.122 69.7485 254.272 70.0602C254.422 70.3719 254.576 70.6836 254.677 71.0156C254.917 71.6581 255.116 72.3152 255.272 72.983C255.895 75.5778 255.915 78.2808 255.333 80.8849C254.552 84.2711 252.762 87.3409 250.2 89.6885C247.638 92.036 244.424 93.551 240.982 94.0332C240.036 94.1615 239.082 94.217 238.128 94.1991C237.242 94.1571 236.359 94.0625 235.485 93.9158C232.7 93.3971 230.089 92.1891 227.89 90.402H227.927L224.13 90.9728L223.162 91.1145L222.842 91.159L223.178 91.0983L224.154 90.9363L227.911 90.3129H227.947C230.143 92.0706 232.742 93.2545 235.509 93.7579C236.377 93.9024 237.253 93.993 238.132 94.0291C239.08 94.0444 240.027 93.9862 240.966 93.855C244.366 93.3631 247.538 91.8553 250.066 89.5292C252.595 87.2032 254.361 84.1675 255.134 80.8201C255.706 78.2459 255.683 75.575 255.065 73.0113C254.907 72.353 254.711 71.7042 254.479 71.0682C254.377 70.7403 254.207 70.4407 254.074 70.125C253.94 69.8092 253.811 69.4894 253.636 69.1939C253.316 68.5804 252.956 67.9882 252.56 67.4208C252.357 67.1375 252.155 66.846 251.952 66.5667L251.272 65.7571C249.505 63.7633 247.293 62.2138 244.815 61.2342C242.337 60.2545 239.664 59.8721 237.011 60.118C234.662 60.3501 232.387 61.0667 230.33 62.2227C228.272 63.3786 226.477 64.9488 225.057 66.8339C223.819 68.483 222.895 70.3448 222.328 72.3272C222.067 73.229 221.873 74.1491 221.749 75.0799C221.642 75.9512 221.604 76.8297 221.636 77.7071C221.735 80.5271 222.529 83.279 223.948 85.7183C223.955 85.7266 223.96 85.7374 223.96 85.7487C223.96 85.76 223.955 85.7708 223.948 85.7791C223.94 85.7856 223.93 85.7892 223.919 85.7892C223.909 85.7892 223.899 85.7856 223.891 85.7791L223.964 85.7548C223.608 87.5157 223.332 88.8678 223.154 89.8029C223.061 90.2603 222.988 90.6125 222.94 90.8473C222.891 91.0821 222.842 91.1792 222.842 91.1792Z" fill="#263238"/>
<path d="M243.848 77.5532C243.847 77.2094 243.948 76.873 244.139 76.5868C244.329 76.3006 244.601 76.0774 244.918 75.9455C245.236 75.8135 245.585 75.7788 245.922 75.8457C246.26 75.9126 246.569 76.078 246.813 76.3211C247.056 76.5643 247.221 76.8741 247.288 77.2113C247.355 77.5486 247.32 77.8981 247.188 78.2156C247.056 78.5331 246.833 78.8043 246.547 78.9948C246.261 79.1853 245.924 79.2866 245.581 79.2858C245.121 79.2847 244.681 79.1018 244.357 78.7771C244.032 78.4524 243.849 78.0124 243.848 77.5532Z" fill="#263238"/>
<path d="M236.901 77.5532C236.901 77.2095 237.002 76.8734 237.192 76.5873C237.382 76.3011 237.653 76.0779 237.971 75.9459C238.288 75.8138 238.637 75.7788 238.974 75.8454C239.311 75.9119 239.621 76.077 239.865 76.3197C240.108 76.5624 240.274 76.8719 240.341 77.2089C240.408 77.5458 240.374 77.8952 240.243 78.2128C240.112 78.5304 239.889 78.8018 239.603 78.9928C239.318 79.1838 238.982 79.2858 238.638 79.2858C238.178 79.2858 237.737 79.1034 237.411 78.7786C237.086 78.4538 236.902 78.0131 236.901 77.5532Z" fill="#263238"/>
<path d="M229.975 78.4195C229.803 78.1221 229.724 77.7804 229.746 77.4376C229.769 77.0949 229.892 76.7665 230.101 76.494C230.31 76.2215 230.596 76.0171 230.921 75.9066C231.246 75.7962 231.597 75.7847 231.929 75.8736C232.26 75.9625 232.558 76.1478 232.785 76.406C233.011 76.6643 233.156 76.9839 233.201 77.3244C233.246 77.665 233.189 78.0111 233.037 78.3192C232.885 78.6273 232.645 78.8834 232.347 79.0551C231.948 79.2843 231.475 79.3461 231.03 79.227C230.586 79.1079 230.206 78.8175 229.975 78.4195Z" fill="#263238"/>
<path d="M108.693 139.7C107.629 139.194 105.835 138.137 104.726 137.724C103.63 137.255 102.407 137.172 101.257 137.489C100.605 137.708 99.9536 138.23 99.9495 138.918L104.301 142.129L108.693 140.971V139.7Z" fill="#FF9A6C"/>
<path d="M103.933 139.655C103.933 139.655 96.1161 137.959 94.8126 137.291C93.5091 136.623 86.7164 133.223 85.5789 133.223C84.4413 133.223 83.4698 133.531 83.2633 134.664L84.749 135.818L84.9393 136.409L87.4815 137.733L87.9308 138.566L94.4078 142.024C94.4078 142.024 101.201 145.472 102.334 145.667C103.467 145.861 109.127 146.335 111.548 148.395L121.263 144.404C121.263 144.404 118.458 140.42 116.296 139.437C114.369 138.562 111.135 138.562 108.872 139.489L103.933 139.655Z" fill="#FFBF9D"/>
<path d="M110.435 146.177C110.435 146.177 122.802 173.145 124.793 178.562C124.793 178.562 138.618 176.287 139.091 168.616L121.279 144.327L110.435 146.177Z" fill="#FFBF9D"/>
<path d="M98.9495 140.266C98.9495 140.266 98.9009 140.266 98.8159 140.266C98.6895 140.254 98.5647 140.228 98.4435 140.19C98.0002 140.055 97.5694 139.881 97.1562 139.671C96.63 139.416 96.0187 139.08 95.3467 138.704C95.0107 138.518 94.6585 138.319 94.2901 138.129C93.9218 137.939 93.521 137.773 93.1121 137.595C92.3551 137.252 91.5729 136.968 90.7723 136.745C90.0396 136.562 89.3352 136.425 88.8049 136.603C88.5992 136.685 88.4126 136.809 88.2567 136.966C88.1007 137.124 87.9787 137.311 87.8982 137.518C87.8384 137.675 87.7694 137.83 87.6917 137.979C87.6917 137.979 87.6917 137.931 87.712 137.85C87.739 137.726 87.7756 137.604 87.8213 137.485C87.8928 137.297 87.9895 137.118 88.1087 136.955C88.2662 136.732 88.4858 136.56 88.7402 136.461C89.054 136.356 89.3874 136.323 89.7158 136.364C90.083 136.4 90.447 136.464 90.8047 136.554C91.6223 136.77 92.4211 137.051 93.1931 137.396C93.5979 137.574 94.0027 137.74 94.3792 137.939C94.7557 138.137 95.1038 138.344 95.4398 138.534C96.1077 138.918 96.7069 139.267 97.221 139.534C97.6193 139.751 98.0318 139.942 98.4557 140.105C98.7714 140.222 98.9495 140.246 98.9495 140.266Z" fill="#FF9A6C"/>
<path d="M91.4929 136.388C91.1118 136.312 90.7428 136.184 90.3959 136.008C89.561 135.614 88.7025 135.272 87.8253 134.984C87.3454 134.848 86.8438 134.805 86.3478 134.858C86.1498 134.864 85.9552 134.91 85.7757 134.994C85.5961 135.077 85.4354 135.197 85.3033 135.344C85.145 135.564 85.041 135.817 84.9997 136.085C84.9961 136.189 84.9756 136.291 84.939 136.388C84.9201 136.285 84.9201 136.18 84.939 136.077C84.9541 135.788 85.0464 135.508 85.2062 135.267C85.3301 135.098 85.4906 134.96 85.6758 134.862C85.8875 134.762 86.1147 134.697 86.3478 134.672C86.8699 134.606 87.3999 134.646 87.9063 134.789C88.7959 135.075 89.6576 135.441 90.4809 135.882C90.8271 136.033 91.1649 136.202 91.4929 136.388Z" fill="#FF9A6C"/>
<path d="M111.005 138.89C111.005 138.89 110.896 138.955 110.689 139.028C110.393 139.135 110.092 139.227 109.786 139.303C108.781 139.565 107.751 139.718 106.714 139.761C105.677 139.805 104.637 139.743 103.613 139.574C103.208 139.506 102.909 139.437 102.694 139.376C102.579 139.359 102.468 139.322 102.366 139.267C102.366 139.234 102.852 139.327 103.637 139.425C104.655 139.55 105.681 139.592 106.706 139.55C107.731 139.497 108.75 139.362 109.754 139.145C110.503 139 110.977 138.862 111.005 138.89Z" fill="#FF9A6C"/>
<path d="M226.149 122.88L208.16 119.156L203.707 115.816L179.944 120.398C179.564 121.095 175.714 126.471 175.714 126.471L166.355 129.648C162.377 130.694 158.826 132.959 156.202 136.125C153.707 139.207 151.662 142.628 150.13 146.286C145.92 156.168 139.844 167.583 139.844 167.583L136.034 161.446L119.979 169.008C119.979 169.008 129.383 187.966 132.496 190.674C135.957 193.681 143.916 194.03 149.417 188.419C152.733 185.035 162.315 171.66 164.31 168.312L167.274 182.31L169.998 198.288L165.594 209.287H229.878L227.218 198.891C227.218 198.891 229.837 171.797 230.562 166.753C232.266 154.856 226.149 122.88 226.149 122.88Z" fill="#407BFF"/>
<path d="M226.15 122.88C226.15 122.88 239.023 126.491 241.856 139.287C243.573 147.039 249.402 169.138 251.455 187.33C252.669 198.147 252.637 208.141 252.669 209.287H232.914L224.543 126.491L226.15 122.88Z" fill="#407BFF"/>
<path d="M193.134 133.866C193.134 133.866 193.134 133.915 193.081 134L192.899 134.372C192.737 134.7 192.494 135.182 192.231 135.793C191.66 137.008 190.988 138.809 189.903 140.821L189.851 140.922L189.761 140.845C188.426 139.708 186.976 138.34 185.479 136.862C182.827 134.231 180.503 131.782 178.787 130.045L176.743 127.993L176.18 127.438C176.112 127.377 176.049 127.309 175.994 127.236C176.072 127.285 176.144 127.343 176.208 127.41L176.791 127.936C177.293 128.397 178.006 129.082 178.884 129.94C180.629 131.652 182.973 134.085 185.616 136.712C187.114 138.19 188.555 139.546 189.875 140.704L189.729 140.728C190.822 138.744 191.518 136.951 192.117 135.745C192.413 135.133 192.66 134.664 192.838 134.344C192.919 134.202 192.988 134.081 193.044 133.988C193.07 133.944 193.1 133.904 193.134 133.866Z" fill="black"/>
<path d="M208.411 119.613C208.41 119.709 208.397 119.804 208.374 119.896C208.334 120.099 208.285 120.366 208.225 120.706C208.079 121.402 207.82 122.406 207.488 123.629C206.788 126.058 205.654 129.414 204.249 133.037C203.509 134.955 202.78 136.769 202.1 138.376L202.047 138.502L201.946 138.412C200.112 136.793 198.469 135.518 197.355 134.571C196.797 134.097 196.36 133.717 196.064 133.45L195.736 133.142C195.659 133.069 195.623 133.033 195.627 133.028C195.674 133.053 195.717 133.083 195.756 133.118L196.105 133.405L197.428 134.482C198.566 135.405 200.222 136.656 202.076 138.267L201.922 138.303C202.59 136.684 203.314 134.878 204.051 132.964C205.44 129.32 206.593 126.021 207.326 123.588C207.69 122.374 207.957 121.378 208.136 120.686C208.213 120.358 208.277 120.095 208.326 119.876C208.348 119.786 208.376 119.698 208.411 119.613Z" fill="black"/>
<path d="M166.768 180.517C166.751 180.489 166.739 180.459 166.732 180.428L166.647 180.153C166.574 179.883 166.472 179.527 166.343 179.084C166.205 178.622 166.072 178.052 165.91 177.388C165.748 176.724 165.574 175.963 165.4 175.121C164.504 170.729 163.874 166.287 163.513 161.819C163.056 156.585 162.955 151.828 162.979 148.391C162.979 146.671 163.023 145.278 163.072 144.319C163.096 143.849 163.113 143.481 163.125 143.21C163.125 143.096 163.125 142.999 163.145 142.922C163.141 142.89 163.141 142.857 163.145 142.825C163.148 142.859 163.148 142.893 163.145 142.926V143.214C163.145 143.485 163.145 143.853 163.145 144.319C163.145 145.282 163.113 146.671 163.121 148.391C163.121 151.824 163.258 156.576 163.716 161.798C164.08 166.26 164.688 170.698 165.537 175.092C165.703 175.935 165.857 176.712 166.015 177.359C166.173 178.007 166.29 178.602 166.42 179.064L166.687 180.14L166.748 180.42C166.768 180.485 166.772 180.517 166.768 180.517Z" fill="black"/>
<path d="M227.218 137.073C227.242 137.107 227.262 137.146 227.275 137.186C227.312 137.271 227.36 137.38 227.417 137.518C227.546 137.825 227.72 138.259 227.947 138.805C228.06 139.088 228.194 139.396 228.324 139.74L228.708 140.874C228.846 141.278 228.991 141.72 229.149 142.181C229.307 142.643 229.413 143.149 229.554 143.671C230.769 147.836 231.376 153.864 231.028 160.458C230.68 167.053 229.902 173.008 229.408 177.282C229.162 179.42 228.959 181.157 228.817 182.371C228.749 182.958 228.692 183.423 228.651 183.751L228.603 184.112C228.6 184.153 228.592 184.194 228.579 184.233C228.573 184.193 228.573 184.152 228.579 184.112L228.607 183.747C228.639 183.415 228.684 182.938 228.736 182.363C228.85 181.148 229.028 179.416 229.259 177.266C229.7 172.967 230.445 167.033 230.801 160.45C231.157 153.868 230.558 147.873 229.396 143.707L228.991 142.218L228.587 140.914C228.457 140.509 228.336 140.125 228.222 139.777C228.109 139.429 227.971 139.117 227.862 138.833C227.652 138.279 227.49 137.846 227.368 137.534C227.32 137.392 227.279 137.283 227.247 137.194C227.231 137.155 227.222 137.114 227.218 137.073Z" fill="black"/>
<path d="M139.949 181.367C139.892 181.367 139.824 178.282 139.799 174.485C139.775 170.688 139.799 167.604 139.86 167.604C139.921 167.604 139.986 170.688 140.01 174.485C140.034 178.282 140.01 181.367 139.949 181.367Z" fill="black"/>
<path d="M198.364 200.049V199.879C198.364 199.758 198.396 199.596 198.42 199.385C198.477 198.94 198.554 198.304 198.655 197.487C198.708 197.082 198.764 196.616 198.829 196.118C198.894 195.621 198.942 195.07 199.003 194.499C199.121 193.325 199.282 191.993 199.408 190.512C199.469 189.775 199.529 188.998 199.598 188.192C199.667 187.387 199.699 186.545 199.752 185.674C199.874 183.934 199.926 182.067 199.995 180.108C200.084 176.186 200.072 171.87 199.869 167.348C199.667 162.827 199.254 158.528 198.797 154.629C198.542 152.682 198.319 150.832 198.032 149.112C197.898 148.249 197.781 147.416 197.627 146.618C197.473 145.821 197.347 145.056 197.222 144.323C196.975 142.861 196.692 141.55 196.461 140.392C196.344 139.813 196.238 139.275 196.137 138.773C196.036 138.271 195.927 137.83 195.833 137.425L195.429 135.559C195.388 135.352 195.352 135.19 195.327 135.073C195.303 134.955 195.299 134.903 195.299 134.903C195.32 134.955 195.336 135.01 195.348 135.065L195.473 135.546L195.923 137.409L196.242 138.753C196.348 139.246 196.461 139.781 196.586 140.372C196.825 141.526 197.121 142.837 197.376 144.299C197.511 145.03 197.646 145.795 197.781 146.594C197.926 147.403 198.044 148.213 198.185 149.087C198.477 150.812 198.708 152.662 198.971 154.609C199.436 158.511 199.833 162.815 200.06 167.34C200.286 171.866 200.27 176.19 200.169 180.116C200.092 182.08 200.035 183.946 199.906 185.686C199.849 186.557 199.809 187.399 199.74 188.208C199.671 189.018 199.598 189.791 199.533 190.532C199.42 192.014 199.246 193.366 199.129 194.515C199.06 195.102 198.995 195.649 198.938 196.135C198.882 196.62 198.805 197.09 198.744 197.503C198.627 198.313 198.534 198.952 198.473 199.393L198.396 199.887C198.39 199.942 198.379 199.996 198.364 200.049Z" fill="black"/>
<path d="M206.921 156.354H207.002L207.257 156.326L208.249 156.212L212.042 155.807L225.542 154.407H225.643V154.508C225.745 158.592 225.866 163.215 225.992 168.118V168.162L225.963 168.191L224.344 169.943L218.442 176.25L218.389 176.307L218.32 176.271L208.374 171.332L208.33 171.312V171.275C207.896 166.762 207.52 163.029 207.289 160.41C207.168 159.123 207.075 158.111 207.01 157.41C206.982 157.074 206.957 156.815 206.941 156.625C206.925 156.435 206.941 156.366 206.941 156.366C206.941 156.366 206.941 156.463 206.978 156.641C207.014 156.819 207.03 157.099 207.071 157.451C207.144 158.159 207.253 159.175 207.395 160.471C207.666 163.07 208.05 166.782 208.52 171.271L208.471 171.202L218.43 176.113L218.312 176.133L224.202 169.802L225.822 168.053L225.793 168.126C225.676 163.224 225.562 158.605 225.465 154.516L225.571 154.605L212.111 155.892L208.293 156.249L207.277 156.338L207.014 156.362L206.921 156.354Z" fill="black"/>
<path d="M225.668 159.204C225.439 159.267 225.204 159.312 224.968 159.337C224.514 159.41 223.859 159.503 223.045 159.608C221.426 159.815 219.163 160.054 216.673 160.293L210.293 160.916L208.362 161.118C208.128 161.156 207.891 161.174 207.654 161.171C207.883 161.107 208.118 161.063 208.354 161.037C208.808 160.965 209.463 160.871 210.277 160.766C211.896 160.56 214.159 160.321 216.653 160.082L223.029 159.459L224.96 159.256C225.194 159.219 225.431 159.201 225.668 159.204Z" fill="black"/>
<g opacity="0.3">
<path d="M229.578 175.125L230.259 183.395C231.76 176.311 234.12 168.697 233.752 161.467C233.384 154.237 232.704 147.319 228.631 140.773C230.402 145.701 231.214 150.922 231.024 156.156C230.651 164.616 229.578 175.125 229.578 175.125Z" fill="black"/>
</g>
<path d="M137.269 159.73C137.051 159.232 136.664 158.826 136.176 158.584C135.61 158.39 134.994 158.665 134.456 158.932L119.769 166.243C118.802 166.725 117.745 167.296 117.389 168.308C116.924 169.603 117.794 170.971 118.604 172.085C119.956 173.943 121.575 175.967 123.866 176.23L136.5 167.567C138.043 167.34 139.002 165.62 138.929 164.061C138.856 162.503 138.055 161.082 137.269 159.73Z" fill="#407BFF"/>
<path d="M138.864 165.025C138.827 165.077 138.783 165.125 138.735 165.167L138.33 165.543C137.982 165.867 137.468 166.324 136.824 166.875C135.533 167.98 133.699 169.45 131.561 170.947C129.424 172.445 127.469 173.68 125.983 174.514C125.246 174.939 124.643 175.271 124.222 175.489L123.736 175.736C123.623 175.793 123.562 175.817 123.558 175.809C123.605 175.765 123.658 175.728 123.716 175.7L124.182 175.416L125.906 174.384C127.359 173.51 129.339 172.255 131.452 170.761C133.565 169.267 135.411 167.822 136.715 166.749L138.265 165.466L138.67 165.122C138.808 165.057 138.86 165.017 138.864 165.025Z" fill="black"/>
<g opacity="0.3">
<path d="M208.22 120.54C206.492 126.28 204.071 132.773 202.027 138.352C200.286 136.874 197.849 134.919 196.104 133.437C197.606 136.416 199.408 139.234 201.484 141.845C201.727 142.149 202.051 142.481 202.427 142.408C202.804 142.335 202.974 141.946 203.103 141.598L206.289 133.166C207.779 129.223 209.216 124.625 208.22 120.54Z" fill="black"/>
</g>
<path d="M180.896 58.0898C186.159 56.5758 191.081 58.0898 195.935 60.6077C200.788 63.1256 204.703 67.283 207.237 72.1205C209.909 77.2171 211.091 83.1557 210.123 88.8271C209.156 94.4985 205.95 99.842 201.149 102.996C194.587 107.319 185.543 107.092 178.787 103.089C172.031 99.085 167.582 91.7053 166.404 83.937C165.594 78.5854 166.25 72.9423 168.748 68.1493C171.245 63.3564 175.662 59.4702 180.892 58.0857" fill="#263238"/>
<path d="M198.173 74.5617C197.157 72.6064 197.202 70.2868 196.647 68.1494C195.433 63.4496 191.142 60.0532 186.478 58.6971C182.143 57.43 177.127 58.3813 172.31 60.5592C169.015 62.053 166.015 64.3442 164.048 67.3803C162.761 69.4153 161.979 71.7285 161.768 74.1269C161.557 76.5254 161.922 78.9396 162.833 81.1682L186.875 74.845C189.377 76.4643 191.939 78.1361 194.834 78.8931C195.676 79.1537 196.571 79.1941 197.433 79.0105C197.86 78.9094 198.25 78.6873 198.555 78.3707C198.86 78.0542 199.068 77.6566 199.153 77.2253C199.254 76.2619 198.615 75.4158 198.173 74.5617Z" fill="#263238"/>
<path d="M203.909 117.192L197.704 73.5456C197.428 71.4811 196.489 69.376 194.412 69.4732L172.553 67.3682C165.703 67.6839 162.489 76.6788 163.096 83.4918C163.772 91.078 164.894 100.312 166.638 105.785C170.148 116.784 179.009 116.897 179.009 116.897C179.009 116.897 179.548 119.083 180.224 123.171L194.392 132.595L203.909 117.192Z" fill="#FFBF9D"/>
<path d="M168.379 91.7943C168.433 92.1718 168.633 92.5131 168.936 92.7452C169.238 92.9774 169.62 93.0822 169.998 93.0371C170.185 93.0239 170.366 92.9736 170.533 92.889C170.699 92.8044 170.847 92.6873 170.967 92.5447C171.088 92.402 171.178 92.2367 171.233 92.0584C171.289 91.8802 171.308 91.6926 171.29 91.5069C171.234 91.1296 171.034 90.7886 170.732 90.5559C170.43 90.3232 170.049 90.2172 169.67 90.2601C169.484 90.2743 169.303 90.3255 169.137 90.4107C168.97 90.4958 168.823 90.6133 168.703 90.7561C168.582 90.899 168.492 91.0644 168.436 91.2426C168.381 91.4209 168.361 91.6084 168.379 91.7943Z" fill="#263238"/>
<path d="M165.828 87.9689C166.035 88.1309 167.006 87.1593 168.565 86.9205C170.123 86.6816 171.378 87.2929 171.52 87.0743C171.589 86.9771 171.354 86.6695 170.804 86.378C170.059 86.0166 169.221 85.8922 168.403 86.0218C167.593 86.142 166.843 86.5179 166.262 87.0945C165.837 87.5317 165.727 87.8839 165.828 87.9689Z" fill="#263238"/>
<path d="M182.762 89.4547C182.815 89.8329 183.015 90.1752 183.317 90.4082C183.62 90.6412 184.002 90.7465 184.381 90.7015C184.567 90.6883 184.749 90.638 184.915 90.5534C185.082 90.4688 185.23 90.3518 185.35 90.2091C185.47 90.0665 185.561 89.9011 185.616 89.7229C185.672 89.5446 185.691 89.3571 185.672 89.1713C185.619 88.7931 185.42 88.4508 185.117 88.2178C184.814 87.9848 184.433 87.8795 184.053 87.9245C183.867 87.9382 183.686 87.9889 183.52 88.0737C183.354 88.1584 183.206 88.2755 183.086 88.418C182.965 88.5605 182.875 88.7257 182.819 88.9037C182.764 89.0817 182.744 89.269 182.762 89.4547Z" fill="#263238"/>
<path d="M180.633 85.9084C180.839 86.0703 181.815 85.0988 183.369 84.8599C184.924 84.6211 186.183 85.2323 186.324 85.0137C186.393 84.9166 186.158 84.6089 185.608 84.3175C184.862 83.9552 184.022 83.8308 183.203 83.9612C182.383 84.0821 181.624 84.4639 181.037 85.0502C180.633 85.455 180.523 85.8598 180.633 85.9084Z" fill="#263238"/>
<path d="M177.281 98.324C177.281 98.235 176.281 98.2147 174.686 98.2552C174.281 98.2552 173.876 98.2552 173.783 97.9921C173.69 97.729 173.747 97.2675 173.868 96.7777C174.095 95.7602 174.334 94.6929 174.585 93.5756C175.556 89.0174 176.204 85.2972 176.013 85.2608C175.823 85.2243 174.892 88.9041 173.917 93.438C173.686 94.5593 173.463 95.632 173.257 96.6562C173.176 97.1298 172.994 97.6804 173.289 98.2431C173.367 98.3754 173.474 98.4878 173.603 98.5714C173.731 98.655 173.878 98.7075 174.03 98.7248C174.258 98.7557 174.49 98.7557 174.718 98.7248C176.309 98.5548 177.289 98.409 177.281 98.324Z" fill="#263238"/>
<path d="M179.013 116.897C184.336 116.165 189.35 113.969 193.498 110.553C193.498 110.553 189.963 119.399 179.734 120.289L179.013 116.897Z" fill="#FF9A6C"/>
<path d="M178.512 101.975C178.75 101.558 179.092 101.208 179.503 100.958C179.915 100.709 180.383 100.569 180.864 100.55C181.213 100.53 181.563 100.581 181.892 100.7C182.221 100.819 182.523 101.004 182.778 101.243C183.026 101.471 183.197 101.769 183.27 102.098C183.342 102.427 183.312 102.77 183.183 103.081C182.855 103.732 181.997 104.003 181.224 103.89C180.449 103.743 179.712 103.443 179.054 103.008C178.858 102.907 178.684 102.77 178.54 102.603C178.469 102.526 178.423 102.43 178.407 102.327C178.392 102.224 178.407 102.118 178.451 102.024" fill="#FF9A6C"/>
<path d="M182.025 98.7005C181.766 98.7248 182.025 100.417 180.758 101.834C179.491 103.251 177.674 103.344 177.694 103.579C177.694 103.692 178.147 103.846 178.908 103.753C179.9 103.615 180.812 103.132 181.483 102.388C182.127 101.676 182.468 100.741 182.434 99.7814C182.39 99.0649 182.139 98.6762 182.025 98.7005Z" fill="#263238"/>
<path d="M180.187 81.2611C180.406 81.6659 181.928 81.2247 183.786 81.1639C185.644 81.1032 187.199 81.3785 187.381 80.9615C187.462 80.7632 187.146 80.4069 186.486 80.0871C185.615 79.7068 184.669 79.5296 183.72 79.5688C182.77 79.6081 181.842 79.8629 181.005 80.3138C180.378 80.6863 180.09 81.0708 180.187 81.2611Z" fill="#263238"/>
<path d="M165.25 81.0993C165.578 81.411 166.594 80.8807 167.881 80.6661C169.168 80.4516 170.31 80.5407 170.488 80.1318C170.573 79.9334 170.346 79.6096 169.82 79.3465C169.118 79.0443 168.343 78.9568 167.591 79.0951C166.84 79.2335 166.146 79.5914 165.598 80.1237C165.189 80.5568 165.096 80.9455 165.25 81.0993Z" fill="#263238"/>
<path d="M201.711 70.8251C198.764 64.5748 188.102 56.8146 181.333 58.2031L171.298 66.2022C171.9 68.0173 172.982 69.6359 174.429 70.8872C175.875 72.1384 177.633 72.9757 179.516 73.3107C181.519 73.6426 183.867 73.4928 185.236 74.9987C186.604 76.5046 186.276 79.0954 187.6 80.6944C189.433 82.9128 193.546 82.2489 195.028 84.7183C195.68 85.7951 195.603 87.1957 196.267 88.2644C197.157 89.6853 201.242 91.0981 202.744 90.3775C204.245 89.657 203.905 86.969 204.233 85.4834C204.796 82.9533 204.262 81.751 203.792 80.4394C202.695 77.3304 203.12 73.8045 201.711 70.8251Z" fill="#263238"/>
<path d="M198.262 92.3369C198.137 91.4949 198.805 89.3696 199.614 89.0984C201.776 88.4183 205.796 87.9852 206.69 93.604C207.905 101.295 199.954 100.927 199.902 100.708C199.849 100.49 198.699 95.2273 198.262 92.3369Z" fill="#FFBF9D"/>
<path d="M201.784 97.4295C201.817 97.3971 201.934 97.5024 202.189 97.5671C202.529 97.6549 202.889 97.6055 203.193 97.4295C203.954 97.0045 204.432 95.6079 204.249 94.2153C204.164 93.5544 203.931 92.921 203.569 92.3613C203.46 92.1326 203.296 91.9341 203.092 91.7831C202.888 91.6322 202.65 91.5332 202.399 91.495C202.239 91.4784 202.078 91.5188 201.945 91.6091C201.812 91.6995 201.715 91.8339 201.671 91.9888C201.602 92.2196 201.671 92.3653 201.634 92.3936C201.598 92.422 201.452 92.2924 201.46 91.9645C201.474 91.7684 201.554 91.5827 201.687 91.4383C201.872 91.2435 202.127 91.13 202.395 91.1225C202.995 91.0699 203.61 91.5273 203.982 92.09C204.416 92.7037 204.694 93.4137 204.792 94.1586C204.99 95.7131 204.428 97.2878 203.367 97.8019C203.171 97.8951 202.957 97.9435 202.739 97.9435C202.522 97.9435 202.308 97.8951 202.112 97.8019C201.829 97.5995 201.76 97.4457 201.784 97.4295Z" fill="#FF9A6C"/>
<path d="M173.273 63.6156C172.921 66.8541 168.601 71.4082 166.796 74.0921C163.327 79.213 162.711 80.8524 163.934 91.2804C161.635 87.8921 159.789 84.5241 159.481 80.4395C159.173 76.355 160.202 72.1166 162.695 68.87C165.189 65.6234 169.201 63.486 173.293 63.6075" fill="#263238"/>
<path d="M191.615 52.6329C193.235 50.8477 195.574 49.6859 198.003 49.0787C201.464 48.2124 205.266 48.4472 208.415 49.9531C211.564 51.459 214.001 54.2845 214.637 57.523C214.949 59.1866 214.802 60.9039 214.212 62.4902C213.621 64.0765 212.609 65.4718 211.285 66.5261C213.086 68.272 215.281 69.5579 217.685 70.2746C217.029 71.2583 215.819 71.8331 214.596 72.0396C213.367 72.1933 212.123 72.1851 210.896 72.0153C211.734 73.2668 212.987 74.1816 214.435 74.598C212.442 75.0579 210.365 74.9895 208.407 74.3996C206.492 73.8193 204.66 72.9962 202.954 71.9505C197.032 68.5137 193.765 65.5019 189.765 60.211C189.243 57.9279 189.984 54.4222 191.615 52.6329Z" fill="#263238"/>
<path d="M204.383 68.8576C200.035 62.5062 194.501 59.1098 189.494 58.0532L204.383 68.8576Z" fill="#263238"/>
<path d="M189.494 58.0532C189.723 58.1451 189.96 58.2169 190.202 58.2678C190.66 58.3973 191.319 58.5957 192.113 58.8993C194.179 59.7018 196.121 60.792 197.881 62.1378C199.643 63.4803 201.248 65.016 202.666 66.7162C203.201 67.376 203.634 67.9306 203.913 68.295C204.052 68.5015 204.209 68.6952 204.383 68.8738C204.266 68.6524 204.13 68.4412 203.978 68.2423C203.719 67.8375 203.306 67.291 202.784 66.6231C201.401 64.8718 199.807 63.2974 198.039 61.9354C196.257 60.5761 194.278 59.4976 192.17 58.7374C191.534 58.5111 190.885 58.3232 190.227 58.1747C189.986 58.1147 189.741 58.0741 189.494 58.0532Z" fill="#455A64"/>
<path d="M209.565 74.2701L209.467 74.3025L209.184 74.4159C208.941 74.5211 208.577 74.6588 208.099 74.8207C206.749 75.2727 205.349 75.5582 203.93 75.6708C201.825 75.8274 199.71 75.6912 197.643 75.266C195.111 74.7342 192.636 73.9629 190.251 72.9626C187.701 71.9222 185.296 70.8535 183.155 69.8051C181.253 68.8848 179.422 67.8239 177.678 66.6313C176.505 65.8237 175.398 64.9249 174.366 63.9434C173.994 63.5993 173.727 63.3119 173.557 63.1338L173.342 62.9192C173.293 62.8747 173.269 62.8504 173.265 62.8544C173.261 62.8585 173.265 62.8828 173.326 62.9354L173.524 63.1661C173.698 63.3686 173.957 63.6641 174.334 64.0203C175.348 65.0304 176.446 65.9527 177.617 66.7771C179.355 67.9982 181.186 69.081 183.094 70.0156C185.239 71.0802 187.64 72.157 190.194 73.2014C192.595 74.2045 195.086 74.9732 197.635 75.4967C199.722 75.9133 201.858 76.0306 203.978 75.8448C205.396 75.7153 206.791 75.4079 208.132 74.93C208.605 74.7478 208.965 74.598 209.204 74.4766L209.476 74.343C209.536 74.2904 209.569 74.2742 209.565 74.2701Z" fill="#455A64"/>
<path d="M186.628 112.391L185.896 110.958C185.948 110.93 191.033 108.323 192.988 106.679C197.595 102.809 201.829 96.6279 201.873 96.5591L203.209 97.4699C203.031 97.733 198.809 103.898 194.028 107.914C191.923 109.671 186.843 112.282 186.628 112.391Z" fill="#455A64"/>
<path d="M190.413 107.918C190.413 107.918 183.466 111.019 183.466 111.707C183.466 112.395 184.568 113.772 185.393 113.703C186.219 113.634 188.608 112.29 189.037 111.739C189.466 111.189 190.227 109.772 191.061 109.084L190.413 107.918Z" fill="#263238"/>
<path d="M203.153 87.0742L201.533 86.9973C201.592 82.3279 200.788 77.6879 199.161 73.3106C195.647 64.259 188.891 59.4013 179.087 58.8669C178.195 58.8278 177.301 58.8889 176.423 59.0491L177.131 58.3771C177.475 58.0531 177.874 57.7938 178.309 57.612C178.906 57.3624 179.555 57.2624 180.2 57.3205C192.579 58.3933 198.173 66.2628 200.687 72.7722C202.4 77.3424 203.236 82.1944 203.153 87.0742Z" fill="#455A64"/>
<path d="M202.343 101.797C205.175 101.797 207.472 98.495 207.472 94.4216C207.472 90.3481 205.175 87.0459 202.343 87.0459C199.51 87.0459 197.214 90.3481 197.214 94.4216C197.214 98.495 199.51 101.797 202.343 101.797Z" fill="#455A64"/>
<path d="M207.472 94.4216C207.467 94.388 207.467 94.354 207.472 94.3204C207.472 94.2394 207.472 94.1423 207.448 94.0208C207.43 93.6384 207.39 93.2573 207.33 92.8793C207.121 91.4846 206.578 90.1611 205.748 89.0214C205.468 88.6529 205.144 88.3199 204.784 88.0296C204.392 87.7207 203.95 87.4811 203.477 87.3212C202.97 87.1571 202.434 87.106 201.906 87.1714C201.347 87.2553 200.812 87.4553 200.335 87.7584C199.325 88.4614 198.545 89.4472 198.093 90.5921C197.587 91.8112 197.327 93.118 197.327 94.4378C197.327 95.7576 197.587 97.0644 198.093 98.2835C198.544 99.4286 199.324 100.415 200.335 101.117C200.812 101.42 201.347 101.62 201.906 101.704C202.434 101.768 202.97 101.717 203.477 101.554C203.95 101.395 204.392 101.155 204.784 100.846C205.143 100.555 205.467 100.222 205.748 99.8542C206.578 98.7145 207.121 97.391 207.33 95.9963C207.39 95.6182 207.429 95.2371 207.448 94.8548C207.448 94.7333 207.448 94.6361 207.472 94.5552C207.467 94.5217 207.467 94.4875 207.472 94.454C207.478 94.4874 207.478 94.5218 207.472 94.5552V94.8548C207.468 95.2406 207.441 95.6258 207.391 96.0085C207.21 97.428 206.679 98.7802 205.845 99.9432C205.561 100.325 205.232 100.67 204.865 100.971C204.46 101.298 204.001 101.552 203.509 101.72C202.978 101.895 202.416 101.951 201.861 101.886C201.275 101.802 200.714 101.595 200.214 101.279C199.166 100.567 198.356 99.5572 197.886 98.3807C197.365 97.1371 197.097 95.8023 197.097 94.454C197.097 93.1057 197.365 91.7709 197.886 90.5273C198.356 89.3508 199.166 88.3414 200.214 87.6289C200.714 87.3126 201.275 87.1056 201.861 87.0216C202.416 86.9568 202.978 87.0134 203.509 87.1876C204.001 87.3561 204.46 87.6096 204.865 87.9365C205.233 88.2371 205.562 88.5825 205.845 88.9647C206.68 90.1271 207.211 91.4796 207.391 92.8995C207.441 93.2808 207.468 93.6647 207.472 94.0492V94.3528C207.475 94.3756 207.475 94.3987 207.472 94.4216Z" fill="#263238"/>
<path d="M203.132 98.7046C204.937 98.7046 206.399 96.6022 206.399 94.0088C206.399 91.4154 204.937 89.313 203.132 89.313C201.328 89.313 199.866 91.4154 199.866 94.0088C199.866 96.6022 201.328 98.7046 203.132 98.7046Z" fill="#455A64"/>
<path d="M206.399 94.0086C206.375 94.0086 206.399 93.6524 206.282 93.0249C206.146 92.1452 205.799 91.3116 205.27 90.596C204.91 90.1052 204.411 89.7342 203.837 89.5314C203.518 89.4288 203.181 89.3971 202.849 89.4383C202.499 89.4904 202.164 89.616 201.865 89.8067C201.23 90.2491 200.739 90.8685 200.453 91.5878C200.132 92.3574 199.969 93.1831 199.971 94.0167C199.967 94.8504 200.131 95.6765 200.453 96.4456C200.739 97.1649 201.23 97.7843 201.865 98.2267C202.164 98.4174 202.499 98.543 202.849 98.5951C203.181 98.6363 203.518 98.6046 203.837 98.502C204.411 98.2992 204.91 97.9282 205.27 97.4374C205.799 96.7218 206.146 95.8882 206.282 95.0085C206.383 94.381 206.375 94.0248 206.399 94.0288C206.405 94.1138 206.405 94.199 206.399 94.2839C206.399 94.5302 206.382 94.7763 206.351 95.0206C206.243 95.9289 205.908 96.7951 205.375 97.5386C205.004 98.0631 204.481 98.4615 203.877 98.6801C203.537 98.796 203.174 98.8348 202.817 98.7935C202.437 98.7346 202.075 98.5967 201.752 98.3887C201.079 97.9321 200.558 97.2851 200.254 96.5306C199.92 95.7338 199.748 94.8786 199.748 94.0147C199.748 93.1508 199.92 92.2955 200.254 91.4988C200.558 90.7442 201.079 90.0973 201.752 89.6407C202.073 89.4333 202.435 89.2954 202.813 89.2359C203.172 89.1948 203.535 89.2335 203.877 89.3492C204.481 89.5678 205.004 89.9662 205.375 90.4908C205.908 91.2343 206.243 92.1005 206.351 93.0087C206.382 93.253 206.399 93.4991 206.399 93.7455C206.405 93.8331 206.405 93.921 206.399 94.0086Z" fill="#263238"/>
<path d="M203.359 97.3848C204.655 97.3848 205.707 95.8733 205.707 94.0087C205.707 92.1441 204.655 90.6326 203.359 90.6326C202.062 90.6326 201.011 92.1441 201.011 94.0087C201.011 95.8733 202.062 97.3848 203.359 97.3848Z" fill="#455A64"/>
<path d="M205.706 94.0088C205.686 94.0088 205.686 93.7538 205.613 93.3044C205.509 92.6728 205.257 92.0748 204.877 91.5597C204.621 91.2103 204.265 90.9465 203.856 90.8027C203.624 90.7283 203.377 90.7074 203.135 90.7418C202.894 90.7761 202.663 90.8648 202.46 91.001C201.581 91.5799 201.116 92.7944 201.112 94.0048C201.108 95.2151 201.581 96.4336 202.46 97.0125C202.663 97.1488 202.894 97.2374 203.135 97.2718C203.377 97.3061 203.624 97.2853 203.856 97.2109C204.265 97.0671 204.621 96.8032 204.877 96.4539C205.257 95.9387 205.509 95.3408 205.613 94.7091C205.686 94.2598 205.686 94.0048 205.706 94.0088C205.716 94.0691 205.716 94.1306 205.706 94.191C205.709 94.3682 205.699 94.5453 205.678 94.7213C205.605 95.3792 205.366 96.0076 204.982 96.547C204.709 96.9202 204.329 97.2024 203.893 97.3566C203.644 97.4401 203.381 97.4691 203.12 97.4416C202.843 97.4034 202.579 97.3068 202.342 97.1582C201.853 96.8266 201.473 96.3556 201.254 95.8062C201.01 95.2297 200.884 94.6103 200.884 93.9845C200.884 93.3587 201.01 92.7393 201.254 92.1629C201.473 91.6134 201.853 91.1425 202.342 90.8108C202.579 90.6622 202.843 90.5656 203.12 90.5274C203.381 90.4999 203.644 90.5289 203.893 90.6124C204.329 90.7666 204.709 91.0488 204.982 91.4221C205.366 91.9614 205.605 92.5898 205.678 93.2478C205.699 93.4237 205.709 93.6009 205.706 93.7781C205.721 93.8543 205.721 93.9326 205.706 94.0088Z" fill="#263238"/>
<rect x="0.5" y="0.5" width="339" height="239" rx="11.5" stroke="#B5B5B5"/>
<path d="M69.37 282.31C69.5633 282.31 69.7167 282.367 69.83 282.48C69.9433 282.593 70 282.74 70 282.92V284H60.44V283.39C60.44 283.263 60.4667 283.133 60.52 283C60.5733 282.867 60.6567 282.743 60.77 282.63L65.36 278.02C65.74 277.633 66.0867 277.263 66.4 276.91C66.7133 276.55 66.98 276.19 67.2 275.83C67.42 275.47 67.59 275.107 67.71 274.74C67.83 274.367 67.89 273.97 67.89 273.55C67.89 273.13 67.8233 272.763 67.69 272.45C67.5567 272.13 67.3733 271.867 67.14 271.66C66.9133 271.453 66.6433 271.3 66.33 271.2C66.0167 271.093 65.68 271.04 65.32 271.04C64.9533 271.04 64.6167 271.093 64.31 271.2C64.0033 271.307 63.73 271.457 63.49 271.65C63.2567 271.837 63.06 272.06 62.9 272.32C62.74 272.58 62.6267 272.867 62.56 273.18C62.48 273.413 62.37 273.57 62.23 273.65C62.0967 273.723 61.9067 273.743 61.66 273.71L60.73 273.55C60.8233 272.897 61.0033 272.32 61.27 271.82C61.5433 271.313 61.8833 270.89 62.29 270.55C62.7033 270.21 63.1733 269.953 63.7 269.78C64.2267 269.6 64.7967 269.51 65.41 269.51C66.0167 269.51 66.5833 269.6 67.11 269.78C67.6367 269.96 68.0933 270.223 68.48 270.57C68.8667 270.91 69.17 271.327 69.39 271.82C69.61 272.313 69.72 272.873 69.72 273.5C69.72 274.033 69.64 274.53 69.48 274.99C69.32 275.443 69.1033 275.877 68.83 276.29C68.5567 276.703 68.24 277.107 67.88 277.5C67.5267 277.893 67.15 278.29 66.75 278.69L62.97 282.55C63.2367 282.477 63.5067 282.42 63.78 282.38C64.0533 282.333 64.3167 282.31 64.57 282.31H69.37ZM78.4016 278.83V272.92C78.4016 272.747 78.4082 272.557 78.4216 272.35C78.4349 272.143 78.4549 271.933 78.4816 271.72L73.2616 278.83H78.4016ZM82.1316 278.83V279.85C82.1316 279.957 82.0982 280.047 82.0316 280.12C81.9716 280.193 81.8749 280.23 81.7416 280.23H79.9616V284H78.4016V280.23H72.0416C71.9082 280.23 71.7916 280.193 71.6916 280.12C71.5982 280.04 71.5382 279.943 71.5116 279.83L71.3316 278.92L78.3016 269.67H79.9616V278.83H82.1316ZM91.0203 275.22C91.4536 274.76 91.9336 274.393 92.4603 274.12C92.987 273.847 93.5936 273.71 94.2803 273.71C94.8336 273.71 95.3203 273.803 95.7403 273.99C96.167 274.17 96.5203 274.43 96.8003 274.77C97.087 275.103 97.3036 275.507 97.4503 275.98C97.597 276.453 97.6703 276.977 97.6703 277.55V284H95.8803V277.55C95.8803 276.783 95.7036 276.19 95.3503 275.77C95.0036 275.343 94.4736 275.13 93.7603 275.13C93.2336 275.13 92.7403 275.257 92.2803 275.51C91.827 275.763 91.407 276.107 91.0203 276.54V284H89.2303V269.27H91.0203V275.22ZM102.073 275.9C102.393 275.207 102.786 274.667 103.253 274.28C103.719 273.887 104.289 273.69 104.963 273.69C105.176 273.69 105.379 273.713 105.573 273.76C105.773 273.807 105.949 273.88 106.103 273.98L105.973 275.31C105.933 275.477 105.833 275.56 105.673 275.56C105.579 275.56 105.443 275.54 105.263 275.5C105.083 275.46 104.879 275.44 104.653 275.44C104.333 275.44 104.046 275.487 103.793 275.58C103.546 275.673 103.323 275.813 103.123 276C102.929 276.18 102.753 276.407 102.593 276.68C102.439 276.947 102.299 277.253 102.173 277.6V284H100.383V273.87H101.403C101.596 273.87 101.729 273.907 101.803 273.98C101.876 274.053 101.926 274.18 101.953 274.36L102.073 275.9ZM113.509 275.54C113.429 275.687 113.306 275.76 113.139 275.76C113.039 275.76 112.926 275.723 112.799 275.65C112.673 275.577 112.516 275.497 112.329 275.41C112.149 275.317 111.933 275.233 111.679 275.16C111.426 275.08 111.126 275.04 110.779 275.04C110.479 275.04 110.209 275.08 109.969 275.16C109.729 275.233 109.523 275.337 109.349 275.47C109.183 275.603 109.053 275.76 108.959 275.94C108.873 276.113 108.829 276.303 108.829 276.51C108.829 276.77 108.903 276.987 109.049 277.16C109.203 277.333 109.403 277.483 109.649 277.61C109.896 277.737 110.176 277.85 110.489 277.95C110.803 278.043 111.123 278.147 111.449 278.26C111.783 278.367 112.106 278.487 112.419 278.62C112.733 278.753 113.013 278.92 113.259 279.12C113.506 279.32 113.703 279.567 113.849 279.86C114.003 280.147 114.079 280.493 114.079 280.9C114.079 281.367 113.996 281.8 113.829 282.2C113.663 282.593 113.416 282.937 113.089 283.23C112.763 283.517 112.363 283.743 111.889 283.91C111.416 284.077 110.869 284.16 110.249 284.16C109.543 284.16 108.903 284.047 108.329 283.82C107.756 283.587 107.269 283.29 106.869 282.93L107.289 282.25C107.343 282.163 107.406 282.097 107.479 282.05C107.553 282.003 107.646 281.98 107.759 281.98C107.879 281.98 108.006 282.027 108.139 282.12C108.273 282.213 108.433 282.317 108.619 282.43C108.813 282.543 109.046 282.647 109.319 282.74C109.593 282.833 109.933 282.88 110.339 282.88C110.686 282.88 110.989 282.837 111.249 282.75C111.509 282.657 111.726 282.533 111.899 282.38C112.073 282.227 112.199 282.05 112.279 281.85C112.366 281.65 112.409 281.437 112.409 281.21C112.409 280.93 112.333 280.7 112.179 280.52C112.033 280.333 111.836 280.177 111.589 280.05C111.343 279.917 111.059 279.803 110.739 279.71C110.426 279.61 110.103 279.507 109.769 279.4C109.443 279.293 109.119 279.173 108.799 279.04C108.486 278.9 108.206 278.727 107.959 278.52C107.713 278.313 107.513 278.06 107.359 277.76C107.213 277.453 107.139 277.083 107.139 276.65C107.139 276.263 107.219 275.893 107.379 275.54C107.539 275.18 107.773 274.867 108.079 274.6C108.386 274.327 108.763 274.11 109.209 273.95C109.656 273.79 110.166 273.71 110.739 273.71C111.406 273.71 112.003 273.817 112.529 274.03C113.063 274.237 113.523 274.523 113.909 274.89L113.509 275.54ZM131.859 281.04C131.965 281.04 132.059 281.083 132.139 281.17L132.909 282C132.322 282.68 131.609 283.21 130.769 283.59C129.935 283.97 128.925 284.16 127.739 284.16C126.712 284.16 125.779 283.983 124.939 283.63C124.099 283.27 123.382 282.77 122.789 282.13C122.195 281.483 121.735 280.71 121.409 279.81C121.082 278.91 120.919 277.92 120.919 276.84C120.919 275.76 121.089 274.77 121.429 273.87C121.769 272.97 122.245 272.197 122.859 271.55C123.479 270.903 124.219 270.403 125.079 270.05C125.939 269.69 126.889 269.51 127.929 269.51C128.949 269.51 129.849 269.673 130.629 270C131.409 270.327 132.095 270.77 132.689 271.33L132.049 272.22C132.009 272.287 131.955 272.343 131.889 272.39C131.829 272.43 131.745 272.45 131.639 272.45C131.519 272.45 131.372 272.387 131.199 272.26C131.025 272.127 130.799 271.98 130.519 271.82C130.239 271.66 129.889 271.517 129.469 271.39C129.049 271.257 128.532 271.19 127.919 271.19C127.179 271.19 126.502 271.32 125.889 271.58C125.275 271.833 124.745 272.203 124.299 272.69C123.859 273.177 123.515 273.77 123.269 274.47C123.022 275.17 122.899 275.96 122.899 276.84C122.899 277.733 123.025 278.53 123.279 279.23C123.539 279.93 123.889 280.523 124.329 281.01C124.775 281.49 125.299 281.857 125.899 282.11C126.505 282.363 127.159 282.49 127.859 282.49C128.285 282.49 128.669 282.467 129.009 282.42C129.355 282.367 129.672 282.287 129.959 282.18C130.252 282.073 130.522 281.94 130.769 281.78C131.022 281.613 131.272 281.417 131.519 281.19C131.632 281.09 131.745 281.04 131.859 281.04ZM142.912 273.87V284H141.852C141.599 284 141.439 283.877 141.372 283.63L141.232 282.54C140.792 283.027 140.299 283.42 139.752 283.72C139.205 284.013 138.579 284.16 137.872 284.16C137.319 284.16 136.829 284.07 136.402 283.89C135.982 283.703 135.629 283.443 135.342 283.11C135.055 282.777 134.839 282.373 134.692 281.9C134.552 281.427 134.482 280.903 134.482 280.33V273.87H136.262V280.33C136.262 281.097 136.435 281.69 136.782 282.11C137.135 282.53 137.672 282.74 138.392 282.74C138.919 282.74 139.409 282.617 139.862 282.37C140.322 282.117 140.745 281.77 141.132 281.33V273.87H142.912ZM151.634 275.54C151.554 275.687 151.431 275.76 151.264 275.76C151.164 275.76 151.051 275.723 150.924 275.65C150.798 275.577 150.641 275.497 150.454 275.41C150.274 275.317 150.058 275.233 149.804 275.16C149.551 275.08 149.251 275.04 148.904 275.04C148.604 275.04 148.334 275.08 148.094 275.16C147.854 275.233 147.648 275.337 147.474 275.47C147.308 275.603 147.178 275.76 147.084 275.94C146.998 276.113 146.954 276.303 146.954 276.51C146.954 276.77 147.028 276.987 147.174 277.16C147.328 277.333 147.528 277.483 147.774 277.61C148.021 277.737 148.301 277.85 148.614 277.95C148.928 278.043 149.248 278.147 149.574 278.26C149.908 278.367 150.231 278.487 150.544 278.62C150.858 278.753 151.138 278.92 151.384 279.12C151.631 279.32 151.828 279.567 151.974 279.86C152.128 280.147 152.204 280.493 152.204 280.9C152.204 281.367 152.121 281.8 151.954 282.2C151.788 282.593 151.541 282.937 151.214 283.23C150.888 283.517 150.488 283.743 150.014 283.91C149.541 284.077 148.994 284.16 148.374 284.16C147.668 284.16 147.028 284.047 146.454 283.82C145.881 283.587 145.394 283.29 144.994 282.93L145.414 282.25C145.468 282.163 145.531 282.097 145.604 282.05C145.678 282.003 145.771 281.98 145.884 281.98C146.004 281.98 146.131 282.027 146.264 282.12C146.398 282.213 146.558 282.317 146.744 282.43C146.938 282.543 147.171 282.647 147.444 282.74C147.718 282.833 148.058 282.88 148.464 282.88C148.811 282.88 149.114 282.837 149.374 282.75C149.634 282.657 149.851 282.533 150.024 282.38C150.198 282.227 150.324 282.05 150.404 281.85C150.491 281.65 150.534 281.437 150.534 281.21C150.534 280.93 150.458 280.7 150.304 280.52C150.158 280.333 149.961 280.177 149.714 280.05C149.468 279.917 149.184 279.803 148.864 279.71C148.551 279.61 148.228 279.507 147.894 279.4C147.568 279.293 147.244 279.173 146.924 279.04C146.611 278.9 146.331 278.727 146.084 278.52C145.838 278.313 145.638 278.06 145.484 277.76C145.338 277.453 145.264 277.083 145.264 276.65C145.264 276.263 145.344 275.893 145.504 275.54C145.664 275.18 145.898 274.867 146.204 274.6C146.511 274.327 146.888 274.11 147.334 273.95C147.781 273.79 148.291 273.71 148.864 273.71C149.531 273.71 150.128 273.817 150.654 274.03C151.188 274.237 151.648 274.523 152.034 274.89L151.634 275.54ZM157.497 284.16C156.697 284.16 156.08 283.937 155.647 283.49C155.22 283.043 155.007 282.4 155.007 281.56V275.36H153.787C153.68 275.36 153.59 275.33 153.517 275.27C153.443 275.203 153.407 275.103 153.407 274.97V274.26L155.067 274.05L155.477 270.92C155.497 270.82 155.54 270.74 155.607 270.68C155.68 270.613 155.773 270.58 155.887 270.58H156.787V274.07H159.717V275.36H156.787V281.44C156.787 281.867 156.89 282.183 157.097 282.39C157.303 282.597 157.57 282.7 157.897 282.7C158.083 282.7 158.243 282.677 158.377 282.63C158.517 282.577 158.637 282.52 158.737 282.46C158.837 282.4 158.92 282.347 158.987 282.3C159.06 282.247 159.123 282.22 159.177 282.22C159.27 282.22 159.353 282.277 159.427 282.39L159.947 283.24C159.64 283.527 159.27 283.753 158.837 283.92C158.403 284.08 157.957 284.16 157.497 284.16ZM165.766 273.71C166.506 273.71 167.173 273.833 167.766 274.08C168.359 274.327 168.866 274.677 169.286 275.13C169.706 275.583 170.026 276.133 170.246 276.78C170.473 277.42 170.586 278.137 170.586 278.93C170.586 279.73 170.473 280.45 170.246 281.09C170.026 281.73 169.706 282.277 169.286 282.73C168.866 283.183 168.359 283.533 167.766 283.78C167.173 284.02 166.506 284.14 165.766 284.14C165.019 284.14 164.346 284.02 163.746 283.78C163.153 283.533 162.646 283.183 162.226 282.73C161.806 282.277 161.483 281.73 161.256 281.09C161.036 280.45 160.926 279.73 160.926 278.93C160.926 278.137 161.036 277.42 161.256 276.78C161.483 276.133 161.806 275.583 162.226 275.13C162.646 274.677 163.153 274.327 163.746 274.08C164.346 273.833 165.019 273.71 165.766 273.71ZM165.766 282.75C166.766 282.75 167.513 282.417 168.006 281.75C168.499 281.077 168.746 280.14 168.746 278.94C168.746 277.733 168.499 276.793 168.006 276.12C167.513 275.447 166.766 275.11 165.766 275.11C165.259 275.11 164.816 275.197 164.436 275.37C164.063 275.543 163.749 275.793 163.496 276.12C163.249 276.447 163.063 276.85 162.936 277.33C162.816 277.803 162.756 278.34 162.756 278.94C162.756 280.14 163.003 281.077 163.496 281.75C163.996 282.417 164.753 282.75 165.766 282.75ZM172.844 284V273.87H173.914C174.167 273.87 174.324 273.993 174.384 274.24L174.514 275.28C174.887 274.82 175.307 274.443 175.774 274.15C176.24 273.857 176.78 273.71 177.394 273.71C178.074 273.71 178.624 273.9 179.044 274.28C179.47 274.66 179.777 275.173 179.964 275.82C180.11 275.453 180.297 275.137 180.524 274.87C180.757 274.603 181.017 274.383 181.304 274.21C181.59 274.037 181.894 273.91 182.214 273.83C182.54 273.75 182.87 273.71 183.204 273.71C183.737 273.71 184.21 273.797 184.624 273.97C185.044 274.137 185.397 274.383 185.684 274.71C185.977 275.037 186.2 275.44 186.354 275.92C186.507 276.393 186.584 276.937 186.584 277.55V284H184.794V277.55C184.794 276.757 184.62 276.157 184.274 275.75C183.927 275.337 183.427 275.13 182.774 275.13C182.48 275.13 182.2 275.183 181.934 275.29C181.674 275.39 181.444 275.54 181.244 275.74C181.044 275.94 180.884 276.193 180.764 276.5C180.65 276.8 180.594 277.15 180.594 277.55V284H178.804V277.55C178.804 276.737 178.64 276.13 178.314 275.73C177.987 275.33 177.51 275.13 176.884 275.13C176.444 275.13 176.037 275.25 175.664 275.49C175.29 275.723 174.947 276.043 174.634 276.45V284H172.844ZM196.069 277.83C196.069 277.417 196.009 277.04 195.889 276.7C195.776 276.353 195.606 276.057 195.379 275.81C195.159 275.557 194.889 275.363 194.569 275.23C194.249 275.09 193.886 275.02 193.479 275.02C192.626 275.02 191.949 275.27 191.449 275.77C190.956 276.263 190.649 276.95 190.529 277.83H196.069ZM197.509 282.58C197.289 282.847 197.026 283.08 196.719 283.28C196.412 283.473 196.082 283.633 195.729 283.76C195.382 283.887 195.022 283.98 194.649 284.04C194.276 284.107 193.906 284.14 193.539 284.14C192.839 284.14 192.192 284.023 191.599 283.79C191.012 283.55 190.502 283.203 190.069 282.75C189.642 282.29 189.309 281.723 189.069 281.05C188.829 280.377 188.709 279.603 188.709 278.73C188.709 278.023 188.816 277.363 189.029 276.75C189.249 276.137 189.562 275.607 189.969 275.16C190.376 274.707 190.872 274.353 191.459 274.1C192.046 273.84 192.706 273.71 193.439 273.71C194.046 273.71 194.606 273.813 195.119 274.02C195.639 274.22 196.086 274.513 196.459 274.9C196.839 275.28 197.136 275.753 197.349 276.32C197.562 276.88 197.669 277.52 197.669 278.24C197.669 278.52 197.639 278.707 197.579 278.8C197.519 278.893 197.406 278.94 197.239 278.94H190.469C190.489 279.58 190.576 280.137 190.729 280.61C190.889 281.083 191.109 281.48 191.389 281.8C191.669 282.113 192.002 282.35 192.389 282.51C192.776 282.663 193.209 282.74 193.689 282.74C194.136 282.74 194.519 282.69 194.839 282.59C195.166 282.483 195.446 282.37 195.679 282.25C195.912 282.13 196.106 282.02 196.259 281.92C196.419 281.813 196.556 281.76 196.669 281.76C196.816 281.76 196.929 281.817 197.009 281.93L197.509 282.58ZM201.545 275.9C201.865 275.207 202.259 274.667 202.725 274.28C203.192 273.887 203.762 273.69 204.435 273.69C204.649 273.69 204.852 273.713 205.045 273.76C205.245 273.807 205.422 273.88 205.575 273.98L205.445 275.31C205.405 275.477 205.305 275.56 205.145 275.56C205.052 275.56 204.915 275.54 204.735 275.5C204.555 275.46 204.352 275.44 204.125 275.44C203.805 275.44 203.519 275.487 203.265 275.58C203.019 275.673 202.795 275.813 202.595 276C202.402 276.18 202.225 276.407 202.065 276.68C201.912 276.947 201.772 277.253 201.645 277.6V284H199.855V273.87H200.875C201.069 273.87 201.202 273.907 201.275 273.98C201.349 274.053 201.399 274.18 201.425 274.36L201.545 275.9ZM219.578 271.91C219.518 272.01 219.451 272.087 219.378 272.14C219.311 272.187 219.228 272.21 219.128 272.21C219.015 272.21 218.881 272.153 218.728 272.04C218.575 271.927 218.381 271.803 218.148 271.67C217.921 271.53 217.645 271.403 217.318 271.29C216.998 271.177 216.608 271.12 216.148 271.12C215.715 271.12 215.331 271.18 214.998 271.3C214.671 271.413 214.395 271.57 214.168 271.77C213.948 271.97 213.781 272.207 213.668 272.48C213.555 272.747 213.498 273.037 213.498 273.35C213.498 273.75 213.595 274.083 213.788 274.35C213.988 274.61 214.248 274.833 214.568 275.02C214.895 275.207 215.261 275.37 215.668 275.51C216.081 275.643 216.501 275.783 216.928 275.93C217.361 276.077 217.781 276.243 218.188 276.43C218.601 276.61 218.968 276.84 219.288 277.12C219.615 277.4 219.875 277.743 220.068 278.15C220.268 278.557 220.368 279.057 220.368 279.65C220.368 280.277 220.261 280.867 220.048 281.42C219.835 281.967 219.521 282.443 219.108 282.85C218.701 283.257 218.198 283.577 217.598 283.81C217.005 284.043 216.328 284.16 215.568 284.16C214.635 284.16 213.788 283.993 213.028 283.66C212.268 283.32 211.618 282.863 211.078 282.29L211.638 281.37C211.691 281.297 211.755 281.237 211.828 281.19C211.908 281.137 211.995 281.11 212.088 281.11C212.175 281.11 212.271 281.147 212.378 281.22C212.491 281.287 212.618 281.373 212.758 281.48C212.898 281.587 213.058 281.703 213.238 281.83C213.418 281.957 213.621 282.073 213.848 282.18C214.081 282.287 214.345 282.377 214.638 282.45C214.931 282.517 215.261 282.55 215.628 282.55C216.088 282.55 216.498 282.487 216.858 282.36C217.218 282.233 217.521 282.057 217.768 281.83C218.021 281.597 218.215 281.32 218.348 281C218.481 280.68 218.548 280.323 218.548 279.93C218.548 279.497 218.448 279.143 218.248 278.87C218.055 278.59 217.798 278.357 217.478 278.17C217.158 277.983 216.791 277.827 216.378 277.7C215.965 277.567 215.545 277.433 215.118 277.3C214.691 277.16 214.271 277 213.858 276.82C213.445 276.64 213.078 276.407 212.758 276.12C212.438 275.833 212.178 275.477 211.978 275.05C211.785 274.617 211.688 274.083 211.688 273.45C211.688 272.943 211.785 272.453 211.978 271.98C212.178 271.507 212.465 271.087 212.838 270.72C213.218 270.353 213.681 270.06 214.228 269.84C214.781 269.62 215.415 269.51 216.128 269.51C216.928 269.51 217.655 269.637 218.308 269.89C218.968 270.143 219.548 270.51 220.048 270.99L219.578 271.91ZM230.822 273.87V284H229.762C229.509 284 229.349 283.877 229.282 283.63L229.142 282.54C228.702 283.027 228.209 283.42 227.662 283.72C227.115 284.013 226.489 284.16 225.782 284.16C225.229 284.16 224.739 284.07 224.312 283.89C223.892 283.703 223.539 283.443 223.252 283.11C222.965 282.777 222.749 282.373 222.602 281.9C222.462 281.427 222.392 280.903 222.392 280.33V273.87H224.172V280.33C224.172 281.097 224.345 281.69 224.692 282.11C225.045 282.53 225.582 282.74 226.302 282.74C226.829 282.74 227.319 282.617 227.772 282.37C228.232 282.117 228.655 281.77 229.042 281.33V273.87H230.822ZM235.434 281.56C235.761 282 236.118 282.31 236.504 282.49C236.891 282.67 237.324 282.76 237.804 282.76C238.751 282.76 239.478 282.423 239.984 281.75C240.491 281.077 240.744 280.117 240.744 278.87C240.744 278.21 240.684 277.643 240.564 277.17C240.451 276.697 240.284 276.31 240.064 276.01C239.844 275.703 239.574 275.48 239.254 275.34C238.934 275.2 238.571 275.13 238.164 275.13C237.584 275.13 237.074 275.263 236.634 275.53C236.201 275.797 235.801 276.173 235.434 276.66V281.56ZM235.344 275.44C235.771 274.913 236.264 274.49 236.824 274.17C237.384 273.85 238.024 273.69 238.744 273.69C239.331 273.69 239.861 273.803 240.334 274.03C240.808 274.25 241.211 274.58 241.544 275.02C241.878 275.453 242.134 275.993 242.314 276.64C242.494 277.287 242.584 278.03 242.584 278.87C242.584 279.617 242.484 280.313 242.284 280.96C242.084 281.6 241.794 282.157 241.414 282.63C241.041 283.097 240.581 283.467 240.034 283.74C239.494 284.007 238.884 284.14 238.204 284.14C237.584 284.14 237.051 284.037 236.604 283.83C236.164 283.617 235.774 283.323 235.434 282.95V287.43H233.644V273.87H234.714C234.968 273.87 235.124 273.993 235.184 274.24L235.344 275.44ZM246.645 281.56C246.972 282 247.329 282.31 247.715 282.49C248.102 282.67 248.535 282.76 249.015 282.76C249.962 282.76 250.689 282.423 251.195 281.75C251.702 281.077 251.955 280.117 251.955 278.87C251.955 278.21 251.895 277.643 251.775 277.17C251.662 276.697 251.495 276.31 251.275 276.01C251.055 275.703 250.785 275.48 250.465 275.34C250.145 275.2 249.782 275.13 249.375 275.13C248.795 275.13 248.285 275.263 247.845 275.53C247.412 275.797 247.012 276.173 246.645 276.66V281.56ZM246.555 275.44C246.982 274.913 247.475 274.49 248.035 274.17C248.595 273.85 249.235 273.69 249.955 273.69C250.542 273.69 251.072 273.803 251.545 274.03C252.019 274.25 252.422 274.58 252.755 275.02C253.089 275.453 253.345 275.993 253.525 276.64C253.705 277.287 253.795 278.03 253.795 278.87C253.795 279.617 253.695 280.313 253.495 280.96C253.295 281.6 253.005 282.157 252.625 282.63C252.252 283.097 251.792 283.467 251.245 283.74C250.705 284.007 250.095 284.14 249.415 284.14C248.795 284.14 248.262 284.037 247.815 283.83C247.375 283.617 246.985 283.323 246.645 282.95V287.43H244.855V273.87H245.925C246.179 273.87 246.335 273.993 246.395 274.24L246.555 275.44ZM260.336 273.71C261.076 273.71 261.743 273.833 262.336 274.08C262.93 274.327 263.436 274.677 263.856 275.13C264.276 275.583 264.596 276.133 264.816 276.78C265.043 277.42 265.156 278.137 265.156 278.93C265.156 279.73 265.043 280.45 264.816 281.09C264.596 281.73 264.276 282.277 263.856 282.73C263.436 283.183 262.93 283.533 262.336 283.78C261.743 284.02 261.076 284.14 260.336 284.14C259.59 284.14 258.916 284.02 258.316 283.78C257.723 283.533 257.216 283.183 256.796 282.73C256.376 282.277 256.053 281.73 255.826 281.09C255.606 280.45 255.496 279.73 255.496 278.93C255.496 278.137 255.606 277.42 255.826 276.78C256.053 276.133 256.376 275.583 256.796 275.13C257.216 274.677 257.723 274.327 258.316 274.08C258.916 273.833 259.59 273.71 260.336 273.71ZM260.336 282.75C261.336 282.75 262.083 282.417 262.576 281.75C263.07 281.077 263.316 280.14 263.316 278.94C263.316 277.733 263.07 276.793 262.576 276.12C262.083 275.447 261.336 275.11 260.336 275.11C259.83 275.11 259.386 275.197 259.006 275.37C258.633 275.543 258.32 275.793 258.066 276.12C257.82 276.447 257.633 276.85 257.506 277.33C257.386 277.803 257.326 278.34 257.326 278.94C257.326 280.14 257.573 281.077 258.066 281.75C258.566 282.417 259.323 282.75 260.336 282.75ZM269.104 275.9C269.424 275.207 269.817 274.667 270.284 274.28C270.751 273.887 271.321 273.69 271.994 273.69C272.207 273.69 272.411 273.713 272.604 273.76C272.804 273.807 272.981 273.88 273.134 273.98L273.004 275.31C272.964 275.477 272.864 275.56 272.704 275.56C272.611 275.56 272.474 275.54 272.294 275.5C272.114 275.46 271.911 275.44 271.684 275.44C271.364 275.44 271.077 275.487 270.824 275.58C270.577 275.673 270.354 275.813 270.154 276C269.961 276.18 269.784 276.407 269.624 276.68C269.471 276.947 269.331 277.253 269.204 277.6V284H267.414V273.87H268.434C268.627 273.87 268.761 273.907 268.834 273.98C268.907 274.053 268.957 274.18 268.984 274.36L269.104 275.9ZM277.809 284.16C277.009 284.16 276.392 283.937 275.959 283.49C275.532 283.043 275.319 282.4 275.319 281.56V275.36H274.099C273.992 275.36 273.902 275.33 273.829 275.27C273.756 275.203 273.719 275.103 273.719 274.97V274.26L275.379 274.05L275.789 270.92C275.809 270.82 275.852 270.74 275.919 270.68C275.992 270.613 276.086 270.58 276.199 270.58H277.099V274.07H280.029V275.36H277.099V281.44C277.099 281.867 277.202 282.183 277.409 282.39C277.616 282.597 277.882 282.7 278.209 282.7C278.396 282.7 278.556 282.677 278.689 282.63C278.829 282.577 278.949 282.52 279.049 282.46C279.149 282.4 279.232 282.347 279.299 282.3C279.372 282.247 279.436 282.22 279.489 282.22C279.582 282.22 279.666 282.277 279.739 282.39L280.259 283.24C279.952 283.527 279.582 283.753 279.149 283.92C278.716 284.08 278.269 284.16 277.809 284.16Z" fill="#242424"/>
</svg>
