<svg width="31" height="30" viewBox="0 0 31 30" fill="none" xmlns="http://www.w3.org/2000/svg">
<path fill-rule="evenodd" clip-rule="evenodd" d="M30.5885 14.9511C30.5885 6.71522 23.9107 0.0375977 15.675 0.0375977C7.43916 0.0375977 0.761536 6.71522 0.761536 14.9511C0.761536 22.3941 6.21441 28.5641 13.345 29.6843V19.263H9.55735V14.9511H13.345V11.6646C13.345 7.92734 15.5722 5.86157 18.9781 5.86157C20.6098 5.86157 22.3169 6.15307 22.3169 6.15307V9.82329H20.4357C18.5839 9.82329 18.005 10.9726 18.005 12.1533V14.9509H22.1406L21.4801 19.2629H18.0049V29.6841C25.1355 28.5662 30.5882 22.3962 30.5882 14.9509L30.5885 14.9511Z" fill="white"/>
<path fill-rule="evenodd" clip-rule="evenodd" d="M21.4798 19.2627L22.1405 14.9507H18.0048V12.1531C18.0048 10.9744 18.5816 9.82307 20.4355 9.82307H22.3168V6.15284C22.3168 6.15284 20.6097 5.86133 18.978 5.86133C15.5721 5.86133 13.3449 7.92506 13.3449 11.6644V14.9508H9.55719V19.2628H13.3449V29.6841C14.104 29.8034 14.8821 29.8643 15.6749 29.8643C16.4676 29.8643 17.2457 29.8013 18.0048 29.6841V19.2628H21.48L21.4798 19.2627Z" fill="#053691"/>
</svg>
