<svg width="377" height="51" viewBox="0 0 377 51" fill="none" xmlns="http://www.w3.org/2000/svg">
<mask id="mask0_347_2003" style="mask-type:alpha" maskUnits="userSpaceOnUse" x="0" y="0" width="377" height="51">
<path fill-rule="evenodd" clip-rule="evenodd" d="M0 0.927246H376.82V51H0V0.927246Z" fill="white"/>
</mask>
<g mask="url(#mask0_347_2003)">
<path fill-rule="evenodd" clip-rule="evenodd" d="M366.338 17.0386H359.51V13.6772H376.82V17.0386H369.988V34.4249H366.222V17.0386H366.338ZM339.726 31.4113L342.081 28.7454C344.2 30.484 346.438 31.4113 349.146 31.4113C351.619 31.4113 353.384 30.3681 353.384 28.7454C353.384 27.2386 352.325 26.4272 348.086 25.4999C343.258 24.4568 340.55 23.1817 340.55 19.3567V19.2408C340.55 15.6476 343.729 13.2136 348.204 13.2136C351.501 13.2136 354.091 14.1408 356.447 15.8795L354.327 18.6613C352.325 17.2704 350.324 16.5749 348.204 16.5749C345.849 16.5749 344.318 17.6181 344.318 19.009V19.1249C344.318 20.7477 345.613 21.4431 349.97 22.3704C354.797 23.4136 357.153 25.0363 357.153 28.3977V28.5136C357.153 32.4545 353.857 34.7726 349.146 34.7726C345.731 34.6567 342.434 33.6136 339.726 31.4113ZM326.655 26.1954L318.53 13.5613H323.004L328.539 22.7181L334.191 13.5613H338.43L330.305 26.0795V34.4249H326.537V26.1954H326.655ZM306.283 13.5613H310.051V31.0636H321.238V34.4249H306.283V13.5613ZM295.567 26.0795L291.917 17.734L288.266 26.0795H295.567ZM290.15 13.4454H293.683L303.103 34.4249H299.1L296.98 29.4408H286.971L284.734 34.4249H280.965L290.15 13.4454ZM272.016 17.0386H265.304V13.6772H282.614V17.0386H275.902V34.4249H272.016V17.0386ZM259.652 26.0795L256.001 17.734L252.351 26.0795H259.652ZM254.235 13.4454H257.768L267.188 34.4249H263.302L261.182 29.4408H251.173L248.936 34.4249H244.932L254.235 13.4454ZM223.736 24.109C223.736 18.0817 228.211 13.2136 234.687 13.2136C238.573 13.2136 241.046 14.6045 243.048 16.459L240.693 19.1249C238.926 17.6181 237.16 16.5749 234.687 16.5749C230.684 16.5749 227.622 19.8204 227.622 23.8772V23.9931C227.622 28.0499 230.566 31.4113 234.687 31.4113C237.278 31.4113 238.926 30.3681 240.811 28.7454L243.166 31.1795C240.928 33.3817 238.456 34.8886 234.57 34.8886C228.328 34.7726 223.736 30.0204 223.736 24.109ZM134.831 13.5613H138.598V31.0636H149.785V34.4249H134.831V13.5613ZM124.115 26.0795L120.464 17.734L116.814 26.0795H124.115ZM118.698 13.3295H122.231L131.651 34.309H127.765L125.646 29.3249H115.401L113.163 34.309H109.395L118.698 13.3295ZM98.9149 23.7613C101.623 23.7613 103.272 22.3704 103.272 20.284C103.272 18.0817 101.623 16.8068 98.9149 16.8068H93.4982V23.7613H98.9149ZM89.7299 13.5613H99.2682C101.977 13.5613 104.096 14.3727 105.391 15.6476C106.451 16.8068 107.158 18.3136 107.158 20.1681V20.284C107.158 23.6454 105.038 25.7317 102.094 26.659L107.864 34.5408H103.39L98.0907 27.2386H93.3802V34.5408H89.6123V13.5613H89.7299ZM68.8872 13.5613H84.7842V16.8068H72.6555V22.2545H83.3711V25.4999H72.6555V31.0636H84.9018V34.309H68.8872V13.5613ZM45.5715 13.5613H48.9865L60.4087 27.934V13.5613H64.177V34.309H60.9976L49.2218 19.4726V34.309H45.5715V13.5613ZM24.8465 13.5613H40.6258V16.8068H28.4969V22.2545H39.2127V25.4999H28.4969V31.0636H40.7434V34.309H24.8465V13.5613ZM0 23.9931C0 18.0817 4.59248 13.0977 10.9513 13.0977C14.7195 13.0977 16.9568 14.1408 19.1942 15.9954L16.8391 18.7772C15.1905 17.3863 13.5419 16.5749 10.8335 16.5749C6.94761 16.5749 3.88594 19.9363 3.88594 23.8772V23.9931C3.88594 28.2818 6.82983 31.4113 11.069 31.4113C13.0709 31.4113 14.8372 30.8317 16.2503 29.7886V25.8477H10.4803V22.7181H19.9007V31.5272C17.7811 33.2658 14.7195 34.7726 11.069 34.7726C4.35695 34.6567 0 30.0204 0 23.9931Z" fill="#9C9C9C"/>
</g>
<mask id="mask1_347_2003" style="mask-type:alpha" maskUnits="userSpaceOnUse" x="0" y="0" width="377" height="51">
<path fill-rule="evenodd" clip-rule="evenodd" d="M0 0.927246H376.82V51H0V0.927246Z" fill="white"/>
</mask>
<g mask="url(#mask1_347_2003)">
<path fill-rule="evenodd" clip-rule="evenodd" d="M186.996 0.927246C173.337 0.927246 162.267 12.1704 162.267 25.9636C162.267 39.7569 173.337 51 186.996 51C200.656 51 211.725 39.7569 211.725 25.9636C211.725 25.1523 211.725 24.3409 211.607 23.5295H186.996C185.701 23.5295 184.641 24.5727 184.641 25.9636C184.641 27.3545 185.701 28.3977 186.996 28.3977H206.897L206.779 28.8613C205.366 38.7137 196.888 46.2476 186.996 46.2476C175.927 46.2476 166.978 37.2067 166.978 26.0795C166.978 14.9522 175.927 5.91133 186.996 5.91133C194.533 5.91133 201.598 10.3159 204.895 17.2704H210.076C206.544 7.41817 197.359 0.927246 186.996 0.927246Z" fill="#9C9C9C"/>
</g>
<mask id="mask2_347_2003" style="mask-type:alpha" maskUnits="userSpaceOnUse" x="0" y="0" width="377" height="51">
<path fill-rule="evenodd" clip-rule="evenodd" d="M0 0.927246H376.82V51H0V0.927246Z" fill="white"/>
</mask>
<g mask="url(#mask2_347_2003)">
<path fill-rule="evenodd" clip-rule="evenodd" d="M187.349 11.7065C179.578 11.7065 173.336 17.7338 173.336 25.2679C173.336 32.802 179.695 38.8294 187.349 38.8294C191.471 38.8294 195.357 37.0908 198.065 34.077H187.349C182.286 34.077 178.164 30.1361 178.164 25.2679C178.164 20.3997 182.286 16.4588 187.232 16.4588H197.947C195.357 13.4452 191.471 11.7065 187.349 11.7065Z" fill="#9C9C9C"/>
</g>
</svg>
