<svg width="149" height="23" viewBox="0 0 149 23" fill="none" xmlns="http://www.w3.org/2000/svg">
<path d="M20.0813 8.5572V6.46564C20.0813 6.46564 20.6082 0.563477 10.158 0.563477C0.464006 0.563477 0 6.46564 0 6.46564V16.9777C0 16.9777 0.814876 22.818 10.1595 22.818C18.0978 22.818 20.0826 18.6394 20.0826 18.6394V11.1373H10.1595V13.9648H14.8281V18.6394C14.8281 18.6394 14.5947 19.9906 10.1595 19.9906C4.9623 19.9906 5.25302 16.9777 5.25302 16.9777V6.46564C5.25302 6.46564 4.9623 3.27028 10.1595 3.27028C15.2378 3.27028 14.8281 6.46564 14.8281 6.46564V8.5572H20.0813Z" fill="#9C9C9C"/>
<path d="M38.4137 7.95568V22.1608H42.6456V11.1691C42.6456 11.1691 42.6456 9.35356 46.0914 9.35356C49.5656 9.35356 49.5656 11.1375 49.5656 11.1375V22.1728H53.7975V10.6761C53.7975 10.6761 53.6228 6.92725 46.0914 6.92725C43.5135 6.92725 41.8008 7.36758 40.6621 7.94513L40.6922 7.94212L38.4137 7.95568Z" fill="#9C9C9C"/>
<path d="M72.0458 7.95568V22.1608H76.2791V11.1691C76.2791 11.1691 76.2791 9.35356 79.7233 9.35356C83.1962 9.35356 83.1962 11.1375 83.1962 11.1375V22.1728H87.4296V10.6761C87.4296 10.6761 87.2548 6.92725 79.7233 6.92725C77.1426 6.92725 75.4327 7.36758 74.2942 7.94513L74.3213 7.94212L72.0458 7.95568Z" fill="#9C9C9C"/>
<path d="M114.835 16.0261H103.683C103.683 16.0261 103.655 18.656 103.674 18.656C103.691 18.6576 103.683 20.452 107.13 20.452C110.603 20.452 110.609 18.6469 110.609 18.6469L110.603 17.4693H114.835V18.6379C114.835 18.6379 115.157 22.8165 107.13 22.8165C99.0999 22.8165 99.4509 18.6379 99.4509 18.6379V11.3514C99.4509 11.3514 99.13 7.17285 107.13 7.17285C115.185 7.17285 114.835 11.3831 114.835 11.3831V16.0261ZM103.677 11.4434L103.683 13.0735H110.603C110.603 13.0735 110.614 11.4374 110.616 11.4434C110.616 11.4434 110.623 9.60068 107.13 9.60068C103.681 9.60068 103.677 11.4434 103.677 11.4434Z" fill="#9C9C9C"/>
<path d="M131.708 13.3404V11.3831C131.708 11.3831 132.059 7.17285 124.002 7.17285C116.002 7.17285 116.324 11.3514 116.324 11.3514V18.6379C116.324 18.6379 115.973 22.8165 124.002 22.8165C132.027 22.8165 131.708 18.6379 131.708 18.6379V16.8239H127.476L127.482 18.6469C127.482 18.6469 127.476 20.452 124.002 20.452C120.556 20.452 120.566 18.6379 120.547 18.6349C120.526 18.6349 120.556 11.4419 120.556 11.4419C120.569 11.4419 120.616 9.59917 124.176 9.59917C127.535 9.59917 127.476 11.4117 127.476 11.4117V13.3284L131.708 13.3404Z" fill="#9C9C9C"/>
<path d="M88.3934 7.7054H89.7339V4.2959H93.9686V7.70692H98.6086V10.1061H93.9686V18.8372C93.9686 18.8372 94.2006 21.0493 98.4067 20.4401C98.4067 20.4401 98.4311 22.6072 98.401 22.6101C94.7534 23.1077 89.7339 22.7081 89.7339 18.8372V10.1061H88.3934V7.7054Z" fill="#9C9C9C"/>
<path d="M133.372 0.753705C133.372 0.753705 137.605 0.792912 137.605 0.747673C137.605 0.716006 137.581 7.26359 137.607 7.26359C138.538 7.05398 139.657 6.9258 141.048 6.9258C148.579 6.9258 148.755 10.6746 148.755 10.6746V22.1713H144.524V11.1376C144.524 11.1376 144.524 9.35363 141.048 9.35363C137.605 9.35363 137.605 11.1692 137.605 11.1692V22.1608H133.372V0.753705Z" fill="#9C9C9C"/>
<path d="M70.6178 16.0261H59.4659C59.4659 16.0261 59.4387 18.656 59.4574 18.656C59.4773 18.6576 59.4659 20.452 62.9131 20.452C66.3859 20.452 66.3916 18.6469 66.3916 18.6469L66.3859 17.4693H70.6178V18.6379C70.6178 18.6379 70.9401 22.8165 62.9131 22.8165C54.8845 22.8165 55.234 18.6379 55.234 18.6379V11.3514C55.234 11.3514 54.9133 7.17285 62.9131 7.17285C70.9702 7.17285 70.6178 11.3831 70.6178 11.3831V16.0261ZM59.4602 11.4434L59.4659 13.0735H66.3859C66.3859 13.0735 66.3974 11.4374 66.3988 11.4434C66.3988 11.4434 66.406 9.60068 62.9131 9.60068C59.4646 9.60068 59.4602 11.4434 59.4602 11.4434Z" fill="#9C9C9C"/>
<path d="M36.9845 16.0261H25.834C25.834 16.0261 25.804 18.656 25.8226 18.656C25.844 18.6576 25.834 20.452 29.2754 20.452C32.7511 20.452 32.7598 18.6469 32.7598 18.6469L32.7511 17.4693H36.9845V18.6379C36.9845 18.6379 37.3068 22.8165 29.2754 22.8165C21.2499 22.8165 21.6021 18.6379 21.6021 18.6379V11.3514C21.6021 11.3514 21.2785 7.17285 29.2754 7.17285C37.334 7.17285 36.9845 11.3831 36.9845 11.3831V16.0261ZM25.8268 11.4434L25.834 13.0735H32.7511C32.7511 13.0735 32.7655 11.4374 32.7655 11.4434C32.7655 11.4434 32.7712 9.60068 29.2754 9.60068C25.834 9.60068 25.8268 11.4434 25.8268 11.4434Z" fill="#9C9C9C"/>
</svg>
