<svg width="31" height="30" viewBox="0 0 31 30" fill="none" xmlns="http://www.w3.org/2000/svg">
<path d="M15.6901 7.35216C15.4278 7.35216 15.1683 7.36554 14.9127 7.39172C14.6571 7.4179 14.4051 7.45669 14.1573 7.50761C13.9095 7.55854 13.6661 7.62161 13.4276 7.69605L12.7276 7.95308L12.0611 8.2749L11.4322 8.6576L10.8445 9.09715L10.3023 9.58973L9.8092 10.1315L9.36917 10.7185L8.986 11.3469L8.66399 12.0126C8.5672 12.2403 8.48109 12.4737 8.40657 12.7121C8.33204 12.9504 8.26897 13.1936 8.21793 13.4411C8.16692 13.6886 8.12812 13.9404 8.10184 14.1958C8.07557 14.4512 8.06238 14.7104 8.06238 14.9724C8.06238 15.2344 8.07576 15.4935 8.10184 15.7489C8.12779 16.0023 8.16652 16.2542 8.21793 16.5037C8.26897 16.7521 8.33204 16.9945 8.40657 17.2328C8.48109 17.4711 8.56709 17.7045 8.66399 17.9322L8.986 18.598L9.36917 19.2262L9.8092 19.8133L10.3023 20.3551L10.8445 20.8478L11.4322 21.2873L12.0611 21.6699L12.7276 21.9917L13.4276 22.2488L14.1573 22.4373C14.407 22.4887 14.6591 22.5274 14.9127 22.5533C15.171 22.5796 15.4305 22.5928 15.6901 22.5926C15.9523 22.5926 16.2118 22.5794 16.4673 22.5533C16.7209 22.5274 16.973 22.4887 17.2227 22.4373L17.9525 22.2488L18.6525 21.9917L19.3189 21.6699L19.9479 21.2873L20.5356 20.8478L21.078 20.3551L21.5711 19.8133L22.011 19.2262L22.3942 18.598L22.7163 17.9322L22.9736 17.2328C23.0481 16.9945 23.1113 16.7512 23.1623 16.5037L23.2783 15.7488C23.3046 15.4934 23.3178 15.2343 23.3178 14.9723C23.3178 14.7103 23.3046 14.4511 23.2783 14.1957C23.2524 13.9424 23.2136 13.6905 23.1623 13.441C23.1113 13.1926 23.0481 12.9504 22.9736 12.7119L22.7163 12.0125L22.3942 11.3468L22.011 10.7184L21.5711 10.1314L21.078 9.58963L20.5356 9.09705L19.9479 8.65752L19.3189 8.27482L18.6525 7.953L17.9525 7.69595L17.2227 7.50752L16.4673 7.39161C16.2091 7.36525 15.9496 7.35213 15.6901 7.35216ZM15.6901 9.98237C15.8635 9.98237 16.0346 9.99097 16.2032 10.008L16.7001 10.0832L17.18 10.2055L17.6396 10.3724L18.0766 10.5817L18.4875 10.8306L18.8716 11.117L19.2257 11.4382L19.5473 11.792L19.8339 12.1757L20.0831 12.5872L20.2924 13.0238C20.3553 13.1733 20.4111 13.3265 20.4596 13.4831C20.5082 13.6397 20.549 13.7997 20.5819 13.9628C20.6149 14.1258 20.6393 14.2917 20.6571 14.4601L20.6827 14.9728C20.6827 15.1461 20.6742 15.3171 20.6571 15.4857C20.6401 15.6543 20.6151 15.8201 20.5819 15.9831C20.5488 16.146 20.5079 16.306 20.4596 16.4627L20.2924 16.922L20.0831 17.3586L19.8339 17.77L19.5473 18.1538L19.2257 18.5076L18.8716 18.8288L18.4875 19.1152L18.0766 19.3641L17.6396 19.5734L17.18 19.7403L16.7001 19.8626L16.2032 19.9377C16.0326 19.9548 15.8614 19.9634 15.69 19.9633C15.5185 19.9634 15.3472 19.9548 15.1767 19.9377L14.6798 19.8626C14.5167 19.8296 14.3565 19.7887 14.1997 19.7403L13.7401 19.5734L13.3031 19.3641L12.8922 19.1152L12.5081 18.8288L12.154 18.5076L11.8325 18.1538L11.5458 17.77L11.2966 17.3586L11.0873 16.922L10.9201 16.4627L10.7978 15.9831L10.7226 15.4857C10.7055 15.3153 10.6969 15.1441 10.697 14.9728C10.6969 14.8016 10.7055 14.6305 10.7226 14.4601C10.7395 14.2917 10.7646 14.1257 10.7978 13.9628C10.8306 13.801 10.8715 13.6409 10.9202 13.4832L11.0874 13.0239L11.2967 12.5873L11.5459 12.1758L11.8325 11.7921L12.1541 11.4383L12.5082 11.1171L12.8923 10.8307L13.3032 10.5818L13.7402 10.3725C13.8906 10.3093 14.044 10.2536 14.1999 10.2056L14.68 10.0833C14.8431 10.0502 15.0092 10.025 15.1768 10.0081C15.3474 9.99099 15.5186 9.98235 15.6901 9.98237Z" fill="white"/>
<path d="M23.627 5.18408C23.5665 5.18408 23.506 5.18715 23.4458 5.19326C23.3855 5.19935 23.3256 5.20846 23.2662 5.22058C23.2069 5.2327 23.1481 5.24777 23.0903 5.26577C23.0323 5.2838 22.9756 5.30472 22.9197 5.32845C22.8639 5.35223 22.8095 5.37881 22.7562 5.40805C22.703 5.43726 22.6514 5.46912 22.6015 5.50352C22.5514 5.53795 22.5031 5.57488 22.4569 5.61417C22.4105 5.65342 22.3662 5.69497 22.3239 5.73868C22.2819 5.7824 22.2419 5.82824 22.2042 5.87598C22.1665 5.92375 22.1313 5.97336 22.0986 6.02466C22.0659 6.07593 22.0358 6.12881 22.0083 6.1831C21.9809 6.23743 21.9561 6.2931 21.9341 6.34994C21.9122 6.40674 21.8931 6.46463 21.8767 6.52335C21.8606 6.58209 21.8473 6.6416 21.8372 6.70167C21.8268 6.76172 21.8196 6.82224 21.8152 6.88304C21.8121 6.92608 21.8107 6.96924 21.8107 7.01241C21.8107 7.07339 21.8136 7.13433 21.8198 7.19502C21.8258 7.25566 21.8349 7.31596 21.8469 7.3757C21.8589 7.43543 21.8738 7.49453 21.8917 7.55275C21.9097 7.611 21.9304 7.66831 21.954 7.72447C21.9776 7.78064 22.0039 7.83559 22.0331 7.88911C22.0621 7.94262 22.0938 7.99463 22.128 8.04496C22.1622 8.09525 22.1988 8.14378 22.2378 8.19039C22.2769 8.23703 22.3181 8.28169 22.3616 8.32417C22.4051 8.36663 22.4505 8.40688 22.4981 8.44477C22.5456 8.48267 22.5949 8.51815 22.6458 8.55111C22.6968 8.58406 22.7494 8.61443 22.8032 8.64208C22.8573 8.66975 22.9126 8.69469 22.9689 8.71679C23.0255 8.73889 23.0829 8.75811 23.1413 8.77441C23.1997 8.7907 23.2587 8.80403 23.3184 8.81435C23.378 8.82473 23.4383 8.8321 23.4986 8.83643C23.5415 8.8395 23.5843 8.84101 23.6272 8.84103C23.6877 8.84103 23.7484 8.838 23.8087 8.83193C23.8687 8.82585 23.9288 8.81673 23.988 8.80461C24.0475 8.79252 24.1061 8.77742 24.1641 8.75942C24.2219 8.7414 24.2788 8.72048 24.3346 8.69674C24.3903 8.67298 24.445 8.64645 24.498 8.61722C24.5512 8.588 24.6028 8.5561 24.6529 8.52167C24.7028 8.48727 24.7511 8.45038 24.7975 8.41113C24.8437 8.37183 24.888 8.33026 24.9303 8.28652C24.9725 8.24279 25.0125 8.19695 25.05 8.14921C25.0877 8.10144 25.1229 8.05184 25.1556 8.00053C25.1884 7.94924 25.2186 7.89632 25.2459 7.84201C25.2735 7.78766 25.2983 7.73198 25.3203 7.67517C25.3423 7.61835 25.3613 7.56048 25.3775 7.50174C25.3936 7.44302 25.4069 7.38351 25.4172 7.32344C25.4276 7.26339 25.4348 7.20285 25.439 7.14207C25.4421 7.09901 25.4438 7.05587 25.4438 7.0127C25.4438 6.95174 25.4406 6.89082 25.4346 6.83018C25.4286 6.76953 25.4195 6.70923 25.4075 6.6495C25.3955 6.58976 25.3804 6.53066 25.3626 6.47244C25.3445 6.41419 25.3238 6.35688 25.3002 6.30073C25.2766 6.24455 25.2503 6.1896 25.2213 6.13608C25.1923 6.08258 25.1606 6.03057 25.1264 5.98023C25.092 5.9299 25.0554 5.88135 25.0164 5.8347C24.9773 5.78808 24.9361 5.74342 24.8928 5.70094C24.8493 5.65848 24.8037 5.61823 24.7563 5.58034C24.7089 5.54246 24.6596 5.507 24.6086 5.47409C24.5576 5.44113 24.505 5.41077 24.451 5.38311C24.3969 5.35544 24.3416 5.3305 24.2853 5.3084C24.2289 5.2863 24.1713 5.26708 24.1129 5.25078C24.0547 5.23446 23.9955 5.2211 23.9358 5.21074C23.8762 5.2004 23.8161 5.19305 23.7556 5.18876C23.7128 5.1857 23.6699 5.18408 23.627 5.18408Z" fill="white"/>
<path d="M14.2438 0.064731C13.4142 0.0633932 12.6738 0.0668328 12.0088 0.076197L10.2258 0.123974C9.69753 0.146907 9.23084 0.176813 8.81194 0.215512C8.60249 0.234814 8.40488 0.256409 8.2176 0.280202C8.03936 0.302666 7.86164 0.328822 7.6845 0.358653C7.51584 0.38732 7.35578 0.418278 7.20232 0.451912C7.04888 0.485548 6.90229 0.521858 6.76086 0.560845C6.62262 0.598967 6.48544 0.640901 6.34952 0.686594C6.21631 0.731504 6.08636 0.779091 5.95802 0.829925C5.70136 0.931595 5.45103 1.04568 5.19321 1.17353C4.99484 1.27196 4.81157 1.37162 4.63748 1.47711C4.46338 1.5826 4.29844 1.69402 4.13696 1.81537C3.97066 1.94095 3.81036 2.0743 3.65663 2.21499C3.49589 2.36137 3.33174 2.52237 3.16117 2.7023C2.94685 2.92714 2.76061 3.13678 2.5953 3.34251C2.51265 3.44533 2.43525 3.54701 2.36234 3.64925C2.29024 3.74999 2.22131 3.853 2.15566 3.95806C2.09068 4.06222 2.02914 4.1683 1.97028 4.27741C1.9105 4.38842 1.85401 4.50116 1.80087 4.61547C1.69213 4.84901 1.59065 5.10051 1.48936 5.38126C1.41422 5.58878 1.34693 5.7991 1.28765 6.0117C1.22716 6.22901 1.17336 6.45633 1.1254 6.70218C1.07743 6.94804 1.03557 7.21244 0.998786 7.50483C0.959144 7.82535 0.927474 8.14679 0.903807 8.46888C0.877052 8.823 0.854883 9.21267 0.836728 9.64638L0.793729 11.0885L0.770605 12.8464L0.763916 14.9712L0.783505 18.0611L0.844659 20.4022L0.891767 21.3166L0.950628 22.0745C0.969497 22.2787 0.993105 22.4823 1.02143 22.6855C1.04723 22.8659 1.07494 23.0238 1.10476 23.1605C1.16525 23.4382 1.23678 23.7135 1.31918 23.9857C1.39808 24.2462 1.4883 24.5031 1.5896 24.7558C1.68916 25.0033 1.79809 25.2419 1.91658 25.4716C2.03507 25.7013 2.16311 25.9221 2.30071 26.1343C2.43831 26.3461 2.58546 26.5495 2.74255 26.7443C2.89946 26.939 3.06636 27.1252 3.24259 27.3027C3.41907 27.4804 3.60522 27.6494 3.80139 27.8102C3.99986 27.9727 4.20621 28.1256 4.41961 28.2679C4.61769 28.4003 4.81368 28.5216 5.0111 28.6329C5.2085 28.7443 5.40763 28.8452 5.61232 28.9372C5.81699 29.0289 6.02683 29.1116 6.24604 29.1859C6.46522 29.2603 6.69361 29.3264 6.93498 29.385C7.17635 29.4438 7.43184 29.4952 7.70227 29.5401C7.97268 29.5851 8.26174 29.6236 8.57057 29.6567C8.8794 29.6899 9.20887 29.7172 9.56289 29.7402C9.91692 29.7632 10.2953 29.7814 10.7019 29.7961C11.33 29.8189 12.2807 29.8322 13.3771 29.8373L16.9265 29.8301L20.2875 29.7831L21.5655 29.747L22.3979 29.7044C22.5767 29.6897 22.7515 29.6725 22.9203 29.6524C23.0891 29.6323 23.2554 29.6093 23.4176 29.583C23.5796 29.5569 23.7381 29.5277 23.8936 29.4952C24.0475 29.4631 24.2006 29.4272 24.3526 29.3879C24.5032 29.3496 24.6517 29.3061 24.7988 29.2599C24.9456 29.2139 25.0912 29.164 25.2358 29.1103C25.3812 29.0565 25.5252 28.9991 25.6679 28.9384C25.8114 28.8771 25.9548 28.8118 26.0987 28.7424C26.3197 28.636 26.4977 28.5471 26.6538 28.4605C26.8009 28.38 26.9424 28.2899 27.0776 28.1907C27.211 28.0925 27.3436 27.9806 27.4965 27.8398C27.6493 27.6989 27.8227 27.5293 28.0371 27.3147C28.2258 27.1262 28.3846 26.9624 28.5218 26.8134C28.6589 26.6645 28.7745 26.5305 28.8757 26.4012C28.9723 26.2786 29.0622 26.151 29.1452 26.0189C29.2262 25.8898 29.3008 25.7558 29.3766 25.6073C29.4909 25.3838 29.5926 25.1767 29.6836 24.9768C29.772 24.7844 29.8528 24.5882 29.9257 24.3894C29.9976 24.192 30.0599 23.9913 30.1123 23.7879C30.1662 23.5787 30.2126 23.3577 30.2528 23.1153C30.2927 22.873 30.3267 22.6093 30.3561 22.3147C30.3855 22.0204 30.4106 21.6948 30.4325 21.3292L30.4909 20.1016L30.5409 18.5749L30.5767 16.8741L30.5904 15.0956L30.5585 11.6027L30.5158 10.0382L30.4576 8.69486L30.3849 7.64759C30.3586 7.35615 30.33 7.12663 30.3 6.97145C30.2664 6.79998 30.2291 6.62933 30.1879 6.45956C30.1477 6.2944 30.1036 6.13022 30.0556 5.96719C30.0088 5.80834 29.9578 5.65072 29.9029 5.49448C29.8486 5.34016 29.7911 5.18908 29.7308 5.04127C29.6707 4.89344 29.6055 4.74907 29.5377 4.60775C29.4698 4.46642 29.3987 4.32853 29.3242 4.19379C29.2494 4.05908 29.1717 3.92769 29.0903 3.79954C29.0091 3.67141 28.9244 3.54651 28.8362 3.42496C28.7486 3.30381 28.657 3.18544 28.5619 3.06998C28.4673 2.95519 28.3691 2.8434 28.2674 2.73478C28.1659 2.62633 28.0609 2.52111 27.9528 2.41928C27.8444 2.31741 27.733 2.2188 27.618 2.12343C27.5025 2.02776 27.3842 1.9357 27.2628 1.84738C27.1404 1.75816 27.0153 1.6727 26.8875 1.59111C26.758 1.50835 26.6263 1.42945 26.4921 1.35451C26.3558 1.27832 26.217 1.20605 26.0766 1.1378C25.8431 1.02438 25.6273 0.923759 25.4156 0.834513C25.2072 0.745939 24.9949 0.667273 24.7793 0.598781C24.5624 0.530458 24.3367 0.471886 24.0883 0.421337C23.8398 0.370789 23.5688 0.32865 23.2623 0.292816C22.9557 0.256985 22.6133 0.228032 22.2216 0.203953C21.8302 0.179873 21.3897 0.160952 20.8868 0.145664L19.1777 0.107443L17.0147 0.08193L14.2447 0.0649206L14.2438 0.064731ZM15.6823 2.69265L19.6768 2.71539L21.1837 2.74443C21.5986 2.7561 21.9153 2.76977 22.1009 2.78553C22.3428 2.80589 22.5729 2.83139 22.7933 2.86198C23.0046 2.89117 23.215 2.92746 23.4238 2.97081C23.6245 3.01286 23.8159 3.06062 23.9992 3.11452C24.1824 3.16841 24.3574 3.22881 24.5252 3.29559C24.6931 3.36239 24.8537 3.43586 25.0082 3.51633C25.1615 3.59618 25.3104 3.68404 25.4543 3.77957C25.5977 3.87465 25.7358 3.97709 25.8701 4.08745C26.0041 4.19781 26.1341 4.31611 26.2611 4.44262C26.3953 4.57612 26.519 4.71208 26.6329 4.85235C26.7464 4.99177 26.8517 5.13788 26.9476 5.28989C27.0447 5.44408 27.1321 5.60413 27.2096 5.76909C27.2887 5.93728 27.3597 6.115 27.4235 6.3039C27.4875 6.49283 27.5443 6.69358 27.5946 6.90811C27.6474 7.13554 27.6916 7.36487 27.7272 7.59562C27.7653 7.84024 27.798 8.1011 27.8258 8.3804C27.8533 8.65969 27.8763 8.95755 27.8952 9.27622C27.9103 9.53182 27.9236 9.86913 27.9347 10.2675L27.9627 11.6258L27.984 14.953L27.9598 18.277L27.9306 19.6314L27.8902 20.6164C27.8625 21.0778 27.833 21.4655 27.7978 21.8029C27.7802 21.9717 27.761 22.1279 27.7398 22.2744C27.7199 22.4127 27.6963 22.5505 27.6692 22.6876C27.6443 22.8127 27.6156 22.937 27.5826 23.0604C27.5513 23.1779 27.5159 23.2945 27.4768 23.4099C27.4372 23.5256 27.3943 23.6402 27.3479 23.7533C27.2988 23.873 27.2471 23.9913 27.1926 24.1085C27.1441 24.2131 27.0932 24.315 27.0393 24.414C26.9861 24.5122 26.9293 24.6083 26.8697 24.7026C26.8104 24.796 26.7483 24.8867 26.6833 24.9745C26.6186 25.0619 26.5509 25.1471 26.4801 25.2297C26.4096 25.3121 26.3361 25.3917 26.2597 25.4687C26.1832 25.5456 26.1039 25.6197 26.0217 25.6914C25.9397 25.7631 25.8543 25.832 25.7661 25.8983C25.678 25.9646 25.5867 26.0282 25.4925 26.0891C25.398 26.1502 25.3009 26.2086 25.2004 26.2645C25.0999 26.3203 24.9964 26.3735 24.8899 26.4242C24.7814 26.4758 24.6716 26.5241 24.5602 26.569C24.4452 26.6154 24.329 26.6585 24.2116 26.6985C23.9725 26.7799 23.7207 26.8513 23.4553 26.9129C23.179 26.9769 22.9 27.0291 22.6191 27.0695C22.511 27.0852 22.2629 27.1001 21.9074 27.1138L20.5529 27.1515L16.7126 27.2014L12.693 27.2076L11.1145 27.1908L10.0895 27.1589L9.33366 27.1057C9.09898 27.086 8.88073 27.0641 8.67625 27.039C8.47177 27.0141 8.28133 26.9864 8.10216 26.9549C7.93238 26.9257 7.76363 26.8905 7.5962 26.8499C7.44355 26.8128 7.29244 26.7695 7.14329 26.7202C6.99948 26.6724 6.86196 26.6198 6.7282 26.562C6.59441 26.5042 6.46446 26.4408 6.33575 26.3716C6.20703 26.3024 6.07967 26.2275 5.95085 26.1454C5.85369 26.0837 5.75975 26.0212 5.66936 25.9551C5.57897 25.8888 5.49162 25.8227 5.40755 25.7535C5.32345 25.6844 5.24271 25.6131 5.16483 25.5398C5.08747 25.4667 5.01278 25.3909 4.94086 25.3126C4.86919 25.2343 4.80067 25.1539 4.73493 25.0706C4.66894 24.9869 4.60605 24.9008 4.54642 24.8125C4.48588 24.7229 4.4286 24.6311 4.37471 24.5375C4.32023 24.4428 4.26845 24.345 4.21924 24.244C4.16919 24.1412 4.12251 24.0368 4.07926 23.931C4.0353 23.8231 3.99363 23.7118 3.95446 23.5971C3.8761 23.3672 3.80731 23.1226 3.74749 22.8618C3.68767 22.601 3.63664 22.3239 3.59345 22.0285C3.55026 21.7333 3.51549 21.4201 3.48777 21.0875C3.46733 20.8425 3.45109 20.4607 3.43866 19.9791L3.41267 18.2663L3.42221 13.9L3.49742 9.7277L3.55476 8.25771L3.58724 7.7718C3.59853 7.64206 3.61019 7.54593 3.62212 7.4882C3.66149 7.29834 3.70114 7.12166 3.74213 6.95626C3.78043 6.80021 3.82304 6.64528 3.86989 6.49159C3.91442 6.34653 3.96134 6.21065 4.0115 6.08194C4.05987 5.95725 4.11379 5.83479 4.17309 5.71493C4.23098 5.59835 4.2932 5.48673 4.36075 5.37809C4.42831 5.26945 4.50122 5.16406 4.58072 5.05923C4.66022 4.9544 4.74583 4.85092 4.83899 4.74601C4.93216 4.64109 5.03279 4.53513 5.1419 4.42591C5.26908 4.298 5.4015 4.17542 5.53883 4.0585C5.66851 3.94818 5.80373 3.84455 5.94398 3.74805C6.08186 3.65248 6.22329 3.56745 6.37054 3.48928C6.51779 3.41113 6.67086 3.3405 6.83187 3.27697C6.99287 3.21342 7.16201 3.15656 7.34116 3.10497C7.5294 3.05217 7.71971 3.00712 7.91162 2.96994C8.11343 2.9304 8.32777 2.89589 8.55661 2.86579C8.78547 2.8357 9.02893 2.8097 9.28923 2.78714C9.47078 2.77149 9.78361 2.75752 10.1956 2.74578L11.6948 2.71616L15.683 2.69178L15.6823 2.69265Z" fill="white"/>
</svg>
