<svg width="234" height="48" viewBox="0 0 234 48" fill="none" xmlns="http://www.w3.org/2000/svg">
<path d="M23.5804 0.708984H9.85449V1.85357H14.2538V24.5691C14.2538 31.3485 12.3181 33.2855 8.09476 33.2855C6.511 33.4616 5.10322 32.317 4.92725 30.7322C4.92725 30.5561 4.92725 30.38 4.92725 30.2039C4.92725 27.7387 4.75127 26.2419 2.55161 26.2419C0.351947 26.2419 0 28.5311 0 29.2354C0 32.405 1.40778 34.7821 7.65482 34.7821C15.1337 34.7821 19.0931 32.317 19.0931 23.9528V1.85357H23.6684L23.5804 0.708984Z" fill="#9C9C9C"/>
<path d="M25.3401 29.4116C24.6362 29.4116 23.9323 29.6758 23.4044 30.204C22.8765 30.7323 22.6125 31.4367 22.6125 32.141C22.6125 32.8454 22.8765 33.5497 23.4044 33.9898C23.9323 34.5183 24.6362 34.7823 25.3401 34.7823C26.044 34.7823 26.7479 34.5183 27.2758 33.9898C27.8037 33.4617 28.0677 32.8454 28.0677 32.141C28.0677 30.6443 26.9238 29.4997 25.4281 29.4997H25.3401" fill="#9C9C9C"/>
<path d="M55.8714 29.4117C54.4635 29.4117 53.2318 30.5563 53.1438 31.9651V32.0531C53.1438 32.7574 53.4956 33.4618 54.0237 33.9021C54.5514 34.4302 55.2554 34.6946 55.9594 34.6946C56.6633 34.6946 57.367 34.4302 57.895 33.9021C58.4231 33.4618 58.687 32.7574 58.687 32.0531C58.687 31.3487 58.4231 30.6444 57.895 30.1161C57.367 29.5878 56.7513 29.3237 56.0473 29.3237" fill="#9C9C9C"/>
<path d="M46.3689 0.708984H32.8189V1.85357H36.7782V27.7387C36.8664 28.7952 36.7782 29.8517 36.4263 30.9083C36.0745 31.6126 35.4585 32.229 34.7545 32.405C33.9626 32.6692 33.0827 32.8453 32.203 32.8453V33.9019H46.5448V32.8453C45.577 32.8453 44.6971 32.7572 43.8172 32.4931C43.0253 32.2289 42.4093 31.7007 42.1454 30.9963C41.8816 30.292 41.7056 29.5876 41.7936 28.8833V19.9027H45.4011C55.7834 19.9027 58.687 15.7646 58.687 10.2178C58.687 4.67098 56.8392 0.708984 46.3689 0.708984ZM44.4332 18.582H41.7056V2.02965H44.169C52.1759 2.02965 54.1116 5.2873 54.1116 10.57C54.1116 15.8526 50.9442 18.7581 44.6092 18.7581" fill="#9C9C9C"/>
<path d="M101.536 30.8201C101.273 30.1157 101.184 29.3233 101.273 28.5309V1.85341H104.88V0.796875H96.3451L85.9627 26.0657C85.9627 26.1537 85.8748 26.2418 85.7868 26.2418C85.6988 26.2418 85.6109 26.1537 85.5229 26.0657C85.5229 26.0657 74.7884 1.06101 74.7005 0.796875H65.198V1.85341H69.3332V29.9396C69.3332 30.556 69.0693 31.0842 68.8055 31.6125C68.4533 32.1408 67.9256 32.4929 67.3096 32.669C66.6936 32.8451 65.9899 32.8451 65.3739 32.8451V33.9016H74.7884V32.8451C74.1724 32.8451 73.6447 32.7571 73.1166 32.581C72.413 32.4049 71.8849 32.0527 71.4451 31.5244C71.093 30.9962 70.9171 30.4679 70.8291 29.8516L70.7412 27.4744V5.28715H71.2689C71.2689 5.28715 83.499 33.5495 83.499 33.9016H84.643L96.1692 5.55129H96.433V28.3548C96.433 29.1472 96.3451 29.9396 96.1692 30.732C95.9053 31.4364 95.3772 31.9647 94.7615 32.2288C93.9696 32.4929 93.1777 32.669 92.3857 32.669V33.7256H105.496V32.669C104.704 32.669 103.824 32.4929 103.032 32.2288C102.328 31.8766 101.8 31.2603 101.536 30.556" fill="#9C9C9C"/>
<path d="M119.222 9.60156C112.183 9.60156 107.784 14.1799 107.784 22.28C107.784 34.1659 117.022 34.8703 119.046 34.8703C123.005 34.8703 130.484 32.4051 130.484 22.0159C130.396 13.9158 125.645 9.60156 119.222 9.60156ZM119.134 33.3736C113.854 33.3736 113.062 30.7323 113.062 22.368C113.062 15.8527 113.503 10.9223 119.134 10.9223C125.205 10.9223 125.293 16.0288 125.293 21.8398C125.293 30.3801 123.797 33.3736 119.134 33.3736Z" fill="#9C9C9C"/>
<path d="M148.785 9.95361C144.562 9.95361 143.33 12.4188 142.098 14.9722H141.746C141.746 14.9722 141.13 11.3623 140.954 10.2178H132.771V11.4504H137.171V27.9147C137.259 29.0593 137.083 30.2039 136.643 31.2604C136.203 32.0528 135.147 32.493 133.563 32.493H132.859V33.9897H146.409V32.493H145.793C144.034 32.493 143.242 32.1409 142.802 31.3484C142.362 30.2919 142.098 29.0593 142.274 27.9147V19.3744C142.274 16.557 144.474 13.2113 147.025 13.2113C149.665 13.2113 149.665 17.3494 152.744 15.6765C154.328 14.708 153.976 9.95361 148.785 9.95361Z" fill="#9C9C9C"/>
<path d="M202.896 31.4365C201.401 31.4365 200.961 30.6441 200.873 29.3235V16.2928C201.049 14.5319 200.433 12.683 199.201 11.3623C197.969 10.1297 195.506 9.42534 191.986 9.42534C189.347 9.24925 186.795 9.86558 184.508 11.2743C183.188 12.0667 182.396 13.5635 182.396 15.0602C182.308 15.6765 182.572 16.2928 183.012 16.7331C183.452 17.0852 183.979 17.2613 184.508 17.2613C185.827 17.2613 186.619 16.557 186.883 14.7961C186.883 13.7396 187.323 12.771 187.939 11.9787C188.819 11.1862 190.051 10.746 191.194 10.9221C192.514 10.746 193.922 11.2743 194.802 12.3308C195.506 13.3874 195.77 14.5319 195.77 15.7646V19.9027C191.458 20.2548 181.164 21.1353 181.604 28.8832C181.956 32.1409 184.771 34.6063 188.027 34.5179C191.106 34.4299 194.01 33.0213 195.946 30.5561C196.385 32.7572 198.321 34.2539 200.521 34.1659C203.688 34.1659 205.624 32.5811 205.8 28.7952H205.008C204.832 30.5561 203.776 31.4365 202.896 31.4365ZM195.77 28.8832C195.77 28.9713 195.77 28.9713 195.77 29.0593V29.1474C194.362 30.7322 192.426 31.7006 190.315 31.9648C188.291 32.0528 186.531 30.468 186.443 28.3549C186.443 28.1789 186.443 28.0028 186.443 27.8267C186.443 23.4244 192.514 21.2233 195.858 21.2233L195.77 28.8832Z" fill="#9C9C9C"/>
<path d="M230.7 31.2603C230.085 30.2038 229.82 28.9711 229.82 27.7385V16.9971C229.908 15.5883 229.644 14.2677 229.028 13.0351C228.501 12.0666 227.621 11.1861 226.653 10.6578C225.509 10.1296 224.277 9.86546 223.046 9.86546C219.79 9.77741 216.798 11.5383 215.303 14.4438H214.775L213.895 10.1296H206.592V11.3622H210.287V27.7385C210.287 28.707 210.199 29.5874 210.023 30.5559C209.848 31.2603 209.32 31.8766 208.616 32.0527C208 32.3168 207.296 32.4049 206.592 32.4049V33.9015H218.294V32.4049C217.414 32.4929 216.535 32.0527 215.918 31.4364C215.391 30.3798 215.127 29.2353 215.303 28.0907V21.8395C215.039 19.5503 215.391 17.2612 216.183 15.0601C217.151 13.3872 218.998 12.3307 220.934 12.4187C222.254 12.2426 223.574 12.947 224.189 14.0916C224.805 15.8525 225.069 17.7895 224.981 19.6384V27.3863C225.069 28.3548 225.069 29.3233 224.981 30.2918C224.893 30.9962 224.541 31.6125 223.925 31.9646C223.309 32.3168 222.694 32.4929 222.078 32.4929V33.9898H233.428V32.4929C232.02 32.3168 231.14 31.9646 230.7 31.2603Z" fill="#9C9C9C"/>
<path d="M177.644 8.63274C176.853 8.98492 176.325 9.68926 176.237 10.4817C176.061 11.4502 175.709 11.9784 175.181 12.1545C174.653 12.3306 174.037 12.2426 173.509 12.0665C171.398 10.2175 168.582 9.33711 165.854 9.51317C161.015 9.16102 156.704 12.7708 156.352 17.6133C156.352 17.9655 156.352 18.3177 156.352 18.6698C156.352 23.7764 158.288 26.0656 162.511 27.0341C162.775 27.0341 162.775 27.3862 162.511 27.3862C158.903 28.0025 155.736 29.0591 155.736 32.5809C155.736 34.2537 156.792 35.7506 158.376 36.2787C160.663 37.0711 163.039 37.4232 165.414 37.3352C167.262 37.3352 169.198 37.4232 171.045 37.5995C172.101 37.6875 173.157 38.0396 174.125 38.656C174.917 39.3605 175.357 40.3289 175.269 41.3854C175.269 43.058 174.213 44.5549 172.717 45.1713C170.694 46.1398 168.494 46.5799 166.294 46.4919C164.271 46.6679 162.159 46.2278 160.399 45.1713C159.343 44.3789 158.815 43.058 159.168 41.8255C159.519 40.857 158.991 39.7125 157.936 39.3605H157.672C156.88 39.2721 156.088 39.6245 155.648 40.2406C155.296 40.857 155.032 41.6495 155.12 42.4419C155.208 44.7309 156.792 46.5799 159.08 47.0203C161.191 47.7244 163.391 47.9888 165.59 47.9888C168.142 48.0768 170.694 47.6364 173.069 46.5799C175.885 45.3474 177.821 42.618 177.821 39.5365C177.909 38.0396 177.469 36.6311 176.677 35.3982C174.301 32.1407 170.958 32.5809 163.391 32.2287C159.783 32.2287 159.08 31.6124 159.08 30.5559C159.08 28.883 160.399 28.2667 165.59 27.4743C170.782 26.6819 175.621 24.7449 175.621 18.4937C175.621 16.997 175.357 15.4122 174.653 14.0034C175.621 14.2676 176.677 14.2676 177.644 14.0034C178.524 13.7393 179.316 13.123 179.756 12.3306C180.196 11.7143 180.372 10.8339 180.196 10.1295C179.756 8.80883 178.876 8.28055 177.644 8.63274ZM165.942 25.9775C162.863 25.9775 161.015 24.833 161.015 18.5818C161.015 14.1795 162.511 10.9219 165.942 10.9219C169.814 10.9219 170.87 13.9154 170.87 18.4937C170.782 25.009 168.758 25.9775 165.942 25.9775Z" fill="#9C9C9C"/>
</svg>
