<svg width="146" height="59" viewBox="0 0 146 59" fill="none" xmlns="http://www.w3.org/2000/svg">
<path d="M113.55 0V29.1477L113.18 29.4548L112.811 29.7619L112.456 30.0844L112.117 30.4069L111.794 30.7294L111.47 31.0673L111.162 31.4051L110.854 31.743V0H78.4482V26.5369H75.7669V0H43.3614V26.583H40.6801V0H8.27473V30.2994L0 57.7731H7.27314L10.9251 45.6104H11.9729L18.0133 57.7731H26.7966L20.9411 45.6104H34.2238L30.541 57.7731H38.4767L42.1131 45.6412H43.8701V45.6104H46.3662H46.5667H61.5598L58.0462 57.7423H66.0593L69.4648 45.6104H73.0703L73.1627 57.7423H79.8812L87.601 45.6104H92.6553L90.0358 57.7423H97.9255L100.499 45.6104H105.06L105.029 46.3013L105.045 47.008L105.076 47.6834L105.138 48.3593L105.184 48.6818L105.23 49.0043L105.292 49.3269L105.353 49.6494L105.43 49.9719L105.507 50.279L105.6 50.5861L105.692 50.8932L105.8 51.2003L105.908 51.492L106.031 51.7837L106.154 52.0603L106.293 52.352L106.432 52.6283L106.586 52.8895L106.74 53.1658L106.91 53.4271L107.094 53.6729L107.28 53.9338L107.48 54.1642L107.68 54.41L107.88 54.6401L108.112 54.8705L108.343 55.0855L108.636 55.3314L108.929 55.5772L109.236 55.8072L109.56 56.0222L109.884 56.2372L110.207 56.4368L110.546 56.606L110.901 56.7902L111.24 56.9435L111.594 57.0973L111.949 57.2356L112.318 57.3736L112.688 57.4969L113.058 57.604L113.428 57.7115L113.798 57.804L114.537 57.9727L115.292 58.0957L116.032 58.2032L116.771 58.2953L117.496 58.3565L118.205 58.3873L118.898 58.4182H119.561L120.454 58.4036L121.348 58.389L122.257 58.3431L123.166 58.2969L124.076 58.2198L124.985 58.1431L125.894 58.051L126.803 57.9435L127.728 57.8206L128.652 57.6823L129.577 57.5289L130.501 57.3752L131.426 57.2064L132.35 57.0222L133.275 56.8376L134.215 56.6226L136.958 45.6116H145.957V0.00142075H113.551L113.55 0ZM11.2795 44.4741L11.3257 44.3053L11.4337 44.4741H11.2795ZM39.5092 28.1341L39.0469 29.6852L34.7323 43.9674L34.5627 44.4741H20.3863L19.2922 42.1398L34.5627 26.583H24.7471L12.805 39.4061L16.6727 26.583H9.43038V1.15179H39.5091L39.5092 28.1341ZM47.8763 40.2047L47.6451 40.2193L47.4293 40.2339L47.1985 40.2484H46.9516H46.628H46.3509L46.089 40.263H45.8421L43.9161 40.2484L44.8097 36.962L45.2261 35.3342L46.2432 31.5103H46.5667H46.9056L47.2292 31.4957H47.5374H49.0321L49.9411 31.5103L50.7734 31.5411L51.1429 31.5556L51.4976 31.5864L51.8364 31.6325L52.1447 31.6786L52.4218 31.7247L52.6841 31.8015L52.9306 31.8784L53.1464 31.9706L53.3312 32.0627L53.5006 32.1857L53.6548 32.3086L53.7782 32.4622L53.8549 32.5851L53.9166 32.7081L53.9783 32.8463L54.0243 32.9999L54.0554 33.1687L54.0715 33.3376V33.5219V33.7215L54.0554 33.9365L54.0409 34.1515L53.9945 34.3972L53.9485 34.6429L53.8097 35.1651L53.6398 35.7486L53.4704 36.24L53.2856 36.7161L53.0851 37.1615L52.8697 37.5761L52.7615 37.7604L52.6534 37.9447L52.5304 38.129L52.3916 38.2978L52.2528 38.4667L52.114 38.6202L51.9599 38.7738L51.8058 38.912L51.6359 39.0349L51.4665 39.1732L51.2817 39.2807L51.0812 39.4036L50.8811 39.5111L50.6653 39.6033L50.4494 39.6954L50.2183 39.7723L49.9718 39.8644L49.7099 39.9258L49.4328 39.9872L49.1552 40.0486L48.847 40.0947L48.5387 40.1408L48.2152 40.1715L47.8763 40.2023V40.2047ZM69.7883 44.4741L72.9473 33.2634L73.0703 44.4741H69.7883ZM74.5957 26.5369H67.076L61.8987 44.4741H53.9166L54.2865 44.3203L54.6565 44.167L55.0107 44.0132L55.3653 43.8445L55.7042 43.6757L56.0278 43.4761L56.3514 43.2915L56.6596 43.0919L56.9678 42.8769L57.2607 42.6619L57.5379 42.4469L57.8154 42.2015L58.0773 41.971L58.3238 41.7098L58.5703 41.4643L58.8014 41.1877L59.0326 40.9268L59.2485 40.6351L59.4486 40.3585L59.6491 40.0513L59.8339 39.7442L60.0033 39.4371L60.1731 39.1146L60.3273 38.7767L60.4814 38.4389L60.6202 38.101L60.7432 37.7478L60.8667 37.3792L60.9591 37.0107L61.0668 36.6421L61.1438 36.2428L61.2209 35.8589L61.329 35.2446L61.4214 34.661L61.4827 34.1082L61.5291 33.586L61.5452 33.0639L61.5291 32.5879L61.5146 32.1118L61.4529 31.6664L61.3911 31.2518L61.2834 30.8371L61.1753 30.4532L61.0212 30.0846L60.8517 29.7314L60.667 29.3782L60.4511 29.0557L60.2046 28.7486L60.0041 28.5336L59.804 28.3186L59.5882 28.1343L59.357 27.9654L59.1105 27.7966L58.864 27.643L58.6021 27.5048L58.3399 27.3819L58.0628 27.2589L57.7852 27.1667L57.4927 27.0746L57.1998 26.9824L56.8916 26.9055L56.5833 26.8441L56.2751 26.7827L55.9515 26.7367L55.2891 26.6445L54.6262 26.5984L53.9485 26.5524L53.2549 26.5378H51.8683H50.4966H50.0653H49.2948H48.3394H47.2764H46.244H45.3653H44.7492H44.518V1.15261H74.5965V26.5378L74.5957 26.5369ZM92.8712 44.4741H88.3563L95.1978 33.724L92.8712 44.4741ZM109.683 27.0437L109.666 33.2634L109.281 33.8008L108.927 34.3537L108.572 34.9065L108.249 35.4594L107.94 36.0123L107.632 36.5805L107.37 37.1333L107.108 37.6861L106.862 38.2237L106.646 38.7765L106.43 39.314L106.245 39.8361L106.076 40.3583L105.922 40.8651L105.783 41.3564L105.659 41.8481L105.583 42.1702L105.506 42.5082L105.429 42.8307L105.367 43.1686L105.306 43.4911L105.259 43.8136L105.213 44.1362L105.182 44.4741H100.76L104.535 26.583L91.8073 26.5685L80.4198 44.4749H79.5875V1.15257H109.682V27.0445L109.683 27.0437ZM127.033 51.7991L126.402 51.9066L125.754 51.9991L125.107 52.0912L124.476 52.1678L123.844 52.2295L123.212 52.2753L122.595 52.3062H121.979H121.578L121.178 52.2916L120.793 52.2607L120.407 52.2149L120.038 52.1532L119.683 52.092L119.329 52.0153L118.99 51.9228L118.666 51.8153L118.342 51.7082L118.034 51.5699L117.742 51.4315L117.449 51.2628L117.172 51.094L116.909 50.9094L116.663 50.7252L116.416 50.5102L116.201 50.2798L115.985 50.0494L115.785 49.7885L115.6 49.5273L115.43 49.2356L115.276 48.9439L115.122 48.6368L114.999 48.3143L114.891 47.9609L114.798 47.6076L114.706 47.2392L114.644 46.8554L114.598 46.4558L114.567 46.0412L114.551 45.6112H128.573L127.033 51.8003L127.033 51.7991ZM144.815 44.4741H137.234L138.482 39.4676H123.289L122.041 44.4741H114.69V43.4449L114.783 43.0148L114.86 42.5852L114.952 42.1244L115.045 41.6635L115.183 41.1568L115.322 40.6501L115.476 40.1433L115.646 39.6519L115.831 39.1604L116.031 38.669L116.247 38.193L116.463 37.7168L116.709 37.2408L116.956 36.7955L117.218 36.3347L117.511 35.9047L117.803 35.4748L118.096 35.0601L118.419 34.6608L118.758 34.2769L119.113 33.9083L119.467 33.5705L119.852 33.2326L120.238 32.9101L120.638 32.6183L121.07 32.3419L121.501 32.0962L121.948 31.8659L122.411 31.6508L122.888 31.4666L123.381 31.313L123.89 31.1901L124.414 31.0826L124.953 31.0057L125.508 30.9597L126.078 30.9451L126.525 30.9597L126.972 30.9904L127.419 31.0518L127.85 31.144L128.066 31.2054L128.266 31.2667L128.466 31.3281L128.651 31.4203L128.836 31.4972L129.021 31.6046L129.191 31.7121L129.36 31.8196L129.514 31.9578L129.669 32.0961L129.807 32.2343L129.946 32.4032L130.069 32.5567L130.177 32.741L130.27 32.9406L130.362 33.1403L130.439 33.3553L130.5 33.5856L130.547 33.816L130.593 34.0771L130.609 34.3381V34.6146V34.9063L130.578 35.2135H139.639L139.778 34.5838L139.901 33.8621L139.963 33.4781L139.993 33.0635L140.025 32.6489V32.2188L140.01 31.7735L139.964 31.3128L139.918 31.0978L139.887 30.8674L139.825 30.6371L139.763 30.4067L139.686 30.161L139.61 29.9307L139.517 29.7003L139.409 29.4699L139.301 29.2396L139.162 29.0093L139.024 28.7789L138.869 28.5485L138.685 28.3028L138.485 28.0725L138.284 27.8421L138.068 27.6271L137.837 27.4121L137.591 27.2125L137.344 27.0282L137.082 26.8439L136.805 26.6596L136.527 26.5061L136.235 26.3525L135.926 26.199L135.618 26.0607L135.295 25.9225L134.956 25.7995L134.617 25.6766L134.277 25.5691L133.908 25.4769L133.553 25.3848L133.168 25.2926L132.783 25.2157L132.398 25.1389L131.997 25.0775L131.581 25.0314L130.734 24.9392L129.871 24.8624L128.961 24.8316L128.037 24.817L127.344 24.8316L126.619 24.8461L125.864 24.8922L125.078 24.9536L124.262 25.0458L123.43 25.1532L122.582 25.2915L121.719 25.4758L121.288 25.568L120.841 25.6754L120.409 25.7984L119.963 25.9213L119.516 26.0596L119.069 26.2131L118.622 26.3667L118.19 26.5355L117.744 26.7198L117.297 26.9195L116.865 27.1191L116.418 27.3341L115.987 27.5644L115.555 27.8101L115.124 28.0559L114.692 28.3323V1.15035H144.817V44.4725L144.815 44.4741Z" fill="#9C9C9C"/>
</svg>
