<svg width="41" height="34" viewBox="0 0 41 34" fill="none" xmlns="http://www.w3.org/2000/svg">
<mask id="mask0_1434_409" style="mask-type:luminance" maskUnits="userSpaceOnUse" x="0" y="0" width="41" height="34">
<path d="M40.2161 0H0.469238V33.9016H40.2161V0Z" fill="white"/>
</mask>
<g mask="url(#mask0_1434_409)">
<path d="M29.105 28.6489H24.1251V20.8469C24.1251 18.9864 24.0919 16.5914 21.5352 16.5914C18.9416 16.5914 18.5447 18.6185 18.5447 20.7114V28.6485H13.565V12.6042H18.3455V14.7968H18.4125C18.8909 13.9785 19.5822 13.3052 20.4128 12.8488C21.2434 12.3924 22.1822 12.17 23.1292 12.2051C28.1764 12.2051 29.1071 15.5265 29.1071 19.8473L29.105 28.6489ZM7.94616 10.4111C7.37461 10.4112 6.81584 10.2417 6.34056 9.92412C5.86526 9.60653 5.49482 9.15507 5.276 8.62682C5.0572 8.09857 4.99985 7.51727 5.11125 6.95644C5.22265 6.3956 5.49779 5.88039 5.90188 5.47599C6.30595 5.07158 6.82081 4.79615 7.38137 4.68448C7.94192 4.57282 8.52295 4.62998 9.05104 4.84869C9.57912 5.06743 10.0305 5.4379 10.3481 5.9133C10.6658 6.38868 10.8354 6.94763 10.8355 7.51944C10.8355 7.89911 10.7608 8.27507 10.6157 8.62586C10.4705 8.97667 10.2577 9.29541 9.98943 9.56392C9.72114 9.83245 9.40258 10.0455 9.05198 10.1908C8.7014 10.3362 8.32566 10.411 7.94616 10.4111ZM10.436 28.6489H5.4511V12.6042H10.436V28.6489ZM31.5876 0.00229078H2.94877C2.29876 -0.00504802 1.67238 0.246096 1.20736 0.700536C0.742328 1.15498 0.476683 1.77553 0.46875 2.42583V31.1965C0.476412 31.8472 0.7419 32.4681 1.20691 32.9231C1.67193 33.378 2.29843 33.6297 2.94877 33.6226H31.5876C32.2392 33.6308 32.8675 33.3799 33.3344 32.925C33.801 32.4702 34.0684 31.8484 34.0775 31.1965V2.42376C34.0681 1.77216 33.8006 1.1509 33.3339 0.696474C32.867 0.242047 32.239 -0.0083797 31.5876 0.000214096" fill="white"/>
</g>
</svg>
