<svg width="110" height="34" viewBox="0 0 110 34" fill="none" xmlns="http://www.w3.org/2000/svg">
<path d="M0 23.6128V0.489258H4.05337V23.6128H0Z" fill="#9C9C9C"/>
<path d="M14.4291 6.8374C9.23218 6.8374 5.6358 10.8416 5.6358 15.4249C5.6358 20.54 9.54824 24.0638 14.4695 24.0638C19.1401 24.0638 23.193 20.6048 23.193 15.4138C23.193 11.0486 19.8346 6.8374 14.4291 6.8374ZM14.3814 10.7558C17.1011 10.7558 19.103 12.8774 19.103 15.4395C19.103 18.1562 16.8959 20.138 14.4548 20.138C11.5705 20.138 9.75526 17.847 9.75526 15.4469C9.75526 12.8161 11.8047 10.7558 14.3814 10.7558Z" fill="#9C9C9C"/>
<path d="M33.377 6.8374C28.1802 6.8374 24.5837 10.8416 24.5837 15.4249C24.5837 20.54 28.4962 24.0638 33.4175 24.0638C38.088 24.0638 42.1409 20.6048 42.1409 15.4138C42.1409 12.3569 40.82 11.0006 40.82 11.0006L41.9434 10.6145V7.31787H36.1865C36.1865 7.31787 34.9385 6.8374 33.377 6.8374ZM33.3293 10.7558C36.0491 10.7558 38.051 12.8774 38.051 15.4395C38.051 18.1562 35.8439 20.138 33.4029 20.138C30.5185 20.138 28.7032 17.847 28.7032 15.4469C28.7032 12.8161 30.7526 10.7558 33.3293 10.7558Z" fill="#9C9C9C"/>
<path d="M38.0224 24.7427C38.0224 27.4594 35.8152 29.456 33.3742 29.456C30.4898 29.456 28.6674 27.1429 28.6674 24.7427H24.5552C24.5552 29.858 28.4677 33.3816 33.3888 33.3816C38.0596 33.3816 42.1125 29.9338 42.1125 24.7427H38.0224Z" fill="#9C9C9C"/>
<path d="M43.7646 23.6127V7.31787H47.818V23.6127H43.7646Z" fill="#9C9C9C"/>
<path d="M51.7539 23.6126V10.9676H49.5803V7.31777H51.7539V2.31396H55.8073V7.31777H58.0396V10.9676H55.8073V23.6126H51.7539Z" fill="#9C9C9C"/>
<path d="M48.4669 2.68979C48.4669 4.17532 47.2651 5.37957 45.7828 5.37957C44.3004 5.37957 43.0986 4.17532 43.0986 2.68979C43.0986 1.20426 44.3004 0 45.7828 0C47.2651 0 48.4669 1.20426 48.4669 2.68979Z" fill="#9C9C9C"/>
<path d="M67.1524 6.82666C61.9308 6.82666 58.5647 10.833 58.5647 15.5723C58.5647 20.4699 61.9419 24.075 67.2368 24.075C72.1759 24.075 74.6056 20.9845 74.6056 20.9845L71.896 18.2655C71.896 18.2655 69.8501 20.4768 67.2882 20.4768C65.1525 20.4768 63.4451 19.2823 62.8492 17.0918H75.4793V15.9733C75.4793 11.5104 72.9016 6.82666 67.1524 6.82666ZM67.0237 10.4029C68.891 10.4029 70.8007 11.404 71.2277 13.7952H62.739C63.0754 12.1143 64.5427 10.4029 67.0237 10.4029Z" fill="#9C9C9C"/>
<path d="M85.6181 24.0769C80.3817 24.0769 76.8137 20.0803 76.8137 15.368C76.8137 10.505 80.8462 6.82324 85.6012 6.82324C90.198 6.82324 92.5508 10.0751 92.5508 10.0751L89.7233 12.8958C89.7233 12.8958 88.0855 10.7751 85.582 10.7751C82.8074 10.7751 80.9101 12.9021 80.9101 15.4304C80.9101 18.1 82.9282 20.1482 85.5508 20.1482C88.0945 20.1482 89.7193 18.0309 89.7193 18.0309L92.5753 20.85C92.5753 20.85 90.2452 24.0769 85.6181 24.0769Z" fill="#9C9C9C"/>
<path d="M94.05 23.6244V0.430176H98.1034V8.95182C98.1034 8.95182 99.6554 6.82319 103.031 6.82319C107.276 6.82319 109.735 9.98496 109.735 14.0288V23.6244H105.681V14.6427C105.681 11.926 103.994 10.7989 102.124 10.7989C99.9934 10.7989 98.1034 12.0138 98.1034 14.8529V23.6244H94.05Z" fill="#9C9C9C"/>
</svg>
