<svg width="40" height="24" viewBox="0 0 40 24" fill="none" xmlns="http://www.w3.org/2000/svg">
<mask id="mask0_1434_399" style="mask-type:luminance" maskUnits="userSpaceOnUse" x="0" y="0" width="40" height="24">
<path d="M39.8144 0.81543H0.115356V23.0862H39.8144V0.81543Z" fill="white"/>
</mask>
<g mask="url(#mask0_1434_399)">
<path d="M22.5079 11.951C22.5079 18.1008 17.4951 23.0862 11.3119 23.0862C5.12856 23.0862 0.115356 18.0997 0.115356 11.951C0.115356 5.80232 5.12819 0.81543 11.3119 0.81543C17.4956 0.81543 22.5079 5.80119 22.5079 11.951ZM34.7905 11.951C34.7905 17.7397 32.2841 22.4343 29.1923 22.4343C26.1005 22.4343 23.5941 17.7397 23.5941 11.951C23.5941 6.16227 26.1 1.46772 29.192 1.46772C32.2838 1.46772 34.7902 6.16077 34.7902 11.951H34.7905ZM39.8144 11.951C39.8144 17.1363 38.9331 21.3424 37.8455 21.3424C36.758 21.3424 35.877 17.1374 35.877 11.951C35.877 6.7646 36.7583 2.55963 37.8455 2.55963C38.9326 2.55963 39.8144 6.76421 39.8144 11.951Z" fill="white"/>
</g>
</svg>
