<svg width="233" height="45" viewBox="0 0 233 45" fill="none" xmlns="http://www.w3.org/2000/svg">
<path d="M31.1388 37.1831L18.4288 19.7614V32.433H23.5131V44.9456H0V32.433H4.76601V12.9501H0V0.436523H18.4695L31.2011 18.0168L43.9601 0.436523H62.4284V12.9501H57.6616V32.433H62.4284V44.9456H38.9165V32.433H43.9993V19.7614L31.1388 37.1831Z" fill="#9C9C9C"/>
<path d="M156.838 1.04883C154.371 1.04883 152.247 2.54517 152.247 5.21662C152.247 7.98845 154.472 8.89854 155.656 9.32305C156.227 9.54544 156.839 9.72706 157.413 9.94809C158.105 10.2342 159.675 10.8793 159.675 12.4971C159.675 14.0363 158.331 14.6817 156.798 14.6817C154.637 14.6817 153.308 13.4272 152.512 11.1029L151.777 11.1813L151.987 13.9952L153.186 14.8661C153.756 15.2295 154.961 15.9976 156.92 15.9976C159.959 15.9976 162 13.9568 162 11.4887C162 9.76919 161.061 8.5149 159.919 7.8464C159.329 7.5033 158.657 7.27829 157.84 7.01794C156.228 6.49041 154.533 5.92091 154.533 4.22311C154.533 3.09074 155.43 2.36281 156.96 2.36281C158.103 2.36281 159.083 2.77632 159.775 3.66594C160.346 4.41719 160.532 4.85029 160.776 5.78052L161.487 5.64069L161.02 1.39239L160.145 2.01745C158.922 1.24856 157.799 1.04883 156.838 1.04883ZM212.954 1.14841C208.328 1.12672 205.695 4.64761 205.695 8.55171C205.695 13.1054 208.967 16.099 213.149 16.099C216.964 16.099 220.35 13.5104 220.35 8.57285C220.35 4.24298 217.311 1.16881 212.954 1.14841ZM184.702 1.33064V2.11885C186.089 2.20022 186.108 2.24014 187.148 3.77792L190.98 9.6662V12.1728C190.961 13.7322 190.96 14.096 190.634 14.4188C190.347 14.7022 189.92 14.7438 188.798 14.8658V15.635H195.891V14.8658C193.752 14.7438 193.731 14.5425 193.731 11.9525V8.97547L195.972 5.25476C197.624 2.5847 198.05 2.16085 199.498 2.11886V1.33065H193.874V2.11886C194.873 2.17988 195.462 2.20048 195.462 2.88801C195.462 3.21346 195.261 3.63791 194.892 4.34585L192.856 7.90123L190.653 4.32458C190.287 3.71706 190.023 3.27175 190.023 2.88801C190.023 2.20048 190.694 2.1609 192.203 2.11886V1.33065L184.702 1.33064ZM138.26 1.34547V2.11674C139.442 2.21573 139.83 2.35863 139.931 3.1465C139.993 3.61163 140.012 4.21677 140.012 5.93492V11.1029C140.012 11.69 140.011 12.3549 139.991 12.942C139.971 14.4771 139.809 14.7225 138.26 14.8405V15.6351H144.268V14.8405C142.536 14.8039 142.534 14.3622 142.514 11.0859L142.516 9.22986C143.882 9.25155 144.167 9.13951 145.022 10.9376L145.818 12.6179C146.96 15.0235 148.081 15.9551 150.792 15.9551C151.118 15.9551 151.421 15.9365 151.729 15.9148V15.4296C150.566 15.2709 150.079 14.8836 149.161 13.2048L146.612 8.80603C148.589 8.19715 149.445 6.40665 149.445 5.03018C149.445 3.04901 148.325 1.37095 144.779 1.37095L138.26 1.34553L138.26 1.34547ZM125.609 1.34759V2.11673C126.649 2.21979 127.096 2.27937 127.24 2.9452C127.341 3.38999 127.361 4.96759 127.361 5.53443V10.5561C127.361 10.9399 127.341 12.6603 127.321 13.0035C127.28 14.5629 127.097 14.7023 125.609 14.8448V15.6351H136.576C136.576 14.6045 136.758 12.903 136.881 11.9335H136.188C135.697 14.4829 134.251 14.3575 132.171 14.3575C130.255 14.3575 129.87 13.8525 129.87 12.9209V8.92692H131.419C133.192 8.92692 133.701 9.07769 133.701 10.6792H134.395V5.96255H133.701C133.559 7.23724 133.293 7.6534 131.438 7.6534H129.87V2.62107H131.643C134.087 2.62107 134.964 2.80438 135.289 4.74631H135.942L135.859 1.34766H125.609L125.609 1.34759ZM170.41 1.34759L170.288 5.35438H171.043C171.165 2.80498 172.243 2.86476 173.874 2.86476H175.669V13.387C175.669 14.522 175.303 15.0087 173.976 15.0291V15.6351H179.929L179.927 15.0291C178.602 15.0088 178.237 14.5221 178.237 13.387V2.86476H180.03C181.661 2.86476 182.741 2.80501 182.862 5.35438H183.618L183.494 1.34759H170.41ZM69.7456 1.35183V2.11885C70.8263 2.17988 71.2741 2.36362 71.3955 3.25459C71.4366 3.61803 71.4369 4.30258 71.4575 5.84176V9.07723C71.4575 11.3853 71.4783 13.5315 73.6178 14.9677C74.9632 15.8586 76.5929 15.9763 77.3894 15.9763C78.3867 15.9763 82.1596 15.7766 83.1376 11.9334C83.382 10.9015 83.4402 9.82631 83.4813 8.73602C83.5016 8.12986 83.6657 4.16392 83.6862 3.81817C83.7681 2.40514 84.0536 2.09986 85.3981 2.11884V1.35182H79.9146V2.11884C81.1999 2.22191 81.8709 2.26038 81.9528 3.55541C81.9734 4.02189 81.9743 5.72099 81.9743 6.24846C81.9743 7.90698 81.9544 10.4146 81.5474 11.749C81.0583 13.4278 79.9271 14.4908 77.8695 14.4908C77.2371 14.4908 75.9848 14.3539 75.2484 13.2894C74.3252 11.9483 74.2922 10.4547 74.2922 8.71479V5.35639C74.3127 2.32149 74.3109 2.26118 76.2261 2.11873V1.35171H69.7459L69.7456 1.35183ZM86.4861 1.35183V2.11885C87.4451 2.20022 87.7708 2.34337 88.5673 3.07022C88.5467 4.54833 88.4847 13.0232 88.2811 13.9741C88.1186 14.7837 87.669 14.8051 86.4861 14.8662V15.6353H92.356V14.8662C90.1549 14.6451 89.993 14.5637 89.993 12.2558V4.84824L95.6771 11.8109C96.3288 12.6001 96.983 13.4105 97.6343 14.22L98.9172 15.8177H99.7753L99.9802 4.79119C100.001 2.46417 100.142 2.13969 101.711 2.1193V1.35227H96.0442V2.1193C98.3284 2.20066 98.3888 2.32254 98.4093 4.58984V10.9825L94.3945 6.04344C92.2757 3.43436 92.0098 3.05011 90.8063 1.35231H86.4861V1.35183ZM103.261 1.35183V2.11885C104.952 2.36295 104.953 2.44135 104.973 5.4179V11.2024V13.0246C104.953 14.523 104.666 14.6828 103.261 14.8659V15.6351H109.236V14.8659C108.117 14.7846 107.708 14.5825 107.607 13.7133C107.566 13.2874 107.545 11.6884 107.545 11.1812V5.4179C107.545 2.36273 107.545 2.28288 109.236 2.11885V1.35183H103.261ZM110.606 1.35183V2.11885C112.053 2.34396 112.174 2.66688 113.153 5.37766L117.087 15.919H117.861L122.243 5.53659C123.425 2.70641 123.609 2.32226 124.995 2.11885V1.35183H119.96V2.11885C120.856 2.1392 121.876 2.17886 121.876 3.21217C121.876 3.57559 121.632 4.22271 121.447 4.72717L118.514 12.2343L116.006 4.9729C115.62 3.77826 115.516 3.43403 115.516 3.02992C115.516 2.2 116.271 2.16085 117.432 2.11881V1.35178H110.606L110.606 1.35183ZM162.942 1.35183V2.11885C164.635 2.36295 164.636 2.44135 164.658 5.4179V11.2024V13.0246C164.636 14.523 164.349 14.6828 162.942 14.8659V15.6351H168.916V14.8659C167.797 14.7846 167.389 14.5825 167.288 13.7133C167.247 13.2874 167.226 11.6884 167.226 11.1812V5.4179C167.226 2.36273 167.225 2.28288 168.917 2.11885V1.35183H162.942ZM221.053 1.45353V2.22056C222.093 2.32091 222.54 2.3832 222.682 3.04903C222.786 3.49518 222.806 5.07218 222.806 5.64044L222.803 10.6601C222.803 11.0438 222.783 12.7622 222.761 13.1052C222.722 14.6607 222.538 14.8041 221.051 14.9466V15.7348H227.011V14.9466C225.523 14.8042 225.34 14.6607 225.299 13.1052L225.307 9.02854H226.9C228.508 9.02854 229.363 9.18127 229.465 10.7787H230.161V6.06427H229.465C229.384 7.60348 228.958 7.75515 227.205 7.75515H225.307L225.31 2.80971C225.821 2.74733 226.106 2.72708 227.024 2.72708C229.837 2.72708 230.743 2.71436 231.12 4.95191H231.835L231.609 1.45367H221.054L221.053 1.45353ZM212.974 2.46211C214.174 2.4255 215.088 3.15007 215.551 3.64233C216.608 4.76244 217.126 6.34233 217.184 8.18516C217.241 10.0444 217.032 11.467 216.014 13.0183C215.124 14.3581 213.979 14.7603 213.164 14.7834C212.351 14.7834 211.196 14.4193 210.266 13.1052C209.202 11.5864 208.949 10.1735 208.949 8.31025C208.949 6.46872 209.415 4.8679 210.439 3.71654C210.888 3.21208 211.775 2.46211 212.974 2.46211ZM143.403 2.61052C146.052 2.61052 146.893 4.04427 146.806 5.70409C146.745 6.84732 145.507 8.12291 143.871 8.11747C143.464 8.11747 142.912 8.05417 142.526 7.9755V2.69323C142.811 2.63221 143.036 2.61052 143.403 2.61052ZM200.209 21.6042C199.129 22.4029 198.42 22.7693 195.893 23.5938L196.23 24.1151L190.343 40.1524C189.51 42.4143 188.77 42.8764 186.488 42.9685V44.1316H195.461V42.9685C194.137 42.9073 192.501 42.8164 192.501 41.284C192.501 40.8284 192.624 40.3975 192.778 39.9363L193.453 38.0697H201.129L201.782 40.2754C201.905 40.6729 202.029 41.1331 202.029 41.5615C202.029 42.7549 200.888 42.8764 199.408 42.9685V44.1316H208.945H209.581H217.825V42.9685C214.494 42.6307 214.247 42.5089 214.247 39.0211V27.8122L222.849 38.3451C223.837 39.5413 224.821 40.7628 225.807 41.9875L227.752 44.4073H229.048L229.355 27.7275C229.385 24.2099 229.602 23.716 231.976 23.6889V22.5236H223.404V23.6889C226.857 23.811 226.95 23.9935 226.981 27.4203V37.0908L220.907 29.6218C217.7 25.6742 217.299 25.0947 215.481 22.5236H208.945V23.6889C210.394 23.811 210.887 24.0244 212.089 25.1255C212.058 27.359 211.965 40.1811 211.658 41.623C211.434 42.7302 210.813 42.8557 209.383 42.9388C207.259 42.673 206.842 41.9995 206.006 39.4786L201.197 24.7864C200.704 23.2567 200.642 23.0738 200.209 21.6038L200.209 21.6042ZM176.607 21.9708C170.695 21.9708 165.978 26.4691 165.978 33.3845C165.978 39.0449 169.558 44.68 177.049 44.68C181.322 44.68 183.737 43.1784 185.429 42.1395V40.5165C185.485 36.4158 185.485 35.8647 187.455 35.7426V34.5795H178.686V35.7426C181.102 35.9896 181.476 36.0486 181.575 38.8001C181.607 39.7521 181.519 40.2717 181.131 40.8534C181.019 40.9755 179.768 42.6588 177.355 42.6588C173.109 42.6588 170.641 38.406 170.641 33.4482C170.641 27.2332 173.805 24.051 177.607 24.051C179.798 24.051 181.186 24.9533 181.907 25.6571C183.544 27.2803 184.212 28.7639 184.654 30.0495L185.542 29.8969L185.376 23.1314L184.24 24.4175C182.465 23.3462 180.326 21.9702 176.607 21.9702V21.9708ZM120.746 22.0025C113.395 22.0025 109.792 27.7587 109.792 33.6031C109.792 39.9085 114.042 44.7118 120.601 44.7118C126.607 44.7118 128.92 40.8852 129.886 39.3259L128.591 38.351C127.449 39.9728 126.02 42.0824 122.213 42.0824C117.174 42.0824 114.625 37.6138 114.625 32.8674C114.625 27.2656 117.731 24.0869 121.656 24.0869C123.94 24.0869 125.551 25.4921 126.226 26.1973C127.631 27.727 128.187 28.7351 128.567 29.9921L129.534 29.8057L129.417 23.2563L127.923 24.6039C126.665 23.6275 124.613 22.002 120.747 22.002L120.746 22.0025ZM70.6046 22.5238V23.6891C72.546 23.7163 72.9782 23.8715 72.9782 26.0114C72.9782 26.7776 72.9798 27.8184 72.9483 28.5223L72.641 37.5804C72.6083 38.7738 72.5168 40.5808 72.4554 41.1613C72.3312 42.6313 71.6521 42.8764 69.8941 42.9688V44.1319H77.4501V42.9688C75.1373 42.7855 74.891 42.3871 74.891 40.2757L75.0532 27.5687L82.0434 44.4067H83.9559L91.5698 27.7867V38.6549C91.5383 42.6647 91.5393 42.7858 88.7949 42.9688V44.1322H98.3209V42.9688C96.5944 42.8155 95.9785 42.5098 95.8558 40.918C95.7627 39.8155 95.7319 37.9807 95.7319 36.5107V27.605C95.7017 24.2379 95.7309 23.9621 98.3209 23.8102V22.5241H91.6934L84.2333 38.9281L77.4476 22.5241L70.6046 22.5238ZM100.455 22.5238V23.6891C103.014 24.0553 103.013 24.1767 103.044 28.6748V37.4299V40.1802C103.013 42.4477 102.583 42.6934 100.455 42.9688V44.1319H109.492V42.9688C107.797 42.8467 107.179 42.5383 107.025 41.2228C106.964 40.5814 106.933 38.1622 106.933 37.3962V28.6748C106.933 24.0546 106.934 23.9332 109.493 23.6891V22.5238H100.455ZM131.494 22.5238V23.6891C133.19 23.8397 133.805 24.0238 133.928 25.308C134.021 25.9819 134.022 27.3901 134.022 28.7977V37.858C134.022 38.6215 134.022 39.3865 133.992 40.1527C133.992 42.2316 133.96 42.7543 131.494 42.9688V44.1319H140.811V42.9688C138.005 42.6634 137.944 42.6638 137.913 38.1631V34.2008C139.794 34.1072 141.26 34.0482 143.14 34.0482C144.928 34.0482 146.363 34.14 148.09 34.2008V38.1631C148.09 39.7252 148.09 40.5511 148.028 41.1613C147.841 42.6638 147.256 42.7206 145.067 42.9688V44.1319H154.506V42.9688C152.902 42.8155 152.255 42.6029 152.101 41.4663C152.008 40.8278 151.977 38.1028 151.977 37.2457V28.1239C151.977 24.0245 151.976 23.9943 154.506 23.6891V22.5238H145.067V23.6891C148.028 23.9631 148.058 24.1149 148.09 28.0624V31.692C146.239 31.7828 144.774 31.8446 142.924 31.8446C141.106 31.8446 139.794 31.7828 137.912 31.692V28.7065C137.912 27.4196 137.944 25.828 138.098 25.1256C138.314 23.9323 138.992 23.872 140.811 23.689V22.5237L131.494 22.5238ZM156.308 22.5238V23.6891C158.869 24.0553 158.87 24.1767 158.901 28.6748V37.4299V40.1802C158.87 42.4477 158.437 42.6934 156.308 42.9688V44.1319H165.356V42.9688C163.662 42.8467 163.047 42.5383 162.892 41.2228C162.83 40.5814 162.797 38.1622 162.797 37.3962V28.6748C162.797 24.0546 162.797 23.9332 165.356 23.6891V22.5238H156.308ZM197.458 26.787L200.512 35.7435H194.258L197.458 26.787Z" fill="#9C9C9C"/>
</svg>
