<svg width="323" height="72" viewBox="0 0 323 72" fill="none" xmlns="http://www.w3.org/2000/svg">
<path d="M87.1894 55.791H18.627V55.8256H87.1894V55.791Z" fill="#EF0627"/>
<path d="M80.3189 58.0178H75.7773V58.0524H80.3189V58.0178Z" fill="#EF0627"/>
<path d="M74.0516 58.0178H64.3418V58.0524H74.0516V58.0178Z" fill="#EF0627"/>
<path d="M58.9869 56.7334H56.3555V56.768H58.9869V56.7334Z" fill="#EF0627"/>
<path d="M30.5223 56.9661H25.8203V57.0007H30.5223V56.9661Z" fill="#EF0627"/>
<path d="M40.2939 56.9661H31.7441V57.0007H40.2939V56.9661Z" fill="#EF0627"/>
<path d="M49.4987 57.55H44.4512V57.5846H49.4987V57.55Z" fill="#EF0627"/>
<path d="M51.1243 49.6184H24.6468C24.4394 49.618 24.2406 49.5346 24.0941 49.3864C23.9475 49.2383 23.8652 49.0375 23.8652 48.8281V11.2626C23.867 11.0544 23.9501 10.8554 24.0965 10.7087C24.2428 10.5621 24.4406 10.4796 24.6468 10.4792H51.1243C51.332 10.4792 51.5311 10.5625 51.678 10.7107C51.8248 10.8589 51.9073 11.0599 51.9073 11.2695V48.8281C51.9073 49.0377 51.8248 49.2387 51.678 49.3869C51.5311 49.5351 51.332 49.6184 51.1243 49.6184ZM24.6468 10.5069C24.4485 10.5073 24.2584 10.5871 24.1183 10.7287C23.9782 10.8704 23.8995 11.0624 23.8995 11.2626V48.8281C23.8995 49.0283 23.9782 49.2203 24.1183 49.362C24.2584 49.5036 24.4485 49.5834 24.6468 49.5838H51.1243C51.3228 49.5834 51.513 49.5037 51.6533 49.362C51.7937 49.2204 51.8727 49.0284 51.873 48.8281V11.2626C51.8727 11.0623 51.7937 10.8703 51.6533 10.7287C51.513 10.587 51.3228 10.5073 51.1243 10.5069H24.6468Z" fill="#EF0627"/>
<path d="M80.7872 49.6184H54.3084C54.1008 49.618 53.9019 49.5346 53.7551 49.3865C53.6084 49.2384 53.5258 49.0376 53.5254 48.8281V11.2626C53.5276 11.0543 53.611 10.8553 53.7575 10.7087C53.9041 10.562 54.102 10.4796 54.3084 10.4792H80.7872C80.9932 10.48 81.1906 10.5626 81.3367 10.7092C81.4827 10.8559 81.5657 11.0547 81.5675 11.2626V48.8281C81.5675 49.0372 81.4853 49.2378 81.3391 49.3859C81.1929 49.5341 80.9944 49.6176 80.7872 49.6184ZM54.3084 10.5069C54.1099 10.5073 53.9197 10.587 53.7794 10.7287C53.639 10.8703 53.56 11.0623 53.5597 11.2626V48.8281C53.56 49.0284 53.639 49.2204 53.7794 49.362C53.9197 49.5037 54.1099 49.5834 54.3084 49.5838H80.7872C80.9857 49.5834 81.1759 49.5037 81.3162 49.362C81.4566 49.2204 81.5356 49.0284 81.5359 48.8281V11.2626C81.5356 11.0623 81.4566 10.8703 81.3162 10.7287C81.1759 10.587 80.9857 10.5073 80.7872 10.5069H54.3084Z" fill="#EF0627"/>
<path d="M29.0269 29.6086L47.6348 29.6086V13.3371L29.0269 13.3371L29.0269 29.6086Z" fill="#E6E6E6"/>
<path d="M28.6109 29.6086L47.2188 29.6086V13.3371L28.6109 13.3371L28.6109 29.6086Z" fill="#F5F5F5"/>
<path d="M46.4766 29.0274V13.9185L29.3538 13.9185V29.0274H46.4766Z" fill="#FAFAFA"/>
<path d="M39.6093 29.0274L42.7124 13.9185H36.2209L33.1191 29.0274H39.6093Z" fill="white"/>
<path d="M29.666 29.0289V13.9199H29.3534V29.0289H29.666Z" fill="#E6E6E6"/>
<path d="M28.9186 26.3188L46.9121 26.3188V25.5383L28.9186 25.5383V26.3188Z" fill="#F5F5F5"/>
<path d="M46.7707 54.9675H49.7422V41.9622H46.7707V54.9675Z" fill="#F0F0F0"/>
<path d="M27.3668 55.791H49.1738V54.9675H27.3668V55.791Z" fill="#F0F0F0"/>
<path d="M46.7693 41.9607H26.793V54.966H46.7693V41.9607Z" fill="#F5F5F5"/>
<path d="M45.604 43.562H27.9629V47.8275H45.604V43.562Z" fill="#F0F0F0"/>
<path d="M45.604 49.1008H27.9629V53.3663H45.604V49.1008Z" fill="#F0F0F0"/>
<path d="M32.0296 45.9868H41.5392C41.6158 45.9864 41.6892 45.9555 41.7434 45.9009C41.7976 45.8462 41.8282 45.7721 41.8285 45.6948C41.8282 45.6173 41.7976 45.5431 41.7435 45.4882C41.6893 45.4333 41.6159 45.4021 41.5392 45.4014H32.0296C31.9528 45.4021 31.8794 45.4333 31.8253 45.4882C31.7711 45.5431 31.7406 45.6173 31.7402 45.6948C31.7406 45.7721 31.7712 45.8462 31.8254 45.9009C31.8796 45.9555 31.9529 45.9864 32.0296 45.9868Z" fill="#F5F5F5"/>
<path d="M32.0296 51.5256H41.5392C41.6158 51.5252 41.6892 51.4944 41.7434 51.4397C41.7976 51.385 41.8282 51.3109 41.8285 51.2336C41.8285 51.156 41.7981 51.0816 41.7439 51.0266C41.6896 50.9716 41.616 50.9406 41.5392 50.9402H32.0296C31.9527 50.9406 31.8791 50.9716 31.8249 51.0266C31.7707 51.0816 31.7402 51.156 31.7402 51.2336C31.7406 51.3109 31.7712 51.385 31.8254 51.4397C31.8796 51.4944 31.9529 51.5252 32.0296 51.5256Z" fill="#F5F5F5"/>
<path d="M77.8134 21.8418C79.5055 21.3713 80.0842 18.2725 75.8086 17.0076C76.752 20.1243 74.8638 22.6584 77.8134 21.8418Z" fill="#EF0627"/>
<path d="M78.1873 23.187C79.5215 21.7324 78.2599 18.4413 73.4551 19.7865C76.1729 22.1864 75.863 25.7238 78.1873 23.187Z" fill="#EF0627"/>
<path d="M76.8713 23.5607C75.7551 22.4452 77.354 18.5631 81.0399 20.3623C78.9515 22.3815 78.8253 25.5052 76.8713 23.5607Z" fill="#FAFAFA"/>
<path d="M75.7578 25.7337H79.0062L79.2517 23.5151H75.5137L75.7578 25.7337Z" fill="#E6E6E6"/>
<path d="M75.4771 23.9123H79.2892C79.3535 23.9123 79.4153 23.8865 79.4608 23.8405C79.5063 23.7946 79.5319 23.7323 79.5319 23.6673C79.5319 23.6024 79.5063 23.5401 79.4608 23.4941C79.4153 23.4482 79.3535 23.4224 79.2892 23.4224H75.4771C75.4127 23.4224 75.351 23.4482 75.3055 23.4941C75.2599 23.5401 75.2344 23.6024 75.2344 23.6673C75.2344 23.7323 75.2599 23.7946 75.3055 23.8405C75.351 23.8865 75.4127 23.9123 75.4771 23.9123Z" fill="#E6E6E6"/>
<path d="M48.426 52.0335V48.276H51.5264V44.5199H54.6282V40.7623H57.7285V37.0048H60.8303V33.2487H63.9307V29.4912H67.0325V25.7336H70.1342H87.1899V55.7911H48.426H45.3242V52.0335H48.426Z" fill="#FAFAFA"/>
<path d="M65.4813 52.0335V48.276H68.583V44.5199H71.6834V40.7623H74.7852V37.0048H77.8856V33.2487H80.9873V29.4912H84.0877V25.7336H87.1895V29.4912V55.7911H65.4813H62.3809V52.0335H65.4813Z" fill="#EF0627"/>
<path d="M62.38 52.0334H45.1406V53.16H62.38V52.0334Z" fill="#EF0627"/>
<path d="M65.4835 48.2759H48.2441V49.4024H65.4835V48.2759Z" fill="#EF0627"/>
<path d="M68.5851 44.5198H51.3457V45.6463H68.5851V44.5198Z" fill="#EF0627"/>
<path d="M71.6847 40.7622H54.4453V41.8888H71.6847V40.7622Z" fill="#EF0627"/>
<path d="M74.7843 37.0046H57.5449V38.1312H74.7843V37.0046Z" fill="#EF0627"/>
<path d="M77.8858 33.2485H60.6465V34.3751H77.8858V33.2485Z" fill="#EF0627"/>
<path d="M80.9874 29.491H63.748V30.6175H80.9874V29.491Z" fill="#EF0627"/>
<path d="M84.0909 25.7336H66.8516V26.8602H84.0909V25.7336Z" fill="#EF0627"/>
<path d="M52.9055 62.0411C67.5892 62.0411 79.4927 61.3396 79.4927 60.4744C79.4927 59.6091 67.5892 58.9077 52.9055 58.9077C38.2218 58.9077 26.3184 59.6091 26.3184 60.4744C26.3184 61.3396 38.2218 62.0411 52.9055 62.0411Z" fill="#F5F5F5"/>
<path d="M64.5251 24.8215C64.5004 25.2367 64.4525 25.6173 64.399 26.0117C64.3455 26.4061 64.2728 26.7923 64.1905 27.1798C64.0301 27.9641 63.7983 28.7318 63.4981 29.4731L63.3733 29.7499L63.3431 29.8191L63.3321 29.855L63.3102 29.8993C63.2683 29.9862 63.2153 30.0672 63.1525 30.1401C63.0777 30.225 62.9886 30.2958 62.8892 30.3491C62.7917 30.4008 62.6858 30.4345 62.5766 30.4488C62.4088 30.4669 62.2392 30.449 62.0788 30.3962C61.8516 30.3179 61.6372 30.2059 61.4426 30.064C61.2723 29.9429 61.1098 29.8111 60.9558 29.6696C60.3786 29.1295 59.8593 28.5297 59.4062 27.8801L59.8601 27.4912C60.1344 27.7472 60.4086 28.006 60.6829 28.251C60.9555 28.4959 61.2402 28.7269 61.5358 28.943C61.6749 29.0435 61.8196 29.1359 61.9691 29.2198C62.0896 29.2936 62.2198 29.3499 62.3558 29.3873C62.4024 29.3969 62.4353 29.3873 62.4203 29.3873C62.3879 29.3909 62.3576 29.405 62.3339 29.4274C62.3256 29.4274 62.3256 29.4274 62.3339 29.4274L62.3778 29.3125L62.4737 29.0606C62.7116 28.3671 62.8973 27.6565 63.0291 26.9348C63.1018 26.5722 63.1525 26.2027 63.2074 25.8359C63.2622 25.4692 63.3006 25.0914 63.3321 24.7412L64.5251 24.8215Z" fill="#FFC3BD"/>
<path d="M63.6936 23.2977C63.1821 23.4292 62.8242 25.5523 62.8242 25.5523L64.2325 26.521C64.2325 26.521 65.5832 24.38 65.1924 23.8126C64.781 23.2189 64.4396 23.1067 63.6936 23.2977Z" fill="#407BFF"/>
<path d="M63.6936 23.2977C63.1821 23.4292 62.8242 25.5523 62.8242 25.5523L64.2325 26.521C64.2325 26.521 65.5832 24.38 65.1924 23.8126C64.781 23.2189 64.4396 23.1067 63.6936 23.2977Z" fill="#407BFF"/>
<path opacity="0.4" d="M63.6936 23.2977C63.1821 23.4292 62.8242 25.5523 62.8242 25.5523L64.2325 26.521C64.2325 26.521 65.5832 24.38 65.1924 23.8126C64.781 23.2189 64.4396 23.1067 63.6936 23.2977Z" fill="black"/>
<path opacity="0.3" d="M63.7398 23.7725L63.3477 25.9107L64.1389 26.4532L63.7398 23.7725Z" fill="black"/>
<path d="M59.8828 27.4041L59.2177 26.3357L58.8379 27.5494C58.8379 27.5494 59.3864 28.1307 59.8842 27.9923L59.8828 27.4041Z" fill="#FFC3BD"/>
<path d="M58.2301 25.9827L57.9668 27.0151L58.8321 27.5493L59.2119 26.3356L58.2301 25.9827Z" fill="#FFC3BD"/>
<path d="M66.458 59.0226H65.2184L65.1348 56.1245H66.3757L66.458 59.0226Z" fill="#FFC3BD"/>
<path d="M77.4002 53.21L76.4554 54.021L74.293 52.0723L75.2378 51.2627L77.4002 53.21Z" fill="#FFC3BD"/>
<path d="M76.1969 53.9241L77.1143 52.864C77.13 52.8457 77.1517 52.8338 77.1754 52.8305C77.1991 52.8272 77.2232 52.8327 77.2432 52.846L78.177 53.4563C78.2 53.4725 78.2194 53.4934 78.2339 53.5176C78.2484 53.5419 78.2576 53.5689 78.261 53.597C78.2643 53.6251 78.2618 53.6537 78.2534 53.6807C78.2451 53.7077 78.2312 53.7327 78.2127 53.7539C77.8863 54.1179 77.7108 54.277 77.3076 54.7421C77.0608 55.0285 76.7276 55.4742 76.3848 55.8686C76.042 56.2631 75.6361 55.9447 75.7444 55.7482C76.2257 54.8708 76.1105 54.5635 76.1188 54.1317C76.12 54.0554 76.1477 53.982 76.1969 53.9241Z" fill="#263238"/>
<path d="M65.1766 58.8787H66.5698C66.5938 58.8784 66.617 58.887 66.6352 58.9028C66.6534 58.9186 66.6652 58.9405 66.6686 58.9645L66.8276 60.0717C66.8321 60.1009 66.8301 60.1308 66.8218 60.1592C66.8135 60.1876 66.799 60.2138 66.7795 60.2359C66.76 60.258 66.7358 60.2754 66.7088 60.287C66.6818 60.2986 66.6526 60.304 66.6233 60.3028C66.1379 60.2945 65.9034 60.2654 65.2905 60.2654C64.9134 60.2654 64.1345 60.3056 63.6134 60.3056C63.0923 60.3056 63.0649 59.7852 63.2829 59.7395C64.2538 59.5278 64.6364 59.2371 64.9641 58.9589C65.023 58.9072 65.0985 58.8787 65.1766 58.8787Z" fill="#263238"/>
<path opacity="0.2" d="M65.1348 56.126L65.1773 57.6193H66.4169L66.3744 56.126H65.1348Z" fill="black"/>
<path opacity="0.2" d="M75.2391 51.2627L74.293 52.0723L75.4092 53.0771L76.354 52.2661L75.2391 51.2627Z" fill="black"/>
<path d="M63.6945 23.2977C63.6945 23.2977 63.1034 23.5081 64.2868 30.8515H69.3221C69.2384 28.7824 69.2357 27.5064 70.2148 23.2617C69.5099 23.115 68.7954 23.0197 68.077 22.9766C67.3155 22.9219 66.5512 22.9219 65.7897 22.9766C64.8079 23.0735 63.6945 23.2977 63.6945 23.2977Z" fill="#407BFF"/>
<path opacity="0.4" d="M63.6945 23.2977C63.6945 23.2977 63.1034 23.5081 64.2868 30.8515H69.3221C69.2384 28.7824 69.2357 27.5064 70.2148 23.2617C69.5099 23.115 68.7954 23.0197 68.077 22.9766C67.3155 22.9219 66.5512 22.9219 65.7897 22.9766C64.8079 23.0735 63.6945 23.2977 63.6945 23.2977Z" fill="black"/>
<path d="M68.0756 22.9766C67.3142 22.9219 66.5498 22.9219 65.7884 22.9766C65.6649 22.9877 65.5388 23.0015 65.414 23.0167C65.3624 23.0954 65.3293 23.185 65.3175 23.2786C65.3056 23.3722 65.3151 23.4672 65.3454 23.5565C65.5059 23.9592 66.0845 24.0063 66.5069 24.0063C68.066 24.0063 68.3293 23.0873 68.3403 23.0486L68.3553 22.9932C68.2676 22.9877 68.1688 22.9808 68.0756 22.9766Z" fill="white"/>
<path d="M67.8575 20.3789C67.7122 21.1207 67.5696 22.4812 68.0838 22.9766C68.0838 22.9766 67.8822 23.7309 66.5151 23.7309C65.0067 23.7309 65.7965 22.978 65.7965 22.978C66.6193 22.7801 66.596 22.1656 66.4534 21.594L67.8575 20.3789Z" fill="#FFC3BD"/>
<path opacity="0.2" d="M67.2763 20.8716L66.4453 21.5871C66.4811 21.7231 66.505 21.8621 66.5166 22.0023C66.8293 21.9566 67.2598 21.6092 67.2941 21.2785C67.3133 21.1429 67.3073 21.0049 67.2763 20.8716Z" fill="black"/>
<path d="M66.9942 16.3404C66.8667 15.9044 66.7597 15.218 67.5276 14.908C67.2273 14.5371 67.1546 13.8395 67.5276 13.4257C67.9006 13.0119 68.46 13.1642 68.46 13.1642C68.46 13.1642 68.6246 12.1525 69.8436 12.3338C71.0627 12.5151 70.5197 13.3247 70.5197 13.3247C70.5197 13.3247 72.183 12.9925 72.2941 14.5703C72.4051 16.148 71.4507 15.9543 71.4507 15.9543C71.4507 15.9543 72.1926 16.5826 71.7812 17.2732C71.3698 17.9638 70.4196 17.7258 70.4196 17.7258C70.4196 17.7258 69.9725 18.9464 68.9194 18.2517C67.8663 17.5569 66.9942 16.3404 66.9942 16.3404Z" fill="#263238"/>
<path d="M64.5244 17.2608C64.113 17.7978 64.294 18.4054 64.6615 18.6448C65.5459 19.215 66.8253 16.8235 66.4921 16.537C66.1589 16.2505 64.9357 16.7225 64.5244 17.2608Z" fill="#263238"/>
<path d="M68.241 15.9821C67.6596 15.7454 67.07 15.9931 66.8862 16.3502C66.4378 17.2207 68.4741 18.7888 69.0638 17.701C69.4134 17.0547 68.8402 16.2257 68.241 15.9821Z" fill="#407BFF"/>
<path d="M67.9936 18.6448C68.0361 19.8904 68.08 20.4108 67.5219 21.1042C66.684 22.1463 65.1633 21.9276 64.7547 20.7236C64.3872 19.6399 64.3803 17.7923 65.5308 17.1861C65.7837 17.0511 66.0666 16.9835 66.3527 16.9899C66.6387 16.9963 66.9184 17.0764 67.1651 17.2225C67.4119 17.3687 67.6175 17.5761 67.7625 17.825C67.9075 18.0739 67.987 18.3561 67.9936 18.6448Z" fill="#FFC3BD"/>
<path d="M67.8064 19.2967C67.2579 19.0905 67.1208 18.4442 67.2085 18.1895C66.9343 18.1785 66.335 18.0788 66.1115 17.7356C65.6837 18.0124 64.78 18.2892 64.6827 17.8283C64.5853 17.3675 65.9483 16.1828 66.9795 16.0914C68.2054 15.9835 69.4149 17.1986 69.1036 18.3625C68.7923 19.5265 67.8064 19.2967 67.8064 19.2967Z" fill="#263238"/>
<path d="M64.2902 30.8516C64.2902 30.8516 63.3125 40.491 63.3934 44.3081C63.4784 48.2773 64.9196 57.33 64.9196 57.33H66.5953C66.5953 57.33 66.3306 48.5085 66.4787 44.6112C66.6405 40.3609 67.9775 30.8516 67.9775 30.8516H64.2902Z" fill="#263238"/>
<path d="M66.7387 57.3909H64.7723L64.627 56.7584L66.8306 56.6809L66.7387 57.3909Z" fill="#407BFF"/>
<path opacity="0.2" d="M66.4563 33.25C65.2222 35.7606 66.2081 40.3416 66.6455 42.0467C66.8691 39.4863 67.2475 36.3571 67.5423 34.0597C67.3558 32.7615 67.0322 32.0916 66.4563 33.25Z" fill="black"/>
<path d="M65.6152 30.8516C65.6152 30.8516 66.7561 40.8731 67.6173 44.0909C68.6402 47.9107 74.9932 53.0522 74.9932 53.0522L76.2822 51.945C76.2822 51.945 71.6775 46.3592 70.8945 44.3469C69.2257 40.0565 70.6546 33.6514 69.3204 30.8489L65.6152 30.8516Z" fill="#263238"/>
<path d="M76.4897 51.8882L74.8908 53.2583L74.293 52.8971L76.1016 51.199L76.4897 51.8882Z" fill="#407BFF"/>
<path d="M66.1685 19.1652C66.1781 19.2662 66.1329 19.352 66.0684 19.3589C66.004 19.3658 65.9423 19.2883 65.9313 19.1887C65.9203 19.089 65.9669 19.0005 66.0328 18.9949C66.0986 18.9894 66.1589 19.06 66.1685 19.1652Z" fill="#263238"/>
<path d="M65.0433 19.2745C65.0529 19.3742 65.0076 19.4614 64.9418 19.4683C64.876 19.4752 64.817 19.3977 64.8047 19.2967C64.7923 19.1956 64.8403 19.1098 64.9048 19.1043C64.9692 19.0988 65.0337 19.1735 65.0433 19.2745Z" fill="#263238"/>
<path d="M64.9369 19.1071L64.6914 19.0601C64.6914 19.0601 64.8395 19.2372 64.9369 19.1071Z" fill="#263238"/>
<path d="M65.3559 19.4185C65.2892 19.6561 65.1905 19.8833 65.0625 20.0938C65.1169 20.1254 65.1774 20.1447 65.2399 20.1505C65.3024 20.1562 65.3654 20.1482 65.4245 20.1271L65.3559 19.4185Z" fill="#ED847E"/>
<path d="M65.9789 20.4578C65.9245 20.4729 65.869 20.483 65.8129 20.4883C65.8092 20.4887 65.8053 20.4883 65.8017 20.4872C65.7981 20.4861 65.7947 20.4842 65.7917 20.4818C65.7888 20.4793 65.7864 20.4763 65.7846 20.4729C65.7828 20.4695 65.7817 20.4658 65.7814 20.462C65.7806 20.4541 65.7829 20.4463 65.7878 20.4401C65.7926 20.4339 65.7997 20.4298 65.8075 20.4288C65.9316 20.4196 66.0518 20.3811 66.1585 20.3164C66.2652 20.2518 66.3554 20.1627 66.4218 20.0565C66.4233 20.0528 66.4257 20.0496 66.4286 20.0469C66.4316 20.0442 66.435 20.0422 66.4388 20.041C66.4426 20.0399 66.4466 20.0395 66.4505 20.04C66.4544 20.0405 66.4582 20.0419 66.4615 20.044C66.4683 20.0478 66.4734 20.0541 66.4757 20.0616C66.478 20.0691 66.4773 20.0772 66.4739 20.0842C66.3633 20.2689 66.1857 20.403 65.9789 20.4578Z" fill="#263238"/>
<path d="M68.2827 19.5044C68.2527 19.7425 68.1304 19.959 67.9427 20.1064C67.6917 20.3002 67.4504 20.1064 67.4216 19.8033C67.3969 19.5265 67.4956 19.1113 67.7946 19.0311C67.8598 19.0176 67.9273 19.0204 67.9912 19.0391C68.0552 19.0578 68.1137 19.0919 68.1617 19.1385C68.2097 19.185 68.2458 19.2426 68.2669 19.3064C68.288 19.3701 68.2934 19.4381 68.2827 19.5044Z" fill="#FFC3BD"/>
<path d="M66.2891 18.4539C66.2815 18.4559 66.2736 18.4563 66.2658 18.4551C66.258 18.4539 66.2506 18.4512 66.2439 18.447C66.1817 18.407 66.111 18.3823 66.0376 18.3751C65.9642 18.3679 65.8902 18.3783 65.8215 18.4055C65.8072 18.4119 65.7911 18.4126 65.7763 18.4075C65.7616 18.4023 65.7493 18.3917 65.742 18.3778C65.7354 18.3637 65.7345 18.3475 65.7397 18.3327C65.7448 18.3179 65.7555 18.3058 65.7694 18.2989C65.8558 18.2629 65.9494 18.2484 66.0425 18.2566C66.1356 18.2648 66.2253 18.2955 66.3042 18.346C66.3107 18.35 66.3164 18.3552 66.3209 18.3614C66.3254 18.3676 66.3286 18.3746 66.3304 18.3821C66.3322 18.3896 66.3325 18.3973 66.3313 18.4049C66.3301 18.4125 66.3274 18.4197 66.3234 18.4263C66.3158 18.4395 66.3036 18.4494 66.2891 18.4539Z" fill="#263238"/>
<path d="M64.4937 18.7984C64.4796 18.8038 64.464 18.8038 64.4498 18.7984C64.4365 18.7905 64.4267 18.7778 64.4224 18.7629C64.418 18.748 64.4195 18.7319 64.4265 18.7181C64.4684 18.6339 64.5297 18.5611 64.6054 18.5059C64.6811 18.4507 64.7688 18.4148 64.8612 18.4012C64.8689 18.4004 64.8766 18.4012 64.884 18.4035C64.8914 18.4058 64.8982 18.4096 64.9041 18.4147C64.9099 18.4197 64.9148 18.4259 64.9182 18.4328C64.9217 18.4398 64.9238 18.4474 64.9243 18.4551C64.9254 18.4707 64.9205 18.4861 64.9105 18.498C64.9005 18.5099 64.8862 18.5174 64.8708 18.5188C64.7981 18.5311 64.7292 18.5606 64.6699 18.6049C64.6106 18.6491 64.5624 18.7069 64.5294 18.7734C64.5255 18.7799 64.5203 18.7854 64.5141 18.7897C64.508 18.794 64.501 18.797 64.4937 18.7984Z" fill="#263238"/>
<path d="M70.7291 24.6113C71.0087 25.3017 71.25 26.0072 71.4518 26.7247C71.6657 27.4484 71.818 28.1892 71.907 28.9391C71.9303 29.13 71.9372 29.3307 71.9454 29.5286V29.6407C71.9454 29.6809 71.9385 29.7224 71.9331 29.7584C71.9216 29.8275 71.9061 29.8959 71.8864 29.9632C71.8507 30.0783 71.8048 30.1899 71.7493 30.2967C71.5592 30.6516 71.3261 30.9812 71.0555 31.278C70.5549 31.8329 70.004 32.3394 69.41 32.7907L69.0137 32.3464C69.4703 31.8081 69.931 31.2558 70.3218 30.6856C70.5107 30.4269 70.6716 30.1485 70.8018 29.8553C70.8241 29.7985 70.8424 29.7402 70.8566 29.6809C70.8604 29.6608 70.8627 29.6404 70.8635 29.62C70.8642 29.614 70.8642 29.608 70.8635 29.602V29.5826C70.8457 29.4193 70.8333 29.256 70.8032 29.0885C70.6852 28.4048 70.5207 27.7302 70.3109 27.0693C70.1011 26.3994 69.8666 25.7199 69.6253 25.0722L70.7291 24.6113Z" fill="#FFC3BD"/>
<path d="M70.2144 23.2618C70.719 23.4168 71.3251 25.1703 71.3251 25.1703L69.3656 26.582C69.3656 26.582 68.6512 25.1191 68.8637 24.4603C69.0913 23.7752 69.6398 23.0846 70.2144 23.2618Z" fill="#407BFF"/>
<path opacity="0.4" d="M70.2144 23.2618C70.719 23.4168 71.3251 25.1703 71.3251 25.1703L69.3656 26.582C69.3656 26.582 68.6512 25.1191 68.8637 24.4603C69.0913 23.7752 69.6398 23.0846 70.2144 23.2618Z" fill="black"/>
<path d="M75.8581 54.5275C75.8328 54.5268 75.8079 54.5204 75.7853 54.5086C75.7628 54.4969 75.7431 54.4802 75.7279 54.4597C75.7154 54.4468 75.7066 54.4307 75.7022 54.4132C75.6979 54.3957 75.6982 54.3774 75.7032 54.3601C75.7498 54.2078 76.1804 54.0833 76.2297 54.0694C76.2351 54.0675 76.241 54.0674 76.2464 54.0691C76.2519 54.0709 76.2566 54.0744 76.2599 54.0791C76.263 54.0838 76.2646 54.0894 76.2646 54.095C76.2646 54.1007 76.263 54.1062 76.2599 54.1109C76.1831 54.259 76.0309 54.5081 75.8746 54.5261L75.8581 54.5275ZM76.1763 54.1469C76.0062 54.2023 75.7841 54.2978 75.7649 54.378C75.7628 54.3857 75.7629 54.3937 75.7651 54.4012C75.7673 54.4088 75.7715 54.4156 75.7772 54.421C75.7882 54.4368 75.8031 54.4495 75.8204 54.4578C75.8377 54.466 75.8569 54.4695 75.876 54.468C75.9555 54.4583 76.0666 54.3393 76.1763 54.1469Z" fill="#407BFF"/>
<path d="M76.0396 54.1524C75.9113 54.1656 75.7829 54.1289 75.6804 54.05C75.666 54.0316 75.6582 54.009 75.6582 53.9856C75.6582 53.9623 75.666 53.9396 75.6804 53.9213C75.6926 53.9021 75.7089 53.8859 75.7281 53.8739C75.7473 53.8619 75.769 53.8545 75.7914 53.8521C75.9697 53.8299 76.2398 54.0652 76.2508 54.0749C76.2548 54.0781 76.2578 54.0824 76.2595 54.0873C76.2612 54.0922 76.2615 54.0975 76.2604 54.1026C76.2598 54.1079 76.2577 54.113 76.2543 54.1172C76.2509 54.1214 76.2463 54.1245 76.2412 54.1261C76.1757 54.1449 76.1077 54.1538 76.0396 54.1524ZM75.8216 53.9102H75.8024C75.7884 53.9118 75.7748 53.9164 75.7627 53.9239C75.7507 53.9313 75.7403 53.9412 75.7325 53.9531C75.7119 53.9849 75.7187 54.0015 75.7325 54.0126C75.7859 54.0832 76.03 54.1095 76.1781 54.0818C76.0768 53.9932 75.9536 53.9339 75.8216 53.9102Z" fill="#407BFF"/>
<path d="M64.7079 59.0973C64.602 59.107 64.496 59.0796 64.4076 59.0198C64.3888 59.0024 64.3741 58.9809 64.3649 58.9569C64.3556 58.9329 64.3519 58.907 64.3542 58.8814C64.3553 58.8649 64.3605 58.8491 64.3694 58.8353C64.3783 58.8215 64.3905 58.8102 64.4049 58.8025C64.5571 58.718 65.0507 58.9727 65.107 59.0031C65.1122 59.0061 65.1164 59.0106 65.1191 59.016C65.1218 59.0215 65.1228 59.0276 65.1221 59.0336C65.1213 59.0397 65.1186 59.0454 65.1144 59.0499C65.1102 59.0544 65.1047 59.0574 65.0987 59.0585C64.9699 59.0834 64.8391 59.0964 64.7079 59.0973ZM64.4872 58.8385C64.4682 58.8372 64.4493 58.841 64.4323 58.8495C64.4264 58.8524 64.4215 58.857 64.4181 58.8626C64.4147 58.8682 64.413 58.8748 64.4131 58.8814C64.4109 58.8987 64.4128 58.9163 64.4188 58.9327C64.4247 58.9491 64.4346 58.9637 64.4474 58.9755C64.5228 59.0447 64.7216 59.0557 64.9959 59.0101C64.8373 58.924 64.6652 58.8659 64.4872 58.8385Z" fill="#407BFF"/>
<path d="M65.0937 59.0571H65.0813C64.9332 58.9893 64.6412 58.7194 64.67 58.5783C64.67 58.5451 64.6987 58.5022 64.7797 58.4939C64.8089 58.4908 64.8384 58.4937 64.8665 58.5025C64.8945 58.5113 64.9205 58.5258 64.9428 58.5451C65.0978 58.6765 65.1266 59.0129 65.1279 59.0281C65.1284 59.0332 65.1274 59.0383 65.1253 59.0429C65.1231 59.0475 65.1198 59.0515 65.1156 59.0544C65.1124 59.0564 65.1087 59.0577 65.1049 59.0582C65.1012 59.0587 65.0973 59.0583 65.0937 59.0571ZM64.7975 58.5492H64.781C64.7262 58.5492 64.7234 58.5769 64.7221 58.5838C64.7083 58.6682 64.9072 58.8814 65.058 58.9727C65.0457 58.8305 64.9902 58.6957 64.899 58.5866C64.8712 58.5609 64.8352 58.5461 64.7975 58.5451V58.5492Z" fill="#407BFF"/>
<path d="M69.3978 30.5472L69.5267 31.0025C69.5446 31.0371 69.5034 31.0731 69.4445 31.0731H64.2625C64.2172 31.0731 64.1789 31.051 64.1761 31.0219L64.1309 30.568C64.1309 30.5361 64.1665 30.5098 64.2172 30.5098H69.3169C69.3325 30.5085 69.3481 30.5113 69.3622 30.5178C69.3764 30.5244 69.3887 30.5345 69.3978 30.5472Z" fill="#407BFF"/>
<path opacity="0.3" d="M69.3978 30.5472L69.5267 31.0025C69.5446 31.0371 69.5034 31.0731 69.4445 31.0731H64.2625C64.2172 31.0731 64.1789 31.051 64.1761 31.0219L64.1309 30.568C64.1309 30.5361 64.1665 30.5098 64.2172 30.5098H69.3169C69.3325 30.5085 69.3481 30.5113 69.3622 30.5178C69.3764 30.5244 69.3887 30.5345 69.3978 30.5472Z" fill="white"/>
<path d="M68.7145 31.1285H68.8516C68.8776 31.1285 68.8982 31.1147 68.8968 31.0967L68.8324 30.5057C68.8324 30.4891 68.8077 30.4739 68.7803 30.4739H68.6432C68.6157 30.4739 68.5952 30.4891 68.5979 30.5057L68.661 31.0967C68.6637 31.1147 68.6815 31.1285 68.7145 31.1285Z" fill="#263238"/>
<path d="M64.644 31.1285H64.7811C64.8085 31.1285 64.8291 31.1147 64.8277 31.0967L64.7633 30.5057C64.7633 30.4891 64.7372 30.4739 64.7112 30.4739H64.574C64.5466 30.4739 64.526 30.4891 64.5274 30.5057L64.5919 31.0967C64.5932 31.1147 64.6165 31.1285 64.644 31.1285Z" fill="#263238"/>
<path d="M66.6779 31.1285H66.8151C66.8425 31.1285 66.863 31.1147 66.8617 31.0967L66.7972 30.5057C66.7972 30.4891 66.7725 30.4739 66.7451 30.4739H66.608C66.5806 30.4739 66.56 30.4891 66.5627 30.5057L66.6217 31.1008C66.6217 31.1147 66.6505 31.1285 66.6779 31.1285Z" fill="#263238"/>
<path d="M66.0638 18.9977L65.8184 18.9507C65.8184 18.9507 65.9582 19.1278 66.0638 18.9977Z" fill="#263238"/>
<path opacity="0.2" d="M61.5246 36.6215C59.2014 37.5325 56.6628 37.7277 54.2297 37.1824C51.7966 36.6372 49.5783 35.376 47.8554 33.5583C46.1325 31.7407 44.9822 29.4482 44.5502 26.9708C44.1181 24.4934 44.4236 21.9423 45.4281 19.6401C46.4325 17.338 48.0908 15.3881 50.1932 14.0371C52.2956 12.6861 54.7477 11.9947 57.2394 12.0502C59.7311 12.1058 62.1506 12.9058 64.1919 14.3491C66.2331 15.7925 67.8045 17.8143 68.7072 20.159C69.3069 21.7159 69.5968 23.3768 69.5603 25.0468C69.5239 26.7168 69.1618 28.3632 68.4948 29.892C67.8278 31.4207 66.8689 32.8019 65.673 33.9566C64.477 35.1112 63.0674 36.0168 61.5246 36.6215Z" fill="#407BFF"/>
<path opacity="0.1" d="M59.2428 12.2577L49.3588 34.9135C49.2066 34.7973 49.0558 34.6768 48.9077 34.5551C47.9524 33.7574 47.1205 32.8203 46.4395 31.7746L54.9769 12.2051C56.3913 11.9751 57.8344 11.9929 59.2428 12.2577Z" fill="white"/>
<path opacity="0.1" d="M66.2704 16.1882L56.9774 37.4892C55.0472 37.4913 53.1423 37.0452 51.4102 36.1855L61.5574 12.9248C63.3551 13.6344 64.9675 14.7508 66.2704 16.1882Z" fill="white"/>
<path d="M46.5854 16.1979C48.2646 14.1271 50.5145 12.6053 53.0506 11.825C55.5867 11.0447 58.2951 11.041 60.8333 11.8143C63.3715 12.5876 65.6255 14.1031 67.3103 16.1693C68.9951 18.2355 70.035 20.7596 70.2985 23.4223C70.562 26.085 70.0372 28.7667 68.7906 31.1284C67.544 33.4901 65.6315 35.4257 63.295 36.6904C60.9585 37.9551 58.3028 38.492 55.6639 38.2334C53.025 37.9748 50.5214 36.9322 48.4695 35.2374C45.7184 32.9646 43.9744 29.682 43.6211 26.1115C43.2678 22.541 44.3341 18.975 46.5854 16.1979ZM66.485 32.6342C68.0264 30.7325 68.9744 28.4123 69.2093 25.9669C69.4442 23.5215 68.9553 21.0607 67.8046 18.8957C66.6538 16.7306 64.8928 14.9586 62.7443 13.8037C60.5957 12.6488 58.1561 12.1628 55.7339 12.4072C53.3117 12.6517 51.0157 13.6155 49.1362 15.1769C47.2567 16.7383 45.8782 18.8272 45.1749 21.1793C44.4716 23.5314 44.4752 26.0412 45.1851 28.3912C45.8951 30.7413 47.2795 32.8262 49.1634 34.3821C50.4144 35.4154 51.8548 36.1898 53.4024 36.6612C54.95 37.1326 56.5744 37.2916 58.1829 37.1293C59.7914 36.967 61.3525 36.4865 62.777 35.7152C64.2015 34.9439 65.4615 33.897 66.485 32.6342Z" fill="#407BFF"/>
<path d="M67.67 32.587C68.9905 33.3828 70.2466 34.2575 71.4807 35.1599C72.7148 36.0622 73.9174 37.002 75.1008 37.9666C76.2842 38.9312 77.4456 39.9235 78.5659 40.9657C79.1272 41.4861 79.6757 42.0203 80.2114 42.5683C80.749 43.1219 81.2769 43.6755 81.7747 44.2762C81.8897 44.4153 81.9531 44.5904 81.954 44.7716C81.9549 44.9527 81.8932 45.1285 81.7796 45.2687C81.666 45.4089 81.5075 45.5048 81.3314 45.5399C81.1553 45.575 80.9727 45.547 80.8148 45.4609C80.1292 45.0872 79.4874 44.6748 78.847 44.2527C78.2067 43.8305 77.5814 43.3904 76.9643 42.9379C75.7302 42.0355 74.5358 41.0847 73.3662 40.1035C72.1965 39.1222 71.0446 38.1188 69.9243 37.0753C68.804 36.0318 67.7056 34.9633 66.6717 33.8146C66.5426 33.6726 66.4686 33.4883 66.4632 33.2956C66.4578 33.1028 66.5215 32.9146 66.6424 32.7655C66.7634 32.6163 66.9336 32.5161 67.1219 32.4833C67.3101 32.4506 67.5037 32.4874 67.6672 32.587H67.67Z" fill="#407BFF"/>
<path d="M69.143 32.208L67.8184 32.4115L68.7659 33.2501C68.7659 33.2501 69.5146 32.9734 69.5886 32.4613L69.143 32.208Z" fill="#FFC3BD"/>
<path d="M67.1035 33.1794L67.9359 33.8382L68.952 33.1683L67.8193 32.4141L67.1035 33.1794Z" fill="#FFC3BD"/>
<path d="M60.8388 34.6367C60.9598 34.3033 61.178 34.0148 61.4646 33.809C61.7512 33.6032 62.0929 33.4898 62.4446 33.4838H73.4214C73.6111 33.4767 73.8 33.5116 73.9749 33.5862C74.1497 33.6608 74.3062 33.7731 74.4333 33.9154C74.5604 34.0577 74.655 34.2264 74.7105 34.4096C74.7659 34.5928 74.7809 34.7861 74.7543 34.9758L71.9185 58.9893C71.8584 59.3981 71.656 59.772 71.3478 60.044C71.0396 60.3161 70.6455 60.4686 70.236 60.4743H35.4063C35.2172 60.4816 35.0289 60.447 34.8546 60.3729C34.6802 60.2988 34.5241 60.187 34.3972 60.0454C34.2702 59.9038 34.1756 59.7359 34.1199 59.5535C34.0642 59.371 34.0488 59.1784 34.0748 58.9893L36.4525 38.8136C36.5127 38.4048 36.715 38.0309 37.0233 37.7588C37.3315 37.4868 37.7256 37.3342 38.135 37.3285H57.0885C57.9098 37.3144 58.7076 37.0497 59.377 36.5692C60.0464 36.0888 60.556 35.415 60.8388 34.6367Z" fill="#407BFF"/>
<path d="M34.7031 59.3685H71.0975L73.1708 34.6533H36.7778L34.7031 59.3685Z" fill="#F0F0F0"/>
<path d="M34.7031 59.3685H71.0975L72.5976 34.6533H36.7778L34.7031 59.3685Z" fill="#EF0627"/>
<path d="M34.7031 59.3684H71.0975L72.3481 33.8684H35.9551L34.7031 59.3684Z" fill="#F0F0F0"/>
<path d="M34.7031 59.3684H71.0975L71.5925 33.8684H35.9551L34.7031 59.3684Z" fill="#EF0627"/>
<path d="M34.7031 59.3685H71.0975L71.3141 33.1765H34.9212L34.7031 59.3685Z" fill="#F0F0F0"/>
<path d="M34.7029 59.3686H71.0972L70.3499 33.6721H34.1914L34.7029 59.3686Z" fill="#EF0627"/>
<path d="M34.7022 59.3684H71.0966L70.016 33.8684H33.623L34.7022 59.3684Z" fill="#F0F0F0"/>
<path d="M34.702 59.3684H71.0963L69.3754 34.2532H32.9824L34.702 59.3684Z" fill="#EF0627"/>
<path d="M34.7008 59.3685H71.0952L69.1 34.4678H32.707L34.7008 59.3685Z" fill="#F0F0F0"/>
<path d="M52.9277 36.1965C52.9298 36.0359 52.9638 35.8774 53.0278 35.7303C53.0918 35.5833 53.1844 35.4508 53.3002 35.3406C53.416 35.2305 53.5525 35.145 53.7018 35.0892C53.851 35.0334 54.0098 35.0085 54.1687 35.0159H65.1456C65.5706 35.0324 65.9781 35.1908 66.3042 35.4664C66.6303 35.7419 66.8566 36.119 66.9474 36.5383L71.2846 58.9589C71.4465 59.799 70.9034 60.4813 70.0711 60.4813H35.2413C34.4076 60.4813 33.5958 59.799 33.4381 58.9589L29.8606 40.4758C29.6987 39.6357 30.2418 38.9534 31.0741 38.9534H50.0289C51.6744 38.9534 52.8715 37.8102 52.9277 36.1965Z" fill="#407BFF"/>
<path opacity="0.2" d="M52.9277 36.1965C52.9298 36.0359 52.9638 35.8774 53.0278 35.7303C53.0918 35.5833 53.1844 35.4508 53.3002 35.3406C53.416 35.2305 53.5525 35.145 53.7018 35.0892C53.851 35.0334 54.0098 35.0085 54.1687 35.0159H65.1456C65.5706 35.0324 65.9781 35.1908 66.3042 35.4664C66.6303 35.7419 66.8566 36.119 66.9474 36.5383L71.2846 58.9589C71.4465 59.799 70.9034 60.4813 70.0711 60.4813H35.2413C34.4076 60.4813 33.5958 59.799 33.4381 58.9589L29.8606 40.4758C29.6987 39.6357 30.2418 38.9534 31.0741 38.9534H50.0289C51.6744 38.9534 52.8715 37.8102 52.9277 36.1965Z" fill="black"/>
<path d="M130.718 30.969V41H129.528V33.629C129.528 33.531 129.53 33.426 129.535 33.314C129.544 33.202 129.554 33.0877 129.563 32.971L126.119 39.243C126.012 39.453 125.848 39.558 125.629 39.558H125.433C125.214 39.558 125.05 39.453 124.943 39.243L121.429 32.943C121.457 33.1903 121.471 33.419 121.471 33.629V41H120.281V30.969H121.282C121.403 30.969 121.497 30.9807 121.562 31.004C121.627 31.0273 121.69 31.0927 121.751 31.2L125.216 37.374C125.272 37.486 125.326 37.6027 125.377 37.724C125.433 37.8453 125.484 37.969 125.531 38.095C125.578 37.969 125.627 37.8453 125.678 37.724C125.729 37.598 125.785 37.479 125.846 37.367L129.248 31.2C129.304 31.0927 129.365 31.0273 129.43 31.004C129.5 30.9807 129.596 30.969 129.717 30.969H130.718ZM134.196 33.909V41H132.95V33.909H134.196ZM134.462 31.683C134.462 31.8043 134.436 31.9187 134.385 32.026C134.338 32.1287 134.273 32.222 134.189 32.306C134.109 32.3853 134.014 32.4483 133.902 32.495C133.794 32.5417 133.68 32.565 133.559 32.565C133.437 32.565 133.323 32.5417 133.216 32.495C133.113 32.4483 133.022 32.3853 132.943 32.306C132.863 32.222 132.8 32.1287 132.754 32.026C132.707 31.9187 132.684 31.8043 132.684 31.683C132.684 31.5617 132.707 31.4473 132.754 31.34C132.8 31.228 132.863 31.1323 132.943 31.053C133.022 30.969 133.113 30.9037 133.216 30.857C133.323 30.8103 133.437 30.787 133.559 30.787C133.68 30.787 133.794 30.8103 133.902 30.857C134.014 30.9037 134.109 30.969 134.189 31.053C134.273 31.1323 134.338 31.228 134.385 31.34C134.436 31.4473 134.462 31.5617 134.462 31.683ZM137.419 34.938C137.573 34.7653 137.736 34.609 137.909 34.469C138.082 34.329 138.264 34.21 138.455 34.112C138.651 34.0093 138.856 33.9323 139.071 33.881C139.29 33.825 139.526 33.797 139.778 33.797C140.165 33.797 140.506 33.8623 140.8 33.993C141.099 34.119 141.346 34.301 141.542 34.539C141.743 34.7723 141.894 35.0547 141.997 35.386C142.1 35.7173 142.151 36.0837 142.151 36.485V41H140.898V36.485C140.898 35.9483 140.774 35.533 140.527 35.239C140.284 34.9403 139.913 34.791 139.414 34.791C139.045 34.791 138.7 34.8797 138.378 35.057C138.061 35.2343 137.767 35.4747 137.496 35.778V41H136.243V33.909H136.992C137.169 33.909 137.279 33.9953 137.321 34.168L137.419 34.938ZM145.366 33.909V41H144.12V33.909H145.366ZM145.632 31.683C145.632 31.8043 145.606 31.9187 145.555 32.026C145.508 32.1287 145.443 32.222 145.359 32.306C145.279 32.3853 145.184 32.4483 145.072 32.495C144.964 32.5417 144.85 32.565 144.729 32.565C144.607 32.565 144.493 32.5417 144.386 32.495C144.283 32.4483 144.192 32.3853 144.113 32.306C144.033 32.222 143.97 32.1287 143.924 32.026C143.877 31.9187 143.854 31.8043 143.854 31.683C143.854 31.5617 143.877 31.4473 143.924 31.34C143.97 31.228 144.033 31.1323 144.113 31.053C144.192 30.969 144.283 30.9037 144.386 30.857C144.493 30.8103 144.607 30.787 144.729 30.787C144.85 30.787 144.964 30.8103 145.072 30.857C145.184 30.9037 145.279 30.969 145.359 31.053C145.443 31.1323 145.508 31.228 145.555 31.34C145.606 31.4473 145.632 31.5617 145.632 31.683ZM147.413 41V33.909H148.162C148.339 33.909 148.449 33.9953 148.491 34.168L148.582 34.896C148.843 34.574 149.137 34.3103 149.464 34.105C149.79 33.8997 150.168 33.797 150.598 33.797C151.074 33.797 151.459 33.93 151.753 34.196C152.051 34.462 152.266 34.8213 152.397 35.274C152.499 35.0173 152.63 34.7957 152.789 34.609C152.952 34.4223 153.134 34.2683 153.335 34.147C153.535 34.0257 153.748 33.937 153.972 33.881C154.2 33.825 154.431 33.797 154.665 33.797C155.038 33.797 155.369 33.8577 155.659 33.979C155.953 34.0957 156.2 34.2683 156.401 34.497C156.606 34.7257 156.762 35.008 156.87 35.344C156.977 35.6753 157.031 36.0557 157.031 36.485V41H155.778V36.485C155.778 35.9297 155.656 35.5097 155.414 35.225C155.171 34.9357 154.821 34.791 154.364 34.791C154.158 34.791 153.962 34.8283 153.776 34.903C153.594 34.973 153.433 35.078 153.293 35.218C153.153 35.358 153.041 35.5353 152.957 35.75C152.877 35.96 152.838 36.205 152.838 36.485V41H151.585V36.485C151.585 35.9157 151.47 35.491 151.242 35.211C151.013 34.931 150.679 34.791 150.241 34.791C149.933 34.791 149.648 34.875 149.387 35.043C149.125 35.2063 148.885 35.4303 148.666 35.715V41H147.413ZM162.768 37.808C162.194 37.8267 161.704 37.8733 161.298 37.948C160.896 38.018 160.567 38.1113 160.311 38.228C160.059 38.3447 159.874 38.4823 159.758 38.641C159.646 38.7997 159.59 38.977 159.59 39.173C159.59 39.3597 159.62 39.5207 159.681 39.656C159.741 39.7913 159.823 39.9033 159.926 39.992C160.033 40.076 160.157 40.139 160.297 40.181C160.441 40.2183 160.595 40.237 160.759 40.237C160.978 40.237 161.179 40.216 161.361 40.174C161.543 40.1273 161.713 40.062 161.872 39.978C162.035 39.894 162.189 39.7937 162.334 39.677C162.483 39.5603 162.628 39.4273 162.768 39.278V37.808ZM158.743 34.91C159.135 34.532 159.557 34.2497 160.01 34.063C160.462 33.8763 160.964 33.783 161.515 33.783C161.911 33.783 162.264 33.8483 162.572 33.979C162.88 34.1097 163.139 34.2917 163.349 34.525C163.559 34.7583 163.717 35.0407 163.825 35.372C163.932 35.7033 163.986 36.0673 163.986 36.464V41H163.433C163.311 41 163.218 40.9813 163.153 40.944C163.087 40.902 163.036 40.8227 162.999 40.706L162.859 40.034C162.672 40.2067 162.49 40.3607 162.312 40.496C162.135 40.6267 161.949 40.7387 161.753 40.832C161.557 40.9207 161.347 40.9883 161.123 41.035C160.903 41.0863 160.658 41.112 160.388 41.112C160.112 41.112 159.853 41.0747 159.611 41C159.368 40.9207 159.156 40.804 158.974 40.65C158.796 40.496 158.654 40.3023 158.547 40.069C158.444 39.831 158.393 39.551 158.393 39.229C158.393 38.949 158.47 38.6807 158.624 38.424C158.778 38.1627 159.027 37.9317 159.373 37.731C159.718 37.5303 160.168 37.367 160.724 37.241C161.279 37.1103 161.96 37.0357 162.768 37.017V36.464C162.768 35.9133 162.649 35.498 162.411 35.218C162.173 34.9333 161.825 34.791 161.368 34.791C161.06 34.791 160.801 34.8307 160.591 34.91C160.385 34.9847 160.206 35.071 160.052 35.169C159.902 35.2623 159.772 35.3487 159.66 35.428C159.552 35.5027 159.445 35.54 159.338 35.54C159.254 35.54 159.181 35.519 159.121 35.477C159.06 35.4303 159.009 35.3743 158.966 35.309L158.743 34.91ZM167.171 30.689V41H165.925V30.689H167.171ZM185.344 35.988C185.344 36.7393 185.225 37.423 184.987 38.039C184.749 38.655 184.413 39.1823 183.979 39.621C183.545 40.0597 183.022 40.4003 182.411 40.643C181.804 40.881 181.132 41 180.395 41H176.65V30.969H180.395C181.132 30.969 181.804 31.0903 182.411 31.333C183.022 31.571 183.545 31.9117 183.979 32.355C184.413 32.7937 184.749 33.321 184.987 33.937C185.225 34.553 185.344 35.2367 185.344 35.988ZM183.951 35.988C183.951 35.372 183.867 34.8213 183.699 34.336C183.531 33.8507 183.293 33.44 182.985 33.104C182.677 32.768 182.304 32.5113 181.865 32.334C181.426 32.1567 180.936 32.068 180.395 32.068H178.008V39.901H180.395C180.936 39.901 181.426 39.8123 181.865 39.635C182.304 39.4577 182.677 39.2033 182.985 38.872C183.293 38.536 183.531 38.1253 183.699 37.64C183.867 37.1547 183.951 36.604 183.951 35.988ZM189.9 33.797C190.418 33.797 190.884 33.8833 191.3 34.056C191.715 34.2287 192.07 34.4737 192.364 34.791C192.658 35.1083 192.882 35.4933 193.036 35.946C193.194 36.394 193.274 36.8957 193.274 37.451C193.274 38.011 193.194 38.515 193.036 38.963C192.882 39.411 192.658 39.7937 192.364 40.111C192.07 40.4283 191.715 40.6733 191.3 40.846C190.884 41.014 190.418 41.098 189.9 41.098C189.377 41.098 188.906 41.014 188.486 40.846C188.07 40.6733 187.716 40.4283 187.422 40.111C187.128 39.7937 186.901 39.411 186.743 38.963C186.589 38.515 186.512 38.011 186.512 37.451C186.512 36.8957 186.589 36.394 186.743 35.946C186.901 35.4933 187.128 35.1083 187.422 34.791C187.716 34.4737 188.07 34.2287 188.486 34.056C188.906 33.8833 189.377 33.797 189.9 33.797ZM189.9 40.125C190.6 40.125 191.122 39.8917 191.468 39.425C191.813 38.9537 191.986 38.298 191.986 37.458C191.986 36.6133 191.813 35.9553 191.468 35.484C191.122 35.0127 190.6 34.777 189.9 34.777C189.545 34.777 189.235 34.8377 188.969 34.959C188.707 35.0803 188.488 35.2553 188.311 35.484C188.138 35.7127 188.007 35.995 187.919 36.331C187.835 36.6623 187.793 37.038 187.793 37.458C187.793 38.298 187.965 38.9537 188.311 39.425C188.661 39.8917 189.19 40.125 189.9 40.125ZM199.789 35.169C199.752 35.2203 199.715 35.26 199.677 35.288C199.64 35.316 199.589 35.33 199.523 35.33C199.453 35.33 199.376 35.302 199.292 35.246C199.208 35.1853 199.103 35.12 198.977 35.05C198.856 34.98 198.704 34.917 198.522 34.861C198.345 34.8003 198.126 34.77 197.864 34.77C197.514 34.77 197.206 34.833 196.94 34.959C196.674 35.0803 196.45 35.2577 196.268 35.491C196.091 35.7243 195.956 36.0067 195.862 36.338C195.774 36.6693 195.729 37.0403 195.729 37.451C195.729 37.8803 195.778 38.263 195.876 38.599C195.974 38.9303 196.112 39.2103 196.289 39.439C196.471 39.663 196.688 39.8357 196.94 39.957C197.197 40.0737 197.484 40.132 197.801 40.132C198.105 40.132 198.354 40.097 198.55 40.027C198.746 39.9523 198.907 39.8707 199.033 39.782C199.164 39.6933 199.271 39.614 199.355 39.544C199.444 39.4693 199.53 39.432 199.614 39.432C199.717 39.432 199.796 39.4717 199.852 39.551L200.202 40.006C200.048 40.1973 199.873 40.3607 199.677 40.496C199.481 40.6313 199.269 40.7457 199.04 40.839C198.816 40.9277 198.581 40.993 198.333 41.035C198.086 41.077 197.834 41.098 197.577 41.098C197.134 41.098 196.721 41.0163 196.338 40.853C195.96 40.6897 195.631 40.454 195.351 40.146C195.071 39.8333 194.852 39.4507 194.693 38.998C194.535 38.5453 194.455 38.0297 194.455 37.451C194.455 36.9237 194.528 36.436 194.672 35.988C194.822 35.54 195.036 35.155 195.316 34.833C195.601 34.5063 195.949 34.252 196.359 34.07C196.775 33.888 197.251 33.797 197.787 33.797C198.287 33.797 198.725 33.8787 199.103 34.042C199.486 34.2007 199.824 34.427 200.118 34.721L199.789 35.169ZM207.371 33.909V41H206.629C206.451 41 206.339 40.9137 206.293 40.741L206.195 39.978C205.887 40.3187 205.541 40.594 205.159 40.804C204.776 41.0093 204.337 41.112 203.843 41.112C203.455 41.112 203.112 41.049 202.814 40.923C202.52 40.7923 202.272 40.6103 202.072 40.377C201.871 40.1437 201.719 39.8613 201.617 39.53C201.519 39.1987 201.47 38.8323 201.47 38.431V33.909H202.716V38.431C202.716 38.9677 202.837 39.383 203.08 39.677C203.327 39.971 203.703 40.118 204.207 40.118C204.575 40.118 204.918 40.0317 205.236 39.859C205.558 39.6817 205.854 39.439 206.125 39.131V33.909H207.371ZM209.346 41V33.909H210.095C210.273 33.909 210.382 33.9953 210.424 34.168L210.515 34.896C210.777 34.574 211.071 34.3103 211.397 34.105C211.724 33.8997 212.102 33.797 212.531 33.797C213.007 33.797 213.392 33.93 213.686 34.196C213.985 34.462 214.2 34.8213 214.33 35.274C214.433 35.0173 214.564 34.7957 214.722 34.609C214.886 34.4223 215.068 34.2683 215.268 34.147C215.469 34.0257 215.681 33.937 215.905 33.881C216.134 33.825 216.365 33.797 216.598 33.797C216.972 33.797 217.303 33.8577 217.592 33.979C217.886 34.0957 218.134 34.2683 218.334 34.497C218.54 34.7257 218.696 35.008 218.803 35.344C218.911 35.6753 218.964 36.0557 218.964 36.485V41H217.711V36.485C217.711 35.9297 217.59 35.5097 217.347 35.225C217.105 34.9357 216.755 34.791 216.297 34.791C216.092 34.791 215.896 34.8283 215.709 34.903C215.527 34.973 215.366 35.078 215.226 35.218C215.086 35.358 214.974 35.5353 214.89 35.75C214.811 35.96 214.771 36.205 214.771 36.485V41H213.518V36.485C213.518 35.9157 213.404 35.491 213.175 35.211C212.947 34.931 212.613 34.791 212.174 34.791C211.866 34.791 211.582 34.875 211.32 35.043C211.059 35.2063 210.819 35.4303 210.599 35.715V41H209.346ZM225.604 36.681C225.604 36.3917 225.562 36.128 225.478 35.89C225.399 35.6473 225.28 35.4397 225.121 35.267C224.967 35.0897 224.778 34.9543 224.554 34.861C224.33 34.763 224.076 34.714 223.791 34.714C223.194 34.714 222.72 34.889 222.37 35.239C222.025 35.5843 221.81 36.065 221.726 36.681H225.604ZM226.612 40.006C226.458 40.1927 226.274 40.356 226.059 40.496C225.844 40.6313 225.613 40.7433 225.366 40.832C225.123 40.9207 224.871 40.986 224.61 41.028C224.349 41.0747 224.09 41.098 223.833 41.098C223.343 41.098 222.89 41.0163 222.475 40.853C222.064 40.685 221.707 40.4423 221.404 40.125C221.105 39.803 220.872 39.4063 220.704 38.935C220.536 38.4637 220.452 37.9223 220.452 37.311C220.452 36.8163 220.527 36.3543 220.676 35.925C220.83 35.4957 221.049 35.1247 221.334 34.812C221.619 34.4947 221.966 34.2473 222.377 34.07C222.788 33.888 223.25 33.797 223.763 33.797C224.188 33.797 224.58 33.8693 224.939 34.014C225.303 34.154 225.616 34.3593 225.877 34.63C226.143 34.896 226.351 35.2273 226.5 35.624C226.649 36.016 226.724 36.464 226.724 36.968C226.724 37.164 226.703 37.2947 226.661 37.36C226.619 37.4253 226.54 37.458 226.423 37.458H221.684C221.698 37.906 221.759 38.2957 221.866 38.627C221.978 38.9583 222.132 39.236 222.328 39.46C222.524 39.6793 222.757 39.845 223.028 39.957C223.299 40.0643 223.602 40.118 223.938 40.118C224.251 40.118 224.519 40.083 224.743 40.013C224.972 39.9383 225.168 39.859 225.331 39.775C225.494 39.691 225.63 39.614 225.737 39.544C225.849 39.4693 225.945 39.432 226.024 39.432C226.127 39.432 226.206 39.4717 226.262 39.551L226.612 40.006ZM229.431 34.938C229.585 34.7653 229.748 34.609 229.921 34.469C230.093 34.329 230.275 34.21 230.467 34.112C230.663 34.0093 230.868 33.9323 231.083 33.881C231.302 33.825 231.538 33.797 231.79 33.797C232.177 33.797 232.518 33.8623 232.812 33.993C233.11 34.119 233.358 34.301 233.554 34.539C233.754 34.7723 233.906 35.0547 234.009 35.386C234.111 35.7173 234.163 36.0837 234.163 36.485V41H232.91V36.485C232.91 35.9483 232.786 35.533 232.539 35.239C232.296 34.9403 231.925 34.791 231.426 34.791C231.057 34.791 230.712 34.8797 230.39 35.057C230.072 35.2343 229.778 35.4747 229.508 35.778V41H228.255V33.909H229.004C229.181 33.909 229.291 33.9953 229.333 34.168L229.431 34.938ZM238.143 41.112C237.583 41.112 237.151 40.9557 236.848 40.643C236.549 40.3303 236.4 39.88 236.4 39.292V34.952H235.546C235.471 34.952 235.408 34.931 235.357 34.889C235.305 34.8423 235.28 34.7723 235.28 34.679V34.182L236.442 34.035L236.729 31.844C236.743 31.774 236.773 31.718 236.82 31.676C236.871 31.6293 236.936 31.606 237.016 31.606H237.646V34.049H239.697V34.952H237.646V39.208C237.646 39.5067 237.718 39.7283 237.863 39.873C238.007 40.0177 238.194 40.09 238.423 40.09C238.553 40.09 238.665 40.0737 238.759 40.041C238.857 40.0037 238.941 39.964 239.011 39.922C239.081 39.88 239.139 39.8427 239.186 39.81C239.237 39.7727 239.281 39.754 239.319 39.754C239.384 39.754 239.442 39.7937 239.494 39.873L239.858 40.468C239.643 40.6687 239.384 40.8273 239.081 40.944C238.777 41.056 238.465 41.112 238.143 41.112Z" fill="#242424"/>
<rect x="0.5" y="0.5" width="322" height="71" rx="7.5" stroke="#005AFF"/>
</svg>
