<svg width="340" height="288" viewBox="0 0 340 288" fill="none" xmlns="http://www.w3.org/2000/svg">
<path d="M302 199.867H38V199.999H302V199.867Z" fill="#EF0627"/>
<path d="M275.547 208.363H258.06V208.495H275.547V208.363Z" fill="#EF0627"/>
<path d="M251.412 208.363H214.025V208.495H251.412V208.363Z" fill="#EF0627"/>
<path d="M193.406 203.463H183.274V203.595H193.406V203.463Z" fill="#EF0627"/>
<path d="M83.804 204.35H65.6989V204.482H83.804V204.35Z" fill="#EF0627"/>
<path d="M121.424 204.35H88.5032V204.482H121.424V204.35Z" fill="#EF0627"/>
<path d="M156.874 206.578H137.438V206.71H156.874V206.578Z" fill="#EF0627"/>
<path d="M163.136 176.318H61.1845C60.3858 176.317 59.6203 175.999 59.056 175.434C58.4918 174.868 58.1749 174.102 58.1749 173.304V29.9885C58.1818 29.1944 58.5018 28.4351 59.0653 27.8755C59.6288 27.316 60.3903 27.0014 61.1845 27H163.136C163.936 27 164.702 27.3176 165.268 27.883C165.833 28.4484 166.151 29.2153 166.151 30.0149V173.304C166.151 174.103 165.833 174.87 165.268 175.435C164.702 176.001 163.936 176.318 163.136 176.318ZM61.1845 27.1056C60.4208 27.107 59.6889 27.4113 59.1494 27.9518C58.6099 28.4923 58.3069 29.2248 58.3069 29.9885V173.304C58.3069 174.067 58.6099 174.8 59.1494 175.34C59.6889 175.881 60.4208 176.185 61.1845 176.186H163.136C163.9 176.185 164.633 175.881 165.173 175.34C165.713 174.8 166.017 174.068 166.019 173.304V29.9885C166.017 29.2243 165.713 28.4919 165.173 27.9515C164.633 27.4112 163.9 27.107 163.136 27.1056H61.1845Z" fill="#EF0627"/>
<path d="M277.348 176.318H175.391C174.592 176.317 173.826 175.999 173.261 175.434C172.695 174.869 172.377 174.103 172.376 173.304V29.9885C172.384 29.1939 172.705 28.4346 173.27 27.8752C173.834 27.3158 174.596 27.0013 175.391 27H277.348C278.141 27.0027 278.901 27.318 279.463 27.8774C280.026 28.4368 280.345 29.1953 280.352 29.9885V173.304C280.352 174.101 280.036 174.867 279.473 175.432C278.91 175.997 278.145 176.316 277.348 176.318ZM175.391 27.1056C174.627 27.107 173.894 27.4112 173.354 27.9515C172.814 28.4919 172.509 29.2243 172.508 29.9885V173.304C172.509 174.068 172.814 174.8 173.354 175.34C173.894 175.881 174.627 176.185 175.391 176.186H277.348C278.112 176.185 278.844 175.881 279.385 175.34C279.925 174.8 280.229 174.068 280.231 173.304V29.9885C280.229 29.2243 279.925 28.4919 279.385 27.9515C278.844 27.4112 278.112 27.107 277.348 27.1056H175.391Z" fill="#EF0627"/>
<path d="M78.0435 99.9802L149.693 99.9802V37.9033L78.0435 37.9033L78.0435 99.9802Z" fill="#E6E6E6"/>
<path d="M76.4437 99.9802L148.093 99.9802V37.9033L76.4437 37.9033L76.4437 99.9802Z" fill="#F5F5F5"/>
<path d="M145.237 97.7626V40.1208L79.3055 40.1208V97.7626H145.237Z" fill="#FAFAFA"/>
<path d="M118.795 97.7626L130.743 40.1208H105.748L93.8043 97.7626H118.795Z" fill="white"/>
<path d="M80.5093 97.7677V40.126H79.3054V97.7677H80.5093Z" fill="#E6E6E6"/>
<path d="M77.6264 87.4297L146.911 87.4297V84.4518L77.6264 84.4518V87.4297Z" fill="#F5F5F5"/>
<path d="M146.367 196.726H157.808V147.109H146.367V196.726Z" fill="#F0F0F0"/>
<path d="M71.6495 199.867H155.617V196.726H71.6495V199.867Z" fill="#F0F0F0"/>
<path d="M146.367 147.104H69.4477V196.72H146.367V147.104Z" fill="#F5F5F5"/>
<path d="M141.873 153.213H73.9462V169.486H141.873V153.213Z" fill="#F0F0F0"/>
<path d="M141.873 174.344H73.9462V190.617H141.873V174.344Z" fill="#F0F0F0"/>
<path d="M89.6014 162.464H126.218C126.513 162.462 126.796 162.344 127.004 162.136C127.213 161.927 127.331 161.645 127.332 161.35C127.331 161.054 127.213 160.771 127.005 160.561C126.796 160.352 126.514 160.233 126.218 160.23H89.6014C89.3059 160.233 89.0233 160.352 88.8148 160.561C88.6063 160.771 88.4887 161.054 88.4873 161.35C88.4887 161.645 88.6065 161.927 88.8151 162.136C89.0238 162.344 89.3063 162.462 89.6014 162.464Z" fill="#F5F5F5"/>
<path d="M89.6014 183.594H126.218C126.513 183.593 126.796 183.475 127.004 183.266C127.213 183.058 127.331 182.775 127.332 182.48C127.332 182.184 127.215 181.9 127.006 181.691C126.797 181.481 126.514 181.362 126.218 181.361H89.6014C89.3054 181.362 89.0221 181.481 88.8133 181.691C88.6045 181.9 88.4873 182.184 88.4873 182.48C88.4887 182.775 88.6065 183.058 88.8151 183.266C89.0238 183.475 89.3063 183.593 89.6014 183.594Z" fill="#F5F5F5"/>
<path d="M265.895 70.3488C272.411 68.5536 274.639 56.7317 258.176 51.9058C261.809 63.7963 254.538 73.464 265.895 70.3488Z" fill="#EF0627"/>
<path d="M267.337 75.481C272.474 69.9317 267.617 57.3758 249.115 62.508C259.58 71.6635 258.387 85.1592 267.337 75.481Z" fill="#EF0627"/>
<path d="M262.268 76.9066C257.97 72.651 264.127 57.8406 278.319 64.7046C270.278 72.4081 269.792 84.325 262.268 76.9066Z" fill="#FAFAFA"/>
<path d="M257.981 85.1963H270.489L271.434 76.7324H257.041L257.981 85.1963Z" fill="#E6E6E6"/>
<path d="M256.898 78.2478H271.577C271.824 78.2478 272.062 78.1493 272.237 77.9741C272.413 77.7988 272.511 77.5611 272.511 77.3132C272.511 77.0654 272.413 76.8277 272.237 76.6524C272.062 76.4771 271.824 76.3787 271.577 76.3787H256.898C256.65 76.3787 256.413 76.4771 256.237 76.6524C256.062 76.8277 255.964 77.0654 255.964 77.3132C255.964 77.5611 256.062 77.7988 256.237 77.9741C256.413 78.1493 256.65 78.2478 256.898 78.2478Z" fill="#E6E6E6"/>
<path d="M152.74 185.532V171.197H164.678V156.867H176.621V142.532H188.559V128.196H200.502V113.866H212.441V99.5312H224.384V85.196H236.327H302V199.867H152.74H140.796V185.532H152.74Z" fill="#FAFAFA"/>
<path d="M218.412 185.532V171.197H230.356V156.867H242.294V142.532H254.237V128.196H266.175V113.866H278.119V99.5312H290.057V85.196H302V99.5312V199.867H218.412H206.474V185.532H218.412Z" fill="#EF0627"/>
<path d="M206.474 185.532H140.094V189.83H206.474V185.532Z" fill="#EF0627"/>
<path d="M218.418 171.197H152.037V175.495H218.418V171.197Z" fill="#EF0627"/>
<path d="M230.356 156.867H163.975V161.165H230.356V156.867Z" fill="#EF0627"/>
<path d="M242.299 142.532H175.919V146.83H242.299V142.532Z" fill="#EF0627"/>
<path d="M254.237 128.197H187.857V132.494H254.237V128.197Z" fill="#EF0627"/>
<path d="M266.18 113.866H199.8V118.164H266.18V113.866Z" fill="#EF0627"/>
<path d="M278.119 99.5312H211.738V103.829H278.119V99.5312Z" fill="#EF0627"/>
<path d="M290.062 85.196H223.682V89.494H290.062V85.196Z" fill="#EF0627"/>
<path d="M170 223.712C226.54 223.712 272.374 221.036 272.374 217.735C272.374 214.434 226.54 211.758 170 211.758C113.46 211.758 67.6261 214.434 67.6261 217.735C67.6261 221.036 113.46 223.712 170 223.712Z" fill="#F5F5F5"/>
<path d="M214.722 81.7166C214.627 83.3006 214.442 84.7526 214.236 86.2574C214.03 87.7622 213.75 89.2354 213.433 90.7138C212.816 93.7059 211.923 96.6347 210.767 99.4627L210.287 100.519L210.17 100.783L210.128 100.92L210.044 101.089C209.882 101.42 209.678 101.729 209.436 102.008C209.149 102.332 208.805 102.602 208.423 102.805C208.047 103.002 207.639 103.131 207.219 103.185C206.573 103.254 205.92 103.186 205.302 102.984C204.427 102.686 203.602 102.259 202.852 101.717C202.197 101.255 201.571 100.753 200.978 100.212C198.756 98.1519 196.756 95.8637 195.011 93.3854L196.759 91.9018C197.815 92.8786 198.871 93.8659 199.927 94.8005C200.977 95.7348 202.073 96.6159 203.211 97.4405C203.747 97.8237 204.304 98.1763 204.88 98.4965C205.344 98.778 205.845 98.993 206.369 99.1354C206.548 99.1723 206.675 99.1354 206.617 99.1354C206.492 99.1492 206.376 99.2029 206.284 99.2885C206.253 99.2885 206.253 99.2885 206.284 99.2885L206.453 98.8502L206.823 97.8893C207.739 95.2436 208.454 92.5325 208.961 89.7792C209.241 88.3958 209.436 86.9861 209.648 85.5869C209.859 84.1877 210.007 82.7462 210.128 81.4104L214.722 81.7166Z" fill="#FFC3BD"/>
<path d="M211.522 75.9034C209.553 76.405 208.174 84.5046 208.174 84.5046L213.597 88.2006C213.597 88.2006 218.798 80.0324 217.293 77.8676C215.709 75.6025 214.394 75.1748 211.522 75.9034Z" fill="#407BFF"/>
<path d="M211.522 75.9034C209.553 76.405 208.174 84.5046 208.174 84.5046L213.597 88.2006C213.597 88.2006 218.798 80.0324 217.293 77.8676C215.709 75.6025 214.394 75.1748 211.522 75.9034Z" fill="#407BFF"/>
<path opacity="0.4" d="M211.522 75.9034C209.553 76.405 208.174 84.5046 208.174 84.5046L213.597 88.2006C213.597 88.2006 218.798 80.0324 217.293 77.8676C215.709 75.6025 214.394 75.1748 211.522 75.9034Z" fill="black"/>
<path opacity="0.3" d="M211.696 77.7144L210.186 85.872L213.233 87.9417L211.696 77.7144Z" fill="black"/>
<path d="M196.849 91.5691L194.288 87.4929L192.826 92.1235C192.826 92.1235 194.938 94.3411 196.854 93.8131L196.849 91.5691Z" fill="#FFC3BD"/>
<path d="M190.486 86.1465L189.473 90.0854L192.804 92.1234L194.267 87.4929L190.486 86.1465Z" fill="#FFC3BD"/>
<path d="M222.166 212.196H217.393L217.071 201.14H221.85L222.166 212.196Z" fill="#FFC3BD"/>
<path d="M264.296 190.02L260.658 193.114L252.331 185.68L255.969 182.591L264.296 190.02Z" fill="#FFC3BD"/>
<path d="M259.66 192.745L263.192 188.7C263.252 188.63 263.336 188.585 263.427 188.572C263.519 188.56 263.611 188.581 263.688 188.631L267.284 190.96C267.373 191.022 267.447 191.101 267.503 191.194C267.559 191.286 267.594 191.39 267.607 191.497C267.62 191.604 267.61 191.713 267.578 191.816C267.546 191.919 267.493 192.014 267.421 192.095C266.165 193.484 265.489 194.091 263.937 195.865C262.986 196.958 261.703 198.658 260.383 200.163C259.063 201.668 257.5 200.453 257.917 199.704C259.771 196.356 259.327 195.184 259.359 193.537C259.364 193.246 259.47 192.965 259.66 192.745Z" fill="#263238"/>
<path d="M217.23 211.647H222.594C222.686 211.646 222.776 211.679 222.846 211.739C222.916 211.799 222.961 211.883 222.974 211.974L223.587 216.198C223.604 216.31 223.596 216.424 223.564 216.532C223.532 216.641 223.477 216.741 223.401 216.825C223.326 216.909 223.233 216.976 223.129 217.02C223.025 217.064 222.913 217.085 222.8 217.08C220.931 217.048 220.028 216.938 217.668 216.938C216.216 216.938 213.217 217.091 211.21 217.091C209.204 217.091 209.098 215.105 209.938 214.931C213.676 214.123 215.149 213.015 216.411 211.953C216.638 211.756 216.929 211.647 217.23 211.647Z" fill="#263238"/>
<path opacity="0.2" d="M217.077 201.145L217.24 206.842H222.013L221.85 201.145H217.077Z" fill="black"/>
<path opacity="0.2" d="M255.974 182.591L252.331 185.68L256.629 189.513L260.267 186.419L255.974 182.591Z" fill="black"/>
<path d="M211.522 75.9034C211.522 75.9034 209.246 76.7059 213.803 104.722H233.191C232.869 96.828 232.858 91.9598 236.628 75.7661C233.914 75.2064 231.163 74.8429 228.397 74.6784C225.465 74.4695 222.522 74.4695 219.59 74.6784C215.809 75.048 211.522 75.9034 211.522 75.9034Z" fill="#407BFF"/>
<path opacity="0.4" d="M211.522 75.9034C211.522 75.9034 209.246 76.7059 213.803 104.722H233.191C232.869 96.828 232.858 91.9598 236.628 75.7661C233.914 75.2064 231.163 74.8429 228.397 74.6784C225.465 74.4695 222.522 74.4695 219.59 74.6784C215.809 75.048 211.522 75.9034 211.522 75.9034Z" fill="black"/>
<path d="M228.397 74.6784C225.465 74.4695 222.522 74.4695 219.59 74.6784C219.115 74.7206 218.629 74.7734 218.148 74.8315C217.95 75.1316 217.822 75.4733 217.777 75.8304C217.731 76.1874 217.768 76.5502 217.884 76.8907C218.502 78.4272 220.73 78.6067 222.357 78.6067C228.36 78.6067 229.374 75.1008 229.416 74.953L229.474 74.7418C229.136 74.7206 228.756 74.6942 228.397 74.6784Z" fill="white"/>
<path d="M227.552 64.7678C226.992 67.5979 226.443 72.7881 228.423 74.6784C228.423 74.6784 227.647 77.556 222.383 77.556C216.575 77.556 219.616 74.6837 219.616 74.6837C222.784 73.9286 222.695 71.5843 222.145 69.4037L227.552 64.7678Z" fill="#FFC3BD"/>
<path opacity="0.2" d="M225.319 66.6475L222.119 69.3772C222.257 69.8962 222.349 70.4262 222.393 70.9612C223.597 70.787 225.255 69.4617 225.387 68.1998C225.461 67.6826 225.438 67.1561 225.319 66.6475Z" fill="black"/>
<path d="M224.231 49.3608C223.74 47.6976 223.328 45.0787 226.285 43.896C225.129 42.4809 224.849 39.8198 226.285 38.2411C227.721 36.6624 229.875 37.2432 229.875 37.2432C229.875 37.2432 230.509 33.3835 235.203 34.0752C239.897 34.7668 237.806 37.8556 237.806 37.8556C237.806 37.8556 244.21 36.5884 244.638 42.6076C245.066 48.6268 241.391 47.8876 241.391 47.8876C241.391 47.8876 244.247 50.2848 242.663 52.9195C241.079 55.5542 237.42 54.6461 237.42 54.6461C237.42 54.6461 235.699 59.303 231.644 56.6525C227.589 54.0019 224.231 49.3608 224.231 49.3608Z" fill="#263238"/>
<path d="M214.722 52.8719C213.138 54.9206 213.835 57.2385 215.25 58.1519C218.655 60.3273 223.582 51.2035 222.298 50.1105C221.015 49.0175 216.306 50.818 214.722 52.8719Z" fill="#263238"/>
<path d="M229.025 47.9933C226.787 47.0904 224.516 48.0356 223.809 49.3978C222.082 52.7189 229.923 58.7012 232.193 54.5511C233.54 52.0853 231.333 48.9226 229.025 47.9933Z" fill="#407BFF"/>
<path d="M228.08 58.152C228.244 62.904 228.413 64.8893 226.264 67.5346C223.038 71.5104 217.182 70.6762 215.609 66.0826C214.194 61.9484 214.167 54.8996 218.597 52.5869C219.571 52.0718 220.66 51.8142 221.762 51.8385C222.863 51.8628 223.94 52.1683 224.89 52.7258C225.84 53.2834 226.632 54.0746 227.19 55.0243C227.749 55.974 228.055 57.0507 228.08 58.152Z" fill="#FFC3BD"/>
<path d="M227.367 60.6388C225.255 59.8521 224.727 57.3863 225.065 56.4148C224.009 56.3726 221.702 55.9924 220.841 54.683C219.194 55.739 215.714 56.795 215.339 55.0367C214.965 53.2785 220.213 48.7588 224.183 48.4103C228.904 47.9985 233.561 52.6343 232.362 57.0748C231.164 61.5153 227.367 60.6388 227.367 60.6388Z" fill="#263238"/>
<path d="M213.824 104.722C213.824 104.722 210.059 141.497 210.371 156.059C210.698 171.202 216.248 205.739 216.248 205.739H222.7C222.7 205.739 221.681 172.084 222.251 157.215C222.874 141.001 228.022 104.722 228.022 104.722H213.824Z" fill="#263238"/>
<path d="M223.238 205.971H215.667L215.107 203.558L223.592 203.262L223.238 205.971Z" fill="#407BFF"/>
<path opacity="0.2" d="M222.166 113.872C217.414 123.45 221.211 140.927 222.895 147.432C223.756 137.664 225.213 125.725 226.348 116.961C225.63 112.008 224.384 109.452 222.166 113.872Z" fill="black"/>
<path d="M218.925 104.721C218.925 104.721 223.318 142.954 226.633 155.23C230.572 169.803 255.034 189.418 255.034 189.418L259.998 185.194C259.998 185.194 242.267 163.884 239.253 156.207C232.827 139.839 238.329 115.403 233.191 104.711L218.925 104.721Z" fill="#263238"/>
<path d="M260.79 184.978L254.633 190.205L252.331 188.827L259.295 182.348L260.79 184.978Z" fill="#407BFF"/>
<path d="M221.052 60.1374C221.089 60.5229 220.915 60.8502 220.667 60.8766C220.419 60.903 220.181 60.6073 220.139 60.2272C220.097 59.847 220.276 59.5091 220.53 59.488C220.783 59.4669 221.015 59.7361 221.052 60.1374Z" fill="#263238"/>
<path d="M216.723 60.5544C216.76 60.9345 216.586 61.2671 216.332 61.2935C216.079 61.3199 215.852 61.0243 215.804 60.6388C215.757 60.2534 215.941 59.926 216.19 59.9049C216.438 59.8838 216.686 60.1689 216.723 60.5544Z" fill="#263238"/>
<path d="M216.311 59.9156L215.366 59.7361C215.366 59.7361 215.936 60.4119 216.311 59.9156Z" fill="#263238"/>
<path d="M217.927 61.1035C217.67 62.01 217.289 62.877 216.797 63.6802C217.006 63.8006 217.239 63.8743 217.48 63.8962C217.72 63.9181 217.963 63.8876 218.191 63.8069L217.927 61.1035Z" fill="#ED847E"/>
<path d="M220.319 65.0688C220.109 65.126 219.896 65.1649 219.68 65.1849C219.665 65.1864 219.65 65.185 219.636 65.1807C219.622 65.1764 219.609 65.1694 219.598 65.1601C219.587 65.1508 219.577 65.1393 219.571 65.1263C219.564 65.1134 219.56 65.0992 219.558 65.0846C219.555 65.0546 219.564 65.0246 219.583 65.001C219.601 64.9773 219.629 64.9619 219.659 64.9579C220.136 64.9227 220.599 64.7759 221.01 64.5292C221.421 64.2825 221.768 63.9429 222.024 63.5376C222.03 63.5236 222.039 63.5111 222.05 63.5009C222.062 63.4907 222.075 63.4831 222.09 63.4786C222.104 63.4741 222.119 63.4728 222.135 63.4748C222.15 63.4767 222.164 63.482 222.177 63.4901C222.203 63.5046 222.223 63.5286 222.232 63.5571C222.24 63.5856 222.238 63.6164 222.225 63.6432C221.799 64.3481 221.115 64.8594 220.319 65.0688Z" fill="#263238"/>
<path d="M229.189 61.4309C229.073 62.3395 228.602 63.1653 227.879 63.7277C226.913 64.4669 225.984 63.7277 225.873 62.5714C225.778 61.5154 226.158 59.9314 227.309 59.6251C227.56 59.574 227.82 59.5845 228.066 59.6559C228.313 59.7273 228.538 59.8574 228.723 60.035C228.907 60.2126 229.046 60.4324 229.128 60.6755C229.209 60.9186 229.23 61.1779 229.189 61.4309Z" fill="#FFC3BD"/>
<path d="M221.517 57.4234C221.488 57.4308 221.457 57.4323 221.427 57.4278C221.397 57.4233 221.369 57.4128 221.343 57.397C221.103 57.2442 220.831 57.1502 220.549 57.1227C220.266 57.0952 219.981 57.1349 219.717 57.2386C219.662 57.263 219.599 57.2657 219.543 57.2461C219.486 57.2265 219.439 57.1861 219.41 57.133C219.385 57.079 219.382 57.0172 219.401 56.9609C219.421 56.9045 219.462 56.8583 219.516 56.832C219.848 56.6947 220.209 56.6393 220.567 56.6706C220.926 56.7018 221.271 56.8188 221.575 57.0116C221.6 57.0267 221.622 57.0467 221.639 57.0703C221.657 57.094 221.669 57.1208 221.676 57.1493C221.683 57.1778 221.684 57.2073 221.679 57.2362C221.675 57.2652 221.664 57.2929 221.649 57.3178C221.62 57.3683 221.573 57.406 221.517 57.4234Z" fill="#263238"/>
<path d="M214.6 58.7381C214.546 58.7588 214.486 58.7588 214.431 58.7381C214.38 58.7082 214.342 58.6598 214.325 58.6028C214.309 58.5459 214.314 58.4847 214.341 58.4319C214.503 58.1105 214.739 57.8328 215.03 57.6223C215.322 57.4118 215.659 57.2747 216.015 57.2227C216.045 57.2198 216.075 57.2229 216.103 57.2318C216.131 57.2406 216.158 57.2551 216.18 57.2743C216.203 57.2935 216.221 57.3171 216.235 57.3436C216.248 57.3701 216.256 57.399 216.258 57.4287C216.262 57.4881 216.243 57.5468 216.205 57.5922C216.166 57.6377 216.111 57.6662 216.052 57.6715C215.772 57.7187 215.507 57.8312 215.279 58C215.05 58.1688 214.865 58.3891 214.737 58.6431C214.722 58.6676 214.703 58.6887 214.679 58.7051C214.655 58.7215 214.628 58.7327 214.6 58.7381Z" fill="#263238"/>
<path d="M238.608 80.9141C239.685 83.5478 240.614 86.2395 241.391 88.9766C242.214 91.7376 242.801 94.5639 243.144 97.4246C243.234 98.1533 243.26 98.9189 243.292 99.6739V100.102C243.292 100.255 243.265 100.413 243.244 100.55C243.2 100.814 243.14 101.075 243.065 101.332C242.927 101.771 242.75 102.197 242.537 102.604C241.805 103.958 240.907 105.215 239.865 106.348C237.938 108.465 235.816 110.397 233.529 112.119L232.003 110.424C233.761 108.37 235.535 106.263 237.04 104.088C237.767 103.101 238.387 102.039 238.888 100.92C238.974 100.703 239.045 100.481 239.099 100.255C239.114 100.178 239.123 100.1 239.126 100.022C239.129 99.9996 239.129 99.9765 239.126 99.9537V99.8798C239.057 99.2568 239.01 98.6337 238.893 97.9949C238.439 95.3866 237.806 92.8126 236.998 90.2913C236.19 87.7358 235.287 85.1433 234.358 82.6723L238.608 80.9141Z" fill="#FFC3BD"/>
<path d="M236.628 75.766C238.571 76.3574 240.905 83.0471 240.905 83.0471L233.36 88.4327C233.36 88.4327 230.609 82.8518 231.428 80.3385C232.304 77.7249 234.416 75.0902 236.628 75.766Z" fill="#407BFF"/>
<path opacity="0.4" d="M236.628 75.766C238.571 76.3574 240.905 83.0471 240.905 83.0471L233.36 88.4327C233.36 88.4327 230.609 82.8518 231.428 80.3385C232.304 77.7249 234.416 75.0902 236.628 75.766Z" fill="black"/>
<path d="M258.356 195.047C258.258 195.044 258.162 195.019 258.075 194.975C257.988 194.93 257.913 194.866 257.854 194.788C257.806 194.738 257.772 194.677 257.755 194.611C257.739 194.544 257.74 194.474 257.759 194.408C257.938 193.827 259.596 193.352 259.786 193.299C259.807 193.291 259.83 193.291 259.851 193.298C259.872 193.304 259.89 193.318 259.903 193.336C259.914 193.354 259.921 193.375 259.921 193.397C259.921 193.418 259.914 193.439 259.903 193.457C259.607 194.022 259.021 194.973 258.419 195.041L258.356 195.047ZM259.581 193.595C258.926 193.806 258.07 194.17 257.997 194.476C257.989 194.505 257.989 194.536 257.997 194.565C258.006 194.594 258.022 194.62 258.044 194.64C258.086 194.701 258.143 194.749 258.21 194.78C258.277 194.812 258.351 194.825 258.424 194.82C258.73 194.783 259.158 194.328 259.581 193.595Z" fill="#407BFF"/>
<path d="M259.058 193.616C258.564 193.666 258.069 193.526 257.674 193.225C257.619 193.155 257.589 193.069 257.589 192.979C257.589 192.89 257.619 192.804 257.674 192.734C257.721 192.661 257.784 192.599 257.858 192.553C257.932 192.508 258.016 192.479 258.102 192.47C258.788 192.385 259.829 193.283 259.871 193.32C259.886 193.332 259.898 193.349 259.904 193.368C259.911 193.386 259.912 193.406 259.908 193.426C259.906 193.446 259.897 193.466 259.884 193.482C259.871 193.498 259.854 193.509 259.834 193.515C259.582 193.587 259.32 193.621 259.058 193.616ZM258.218 192.692H258.144C258.09 192.698 258.038 192.716 257.992 192.744C257.945 192.772 257.905 192.81 257.875 192.855C257.796 192.977 257.822 193.04 257.875 193.082C258.081 193.352 259.021 193.452 259.591 193.346C259.201 193.009 258.726 192.782 258.218 192.692Z" fill="#407BFF"/>
<path d="M215.435 212.481C215.027 212.518 214.618 212.414 214.278 212.186C214.206 212.119 214.149 212.037 214.113 211.946C214.078 211.854 214.064 211.755 214.072 211.658C214.077 211.595 214.097 211.534 214.131 211.482C214.165 211.429 214.212 211.386 214.268 211.357C214.854 211.035 216.755 212.006 216.971 212.122C216.991 212.134 217.007 212.151 217.018 212.171C217.028 212.192 217.032 212.215 217.029 212.238C217.026 212.262 217.016 212.283 217 212.301C216.984 212.318 216.962 212.329 216.939 212.333C216.443 212.428 215.94 212.478 215.435 212.481ZM214.584 211.494C214.512 211.489 214.439 211.504 214.373 211.536C214.351 211.547 214.332 211.565 214.319 211.586C214.305 211.608 214.299 211.632 214.299 211.658C214.291 211.724 214.298 211.791 214.321 211.853C214.344 211.916 214.382 211.972 214.431 212.017C214.722 212.281 215.487 212.323 216.543 212.149C215.932 211.82 215.27 211.599 214.584 211.494Z" fill="#407BFF"/>
<path d="M216.918 212.328H216.871C216.3 212.069 215.176 211.04 215.287 210.501C215.287 210.374 215.397 210.211 215.709 210.179C215.821 210.167 215.935 210.179 216.043 210.212C216.151 210.246 216.251 210.301 216.337 210.374C216.934 210.876 217.045 212.159 217.05 212.217C217.052 212.237 217.048 212.256 217.04 212.274C217.031 212.291 217.019 212.306 217.003 212.317C216.99 212.325 216.976 212.33 216.962 212.332C216.947 212.334 216.932 212.333 216.918 212.328ZM215.778 210.39H215.714C215.503 210.39 215.492 210.496 215.487 210.522C215.434 210.844 216.2 211.657 216.781 212.006C216.733 211.464 216.52 210.949 216.168 210.533C216.061 210.435 215.923 210.378 215.778 210.374V210.39Z" fill="#407BFF"/>
<path d="M233.482 103.56L233.978 105.297C234.046 105.429 233.888 105.566 233.661 105.566H213.708C213.534 105.566 213.386 105.482 213.375 105.371L213.201 103.639C213.201 103.518 213.338 103.418 213.534 103.418H233.17C233.23 103.412 233.29 103.423 233.344 103.448C233.399 103.473 233.446 103.511 233.482 103.56Z" fill="#407BFF"/>
<path opacity="0.3" d="M233.482 103.56L233.978 105.297C234.046 105.429 233.888 105.566 233.661 105.566H213.708C213.534 105.566 213.386 105.482 213.375 105.371L213.201 103.639C213.201 103.518 213.338 103.418 213.534 103.418H233.17C233.23 103.412 233.29 103.423 233.344 103.448C233.399 103.473 233.446 103.511 233.482 103.56Z" fill="white"/>
<path d="M230.847 105.778H231.375C231.475 105.778 231.554 105.725 231.549 105.656L231.301 103.402C231.301 103.338 231.206 103.28 231.1 103.28H230.572C230.467 103.28 230.387 103.338 230.398 103.402L230.641 105.656C230.651 105.725 230.72 105.778 230.847 105.778Z" fill="#263238"/>
<path d="M215.186 105.778H215.714C215.82 105.778 215.899 105.725 215.894 105.656L215.646 103.402C215.646 103.338 215.545 103.28 215.445 103.28H214.917C214.811 103.28 214.732 103.338 214.738 103.402L214.986 105.656C214.991 105.725 215.081 105.778 215.186 105.778Z" fill="#263238"/>
<path d="M223.016 105.778H223.544C223.65 105.778 223.729 105.725 223.724 105.656L223.476 103.402C223.476 103.338 223.381 103.28 223.275 103.28H222.747C222.642 103.28 222.562 103.338 222.573 103.402L222.8 105.672C222.8 105.725 222.911 105.778 223.016 105.778Z" fill="#263238"/>
<path d="M220.646 59.4984L219.701 59.3188C219.701 59.3188 220.239 59.9947 220.646 59.4984Z" fill="#263238"/>
<path opacity="0.2" d="M203.169 126.734C194.224 130.209 184.449 130.954 175.08 128.874C165.711 126.794 157.17 121.982 150.536 115.048C143.901 108.113 139.473 99.3674 137.809 89.9159C136.145 80.4644 137.322 70.7318 141.189 61.9489C145.057 53.1659 151.442 45.7271 159.537 40.5729C167.633 35.4188 177.074 32.7809 186.669 32.9928C196.263 33.2047 205.579 36.2568 213.439 41.7633C221.299 47.2698 227.35 54.9833 230.826 63.9284C233.135 69.8682 234.251 76.2046 234.11 82.5758C233.97 88.9469 232.576 95.2281 230.008 101.06C227.439 106.893 223.747 112.162 219.142 116.567C214.537 120.972 209.11 124.427 203.169 126.734Z" fill="#407BFF"/>
<path opacity="0.1" d="M194.388 33.7847L156.33 120.218C155.744 119.775 155.163 119.315 154.593 118.851C150.915 115.808 147.711 112.233 145.089 108.243L177.962 33.5841C183.408 32.7069 188.965 32.7748 194.388 33.7847Z" fill="white"/>
<path opacity="0.1" d="M221.443 48.7801L185.661 130.045C178.228 130.053 170.893 128.351 164.224 125.071L203.296 36.3298C210.218 39.0369 216.426 43.2963 221.443 48.7801Z" fill="white"/>
<path d="M145.649 48.817C152.114 40.9166 160.778 35.1108 170.543 32.134C180.308 29.1572 190.737 29.1429 200.51 32.093C210.284 35.0432 218.963 40.8252 225.45 48.7079C231.937 56.5906 235.941 66.22 236.956 76.3783C237.97 86.5367 235.95 96.7678 231.15 105.778C226.35 114.788 218.986 122.172 209.989 126.997C200.992 131.822 190.766 133.87 180.605 132.884C170.444 131.897 160.804 127.92 152.903 121.454C142.31 112.783 135.595 100.259 134.234 86.6378C132.874 73.0161 136.98 59.4118 145.649 48.817ZM222.272 111.522C228.207 104.267 231.858 95.4156 232.762 86.0862C233.666 76.7567 231.784 67.3686 227.353 59.1089C222.922 50.8492 216.141 44.0889 207.868 39.6828C199.595 35.2767 190.201 33.4227 180.875 34.3552C171.548 35.2877 162.707 38.9649 155.47 44.9218C148.234 50.8786 142.925 58.8476 140.217 67.8211C137.51 76.7946 137.523 86.3695 140.257 95.3352C142.99 104.301 148.321 112.255 155.575 118.191C160.392 122.133 165.939 125.087 171.898 126.886C177.856 128.684 184.111 129.291 190.305 128.672C196.498 128.052 202.509 126.219 207.994 123.277C213.479 120.334 218.331 116.34 222.272 111.522Z" fill="#407BFF"/>
<path d="M226.829 111.343C231.913 114.379 236.75 117.716 241.502 121.158C246.254 124.601 250.884 128.186 255.441 131.866C259.998 135.546 264.47 139.332 268.784 143.308C270.945 145.293 273.057 147.331 275.12 149.422C277.189 151.534 279.222 153.646 281.139 155.938C281.582 156.468 281.826 157.136 281.829 157.827C281.833 158.518 281.595 159.189 281.158 159.724C280.72 160.259 280.11 160.625 279.432 160.759C278.754 160.893 278.051 160.786 277.443 160.457C274.803 159.032 272.332 157.458 269.866 155.848C267.4 154.237 264.993 152.558 262.617 150.832C257.865 147.389 253.266 143.762 248.762 140.018C244.258 136.275 239.823 132.447 235.509 128.466C231.195 124.485 226.966 120.408 222.985 116.026C222.488 115.484 222.203 114.781 222.182 114.046C222.161 113.311 222.406 112.593 222.872 112.023C223.338 111.454 223.993 111.072 224.718 110.947C225.443 110.822 226.189 110.963 226.818 111.343H226.829Z" fill="#407BFF"/>
<path d="M232.51 109.896L227.41 110.672L231.058 113.872C231.058 113.872 233.941 112.816 234.226 110.862L232.51 109.896Z" fill="#FFC3BD"/>
<path d="M224.653 113.603L227.858 116.116L231.771 113.56L227.409 110.683L224.653 113.603Z" fill="#FFC3BD"/>
<path d="M200.54 119.162C201.005 117.891 201.845 116.79 202.949 116.005C204.053 115.22 205.368 114.787 206.722 114.764H248.989C249.719 114.737 250.447 114.87 251.12 115.155C251.793 115.439 252.396 115.868 252.885 116.411C253.374 116.954 253.739 117.597 253.952 118.296C254.166 118.995 254.223 119.732 254.121 120.456L243.202 212.069C242.97 213.629 242.191 215.055 241.004 216.093C239.817 217.131 238.3 217.713 236.723 217.735H102.611C101.884 217.763 101.158 217.63 100.487 217.348C99.8158 217.065 99.2146 216.639 98.7258 216.098C98.2371 215.558 97.8727 214.918 97.6582 214.222C97.4437 213.526 97.3844 212.791 97.4845 212.069L106.64 135.098C106.872 133.538 107.651 132.112 108.838 131.074C110.025 130.036 111.542 129.454 113.119 129.432H186.099C189.261 129.378 192.333 128.368 194.911 126.535C197.488 124.702 199.451 122.132 200.54 119.162Z" fill="#407BFF"/>
<path d="M99.8975 213.516H240.034L248.017 119.226H107.886L99.8975 213.516Z" fill="#F0F0F0"/>
<path d="M99.8975 213.516H240.034L245.81 119.226H107.886L99.8975 213.516Z" fill="#EF0627"/>
<path d="M99.8975 213.516H240.034L244.849 116.232H104.718L99.8975 213.516Z" fill="#F0F0F0"/>
<path d="M99.8975 213.516H240.034L241.94 116.232H104.718L99.8975 213.516Z" fill="#EF0627"/>
<path d="M99.8975 213.516H240.034L240.868 113.592H100.737L99.8975 213.516Z" fill="#F0F0F0"/>
<path d="M99.8974 213.516H240.034L237.156 115.482H97.928L99.8974 213.516Z" fill="#EF0627"/>
<path d="M99.8974 213.516H240.034L235.873 116.232H95.7421L99.8974 213.516Z" fill="#F0F0F0"/>
<path d="M99.8975 213.516H240.034L233.408 117.7H93.2764L99.8975 213.516Z" fill="#EF0627"/>
<path d="M99.8975 213.516H240.034L232.352 118.518H92.2203L99.8975 213.516Z" fill="#F0F0F0"/>
<path d="M170.074 125.113C170.082 124.5 170.213 123.896 170.459 123.335C170.706 122.774 171.062 122.268 171.508 121.848C171.954 121.428 172.48 121.101 173.054 120.889C173.629 120.676 174.24 120.581 174.852 120.609H217.119C218.755 120.672 220.324 121.276 221.58 122.328C222.836 123.379 223.707 124.817 224.057 126.417L240.757 211.953C241.38 215.158 239.289 217.761 236.084 217.761H101.972C98.7622 217.761 95.6365 215.158 95.0293 211.953L81.2537 141.439C80.6307 138.234 82.7216 135.631 85.9265 135.631H158.912C165.248 135.631 169.857 131.269 170.074 125.113Z" fill="#407BFF"/>
<path opacity="0.2" d="M170.074 125.113C170.082 124.5 170.213 123.896 170.459 123.335C170.706 122.774 171.062 122.268 171.508 121.848C171.954 121.428 172.48 121.101 173.054 120.889C173.629 120.676 174.24 120.581 174.852 120.609H217.119C218.755 120.672 220.324 121.276 221.58 122.328C222.836 123.379 223.707 124.817 224.057 126.417L240.757 211.953C241.38 215.158 239.289 217.761 236.084 217.761H101.972C98.7622 217.761 95.6365 215.158 95.0293 211.953L81.2537 141.439C80.6307 138.234 82.7216 135.631 85.9265 135.631H158.912C165.248 135.631 169.857 131.269 170.074 125.113Z" fill="black"/>
<rect x="0.5" y="0.5" width="339" height="239" rx="11.5" stroke="#B5B5B5"/>
<path d="M100.24 269.67V284H98.54V273.47C98.54 273.33 98.5433 273.18 98.55 273.02C98.5633 272.86 98.5767 272.697 98.59 272.53L93.67 281.49C93.5167 281.79 93.2833 281.94 92.97 281.94H92.69C92.3767 281.94 92.1433 281.79 91.99 281.49L86.97 272.49C87.01 272.843 87.03 273.17 87.03 273.47V284H85.33V269.67H86.76C86.9333 269.67 87.0667 269.687 87.16 269.72C87.2533 269.753 87.3433 269.847 87.43 270L92.38 278.82C92.46 278.98 92.5367 279.147 92.61 279.32C92.69 279.493 92.7633 279.67 92.83 279.85C92.8967 279.67 92.9667 279.493 93.04 279.32C93.1133 279.14 93.1933 278.97 93.28 278.81L98.14 270C98.22 269.847 98.3067 269.753 98.4 269.72C98.5 269.687 98.6367 269.67 98.81 269.67H100.24ZM105.208 273.87V284H103.428V273.87H105.208ZM105.588 270.69C105.588 270.863 105.551 271.027 105.478 271.18C105.411 271.327 105.318 271.46 105.198 271.58C105.085 271.693 104.948 271.783 104.788 271.85C104.635 271.917 104.471 271.95 104.298 271.95C104.125 271.95 103.961 271.917 103.808 271.85C103.661 271.783 103.531 271.693 103.418 271.58C103.305 271.46 103.215 271.327 103.148 271.18C103.081 271.027 103.048 270.863 103.048 270.69C103.048 270.517 103.081 270.353 103.148 270.2C103.215 270.04 103.305 269.903 103.418 269.79C103.531 269.67 103.661 269.577 103.808 269.51C103.961 269.443 104.125 269.41 104.298 269.41C104.471 269.41 104.635 269.443 104.788 269.51C104.948 269.577 105.085 269.67 105.198 269.79C105.318 269.903 105.411 270.04 105.478 270.2C105.551 270.353 105.588 270.517 105.588 270.69ZM109.813 275.34C110.033 275.093 110.266 274.87 110.513 274.67C110.759 274.47 111.019 274.3 111.293 274.16C111.573 274.013 111.866 273.903 112.173 273.83C112.486 273.75 112.823 273.71 113.183 273.71C113.736 273.71 114.223 273.803 114.643 273.99C115.069 274.17 115.423 274.43 115.703 274.77C115.989 275.103 116.206 275.507 116.353 275.98C116.499 276.453 116.573 276.977 116.573 277.55V284H114.783V277.55C114.783 276.783 114.606 276.19 114.253 275.77C113.906 275.343 113.376 275.13 112.663 275.13C112.136 275.13 111.643 275.257 111.183 275.51C110.729 275.763 110.309 276.107 109.923 276.54V284H108.133V273.87H109.203C109.456 273.87 109.613 273.993 109.673 274.24L109.813 275.34ZM121.165 273.87V284H119.385V273.87H121.165ZM121.545 270.69C121.545 270.863 121.508 271.027 121.435 271.18C121.368 271.327 121.275 271.46 121.155 271.58C121.042 271.693 120.905 271.783 120.745 271.85C120.592 271.917 120.428 271.95 120.255 271.95C120.082 271.95 119.918 271.917 119.765 271.85C119.618 271.783 119.488 271.693 119.375 271.58C119.262 271.46 119.172 271.327 119.105 271.18C119.038 271.027 119.005 270.863 119.005 270.69C119.005 270.517 119.038 270.353 119.105 270.2C119.172 270.04 119.262 269.903 119.375 269.79C119.488 269.67 119.618 269.577 119.765 269.51C119.918 269.443 120.082 269.41 120.255 269.41C120.428 269.41 120.592 269.443 120.745 269.51C120.905 269.577 121.042 269.67 121.155 269.79C121.275 269.903 121.368 270.04 121.435 270.2C121.508 270.353 121.545 270.517 121.545 270.69ZM124.09 284V273.87H125.16C125.413 273.87 125.57 273.993 125.63 274.24L125.76 275.28C126.133 274.82 126.553 274.443 127.02 274.15C127.486 273.857 128.026 273.71 128.64 273.71C129.32 273.71 129.87 273.9 130.29 274.28C130.716 274.66 131.023 275.173 131.21 275.82C131.356 275.453 131.543 275.137 131.77 274.87C132.003 274.603 132.263 274.383 132.55 274.21C132.836 274.037 133.14 273.91 133.46 273.83C133.786 273.75 134.116 273.71 134.45 273.71C134.983 273.71 135.456 273.797 135.87 273.97C136.29 274.137 136.643 274.383 136.93 274.71C137.223 275.037 137.446 275.44 137.6 275.92C137.753 276.393 137.83 276.937 137.83 277.55V284H136.04V277.55C136.04 276.757 135.866 276.157 135.52 275.75C135.173 275.337 134.673 275.13 134.02 275.13C133.726 275.13 133.446 275.183 133.18 275.29C132.92 275.39 132.69 275.54 132.49 275.74C132.29 275.94 132.13 276.193 132.01 276.5C131.896 276.8 131.84 277.15 131.84 277.55V284H130.05V277.55C130.05 276.737 129.886 276.13 129.56 275.73C129.233 275.33 128.756 275.13 128.13 275.13C127.69 275.13 127.283 275.25 126.91 275.49C126.536 275.723 126.193 276.043 125.88 276.45V284H124.09ZM146.025 279.44C145.205 279.467 144.505 279.533 143.925 279.64C143.352 279.74 142.882 279.873 142.515 280.04C142.155 280.207 141.892 280.403 141.725 280.63C141.565 280.857 141.485 281.11 141.485 281.39C141.485 281.657 141.528 281.887 141.615 282.08C141.702 282.273 141.818 282.433 141.965 282.56C142.118 282.68 142.295 282.77 142.495 282.83C142.702 282.883 142.922 282.91 143.155 282.91C143.468 282.91 143.755 282.88 144.015 282.82C144.275 282.753 144.518 282.66 144.745 282.54C144.978 282.42 145.198 282.277 145.405 282.11C145.618 281.943 145.825 281.753 146.025 281.54V279.44ZM140.275 275.3C140.835 274.76 141.438 274.357 142.085 274.09C142.732 273.823 143.448 273.69 144.235 273.69C144.802 273.69 145.305 273.783 145.745 273.97C146.185 274.157 146.555 274.417 146.855 274.75C147.155 275.083 147.382 275.487 147.535 275.96C147.688 276.433 147.765 276.953 147.765 277.52V284H146.975C146.802 284 146.668 283.973 146.575 283.92C146.482 283.86 146.408 283.747 146.355 283.58L146.155 282.62C145.888 282.867 145.628 283.087 145.375 283.28C145.122 283.467 144.855 283.627 144.575 283.76C144.295 283.887 143.995 283.983 143.675 284.05C143.362 284.123 143.012 284.16 142.625 284.16C142.232 284.16 141.862 284.107 141.515 284C141.168 283.887 140.865 283.72 140.605 283.5C140.352 283.28 140.148 283.003 139.995 282.67C139.848 282.33 139.775 281.93 139.775 281.47C139.775 281.07 139.885 280.687 140.105 280.32C140.325 279.947 140.682 279.617 141.175 279.33C141.668 279.043 142.312 278.81 143.105 278.63C143.898 278.443 144.872 278.337 146.025 278.31V277.52C146.025 276.733 145.855 276.14 145.515 275.74C145.175 275.333 144.678 275.13 144.025 275.13C143.585 275.13 143.215 275.187 142.915 275.3C142.622 275.407 142.365 275.53 142.145 275.67C141.932 275.803 141.745 275.927 141.585 276.04C141.432 276.147 141.278 276.2 141.125 276.2C141.005 276.2 140.902 276.17 140.815 276.11C140.728 276.043 140.655 275.963 140.595 275.87L140.275 275.3ZM152.316 269.27V284H150.536V269.27H152.316ZM178.277 276.84C178.277 277.913 178.107 278.89 177.767 279.77C177.427 280.65 176.947 281.403 176.327 282.03C175.707 282.657 174.961 283.143 174.087 283.49C173.221 283.83 172.261 284 171.207 284H165.857V269.67H171.207C172.261 269.67 173.221 269.843 174.087 270.19C174.961 270.53 175.707 271.017 176.327 271.65C176.947 272.277 177.427 273.03 177.767 273.91C178.107 274.79 178.277 275.767 178.277 276.84ZM176.287 276.84C176.287 275.96 176.167 275.173 175.927 274.48C175.687 273.787 175.347 273.2 174.907 272.72C174.467 272.24 173.934 271.873 173.307 271.62C172.681 271.367 171.981 271.24 171.207 271.24H167.797V282.43H171.207C171.981 282.43 172.681 282.303 173.307 282.05C173.934 281.797 174.467 281.433 174.907 280.96C175.347 280.48 175.687 279.893 175.927 279.2C176.167 278.507 176.287 277.72 176.287 276.84ZM184.785 273.71C185.525 273.71 186.192 273.833 186.785 274.08C187.379 274.327 187.885 274.677 188.305 275.13C188.725 275.583 189.045 276.133 189.265 276.78C189.492 277.42 189.605 278.137 189.605 278.93C189.605 279.73 189.492 280.45 189.265 281.09C189.045 281.73 188.725 282.277 188.305 282.73C187.885 283.183 187.379 283.533 186.785 283.78C186.192 284.02 185.525 284.14 184.785 284.14C184.039 284.14 183.365 284.02 182.765 283.78C182.172 283.533 181.665 283.183 181.245 282.73C180.825 282.277 180.502 281.73 180.275 281.09C180.055 280.45 179.945 279.73 179.945 278.93C179.945 278.137 180.055 277.42 180.275 276.78C180.502 276.133 180.825 275.583 181.245 275.13C181.665 274.677 182.172 274.327 182.765 274.08C183.365 273.833 184.039 273.71 184.785 273.71ZM184.785 282.75C185.785 282.75 186.532 282.417 187.025 281.75C187.519 281.077 187.765 280.14 187.765 278.94C187.765 277.733 187.519 276.793 187.025 276.12C186.532 275.447 185.785 275.11 184.785 275.11C184.279 275.11 183.835 275.197 183.455 275.37C183.082 275.543 182.769 275.793 182.515 276.12C182.269 276.447 182.082 276.85 181.955 277.33C181.835 277.803 181.775 278.34 181.775 278.94C181.775 280.14 182.022 281.077 182.515 281.75C183.015 282.417 183.772 282.75 184.785 282.75ZM198.913 275.67C198.86 275.743 198.806 275.8 198.753 275.84C198.7 275.88 198.626 275.9 198.533 275.9C198.433 275.9 198.323 275.86 198.203 275.78C198.083 275.693 197.933 275.6 197.753 275.5C197.58 275.4 197.363 275.31 197.103 275.23C196.85 275.143 196.536 275.1 196.163 275.1C195.663 275.1 195.223 275.19 194.843 275.37C194.463 275.543 194.143 275.797 193.883 276.13C193.63 276.463 193.436 276.867 193.303 277.34C193.176 277.813 193.113 278.343 193.113 278.93C193.113 279.543 193.183 280.09 193.323 280.57C193.463 281.043 193.66 281.443 193.913 281.77C194.173 282.09 194.483 282.337 194.843 282.51C195.21 282.677 195.62 282.76 196.073 282.76C196.506 282.76 196.863 282.71 197.143 282.61C197.423 282.503 197.653 282.387 197.833 282.26C198.02 282.133 198.173 282.02 198.293 281.92C198.42 281.813 198.543 281.76 198.663 281.76C198.81 281.76 198.923 281.817 199.003 281.93L199.503 282.58C199.283 282.853 199.033 283.087 198.753 283.28C198.473 283.473 198.17 283.637 197.843 283.77C197.523 283.897 197.186 283.99 196.833 284.05C196.48 284.11 196.12 284.14 195.753 284.14C195.12 284.14 194.53 284.023 193.983 283.79C193.443 283.557 192.973 283.22 192.573 282.78C192.173 282.333 191.86 281.787 191.633 281.14C191.406 280.493 191.293 279.757 191.293 278.93C191.293 278.177 191.396 277.48 191.603 276.84C191.816 276.2 192.123 275.65 192.523 275.19C192.93 274.723 193.426 274.36 194.013 274.1C194.606 273.84 195.286 273.71 196.053 273.71C196.766 273.71 197.393 273.827 197.933 274.06C198.48 274.287 198.963 274.61 199.383 275.03L198.913 275.67ZM209.744 273.87V284H208.684C208.431 284 208.271 283.877 208.204 283.63L208.064 282.54C207.624 283.027 207.131 283.42 206.584 283.72C206.037 284.013 205.411 284.16 204.704 284.16C204.151 284.16 203.661 284.07 203.234 283.89C202.814 283.703 202.461 283.443 202.174 283.11C201.887 282.777 201.671 282.373 201.524 281.9C201.384 281.427 201.314 280.903 201.314 280.33V273.87H203.094V280.33C203.094 281.097 203.267 281.69 203.614 282.11C203.967 282.53 204.504 282.74 205.224 282.74C205.751 282.74 206.241 282.617 206.694 282.37C207.154 282.117 207.577 281.77 207.964 281.33V273.87H209.744ZM212.566 284V273.87H213.636C213.89 273.87 214.046 273.993 214.106 274.24L214.236 275.28C214.61 274.82 215.03 274.443 215.496 274.15C215.963 273.857 216.503 273.71 217.116 273.71C217.796 273.71 218.346 273.9 218.766 274.28C219.193 274.66 219.5 275.173 219.686 275.82C219.833 275.453 220.02 275.137 220.246 274.87C220.48 274.603 220.74 274.383 221.026 274.21C221.313 274.037 221.616 273.91 221.936 273.83C222.263 273.75 222.593 273.71 222.926 273.71C223.46 273.71 223.933 273.797 224.346 273.97C224.766 274.137 225.12 274.383 225.406 274.71C225.7 275.037 225.923 275.44 226.076 275.92C226.23 276.393 226.306 276.937 226.306 277.55V284H224.516V277.55C224.516 276.757 224.343 276.157 223.996 275.75C223.65 275.337 223.15 275.13 222.496 275.13C222.203 275.13 221.923 275.183 221.656 275.29C221.396 275.39 221.166 275.54 220.966 275.74C220.766 275.94 220.606 276.193 220.486 276.5C220.373 276.8 220.316 277.15 220.316 277.55V284H218.526V277.55C218.526 276.737 218.363 276.13 218.036 275.73C217.71 275.33 217.233 275.13 216.606 275.13C216.166 275.13 215.76 275.25 215.386 275.49C215.013 275.723 214.67 276.043 214.356 276.45V284H212.566ZM235.792 277.83C235.792 277.417 235.732 277.04 235.612 276.7C235.498 276.353 235.328 276.057 235.102 275.81C234.882 275.557 234.612 275.363 234.292 275.23C233.972 275.09 233.608 275.02 233.202 275.02C232.348 275.02 231.672 275.27 231.172 275.77C230.678 276.263 230.372 276.95 230.252 277.83H235.792ZM237.232 282.58C237.012 282.847 236.748 283.08 236.442 283.28C236.135 283.473 235.805 283.633 235.452 283.76C235.105 283.887 234.745 283.98 234.372 284.04C233.998 284.107 233.628 284.14 233.262 284.14C232.562 284.14 231.915 284.023 231.322 283.79C230.735 283.55 230.225 283.203 229.792 282.75C229.365 282.29 229.032 281.723 228.792 281.05C228.552 280.377 228.432 279.603 228.432 278.73C228.432 278.023 228.538 277.363 228.752 276.75C228.972 276.137 229.285 275.607 229.692 275.16C230.098 274.707 230.595 274.353 231.182 274.1C231.768 273.84 232.428 273.71 233.162 273.71C233.768 273.71 234.328 273.813 234.842 274.02C235.362 274.22 235.808 274.513 236.182 274.9C236.562 275.28 236.858 275.753 237.072 276.32C237.285 276.88 237.392 277.52 237.392 278.24C237.392 278.52 237.362 278.707 237.302 278.8C237.242 278.893 237.128 278.94 236.962 278.94H230.192C230.212 279.58 230.298 280.137 230.452 280.61C230.612 281.083 230.832 281.48 231.112 281.8C231.392 282.113 231.725 282.35 232.112 282.51C232.498 282.663 232.932 282.74 233.412 282.74C233.858 282.74 234.242 282.69 234.562 282.59C234.888 282.483 235.168 282.37 235.402 282.25C235.635 282.13 235.828 282.02 235.982 281.92C236.142 281.813 236.278 281.76 236.392 281.76C236.538 281.76 236.652 281.817 236.732 281.93L237.232 282.58ZM241.258 275.34C241.478 275.093 241.711 274.87 241.958 274.67C242.205 274.47 242.465 274.3 242.738 274.16C243.018 274.013 243.311 273.903 243.618 273.83C243.931 273.75 244.268 273.71 244.628 273.71C245.181 273.71 245.668 273.803 246.088 273.99C246.515 274.17 246.868 274.43 247.148 274.77C247.435 275.103 247.651 275.507 247.798 275.98C247.945 276.453 248.018 276.977 248.018 277.55V284H246.228V277.55C246.228 276.783 246.051 276.19 245.698 275.77C245.351 275.343 244.821 275.13 244.108 275.13C243.581 275.13 243.088 275.257 242.628 275.51C242.175 275.763 241.755 276.107 241.368 276.54V284H239.578V273.87H240.648C240.901 273.87 241.058 273.993 241.118 274.24L241.258 275.34ZM253.704 284.16C252.904 284.16 252.287 283.937 251.854 283.49C251.427 283.043 251.214 282.4 251.214 281.56V275.36H249.994C249.887 275.36 249.797 275.33 249.724 275.27C249.65 275.203 249.614 275.103 249.614 274.97V274.26L251.274 274.05L251.684 270.92C251.704 270.82 251.747 270.74 251.814 270.68C251.887 270.613 251.98 270.58 252.094 270.58H252.994V274.07H255.924V275.36H252.994V281.44C252.994 281.867 253.097 282.183 253.304 282.39C253.51 282.597 253.777 282.7 254.104 282.7C254.29 282.7 254.45 282.677 254.584 282.63C254.724 282.577 254.844 282.52 254.944 282.46C255.044 282.4 255.127 282.347 255.194 282.3C255.267 282.247 255.33 282.22 255.384 282.22C255.477 282.22 255.56 282.277 255.634 282.39L256.154 283.24C255.847 283.527 255.477 283.753 255.044 283.92C254.61 284.08 254.164 284.16 253.704 284.16Z" fill="#242424"/>
</svg>
