<svg width="179" height="42" viewBox="0 0 179 42" fill="none" xmlns="http://www.w3.org/2000/svg">
<mask id="mask0_347_1996" style="mask-type:luminance" maskUnits="userSpaceOnUse" x="0" y="0" width="178" height="42">
<path d="M177.968 0.272461H0V41.9997H177.968V0.272461Z" fill="white"/>
</mask>
<g mask="url(#mask0_347_1996)">
<path d="M151.949 10.7042C151.949 12.0409 153.03 13.1246 154.363 13.1247C155.697 13.1247 156.777 12.0409 156.777 10.7041C156.777 9.36764 155.695 8.28418 154.363 8.28418C153.03 8.28418 151.949 9.36764 151.949 10.7042ZM137.485 31.1133C135.769 31.1133 134.937 30.3289 134.937 28.715C134.937 27.6204 135.352 26.8796 136.173 26.5139C136.99 26.1499 137.931 25.9648 138.968 25.9648C139.463 25.9648 139.95 25.9914 140.414 26.0435C140.796 26.0854 141.532 26.1709 141.789 26.2009V26.8444C141.686 28.2425 141.185 29.3179 140.302 30.0339C139.42 30.7499 138.471 31.1133 137.485 31.1133ZM148.07 33.3875L148.035 31.2907C147.725 31.3721 147.461 31.4129 147.248 31.4129C146.608 31.4129 145.845 31.1217 145.845 29.7331V21.8241C145.845 19.8865 145.223 18.4146 143.996 17.4498C142.758 16.4789 141.159 15.986 139.242 15.986C137.928 15.986 136.754 16.1037 135.753 16.3357C134.764 16.5645 133.619 16.9877 132.353 17.5936L131.641 21.8012L134.782 22.1313L135.474 19.4757L135.518 19.4521C135.968 19.2122 136.446 19.0505 136.939 18.9704C137.423 18.8914 137.948 18.852 138.5 18.852C140 18.852 140.954 19.2961 141.337 20.1727C141.706 21.0197 141.894 21.9832 141.894 23.0375V24.1442L141.766 24.1294C141.322 24.0774 140.839 24.0381 140.33 24.0128C139.811 23.9869 139.304 23.9732 138.812 23.9732C136.831 23.9732 134.967 24.3199 133.27 25.0029C131.607 25.6728 130.763 27.0799 130.763 29.1853C130.763 30.9884 131.343 32.2666 132.488 32.9847C133.647 33.7137 134.843 34.0835 136.039 34.0835C137.413 34.0835 138.578 33.7224 139.504 33.0105C140.438 32.293 141.171 31.4744 141.682 30.5775L141.894 30.2055V30.7033C142.072 32.9771 143.21 34.0835 145.373 34.0835C146.341 34.0835 147.248 33.8488 148.07 33.3875ZM175.936 31.9513C177.088 30.559 177.77 29.0934 177.968 27.5931L174.67 26.9689C174.2 29.6059 172.842 30.9429 170.635 30.9429C167.579 30.9429 166.029 28.9811 166.029 25.1127C166.029 21.1399 167.539 19.1258 170.517 19.1258C171.596 19.1258 172.638 19.3664 173.612 19.8421L173.663 19.8668L174.24 22.7178L177.379 22.3891L176.7 17.6262C175.714 17.0488 174.702 16.6275 173.691 16.3745C172.663 16.1166 171.621 15.986 170.594 15.986C168.009 15.986 165.889 16.8434 164.292 18.5349C162.693 20.2276 161.882 22.5069 161.882 25.3089C161.882 28.1612 162.665 30.3599 164.211 31.8441C165.756 33.3295 167.786 34.0835 170.244 34.0835C172.851 34.0835 174.766 33.366 175.936 31.9513ZM159.843 33.6923V30.807H157.308V17.0213H150.835V19.9448H153.522V30.807H150.986V33.6923H159.843ZM125.316 32.6526C126.772 31.7137 127.508 30.3364 127.508 28.5579C127.508 27.2125 127.165 26.1928 126.489 25.5272C125.803 24.8523 124.938 24.3614 123.92 24.0671C122.886 23.7697 121.839 23.5336 120.809 23.3656C119.76 23.1942 118.871 22.9616 118.167 22.6736C117.421 22.3682 117.042 21.8185 117.042 21.0407C117.042 20.296 117.344 19.7427 117.939 19.396C118.513 19.0604 119.222 18.8908 120.046 18.8908C121.096 18.8908 122.148 19.0906 123.172 19.4862L123.234 19.5101L123.58 22.0894L126.639 21.7242L126.227 17.5497C124.262 16.5121 122.144 15.986 119.929 15.986C118.235 15.986 116.602 16.364 115.077 17.1099C113.578 17.8427 112.817 19.2184 112.817 21.1974C112.817 22.5433 113.167 23.563 113.856 24.2281C114.555 24.9041 115.439 25.3951 116.483 25.6889C117.543 25.9867 118.616 26.223 119.673 26.3903C120.748 26.5623 121.657 26.8091 122.375 27.1231C123.134 27.4549 123.518 28.0169 123.518 28.7935C123.518 29.5949 123.095 30.2026 122.262 30.5993C121.456 30.9835 120.501 31.1776 119.421 31.1776C118.974 31.1776 118.463 31.1385 117.902 31.06C117.333 30.9806 116.792 30.8331 116.292 30.6216L116.221 30.5911L116.259 28.3482L113.192 28.0553L112.592 32.4129C113.577 32.9606 114.693 33.3788 115.912 33.6546C117.16 33.9389 118.419 34.0835 119.655 34.0835C121.94 34.0835 123.844 33.6022 125.316 32.6526ZM104.41 20.533C105.323 21.5427 105.786 23.0176 105.786 24.9172C105.786 26.7092 105.345 28.1884 104.474 29.313C103.596 30.4468 102.371 31.0212 100.83 31.0212C99.235 31.0212 98.0145 30.4251 97.2023 29.2495C96.3986 28.0874 95.9908 26.6425 95.9908 24.956C95.9908 23.1627 96.4197 21.7094 97.2653 20.6366C98.1168 19.5557 99.3162 19.0081 100.83 19.0081C102.289 19.0081 103.493 19.5212 104.41 20.533ZM107.332 31.59C109.033 29.936 109.895 27.73 109.895 25.0343C109.895 22.5939 109.141 20.4442 107.656 18.6459C106.174 16.8545 103.904 15.9459 100.908 15.9459C97.9376 15.9459 95.6671 16.8612 94.1604 18.6657C92.6488 20.4768 91.8826 22.6723 91.8826 25.191C91.8826 27.9133 92.6928 30.0994 94.2902 31.6885C95.8867 33.2776 98.0347 34.0835 100.674 34.0835C103.39 34.0835 105.63 33.2443 107.332 31.59ZM80.2455 33.6923V30.2298H82.7245V17.9241H82.3875L75.0663 31.9056H73.266L65.5575 17.575H65.2214V30.2298H67.8555V33.6923H58.5534V30.2298H61.4199V12.1378H58.2436V8.67529H64.8798L74.1764 25.88H74.4683L83.3002 8.67529H89.9734V12.1378H86.7973V30.2298H89.6638V33.6923H80.2455Z" fill="#9C9C9C"/>
<path d="M16.648 21.1356L20.8093 25.3098L24.9718 21.1356L20.8093 16.9634L16.648 21.1356Z" fill="#9C9C9C"/>
<path d="M12.4854 33.6544L8.32373 29.4823L12.4854 25.3101L16.6479 29.4823L12.4854 33.6544Z" fill="#9C9C9C"/>
<path d="M29.1332 33.6544L24.9717 29.4823L29.1332 25.3101L33.2954 29.4823L29.1332 33.6544Z" fill="#9C9C9C"/>
<path d="M20.8094 41.9995L16.648 37.8264L20.8094 33.6543L24.9718 37.8264L20.8094 41.9995Z" fill="#9C9C9C"/>
<path d="M20.8093 0.271973L0 21.1356L4.16247 25.3098L20.8093 8.61856L37.4582 25.3098L41.6198 21.1356L20.8093 0.271973Z" fill="#9C9C9C"/>
</g>
</svg>
