<svg width="220" height="57" viewBox="0 0 220 57" fill="none" xmlns="http://www.w3.org/2000/svg">
<mask id="mask0_1403_111" style="mask-type:luminance" maskUnits="userSpaceOnUse" x="0" y="0" width="220" height="57">
<path d="M219.686 0.399902H0V56.0363H219.686V0.399902Z" fill="white"/>
</mask>
<g mask="url(#mask0_1403_111)">
<path d="M175.676 16.5908C180.266 16.6862 181.619 10.979 178.259 10.909C174.428 10.8295 172.399 16.5229 175.676 16.5908Z" fill="#9C9C9C"/>
<path d="M51.5558 32.9727C52.596 24.3721 58.0835 5.94226 50.3054 5.24464C46.0679 4.86403 42.5312 9.39117 39.9561 14.3159C41.358 1.85722 29.74 2.94502 24.1824 16.818C23.7782 13.807 22.8641 11.0822 21.2391 8.81228C15.3566 0.600859 3.0109 5.03898 0.259066 19.563C-0.640229 27.187 0.874818 30.601 3.67215 30.8014C6.74034 31.0219 11.7542 26.6665 11.4484 26.0728C8.50613 20.3698 4.88885 27.0535 4.63809 25.0369C4.89098 7.90367 14.7387 6.68868 15.9226 15.0146C16.9806 22.4309 12.901 42.0799 8.42358 56.0357L17.9455 52.8613C19.3135 47.0303 21.5427 39.9046 23.0006 32.8497C26.7893 15.0994 31.7978 9.73681 32.8664 15.4302C33.7128 19.9563 28.0377 50.0053 28.0377 50.0053L34.1963 48.0206C34.1963 48.0206 36.5662 35.3296 38.2992 25.0868C41.907 12.9249 47.0807 9.58625 47.0807 13.6533C47.0807 17.6217 45.3816 26.7121 44.7296 30.0327C40.9863 49.136 48.0835 56.9815 63.637 48.8528L61.8662 46.3538C50.809 49.7337 50.3721 42.7606 51.5558 32.9727Z" fill="#9C9C9C"/>
<path d="M212.159 42.8812C214.402 37.6606 216.683 30.5825 219.687 21.6946L213.397 21.5738C212.888 23.027 212.406 24.4262 211.953 25.7712C211.704 17.7601 202.624 18.5691 199.244 26.6798C198.323 28.8893 197.792 30.8274 197.568 32.5005C196.293 34.3654 194.969 36.1201 193.579 35.9812C191.425 35.7691 194.777 29.0579 196.311 24.289C197.543 20.4627 193.727 15.8072 186.162 22.8938L187.458 19.0929L181.437 19.2837C181.381 19.4639 179.277 26.0214 177.511 31.5261C175.885 33.3858 174.052 34.6601 173.32 34.1608C171.728 33.0762 173.65 28.6603 177.837 18.7599L172.018 18.866C170.668 21.2228 168.376 26.9099 167.564 31.7C164.372 35.8858 157.576 42.1243 167.977 18.69L161.892 19.2031L159.872 23.8056C159.326 24.0272 158.708 24.0335 157.993 23.6921C159.774 19.9993 157.424 17.4845 155.049 18.1577C153.004 18.7377 152.694 22.1527 154.158 24.6707C153.865 26.3448 153.043 28.7239 150.86 31.3501C153.998 21.4233 148.048 12.4845 141.455 21.2059L142.501 16.702L136.947 17.4516L134.246 28.708C133.593 29.7306 132.781 30.6425 131.842 31.4095C132.395 26.3204 130.011 21.0999 122.007 18.0316C113.031 14.589 129.816 1.6723 133.766 5.29829C137.599 8.81609 124.276 10.2813 124.754 16.0066C138.903 16.437 142.965 3.93907 135.908 1.24822C128.397 -1.62075 118.346 3.01349 112.455 12.0424C105.204 23.1525 121.003 23.1122 124.737 26.4667C128.603 29.9421 125.815 37.0573 121.464 39.3529C115.289 42.6088 112.221 33.8586 115.987 29.9379C115.987 29.9379 114.027 27.1707 110.765 29.5202C109.783 30.2125 108.928 31.0697 108.237 32.0541C103.627 36.418 96.878 37.5747 97.774 30.8529C104.228 31.031 110.459 25.6493 107.311 20.0078C104.727 15.3768 95.7067 16.9873 92.8312 27.2672C92.1955 26.9501 91.5902 26.5757 91.0222 26.1487C91.264 24.9601 91.4406 23.7592 91.5512 22.5513C92.1542 15.9461 82.539 17.265 86.5784 24.9686C85.1553 31.5208 83.4184 34.9347 82.3084 35.6451C79.7164 37.2958 79.8062 28.4059 82.6651 19.0717L77.3464 19.3219C76.347 21.8574 75.5987 24.4853 75.1121 27.1675C74.3202 28.2024 73.4161 29.1457 72.4164 29.9803C72.7927 22.0784 66.2607 15.7044 59.4345 21.6554C49.5401 30.2814 55.9815 50.0834 66.7727 40.8867C69.4804 38.5798 71.0989 35.8953 71.8747 33.2193C72.8636 32.462 73.8009 31.6392 74.6803 30.7564C74.2466 37.6638 76.4492 42.139 79.4793 41.9152C84.0542 41.578 88.3242 35.8858 90.3861 28.725C90.9752 29.1265 91.6017 29.4698 92.2568 29.7502C91.0793 36.2728 93.0406 40.6866 97.22 40.8825C100.354 41.0266 103.609 39.6272 106.76 36.8039C106.803 43.1145 114.032 49.0811 122.381 45.0344C125.834 43.3602 129.399 39.4016 131.02 34.9008C131.692 34.2753 132.494 33.477 133.329 32.5291L128.493 52.6426L133.836 52.298L138.002 36.7573C137.991 39.3815 143.411 42.6945 147.859 37.1888C149.575 35.9791 153.924 32.4358 155.8 26.4805C156.521 26.9856 157.358 27.2976 158.233 27.387C152.809 40.4277 160.561 43.5747 167.293 35.4786C167.647 41.5219 172.424 39.57 176.392 35.0164L175.112 39.0018L180.628 39.1164L185.054 26.1402C187.387 23.9222 188.693 23.1493 189.735 23.2776C191.851 23.5405 188.02 30.1266 187.204 34.922C186.063 41.6405 193.479 41.5687 197.693 36.524C198.933 41.6375 204.528 41.9122 207.919 37.9023C207.39 39.463 206.88 40.8763 206.385 42.1432C195.686 42.5736 191.635 50.8499 198.063 53.3817C204.123 54.972 207.676 52.2281 211.062 45.2793C213.016 45.8805 214.79 46.9681 216.053 48.6275L218.453 47.0373C216.712 44.954 214.511 43.6234 212.159 42.8812ZM63.9639 37.9415C59.2209 41.6525 58.8114 28.5872 64.2624 24.5615C69.0867 20.9991 67.794 34.9422 63.9639 37.9415ZM103.9 22.6923C104.604 24.1766 103.561 27.8482 98.3149 28.2224L98.2544 28.2309C99.615 23.4323 103.124 21.0585 103.9 22.6923ZM140.758 35.4585C137.644 34.1534 141.51 21.0479 145.241 22.4496C148.874 23.813 143.916 36.7817 140.759 35.4585H140.758ZM204.49 28.567C208.192 21.9406 213.416 25.8105 207.927 34.5149C204.171 40.4629 201.147 34.5509 204.491 28.5628L204.49 28.567ZM199.905 50.0397C196.586 50.1162 198.684 46.2058 204.037 45.0367C204.433 44.9505 204.836 44.8806 205.245 44.8246C203.685 48.1284 202.099 49.884 199.907 50.0354L199.905 50.0397Z" fill="#9C9C9C"/>
</g>
</svg>
