<svg width="128" height="26" viewBox="0 0 128 26" fill="none" xmlns="http://www.w3.org/2000/svg">
<path d="M24.0471 0.463637V24.5727H17.3295L7.88592 12.5182V24.5727H0V0.463637H7.6912L16.2586 11.7764V0.463637H24.0471ZM38.4561 25.0364C31.2516 25.0364 26.5785 21.3273 26.5785 14.6509V0.463637H34.7565V14.0018C34.7565 16.6909 36.2168 18.2673 38.4561 18.2673C40.6952 18.2673 42.1555 16.6909 42.1555 14.0018V0.463637H50.3335V14.6509C50.2362 21.2345 45.6604 25.0364 38.4561 25.0364ZM69.0261 16.8764H66.0081V11.4982H77.3015V14.1873C77.3015 20.8636 72.5309 25.0364 65.3266 25.0364C57.4407 25.0364 52.0859 19.8436 52.0859 12.5182C52.0859 5.19273 57.4407 0 65.2291 0C72.3363 0 76.2305 3.80182 77.2041 8.8091H68.8315C68.3446 7.41819 67.079 6.67636 65.3266 6.67636C62.0164 6.67636 60.3614 9.18 60.3614 12.5182C60.3614 16.1345 62.3084 18.36 65.3266 18.36C67.079 18.36 68.3446 17.8036 69.0261 16.8764ZM95.7993 16.8764H92.7813V11.4982H104.075V14.1873C104.075 20.8636 99.3042 25.0364 92.0997 25.0364C84.2138 25.0364 78.8592 19.8436 78.8592 12.5182C78.8592 5.19273 84.2138 0 92.0997 0C99.2069 0 103.101 3.80182 104.075 8.8091H95.702C95.2152 7.41819 93.9496 6.67636 92.1972 6.67636C88.8869 6.67636 87.2319 9.18 87.2319 12.5182C87.2319 16.1345 89.179 18.36 92.1972 18.36C93.8521 18.36 95.1179 17.8036 95.7993 16.8764ZM105.146 17.1546H113.713C114.102 18.36 115.271 19.009 116.926 19.009C118.386 19.009 119.554 18.4527 119.554 17.4328C119.554 16.5982 118.873 16.4127 117.899 16.1345L112.545 15.1145C108.553 14.3727 105.73 12.5182 105.73 8.25273C105.73 3.15272 110.403 0 116.342 0C123.157 0 126.856 3.52364 127.538 7.88181H119.554C119.165 6.76909 118.191 6.02728 116.439 6.02728C114.979 6.02728 114.005 6.4909 114.005 7.41819C114.005 8.15999 114.687 8.43818 115.465 8.62364L120.917 9.82908C125.591 10.8491 127.927 13.1673 127.927 16.9691C127.927 22.1619 123.059 25.0364 117.315 25.0364C110.5 25.0364 106.119 22.069 105.146 17.1546Z" fill="#9C9C9C"/>
</svg>
