<svg width="340" height="240" viewBox="0 0 340 240" fill="none" xmlns="http://www.w3.org/2000/svg">
<path d="M172.576 223.65C227.487 223.65 272 197.949 272 166.246C272 134.543 227.487 108.843 172.576 108.843C117.666 108.843 73.1522 134.543 73.1522 166.246C73.1522 197.949 117.666 223.65 172.576 223.65Z" fill="#F0F0F0"/>
<path d="M236.948 188.615C251.819 188.615 263.873 181.655 263.873 173.07C263.873 164.484 251.819 157.524 236.948 157.524C222.078 157.524 210.023 164.484 210.023 173.07C210.023 181.655 222.078 188.615 236.948 188.615Z" fill="#E0E0E0"/>
<path d="M87.3424 177.54L95.7817 182.422C96.1358 182.603 96.5281 182.698 96.9261 182.698C97.324 182.698 97.7163 182.603 98.0704 182.422L196.65 125.503C197.285 125.138 197.285 124.547 196.65 124.182L188.207 119.305C187.853 119.125 187.461 119.032 187.064 119.032C186.667 119.032 186.276 119.125 185.922 119.305L87.3424 176.228C86.7081 176.584 86.7081 177.176 87.3424 177.54Z" fill="#E0E0E0"/>
<path d="M201.052 197.924L163.184 219.783C162.9 219.929 162.585 220.005 162.265 220.005C161.945 220.005 161.63 219.929 161.346 219.783L110.247 190.282C110.136 190.245 110.04 190.173 109.971 190.078C109.903 189.982 109.867 189.868 109.867 189.751C109.867 189.634 109.903 189.519 109.971 189.424C110.04 189.329 110.136 189.257 110.247 189.219L148.11 167.36C148.395 167.215 148.71 167.138 149.03 167.138C149.349 167.138 149.664 167.215 149.949 167.36L201.052 196.862C201.163 196.899 201.259 196.971 201.327 197.066C201.395 197.162 201.432 197.276 201.432 197.393C201.432 197.51 201.395 197.624 201.327 197.72C201.259 197.815 201.163 197.887 201.052 197.924Z" fill="#E0E0E0"/>
<path opacity="0.1" d="M223.314 140.465L219.525 138.279C219.175 138.075 218.777 137.968 218.372 137.968C217.967 137.968 217.569 138.075 217.219 138.279L170.072 165.86L165.632 171.085C165.585 171.141 165.557 171.21 165.552 171.282C165.547 171.354 165.565 171.427 165.604 171.488C165.642 171.549 165.699 171.597 165.767 171.624C165.834 171.651 165.909 171.656 165.979 171.638L175.644 169.066L223.314 141.575C223.411 141.519 223.491 141.438 223.547 141.34C223.603 141.243 223.632 141.133 223.632 141.02C223.632 140.908 223.603 140.798 223.547 140.7C223.491 140.603 223.411 140.522 223.314 140.465Z" fill="#455A64"/>
<path d="M108.446 46.6646L106.775 47.2218V44.0287C106.775 41.4999 104.443 40.8913 101.914 42.1599C99.3856 43.4458 97.3325 46.4974 97.3325 49.0177V49.4806C96.9745 49.3821 96.6005 49.3564 96.2324 49.405C95.8643 49.4535 95.5097 49.5754 95.1895 49.7634C93.3679 50.6721 91.8935 52.888 91.8935 54.7096V54.9196L89.5876 56.0983C88.3875 56.6983 87.4146 58.1556 87.4146 59.3557C87.4146 60.5558 88.3961 61.0401 89.5876 60.4401L108.446 51.0107C109.646 50.4106 110.619 48.9534 110.619 47.7533C110.619 46.5532 109.664 46.0646 108.446 46.6646Z" fill="#EF0627"/>
<path d="M127.901 53.8395L124.866 55.3567C124.883 55.2418 124.892 55.1258 124.892 55.0096V54.2681C124.892 52.918 123.795 52.3693 122.44 53.0465C121.872 53.3452 121.374 53.7616 120.979 54.2681C120.76 52.5536 119.217 51.9322 117.344 52.8708C115.317 53.8823 113.675 56.3468 113.675 58.3698V59.5099C113.664 59.9691 113.77 60.4235 113.984 60.8301L111.468 62.0859C111.089 62.2855 110.766 62.5766 110.528 62.9329C110.29 63.2892 110.144 63.6994 110.105 64.126C110.105 64.8761 110.718 65.1804 111.468 64.8075L127.901 56.5911C128.279 56.391 128.602 56.0996 128.839 55.7433C129.076 55.3871 129.221 54.9772 129.26 54.551C129.26 53.7837 128.651 53.4794 127.901 53.8395Z" fill="#EF0627"/>
<path d="M90.8746 165.762L94.3678 164.506C94.3678 164.506 95.3964 156.872 94.4449 150.602C93.0262 141.215 85.0799 132.129 79.418 130.372C69.0156 127.131 69.0757 136.989 76.932 142.493C83.7683 147.276 89.8588 154.425 90.8746 165.762Z" fill="#407BFF"/>
<path d="M92.5893 165.329H92.5465C92.4426 165.301 92.3527 165.236 92.2948 165.146C92.2368 165.055 92.215 164.946 92.2336 164.84C94.1066 156.268 87.4503 140.045 78.0896 135.236C78.0216 135.173 77.9763 135.088 77.9604 134.997C77.9446 134.905 77.959 134.81 78.0017 134.728C78.0443 134.645 78.1127 134.578 78.1967 134.538C78.2806 134.497 78.3754 134.485 78.4667 134.503C88.1275 139.462 94.9853 156.165 93.0394 165.016C93.0127 165.112 92.9531 165.197 92.8709 165.254C92.7887 165.311 92.6891 165.337 92.5893 165.329Z" fill="white"/>
<path d="M95.4651 173.335C95.6323 172.319 95.7394 170.824 95.7694 170.459C95.8942 169.158 95.7483 167.844 95.3408 166.602C95.1522 166.057 94.7794 165.53 94.7108 164.977C94.6422 164.424 94.7708 163.932 94.6293 163.383C94.493 162.837 94.2496 162.323 93.9134 161.871C93.5772 161.419 93.1548 161.039 92.6706 160.751C91.7362 160.22 90.5276 159.98 90.0004 159.037C89.6489 158.403 89.7304 157.631 89.7604 156.894C89.8032 155.784 89.6703 154.592 88.9589 153.744C88.0416 152.651 86.4387 152.432 85.02 152.578C83.6013 152.724 82.1954 153.152 80.7725 153.032C78.368 152.839 76.3149 151.129 73.9147 150.782C73.0682 150.667 72.2081 150.7 71.3731 150.88C70.1387 151.138 68.8743 151.738 68.3 152.861C68.0651 153.39 67.9656 153.97 68.0105 154.548C68.0554 155.125 68.2432 155.683 68.5571 156.17C69.2215 157.267 70.2716 157.961 71.3817 158.565C72.4918 159.17 73.3447 159.826 72.7832 161.261C72.5867 161.666 72.4606 162.1 72.4103 162.547C72.422 162.941 72.536 163.326 72.7411 163.662C72.9463 163.999 73.2355 164.276 73.5804 164.467C74.2723 164.843 75.0256 165.093 75.8049 165.205L78.5351 165.757C79.3281 165.92 80.3053 166.28 80.3439 167.09C80.3696 167.592 79.9924 168.012 79.7995 168.479C79.6374 168.957 79.6192 169.471 79.7472 169.959C79.8753 170.447 80.1438 170.886 80.5196 171.222C81.2871 171.885 82.2408 172.293 83.2498 172.392C84.2485 172.538 85.26 172.521 86.2501 172.632C87.7989 172.81 89.296 173.299 90.6519 174.068C90.9818 174.297 91.3466 174.47 91.732 174.582C92.3191 174.707 95.358 173.974 95.4651 173.335Z" fill="#407BFF"/>
<g opacity="0.1">
<path d="M95.4651 173.335C95.6323 172.319 95.7394 170.824 95.7694 170.459C95.8942 169.158 95.7483 167.844 95.3408 166.602C95.1522 166.057 94.7794 165.53 94.7108 164.977C94.6422 164.424 94.7708 163.932 94.6293 163.383C94.493 162.837 94.2496 162.323 93.9134 161.871C93.5772 161.419 93.1548 161.039 92.6706 160.751C91.7362 160.22 90.5276 159.98 90.0004 159.037C89.6489 158.403 89.7304 157.631 89.7604 156.894C89.8032 155.784 89.6703 154.592 88.9589 153.744C88.0416 152.651 86.4387 152.432 85.02 152.578C83.6013 152.724 82.1954 153.152 80.7725 153.032C78.368 152.839 76.3149 151.129 73.9147 150.782C73.0682 150.667 72.2081 150.7 71.3731 150.88C70.1387 151.138 68.8743 151.738 68.3 152.861C68.0651 153.39 67.9656 153.97 68.0105 154.548C68.0554 155.125 68.2432 155.683 68.5571 156.17C69.2215 157.267 70.2716 157.961 71.3817 158.565C72.4918 159.17 73.3447 159.826 72.7832 161.261C72.5867 161.666 72.4606 162.1 72.4103 162.547C72.422 162.941 72.536 163.326 72.7411 163.662C72.9463 163.999 73.2355 164.276 73.5804 164.467C74.2723 164.843 75.0256 165.093 75.8049 165.205L78.5351 165.757C79.3281 165.92 80.3053 166.28 80.3439 167.09C80.3696 167.592 79.9924 168.012 79.7995 168.479C79.6374 168.957 79.6192 169.471 79.7472 169.959C79.8753 170.447 80.1438 170.886 80.5196 171.222C81.2871 171.885 82.2408 172.293 83.2498 172.392C84.2485 172.538 85.26 172.521 86.2501 172.632C87.7989 172.81 89.296 173.299 90.6519 174.068C90.9818 174.297 91.3466 174.47 91.732 174.582C92.3191 174.707 95.358 173.974 95.4651 173.335Z" fill="black"/>
</g>
<path d="M93.8149 174.278C93.7444 174.271 93.6773 174.245 93.6212 174.202C93.5651 174.158 93.5223 174.1 93.4977 174.034C90.0689 165.003 81.951 157.785 70.6144 153.705C70.5208 153.671 70.4445 153.602 70.402 153.512C70.3594 153.422 70.3541 153.319 70.3872 153.225C70.4229 153.133 70.4926 153.058 70.5819 153.016C70.6712 152.973 70.7734 152.967 70.8672 152.998C82.4139 157.155 90.6989 164.532 94.1963 173.768C94.2143 173.814 94.223 173.863 94.2219 173.912C94.2208 173.961 94.21 174.01 94.1901 174.055C94.1702 174.1 94.1415 174.141 94.1058 174.174C94.0701 174.208 94.028 174.235 93.982 174.252C93.9289 174.273 93.8718 174.282 93.8149 174.278Z" fill="white"/>
<path d="M214.858 143.624L214.074 144.079L213.135 144.632L175.474 166.538C175.765 165.878 175.525 164.562 174.844 163.302C174.051 161.836 172.842 160.679 171.972 160.64L209.381 138.88L211.185 137.847C210.058 138.575 213.714 144.357 214.858 143.624Z" fill="#407BFF"/>
<path d="M211.069 137.898C211.567 137.585 212.441 138.515 213.277 139.694C214.391 141.263 215.3 143.337 214.644 143.749L213.358 144.499L212.895 144.76C213.551 144.332 212.642 142.27 211.528 140.706C210.727 139.574 209.814 138.708 209.304 138.923L211.069 137.898Z" fill="#EF0627"/>
<path d="M209.681 138.704C210.834 137.979 214.485 143.791 213.332 144.516L211.584 145.536C212.737 144.811 209.089 139.004 207.936 139.728L209.681 138.704Z" fill="#407BFF"/>
<path d="M206.269 140.693L207.984 139.685C209.107 138.965 212.698 144.541 211.734 145.437L211.674 145.484L209.929 146.487C211.074 145.742 207.414 139.96 206.269 140.693Z" fill="#EF0627"/>
<path d="M166.807 166.572L165.555 168.012L166.807 166.572Z" fill="#E0E0E0"/>
<path d="M174.664 162.196C173.944 161.296 172.975 160.644 171.981 160.636L166.807 166.563C167.015 166.597 167.205 166.7 167.347 166.855C167.956 167.669 167.9 168.072 167.9 168.072L175.474 166.529C176.219 165.385 175.714 163.52 174.664 162.196Z" fill="#FFA8A7"/>
<path d="M167.347 166.863C167.284 166.778 167.203 166.707 167.11 166.657C167.016 166.607 166.913 166.578 166.807 166.572L165.556 168.012C165.513 168.058 165.486 168.117 165.479 168.18C165.473 168.242 165.486 168.306 165.517 168.36C165.549 168.415 165.597 168.458 165.655 168.483C165.713 168.508 165.777 168.514 165.839 168.501L167.9 168.072C167.9 168.072 167.99 167.682 167.347 166.863Z" fill="#37474F"/>
<path d="M221.725 139.617L214.867 143.629C214.83 143.65 214.789 143.666 214.747 143.676C215.214 143.127 214.344 141.181 213.286 139.694C212.514 138.61 211.597 137.769 211.078 137.898L218.236 133.711C219.805 132.618 221.871 135.579 222.282 137.697C222.458 138.498 222.304 139.205 221.725 139.617Z" fill="#F28F8F"/>
<path opacity="0.15" d="M221.725 139.617C222.303 139.188 222.436 138.498 222.273 137.697C222.273 137.598 222.226 137.495 222.201 137.392L175.714 164.322L165.577 168.428C165.612 168.46 165.653 168.484 165.699 168.497C165.745 168.509 165.793 168.511 165.839 168.501L167.9 168.072L175.474 166.529L221.725 139.617Z" fill="black"/>
<path d="M192.364 40.1241C191.721 39.7769 190.889 39.8283 189.981 40.3512L99.1245 92.7999C98.0318 93.5003 97.1444 94.4779 96.5528 95.633L92.8925 93.5157C93.694 91.9942 94.8298 91.4755 95.8199 90.9012L186.685 38.4439C187.636 37.8996 188.498 37.8739 189.149 38.2682L192.364 40.1241Z" fill="#455A64"/>
<path d="M93.4072 177.848C92.6057 177.398 92.0956 176.335 92.0956 174.822V98.0331C92.0956 96.3187 92.2157 94.78 92.9057 93.5156L96.566 95.6329C96.4717 95.8044 96.3817 95.9844 96.2917 96.1687C96.2017 96.353 96.1588 96.4644 96.1031 96.5973C96.0908 96.6186 96.0821 96.6418 96.0774 96.6659C96.0028 96.8353 95.937 97.0084 95.8802 97.1845C95.816 97.3645 95.7602 97.5488 95.7131 97.7288C95.6701 97.8695 95.6357 98.0126 95.6102 98.1574C95.4703 98.7386 95.3984 99.3341 95.3959 99.9319V176.717C95.3959 178.247 95.9145 179.319 96.7246 179.76L93.4072 177.848Z" fill="#263238"/>
<path d="M189.981 40.347L98.302 93.1986C96.2404 94.3901 95.3918 96.4346 95.3918 99.1991V176.721C95.3918 179.473 97.0634 180.733 99.125 179.546L189.99 127.089C192.051 125.901 193.723 122.704 193.723 119.957V43.1672C193.714 40.4199 192.026 39.1555 189.981 40.347Z" fill="#37474F"/>
<path d="M184.975 126.403L104.131 173.078C103.063 173.695 102.198 173.04 102.198 171.612V97.1804C102.198 95.7531 103.055 94.0987 104.131 93.4815L184.975 46.8061C186.042 46.1889 186.908 46.8447 186.908 48.272V122.704C186.908 124.131 186.025 125.786 184.975 126.403Z" fill="#407BFF"/>
<path opacity="0.1" d="M184.975 126.403L104.131 173.078C103.063 173.695 102.198 173.04 102.198 171.612V97.1804C102.198 95.7531 103.055 94.0987 104.131 93.4815L184.975 46.8061C186.042 46.1889 186.908 46.8447 186.908 48.272V122.704C186.908 124.131 186.025 125.786 184.975 126.403Z" fill="black"/>
<path d="M99.7675 138.704C99.7614 139.068 99.6703 139.426 99.5013 139.749C99.3324 140.072 99.0904 140.351 98.7946 140.564C98.2588 140.872 97.8217 140.542 97.8217 139.827C97.8278 139.462 97.9189 139.104 98.0878 138.781C98.2568 138.458 98.4988 138.179 98.7946 137.967C99.3304 137.649 99.7675 137.979 99.7675 138.704Z" fill="#263238"/>
<path d="M98.7946 126.227C98.5638 126.393 98.3749 126.61 98.2432 126.861C98.1114 127.113 98.0405 127.392 98.036 127.676V134.302C98.036 134.859 98.3746 135.116 98.7946 134.872C99.0244 134.707 99.2123 134.49 99.3432 134.239C99.4742 133.989 99.5447 133.711 99.549 133.428V126.801C99.549 126.244 99.2104 125.987 98.7946 126.227Z" fill="#263238"/>
<path d="M184.011 54.1952C183.951 53.7323 183.583 53.5652 183.154 53.8223L107.633 97.4074C107.375 97.5763 107.161 97.804 107.008 98.0718L105.349 97.1288C105.428 96.9914 105.523 96.8634 105.632 96.7474L105.713 96.666C105.792 96.5902 105.88 96.524 105.975 96.4688L181.474 52.8666C181.885 52.6511 182.359 52.5903 182.811 52.6951C182.944 52.72 183.072 52.7679 183.188 52.8365C183.243 52.8679 183.294 52.9037 183.343 52.9437C183.378 52.9674 183.41 52.9963 183.437 53.0294C183.463 53.049 183.486 53.072 183.505 53.098C183.55 53.1424 183.59 53.1913 183.625 53.2437C183.658 53.2848 183.688 53.3278 183.715 53.3723C183.779 53.4707 183.832 53.5756 183.874 53.6852C183.903 53.7448 183.927 53.8064 183.947 53.8695C183.947 53.9166 183.968 53.9595 183.981 54.0109C183.995 54.0716 184.005 54.1332 184.011 54.1952Z" fill="#FAFAFA"/>
<path d="M107.243 166.953C106.952 166.953 106.75 166.722 106.75 166.319V98.9419C106.763 98.6391 106.851 98.3443 107.007 98.0847L105.349 97.1289C105.248 97.2999 105.173 97.4847 105.126 97.6775C105.11 97.7495 105.098 97.8226 105.092 97.8961C105.089 97.9318 105.089 97.9676 105.092 98.0033V165.363C105.102 165.661 105.182 165.953 105.327 166.213C105.471 166.474 105.676 166.697 105.923 166.863C106.236 167.024 106.59 167.087 106.939 167.043C107.184 167.031 107.423 166.959 107.633 166.833C107.514 166.903 107.381 166.944 107.243 166.953Z" fill="#E0E0E0"/>
<path d="M184.019 54.3366C184.019 53.7708 183.621 53.5436 183.137 53.8222L107.633 97.4116C107.376 97.5797 107.163 97.8057 107.009 98.0715C106.856 98.3373 106.767 98.6354 106.75 98.9417V166.319C106.75 166.885 107.149 167.112 107.633 166.833L183.137 123.248C183.394 123.079 183.607 122.853 183.761 122.586C183.914 122.32 184.003 122.021 184.019 121.714V54.3366Z" fill="#F0F0F0"/>
<path d="M118.634 116.232L114.447 121.56L112.004 124.663C111.476 123.5 111.22 122.232 111.254 120.955C111.254 117.376 112.801 113.24 115.308 110.047L115.861 111.076L118.634 116.232Z" fill="#407BFF"/>
<path d="M122.222 105.542L118.943 115.465L117.448 112.713L115.733 109.503C116.697 108.324 117.857 107.321 119.162 106.537C120.089 105.967 121.138 105.627 122.222 105.542Z" fill="#407BFF"/>
<path d="M125.968 107.763L119.809 114.856L122.882 105.56C123.542 105.633 124.171 105.874 124.711 106.26C125.252 106.645 125.684 107.163 125.968 107.763Z" fill="#407BFF"/>
<path d="M126.787 111.594C126.787 117.008 123.229 123.471 118.853 125.991C116.136 127.564 113.71 127.277 112.338 125.241L119.23 116.498L119.269 116.451L126.259 108.401C126.63 109.424 126.809 110.507 126.787 111.594Z" fill="#407BFF"/>
<path opacity="0.7" d="M122.222 105.542L118.943 115.465L117.448 112.713L115.733 109.503C116.697 108.324 117.857 107.321 119.162 106.537C120.089 105.967 121.138 105.627 122.222 105.542Z" fill="white"/>
<path opacity="0.3" d="M125.968 107.763L119.809 114.856L122.882 105.56C123.542 105.633 124.171 105.874 124.711 106.26C125.252 106.645 125.684 107.163 125.968 107.763Z" fill="black"/>
<path opacity="0.5" d="M126.787 111.594C126.787 117.008 123.229 123.471 118.853 125.991C116.136 127.564 113.71 127.277 112.338 125.241L119.23 116.498L119.269 116.451L126.259 108.401C126.63 109.424 126.809 110.507 126.787 111.594Z" fill="white"/>
<path d="M112.347 101.175C112.479 101.093 112.624 101.035 112.776 101.004C112.887 100.979 113.003 100.998 113.101 101.055C113.203 101.123 113.276 101.225 113.307 101.342C113.36 101.514 113.385 101.694 113.38 101.874C113.383 102.135 113.344 102.396 113.264 102.645C113.194 102.868 113.085 103.077 112.943 103.262L113.397 104.347C113.402 104.365 113.402 104.384 113.397 104.402C113.397 104.438 113.388 104.474 113.371 104.505C113.36 104.533 113.341 104.557 113.316 104.574L112.814 104.861C112.767 104.891 112.733 104.891 112.711 104.861C112.689 104.84 112.672 104.816 112.66 104.788L112.231 103.811L111.893 104.008V105.221C111.893 105.264 111.883 105.307 111.863 105.345C111.848 105.38 111.824 105.409 111.794 105.431L111.31 105.71C111.3 105.718 111.288 105.723 111.276 105.723C111.263 105.723 111.251 105.718 111.241 105.71C111.23 105.698 111.222 105.683 111.217 105.668C111.212 105.652 111.21 105.636 111.211 105.62V101.959C111.21 101.916 111.221 101.873 111.241 101.835C111.253 101.799 111.277 101.769 111.31 101.749L112.347 101.175ZM111.918 103.134L112.347 102.894C112.449 102.834 112.537 102.752 112.604 102.654C112.674 102.538 112.708 102.403 112.703 102.268C112.703 102.109 112.669 102.019 112.604 101.998C112.56 101.989 112.514 101.989 112.47 101.999C112.425 102.008 112.384 102.027 112.347 102.054L111.918 102.294V103.134Z" fill="#455A64"/>
<path d="M115.836 102.221C115.845 102.213 115.857 102.209 115.87 102.209C115.882 102.209 115.894 102.213 115.904 102.221C115.915 102.233 115.923 102.247 115.928 102.263C115.934 102.278 115.936 102.295 115.934 102.311V102.915C115.934 102.958 115.924 103.001 115.904 103.039C115.89 103.074 115.866 103.103 115.836 103.125L114.091 104.132C114.082 104.141 114.07 104.145 114.057 104.145C114.044 104.145 114.032 104.141 114.023 104.132C114.011 104.121 114.002 104.106 113.997 104.091C113.992 104.075 113.99 104.059 113.993 104.042V100.382C113.993 100.339 114.003 100.296 114.023 100.258C114.037 100.223 114.061 100.194 114.091 100.172L115.806 99.182C115.815 99.1743 115.827 99.1702 115.84 99.1702C115.852 99.1702 115.864 99.1743 115.874 99.182C115.885 99.1941 115.893 99.2084 115.898 99.2239C115.904 99.2394 115.906 99.2557 115.904 99.272V99.8763C115.904 99.9195 115.894 99.9621 115.874 100.001C115.86 100.035 115.836 100.065 115.806 100.086L114.674 100.738V101.351L115.724 100.742C115.734 100.734 115.746 100.729 115.758 100.729C115.771 100.729 115.783 100.734 115.793 100.742C115.804 100.754 115.813 100.768 115.818 100.784C115.823 100.799 115.825 100.816 115.823 100.832V101.432C115.823 101.475 115.813 101.518 115.793 101.556C115.779 101.591 115.755 101.621 115.724 101.642L114.674 102.272V102.907L115.836 102.221Z" fill="#455A64"/>
<path d="M117.692 98.089C117.823 98.0084 117.968 97.9531 118.12 97.9261C118.232 97.9041 118.347 97.9272 118.442 97.9904C118.541 98.0655 118.613 98.1708 118.647 98.2904C118.706 98.4688 118.735 98.6556 118.733 98.8433C118.735 99.0539 118.712 99.264 118.665 99.4691C118.618 99.654 118.549 99.8325 118.459 100.001C118.37 100.156 118.262 100.3 118.137 100.429C118.011 100.559 117.867 100.67 117.709 100.759L117.242 101.029V102.186C117.24 102.229 117.23 102.272 117.212 102.311C117.198 102.347 117.172 102.377 117.139 102.396L116.659 102.675C116.649 102.684 116.637 102.688 116.624 102.688C116.612 102.688 116.6 102.684 116.59 102.675C116.579 102.663 116.571 102.649 116.565 102.633C116.56 102.618 116.558 102.601 116.56 102.585V98.9248C116.559 98.8814 116.57 98.8386 116.59 98.8005C116.602 98.7646 116.626 98.7342 116.659 98.7147L117.692 98.089ZM117.224 100.129L117.653 99.8677C117.767 99.8027 117.86 99.7074 117.923 99.5924C117.986 99.4773 118.016 99.3471 118.009 99.2162C118.009 99.0576 117.979 98.9633 117.91 98.929C117.867 98.915 117.821 98.9116 117.776 98.9191C117.732 98.9265 117.689 98.9447 117.653 98.9719L117.224 99.2334V100.129Z" fill="#455A64"/>
<path d="M119.162 98.7191C119.171 98.4995 119.201 98.2813 119.252 98.0676C119.303 97.8542 119.378 97.6472 119.475 97.4504C119.572 97.2597 119.691 97.0812 119.831 96.9189C119.966 96.7588 120.129 96.6239 120.311 96.5203C120.455 96.4283 120.62 96.3752 120.791 96.366C120.919 96.3617 121.044 96.4044 121.142 96.486C121.25 96.5827 121.329 96.7073 121.37 96.8461C121.424 97.0225 121.455 97.2057 121.46 97.3904C121.46 97.549 121.46 97.7204 121.46 97.8962C121.46 98.0719 121.46 98.2433 121.46 98.4019C121.45 98.62 121.42 98.8367 121.37 99.0491C121.318 99.2644 121.242 99.473 121.142 99.6706C121.049 99.8621 120.93 100.041 120.791 100.202C120.654 100.36 120.491 100.495 120.311 100.601C120.167 100.692 120.001 100.745 119.831 100.755C119.701 100.761 119.573 100.717 119.475 100.631C119.369 100.533 119.292 100.409 119.252 100.271C119.197 100.094 119.167 99.911 119.162 99.7263C119.162 99.572 119.162 99.4091 119.162 99.2334C119.162 99.0577 119.162 98.882 119.162 98.7191ZM120.778 98.7662C120.778 98.6934 120.778 98.6162 120.778 98.5348C120.778 98.4533 120.778 98.3633 120.778 98.2776C120.778 98.1919 120.778 98.1062 120.778 98.0247C120.778 97.9433 120.778 97.8747 120.778 97.8147C120.776 97.7334 120.763 97.6527 120.74 97.5747C120.724 97.5161 120.693 97.4627 120.65 97.4204C120.612 97.3829 120.561 97.3614 120.508 97.3604C120.438 97.3654 120.37 97.3874 120.311 97.4247C120.235 97.4671 120.168 97.5239 120.114 97.5918C120.055 97.6565 120.007 97.7303 119.972 97.8104C119.933 97.8927 119.903 97.9789 119.882 98.0676C119.861 98.1606 119.848 98.2552 119.844 98.3505C119.844 98.4191 119.844 98.4962 119.844 98.5776C119.844 98.6591 119.844 98.7405 119.844 98.8305C119.844 98.9205 119.844 99.002 119.844 99.0834C119.844 99.1648 119.844 99.2377 119.844 99.3063C119.839 99.4487 119.885 99.5883 119.972 99.7006C120.045 99.782 120.157 99.782 120.311 99.7006C120.462 99.6139 120.581 99.4799 120.65 99.3191C120.726 99.144 120.771 98.9569 120.782 98.7662H120.778Z" fill="#455A64"/>
<path d="M123.174 94.926C123.306 94.8446 123.451 94.7866 123.602 94.7545C123.713 94.731 123.829 94.7477 123.928 94.8017C124.028 94.8712 124.102 94.9723 124.138 95.0889C124.189 95.2627 124.212 95.4435 124.207 95.6246C124.209 95.8859 124.171 96.1461 124.095 96.3961C124.022 96.6174 123.912 96.8247 123.77 97.009L124.224 98.0934C124.227 98.1118 124.227 98.1307 124.224 98.1491C124.224 98.1849 124.215 98.2202 124.198 98.252C124.188 98.2805 124.168 98.3047 124.142 98.3206L123.641 98.612C123.594 98.6377 123.56 98.642 123.538 98.612C123.517 98.5906 123.5 98.566 123.487 98.5391L123.08 97.5619L122.741 97.7548V98.9677C122.742 99.0111 122.731 99.0539 122.711 99.092C122.698 99.1282 122.674 99.1596 122.642 99.1821L122.158 99.4564C122.154 99.461 122.148 99.4648 122.142 99.4673C122.136 99.4698 122.13 99.4712 122.124 99.4712C122.117 99.4712 122.111 99.4698 122.105 99.4673C122.099 99.4648 122.094 99.461 122.089 99.4564C122.078 99.4447 122.069 99.4305 122.064 99.4149C122.059 99.3993 122.057 99.3827 122.059 99.3664V95.706C122.059 95.6628 122.069 95.6201 122.089 95.5818C122.104 95.5475 122.128 95.5179 122.158 95.496L123.174 94.926ZM122.745 96.8804L123.174 96.6404C123.276 96.5818 123.364 96.5013 123.431 96.4047C123.5 96.2867 123.534 96.1514 123.53 96.0146C123.53 95.8561 123.495 95.7661 123.431 95.7446C123.386 95.7364 123.34 95.7375 123.296 95.7478C123.252 95.7581 123.21 95.7775 123.174 95.8046L122.745 96.0446V96.8804Z" fill="#455A64"/>
<path d="M126.688 92.8944C126.698 92.8867 126.71 92.8826 126.723 92.8826C126.735 92.8826 126.747 92.8867 126.757 92.8944C126.768 92.9072 126.777 92.9222 126.782 92.9384C126.787 92.9546 126.789 92.9717 126.787 92.9887V93.5887C126.787 93.6319 126.777 93.6745 126.757 93.713C126.743 93.7474 126.719 93.7771 126.688 93.7987L126.041 94.1716V97.0776C126.042 97.1209 126.032 97.1637 126.011 97.2019C125.999 97.2377 125.975 97.2681 125.943 97.2876L125.458 97.5662C125.449 97.5746 125.437 97.5793 125.424 97.5793C125.411 97.5793 125.399 97.5746 125.39 97.5662C125.378 97.5545 125.369 97.5403 125.364 97.5247C125.359 97.5091 125.358 97.4925 125.36 97.4762V94.5574L124.713 94.9303C124.703 94.9387 124.691 94.9434 124.678 94.9434C124.666 94.9434 124.653 94.9387 124.644 94.9303C124.633 94.9181 124.625 94.9038 124.62 94.8883C124.615 94.8729 124.613 94.8565 124.614 94.8402V94.2402C124.614 94.1956 124.624 94.1515 124.644 94.1116C124.658 94.0772 124.682 94.0476 124.713 94.0259L126.688 92.8944Z" fill="#455A64"/>
<path d="M130.109 90.9227L178.284 63.1104V66.9464L130.109 94.7587V90.9227Z" fill="#407BFF"/>
<g opacity="0.3">
<path d="M129.813 103.005C129.741 103.006 129.671 102.987 129.61 102.952C129.548 102.916 129.497 102.865 129.461 102.804C129.411 102.709 129.398 102.599 129.425 102.495C129.452 102.391 129.517 102.301 129.607 102.242L157.848 85.9552C157.939 85.9278 158.037 85.9315 158.126 85.9657C158.215 86 158.289 86.0629 158.339 86.1445C158.388 86.226 158.408 86.3217 158.397 86.4162C158.386 86.5108 158.343 86.5989 158.276 86.6667L130.04 102.954C129.97 102.992 129.892 103.009 129.813 103.005Z" fill="#455A64"/>
<path d="M129.813 106.841C129.741 106.842 129.671 106.823 129.61 106.788C129.548 106.752 129.497 106.701 129.461 106.64C129.411 106.545 129.398 106.435 129.425 106.331C129.452 106.227 129.517 106.137 129.607 106.078L157.848 89.7911C157.939 89.7637 158.037 89.7674 158.126 89.8017C158.214 89.8359 158.289 89.8988 158.338 89.9804C158.388 90.062 158.408 90.1576 158.397 90.2522C158.386 90.3467 158.343 90.4348 158.276 90.5026L130.04 106.79C129.97 106.827 129.892 106.845 129.813 106.841Z" fill="#455A64"/>
<path d="M129.813 110.677C129.741 110.678 129.671 110.659 129.61 110.624C129.548 110.589 129.497 110.538 129.461 110.476C129.411 110.381 129.398 110.271 129.425 110.167C129.452 110.063 129.517 109.973 129.607 109.914L157.848 93.6273C157.939 93.5999 158.037 93.6036 158.126 93.6378C158.214 93.6721 158.289 93.735 158.338 93.8166C158.388 93.8981 158.408 93.9938 158.397 94.0883C158.386 94.1829 158.343 94.271 158.276 94.3388L130.04 110.626C129.97 110.664 129.892 110.681 129.813 110.677Z" fill="#455A64"/>
<path d="M129.813 114.513C129.741 114.514 129.671 114.495 129.61 114.46C129.548 114.425 129.497 114.374 129.461 114.312C129.411 114.217 129.398 114.107 129.425 114.003C129.452 113.899 129.517 113.809 129.607 113.75L157.848 97.4634C157.893 97.4155 157.949 97.3789 158.011 97.3561C158.073 97.3334 158.139 97.3252 158.205 97.3323C158.27 97.3394 158.333 97.3614 158.389 97.3968C158.444 97.4322 158.491 97.4799 158.525 97.5363C158.559 97.5927 158.58 97.6562 158.586 97.7218C158.591 97.7875 158.582 97.8536 158.558 97.915C158.534 97.9763 158.496 98.0313 158.447 98.0756C158.398 98.12 158.34 98.1524 158.276 98.1706L130.04 114.458C129.971 114.497 129.892 114.516 129.813 114.513Z" fill="#455A64"/>
<path d="M129.813 118.354C129.738 118.351 129.665 118.33 129.601 118.291C129.537 118.252 129.484 118.196 129.448 118.131C129.398 118.036 129.385 117.926 129.412 117.822C129.439 117.718 129.504 117.628 129.594 117.569L157.835 101.282C157.925 101.256 158.022 101.261 158.109 101.295C158.197 101.33 158.271 101.392 158.319 101.472C158.368 101.552 158.389 101.647 158.379 101.74C158.369 101.834 158.328 101.921 158.264 101.989L130.027 118.276C129.964 118.321 129.89 118.348 129.813 118.354Z" fill="#455A64"/>
</g>
<path d="M162.113 82.0076L165.747 79.9117C165.992 79.7702 166.176 79.886 166.176 80.1688V84.3649C166.169 84.5168 166.127 84.665 166.053 84.7975C165.978 84.9301 165.874 85.0432 165.747 85.1278L162.113 87.228C161.868 87.3695 161.684 87.2537 161.684 86.9709V82.7748C161.691 82.6225 161.734 82.4739 161.808 82.3408C161.883 82.2077 161.987 82.0936 162.113 82.0076Z" fill="#407BFF"/>
<path d="M168.139 78.5316L171.774 76.4358C172.018 76.2943 172.202 76.4058 172.202 76.6886V80.8847C172.196 81.0372 172.153 81.186 172.079 81.3192C172.005 81.4524 171.9 81.5664 171.774 81.6519L168.139 83.7478C167.895 83.8892 167.71 83.7778 167.71 83.4949V79.2989C167.717 79.1464 167.759 78.9976 167.834 78.8644C167.908 78.7311 168.013 78.6172 168.139 78.5316Z" fill="#407BFF"/>
<path d="M174.165 75.0513L177.796 72.9554C178.04 72.8139 178.224 72.9297 178.224 73.2125V77.4129C178.217 77.5653 178.175 77.714 178.101 77.8472C178.026 77.9803 177.922 78.0943 177.796 78.1801L174.165 80.2803C173.921 80.4217 173.737 80.306 173.737 80.0231V75.8271C173.742 75.6732 173.784 75.5228 173.859 75.388C173.933 75.2533 174.038 75.1379 174.165 75.0513Z" fill="#407BFF"/>
<path d="M162.113 88.9855L165.747 86.8853C165.992 86.7439 166.176 86.8596 166.176 87.1425V91.3385C166.169 91.491 166.127 91.6398 166.053 91.773C165.978 91.9063 165.874 92.0202 165.747 92.1058L162.113 94.2016C161.868 94.3431 161.684 94.2274 161.684 93.9445V89.7527C161.691 89.6002 161.733 89.4514 161.807 89.3182C161.882 89.185 161.986 89.071 162.113 88.9855Z" fill="#407BFF"/>
<path d="M168.139 85.4879L171.774 83.3921C172.018 83.2506 172.202 83.3621 172.202 83.6449V87.841C172.196 87.9935 172.153 88.1423 172.079 88.2755C172.005 88.4087 171.9 88.5227 171.774 88.6082L168.139 90.6998C167.895 90.8413 167.71 90.7298 167.71 90.4469V86.2509C167.718 86.0991 167.76 85.9512 167.835 85.8188C167.909 85.6863 168.013 85.5731 168.139 85.4879Z" fill="#407BFF"/>
<path d="M174.165 82.0119L177.796 79.9117C178.04 79.7702 178.224 79.886 178.224 80.1688V84.3649C178.217 84.5167 178.175 84.6648 178.101 84.7973C178.026 84.9298 177.922 85.043 177.796 85.1278L174.165 87.228C173.921 87.3695 173.737 87.2537 173.737 86.9709V82.7748C173.744 82.623 173.786 82.4749 173.861 82.3424C173.935 82.2099 174.039 82.0967 174.165 82.0119Z" fill="#407BFF"/>
<path d="M162.113 95.9245L165.747 93.8243C165.992 93.6828 166.176 93.7986 166.176 94.0814V98.2775C166.169 98.43 166.127 98.5788 166.053 98.712C165.978 98.8452 165.874 98.9592 165.747 99.0447L162.113 101.141C161.868 101.282 161.684 101.166 161.684 100.888V96.7002C161.689 96.5463 161.731 96.3958 161.805 96.261C161.88 96.1261 161.985 96.0108 162.113 95.9245Z" fill="#407BFF"/>
<path d="M168.139 92.4442L171.774 90.3483C172.018 90.2069 172.202 90.3226 172.202 90.6012V94.7973C172.196 94.9497 172.153 95.0985 172.079 95.2318C172.005 95.365 171.9 95.4789 171.774 95.5645L168.139 97.6646C167.895 97.8061 167.71 97.6904 167.71 97.4075V93.2114C167.717 93.0589 167.759 92.9101 167.834 92.7769C167.908 92.6437 168.013 92.5297 168.139 92.4442Z" fill="#407BFF"/>
<path d="M174.165 88.9855L177.796 86.8853C178.04 86.7439 178.224 86.8596 178.224 87.1425V91.3385C178.217 91.4909 178.175 91.6396 178.101 91.7728C178.026 91.906 177.922 92.02 177.796 92.1058L174.165 94.2016C173.921 94.3431 173.737 94.2274 173.737 93.9445V89.7527C173.744 89.6003 173.786 89.4516 173.86 89.3184C173.935 89.1853 174.039 89.0713 174.165 88.9855Z" fill="#407BFF"/>
<path d="M111.837 157.095L158.35 130.243V132.159L111.837 159.016V157.095Z" fill="#455A64"/>
<path d="M111.837 155.18V143.667L115.935 146.033L119.882 138.721L124.588 141.438L126.787 138.875L130.109 140.791L134.943 133.569L138.797 135.181L143.4 125.447L146.619 131.04L151.016 124.667L152.653 127.774L158.35 118.735V128.323L111.837 155.18Z" fill="#407BFF"/>
<path d="M111.837 142.6L115.66 144.627L119.625 137.255L124.357 139.99L126.483 137.508L129.804 139.428L134.562 132.468L138.415 134.079L143.4 123.531L146.722 129.283L151.119 122.91L152.726 126.021L158.35 117.089V109.143L152.469 118.311L150.043 113.939L146.722 119.695L143.4 117.775L140.078 123.531L136.756 121.611L131.772 130.243L128.45 127.367L125.158 132.142L119.964 129.283L115.763 136.347L111.837 134.079V142.6Z" fill="#407BFF"/>
<path opacity="0.3" d="M111.837 142.6L115.66 144.627L119.625 137.255L124.357 139.99L126.483 137.508L129.804 139.428L134.562 132.468L138.415 134.079L143.4 123.531L146.722 129.283L151.119 122.91L152.726 126.021L158.35 117.089V109.143L152.469 118.311L150.043 113.939L146.722 119.695L143.4 117.775L140.078 123.531L136.756 121.611L131.772 130.243L128.45 127.367L125.158 132.142L119.964 129.283L115.763 136.347L111.837 134.079V142.6Z" fill="black"/>
<g opacity="0.3">
<path d="M161.671 107.634C161.587 107.623 161.509 107.587 161.446 107.531C161.382 107.476 161.337 107.402 161.315 107.321C161.293 107.239 161.295 107.153 161.322 107.073C161.349 106.993 161.399 106.923 161.465 106.871L178.078 97.2789C178.169 97.2515 178.267 97.2552 178.356 97.2895C178.445 97.3237 178.52 97.3866 178.569 97.4682C178.618 97.5498 178.639 97.6454 178.627 97.7399C178.616 97.8345 178.574 97.9226 178.507 97.9904L161.894 107.578C161.827 107.618 161.749 107.638 161.671 107.634Z" fill="#455A64"/>
<path d="M161.671 111.47C161.587 111.459 161.509 111.423 161.446 111.367C161.382 111.312 161.337 111.239 161.315 111.157C161.293 111.076 161.295 110.99 161.322 110.91C161.349 110.83 161.399 110.759 161.465 110.707L178.078 101.115C178.169 101.088 178.267 101.091 178.356 101.126C178.445 101.16 178.52 101.223 178.569 101.304C178.618 101.386 178.639 101.482 178.627 101.576C178.616 101.671 178.574 101.759 178.507 101.827L161.894 111.415C161.827 111.454 161.749 111.474 161.671 111.47Z" fill="#455A64"/>
<path d="M161.671 115.306C161.587 115.295 161.509 115.259 161.446 115.203C161.382 115.148 161.337 115.075 161.315 114.993C161.293 114.912 161.295 114.825 161.322 114.745C161.349 114.665 161.399 114.595 161.465 114.543L178.078 104.951C178.169 104.924 178.267 104.927 178.356 104.962C178.445 104.996 178.52 105.059 178.569 105.14C178.618 105.222 178.639 105.317 178.627 105.412C178.616 105.507 178.574 105.595 178.507 105.663L161.894 115.25C161.827 115.29 161.749 115.31 161.671 115.306Z" fill="#455A64"/>
<path d="M161.671 119.142C161.587 119.131 161.509 119.095 161.446 119.039C161.382 118.984 161.337 118.91 161.315 118.829C161.293 118.748 161.295 118.661 161.322 118.581C161.349 118.501 161.399 118.431 161.465 118.379L178.078 108.791C178.173 108.742 178.282 108.73 178.385 108.757C178.488 108.784 178.577 108.848 178.635 108.937C178.686 109.032 178.699 109.142 178.672 109.246C178.645 109.35 178.58 109.44 178.49 109.498L161.877 119.086C161.814 119.123 161.743 119.142 161.671 119.142Z" fill="#455A64"/>
<path d="M161.671 122.978C161.587 122.967 161.509 122.931 161.446 122.876C161.382 122.82 161.337 122.747 161.315 122.665C161.293 122.584 161.295 122.498 161.322 122.418C161.349 122.338 161.399 122.267 161.465 122.215L178.078 112.627C178.173 112.578 178.282 112.566 178.385 112.593C178.488 112.62 178.577 112.684 178.635 112.773C178.686 112.868 178.699 112.978 178.672 113.082C178.645 113.186 178.58 113.276 178.49 113.335L161.877 122.923C161.814 122.959 161.743 122.979 161.671 122.978Z" fill="#455A64"/>
<path d="M161.671 126.814C161.587 126.803 161.509 126.767 161.446 126.711C161.382 126.656 161.337 126.583 161.315 126.501C161.293 126.42 161.295 126.334 161.322 126.254C161.349 126.174 161.399 126.103 161.465 126.051L178.078 116.463C178.173 116.414 178.282 116.402 178.385 116.429C178.488 116.456 178.577 116.52 178.635 116.609C178.686 116.704 178.699 116.814 178.672 116.918C178.645 117.022 178.58 117.112 178.49 117.171L161.877 126.759C161.814 126.795 161.743 126.815 161.671 126.814Z" fill="#455A64"/>
<path d="M161.671 130.65C161.587 130.639 161.509 130.603 161.446 130.548C161.382 130.492 161.337 130.419 161.315 130.337C161.293 130.256 161.295 130.17 161.322 130.09C161.349 130.01 161.399 129.939 161.465 129.887L178.078 120.299C178.169 120.274 178.265 120.278 178.352 120.313C178.44 120.347 178.514 120.409 178.562 120.489C178.611 120.57 178.632 120.664 178.622 120.757C178.612 120.851 178.571 120.938 178.507 121.007L161.894 130.595C161.827 130.634 161.749 130.654 161.671 130.65Z" fill="#455A64"/>
</g>
<path d="M111.384 187.106V187.994C111.391 188.147 111.433 188.296 111.507 188.43C111.582 188.564 111.686 188.678 111.812 188.765L161.852 217.653C161.99 217.723 162.143 217.759 162.298 217.759C162.453 217.759 162.605 217.723 162.744 217.653L198.605 196.994C198.732 196.908 198.836 196.793 198.91 196.659C198.985 196.525 199.027 196.376 199.034 196.223V195.323C199.027 195.17 198.985 195.02 198.911 194.886C198.836 194.753 198.732 194.638 198.605 194.551L148.565 165.637C148.428 165.568 148.276 165.531 148.122 165.531C147.968 165.531 147.816 165.568 147.678 165.637L111.829 186.335C111.7 186.42 111.592 186.534 111.515 186.668C111.437 186.802 111.393 186.952 111.384 187.106Z" fill="#407BFF"/>
<path opacity="0.5" d="M198.665 194.568C198.85 194.71 198.828 194.916 198.605 195.044L162.761 215.737C162.629 215.808 162.482 215.845 162.332 215.844V217.773C162.482 217.774 162.629 217.737 162.761 217.666L198.605 196.994C198.732 196.908 198.836 196.793 198.91 196.659C198.985 196.525 199.027 196.376 199.034 196.223V195.323C199.031 195.178 198.997 195.035 198.933 194.905C198.869 194.774 198.778 194.66 198.665 194.568Z" fill="black"/>
<path opacity="0.6" d="M111.76 186.386L111.722 186.416L111.662 186.476C111.545 186.614 111.467 186.779 111.435 186.957C111.433 186.994 111.433 187.031 111.435 187.068V187.994C111.443 188.147 111.485 188.295 111.56 188.429C111.634 188.563 111.738 188.678 111.863 188.765L161.903 217.653C162.035 217.724 162.182 217.761 162.332 217.761V215.853C162.183 215.855 162.035 215.82 161.903 215.75L111.829 186.849C111.755 186.812 111.696 186.75 111.662 186.674C111.645 186.632 111.641 186.587 111.65 186.544C111.659 186.5 111.681 186.46 111.713 186.429C111.727 186.413 111.743 186.398 111.76 186.386Z" fill="black"/>
<g opacity="0.3">
<path d="M111.418 186.884C111.403 186.938 111.392 186.994 111.388 187.051C111.388 187.051 111.388 187.016 111.388 186.999C111.396 186.96 111.406 186.922 111.418 186.884Z" fill="black"/>
<path d="M198.606 195.044L162.761 215.737C162.63 215.809 162.482 215.845 162.333 215.845C162.183 215.845 162.036 215.808 161.904 215.737L111.864 186.849C111.788 186.814 111.728 186.751 111.697 186.674C111.682 186.632 111.679 186.587 111.689 186.544C111.698 186.501 111.718 186.461 111.749 186.429C111.758 186.415 111.772 186.403 111.787 186.395L111.856 186.344L147.7 165.646C147.838 165.576 147.991 165.54 148.146 165.54C148.301 165.54 148.453 165.576 148.592 165.646L198.632 194.538L198.692 194.577C198.85 194.719 198.829 194.916 198.606 195.044Z" fill="black"/>
<path opacity="0.15" d="M111.659 186.476L111.624 186.52C111.637 186.507 111.649 186.492 111.659 186.476Z" fill="black"/>
</g>
<path d="M124.937 174.304C124.937 175.11 126.059 175.958 126.368 176.674C126.395 176.733 126.418 176.793 126.437 176.854C126.282 177.364 125.811 177.711 125.712 178.059C125.687 178.135 125.674 178.214 125.674 178.294V178.993C125.684 179.151 125.706 179.309 125.738 179.464C125.713 179.633 125.674 179.799 125.622 179.962C125.523 180.237 125.468 180.526 125.459 180.819V181.475C125.444 181.599 125.468 181.725 125.528 181.835C125.588 181.945 125.681 182.033 125.794 182.087L127.804 183.245L142.827 174.57V173.905L140.816 172.744C140.506 172.583 140.157 172.516 139.809 172.551H139.676C139.338 172.551 138.896 172.585 138.3 172.65C137.551 172.735 136.795 172.752 136.042 172.701C135.832 172.701 135.647 172.675 135.459 172.675C135.316 172.674 135.173 172.681 135.03 172.697C134.173 172.782 133.264 173.322 131.528 173.087H131.473C130.243 172.907 128.785 172.264 127.392 172.26H127.255C126.697 172.263 126.149 172.411 125.665 172.688C125.125 172.997 124.924 173.331 124.924 173.665C124.932 173.751 124.937 174.197 124.937 174.304ZM127.217 174.767C127.302 174.618 127.426 174.497 127.577 174.415C127.695 174.349 127.82 174.298 127.95 174.261C128.888 174.053 129.871 174.206 130.701 174.69C131.043 174.865 131.325 175.138 131.511 175.474C131.425 175.623 131.299 175.744 131.147 175.826C130.506 176.114 129.784 176.169 129.107 175.98C128.726 175.892 128.361 175.747 128.022 175.551C127.681 175.377 127.4 175.104 127.217 174.767Z" fill="#263238"/>
<path d="M139.809 172.525H139.676C139.337 172.525 138.896 172.559 138.3 172.624C137.549 172.709 136.791 172.727 136.037 172.675C135.831 172.675 135.647 172.649 135.458 172.649C135.315 172.648 135.172 172.655 135.03 172.671C134.173 172.757 133.264 173.297 131.528 173.061H131.472C130.242 172.881 128.785 172.238 127.392 172.234H127.255C126.697 172.237 126.149 172.385 125.665 172.662C123.83 173.721 125.918 174.998 126.355 176.014C126.792 177.03 125.845 177.566 125.699 178.067C125.553 178.568 125.956 178.843 125.609 179.949C125.262 181.054 125.528 181.256 125.781 181.402L127.791 182.563L142.813 173.888L140.803 172.727C140.498 172.565 140.153 172.496 139.809 172.525ZM128.545 180.969C128.412 181.021 128.268 181.042 128.126 181.03C127.983 181.018 127.845 180.974 127.722 180.9C127.461 180.75 127.405 180.536 127.602 180.424C127.736 180.371 127.88 180.349 128.024 180.361C128.167 180.373 128.306 180.418 128.429 180.493C128.686 180.643 128.746 180.857 128.545 180.969ZM131.147 175.825C130.506 176.114 129.784 176.169 129.106 175.98C128.726 175.891 128.36 175.747 128.022 175.551C127.036 174.981 126.839 174.171 127.594 173.747C127.711 173.679 127.836 173.626 127.966 173.588C128.905 173.383 129.886 173.536 130.718 174.017C131.687 174.578 131.888 175.384 131.164 175.813L131.147 175.825ZM140.147 174.291C140.013 174.343 139.869 174.364 139.726 174.353C139.582 174.341 139.444 174.296 139.32 174.222C139.059 174.072 139.003 173.858 139.2 173.747C139.334 173.692 139.478 173.67 139.622 173.682C139.766 173.694 139.905 173.74 140.027 173.815C140.28 173.952 140.332 174.162 140.139 174.278L140.147 174.291Z" fill="#37474F"/>
<path d="M160.926 212.596L192.116 194.594C192.194 194.544 192.26 194.476 192.307 194.395C192.354 194.315 192.381 194.224 192.386 194.131V193.784C192.38 193.691 192.353 193.601 192.306 193.52C192.259 193.44 192.194 193.372 192.116 193.321L150.905 169.521C150.823 169.479 150.732 169.457 150.639 169.457C150.547 169.457 150.456 169.479 150.374 169.521L119.18 187.522C119.102 187.573 119.037 187.641 118.991 187.722C118.945 187.802 118.918 187.892 118.914 187.985V188.332C118.919 188.425 118.946 188.515 118.992 188.595C119.039 188.675 119.103 188.744 119.18 188.795L160.39 212.587C160.473 212.631 160.564 212.654 160.657 212.656C160.75 212.657 160.842 212.637 160.926 212.596Z" fill="#FAFAFA"/>
<path d="M192.185 193.364C192.262 193.445 192.241 193.553 192.121 193.621L160.927 211.623C160.845 211.667 160.753 211.689 160.661 211.687V212.651C160.755 212.653 160.848 212.631 160.931 212.587L192.121 194.586C192.2 194.536 192.265 194.468 192.312 194.387C192.359 194.307 192.386 194.216 192.391 194.123V193.775C192.386 193.697 192.365 193.619 192.33 193.549C192.295 193.478 192.245 193.415 192.185 193.364Z" fill="#F0F0F0"/>
<path d="M119.124 187.565L119.051 187.638L119.021 187.681C118.991 187.725 118.966 187.773 118.944 187.822C118.932 187.854 118.924 187.887 118.918 187.921C118.916 187.943 118.916 187.966 118.918 187.989V188.332C118.923 188.425 118.95 188.515 118.996 188.596C119.042 188.676 119.106 188.744 119.184 188.795L160.395 212.591C160.477 212.635 160.568 212.657 160.661 212.656V211.696C160.567 211.698 160.474 211.675 160.391 211.631L119.163 187.839C119.056 187.766 119.034 187.655 119.124 187.565Z" fill="#E0E0E0"/>
<path d="M129.754 183.219V183.888C129.769 184.223 129.892 184.545 130.105 184.805L148.484 174.201V173.532C147.93 173.245 147.317 173.091 146.692 173.082H146.667C146.246 173.079 145.83 173.165 145.445 173.335C144.112 173.94 143.731 174.132 142.908 174.475C142.7 174.55 142.478 174.572 142.26 174.541C142.042 174.509 141.834 174.425 141.656 174.295L141.631 174.274L141.078 173.768L139.59 172.388C139.496 172.303 139.384 172.239 139.263 172.2C139.142 172.162 139.014 172.15 138.888 172.165H138.849C138.731 172.167 138.614 172.179 138.497 172.199C137.992 172.28 137.477 172.28 136.972 172.199C136.371 172.142 135.798 171.923 135.313 171.565C134.594 170.961 133.68 170.639 132.741 170.661H132.668C132.073 170.659 131.485 170.799 130.954 171.068C130.062 171.535 129.668 172.302 129.844 173.052C129.786 173.369 129.816 173.695 129.928 173.997C130.04 174.299 130.232 174.565 130.483 174.767C130.708 174.972 130.859 175.246 130.911 175.547C130.868 175.859 130.744 176.155 130.551 176.404C130.436 176.519 130.365 176.671 130.35 176.833C130.35 176.991 130.35 177.403 130.35 177.501C130.35 177.566 130.365 177.629 130.393 177.687C130.421 177.745 130.462 177.796 130.513 177.836L132.227 179.413L132.776 179.919L132.836 179.983C132.798 180.046 132.755 180.107 132.707 180.163L130.487 181.899C130.278 182.054 130.105 182.253 129.979 182.48C129.852 182.708 129.776 182.96 129.754 183.219ZM134.661 173.138C134.539 173.439 134.308 173.682 134.014 173.82C133.411 174.109 132.718 174.149 132.086 173.931C131.815 173.839 131.565 173.694 131.353 173.502C131.194 173.363 131.071 173.186 130.997 172.988C131.121 172.688 131.352 172.444 131.644 172.302C131.727 172.258 131.813 172.221 131.901 172.191C132.305 172.051 132.738 172.017 133.159 172.092C133.58 172.167 133.975 172.349 134.306 172.619C134.465 172.76 134.588 172.938 134.661 173.138Z" fill="#37474F"/>
<path d="M146.692 173.082H146.667C146.246 173.079 145.83 173.165 145.445 173.335C144.112 173.94 143.731 174.132 142.908 174.475C142.7 174.55 142.478 174.572 142.26 174.541C142.041 174.509 141.834 174.425 141.656 174.295L141.63 174.274L141.078 173.768L139.59 172.388C139.496 172.303 139.384 172.239 139.263 172.2C139.142 172.162 139.014 172.15 138.887 172.165H138.849C138.731 172.167 138.613 172.179 138.497 172.199C137.992 172.28 137.477 172.28 136.972 172.199C136.371 172.142 135.798 171.923 135.313 171.565C134.594 170.961 133.68 170.639 132.741 170.661H132.668C132.073 170.659 131.485 170.799 130.954 171.068C129.629 171.767 129.415 173.121 130.482 174.098C131.155 174.715 130.958 175.898 130.534 176.404C130.11 176.91 130.5 177.184 130.5 177.184L132.214 178.766L132.763 179.267C133.191 179.644 132.694 180.18 132.694 180.18L130.474 181.916C129.514 182.773 129.565 183.485 130.067 184.166L148.445 173.558C147.905 173.268 147.305 173.105 146.692 173.082ZM134.306 171.955C134.957 172.555 134.833 173.391 134.014 173.82C133.411 174.109 132.718 174.149 132.085 173.931C131.814 173.839 131.565 173.694 131.352 173.502C130.697 172.902 130.825 172.067 131.644 171.638C131.727 171.594 131.813 171.556 131.901 171.522C132.305 171.383 132.739 171.35 133.16 171.425C133.581 171.501 133.975 171.684 134.306 171.955Z" fill="#455A64"/>
<path opacity="0.1" d="M133.367 193.043L143.122 198.67C143.219 198.721 143.327 198.748 143.437 198.748C143.546 198.748 143.655 198.721 143.752 198.67L157.214 190.9C157.39 190.797 157.39 190.634 157.214 190.535L147.451 184.903C147.352 184.855 147.244 184.829 147.133 184.829C147.023 184.829 146.915 184.855 146.816 184.903L133.354 192.674C133.317 192.69 133.285 192.716 133.264 192.75C133.242 192.783 133.231 192.823 133.233 192.863C133.234 192.903 133.248 192.942 133.272 192.974C133.296 193.006 133.329 193.03 133.367 193.043Z" fill="#407BFF"/>
<path d="M143.439 197.14L136.02 192.858L136.535 192.562L143.95 196.849L143.439 197.14Z" fill="#407BFF"/>
<path d="M143.837 197.505L144.579 197.076L144.806 197.209L144.065 197.637L143.837 197.505Z" fill="#455A64"/>
<path d="M144.412 196.579L138.476 193.154L138.99 192.858L144.922 196.287L144.412 196.579Z" fill="#407BFF"/>
<path d="M144.811 196.943L145.552 196.514L145.779 196.647L145.038 197.076L144.811 196.943Z" fill="#455A64"/>
<path d="M145.895 195.726L139.448 192.001L139.963 191.705L146.405 195.43L145.895 195.726Z" fill="#407BFF"/>
<path d="M146.294 196.086L147.035 195.657L147.262 195.79L146.521 196.219L146.294 196.086Z" fill="#455A64"/>
<path d="M146.868 195.16L141.536 192.083L142.046 191.787L147.378 194.869L146.868 195.16Z" fill="#407BFF"/>
<path d="M147.266 195.524L148.008 195.096L148.239 195.229L147.493 195.653L147.266 195.524Z" fill="#455A64"/>
<path d="M148.355 194.307L145.38 192.588L145.891 192.292L148.865 194.011L148.355 194.307Z" fill="#407BFF"/>
<path d="M148.75 194.671L149.491 194.243L149.719 194.371L148.977 194.8L148.75 194.671Z" fill="#455A64"/>
<path d="M149.328 193.746L145.951 191.795L146.461 191.5L149.838 193.45L149.328 193.746Z" fill="#407BFF"/>
<path d="M149.723 194.105L150.464 193.681L150.691 193.81L149.95 194.238L149.723 194.105Z" fill="#455A64"/>
<path d="M150.811 192.888L146.74 190.54L147.254 190.244L151.321 192.593L150.811 192.888Z" fill="#407BFF"/>
<path d="M151.214 193.248L151.955 192.82L152.187 192.948L151.441 193.377L151.214 193.248Z" fill="#455A64"/>
<path d="M151.784 192.327L149.135 190.797L149.646 190.501L152.294 192.031L151.784 192.327Z" fill="#407BFF"/>
<path d="M152.191 192.687L152.928 192.258L153.16 192.387L152.418 192.815L152.191 192.687Z" fill="#455A64"/>
<path d="M153.267 191.47L152.11 190.801L152.62 190.505L153.777 191.174L153.267 191.47Z" fill="#407BFF"/>
<path d="M143.439 197.14L136.02 192.858L136.535 192.562L143.95 196.849L143.439 197.14Z" fill="#407BFF"/>
<path d="M145.895 195.726L139.448 192.001L139.963 191.705L146.405 195.43L145.895 195.726Z" fill="#407BFF"/>
<path d="M148.355 194.307L145.38 192.588L145.891 192.292L148.865 194.011L148.355 194.307Z" fill="#407BFF"/>
<path d="M150.811 192.888L146.74 190.54L147.254 190.244L151.321 192.593L150.811 192.888Z" fill="#407BFF"/>
<path d="M153.267 191.47L152.11 190.801L152.62 190.505L153.777 191.174L153.267 191.47Z" fill="#407BFF"/>
<path d="M153.67 191.83L154.411 191.401L154.643 191.53L153.897 191.958L153.67 191.83Z" fill="#455A64"/>
<path d="M154.24 190.908L153.665 190.574L154.176 190.278L154.75 190.612L154.24 190.908Z" fill="#407BFF"/>
<path d="M154.643 191.264L155.384 190.84L155.611 190.968L154.87 191.397L154.643 191.264Z" fill="#455A64"/>
<path d="M143.177 188.427L142.62 188.748L143.177 189.069L143.734 188.748L143.177 188.427Z" fill="#407BFF"/>
<path opacity="0.25" d="M143.177 188.427L142.62 188.748L143.177 189.069L143.734 188.748L143.177 188.427Z" fill="black"/>
<path d="M147.562 185.984L143.594 188.281C143.512 188.328 143.512 188.401 143.594 188.448L143.701 188.508C143.746 188.531 143.796 188.543 143.846 188.543C143.897 188.543 143.947 188.531 143.992 188.508L147.97 186.215C147.986 186.208 148.001 186.197 148.011 186.182C148.021 186.167 148.026 186.149 148.026 186.131C148.026 186.113 148.021 186.096 148.011 186.081C148.001 186.066 147.986 186.054 147.97 186.048L147.862 185.984C147.816 185.959 147.765 185.946 147.712 185.946C147.66 185.946 147.609 185.959 147.562 185.984Z" fill="#455A64"/>
<path d="M144.104 188.962L143.551 189.28L144.108 189.601L144.661 189.28L144.104 188.962Z" fill="#407BFF"/>
<path d="M148.488 186.519L144.51 188.816C144.494 188.823 144.479 188.835 144.469 188.85C144.459 188.864 144.454 188.882 144.454 188.9C144.454 188.918 144.459 188.936 144.469 188.95C144.479 188.965 144.494 188.977 144.51 188.984L144.622 189.044C144.667 189.067 144.717 189.079 144.768 189.079C144.818 189.079 144.868 189.067 144.913 189.044L148.887 186.751C148.968 186.703 148.968 186.626 148.887 186.583L148.779 186.519C148.734 186.496 148.684 186.484 148.634 186.484C148.583 186.484 148.533 186.496 148.488 186.519Z" fill="#455A64"/>
<path d="M143.439 197.14L136.02 192.858L136.535 192.562L143.95 196.849L143.439 197.14Z" fill="#407BFF"/>
<path d="M145.895 195.726L139.448 192.001L139.963 191.705L146.405 195.43L145.895 195.726Z" fill="#407BFF"/>
<path d="M148.355 194.307L145.38 192.588L145.891 192.292L148.865 194.011L148.355 194.307Z" fill="#407BFF"/>
<path d="M150.811 192.888L146.74 190.54L147.254 190.244L151.321 192.593L150.811 192.888Z" fill="#407BFF"/>
<path d="M143.439 197.14L136.02 192.858L136.535 192.562L143.95 196.849L143.439 197.14Z" fill="#407BFF"/>
<path d="M145.895 195.726L139.448 192.001L139.963 191.705L146.405 195.43L145.895 195.726Z" fill="#407BFF"/>
<path d="M148.355 194.307L145.38 192.588L145.891 192.292L148.865 194.011L148.355 194.307Z" fill="#407BFF"/>
<path d="M150.811 192.888L146.74 190.54L147.254 190.244L151.321 192.593L150.811 192.888Z" fill="#407BFF"/>
<path d="M153.267 191.47L152.11 190.801L152.62 190.505L153.777 191.174L153.267 191.47Z" fill="#407BFF"/>
<path opacity="0.25" d="M143.439 197.14L136.02 192.858L136.535 192.562L143.95 196.849L143.439 197.14Z" fill="black"/>
<path opacity="0.25" d="M145.895 195.726L139.448 192.001L139.963 191.705L146.405 195.43L145.895 195.726Z" fill="black"/>
<path opacity="0.25" d="M148.355 194.307L145.38 192.588L145.891 192.292L148.865 194.011L148.355 194.307Z" fill="black"/>
<path opacity="0.25" d="M150.811 192.888L146.74 190.54L147.254 190.244L151.321 192.593L150.811 192.888Z" fill="black"/>
<path opacity="0.25" d="M153.267 191.47L152.11 190.801L152.62 190.505L153.777 191.174L153.267 191.47Z" fill="black"/>
<path opacity="0.1" d="M147.074 200.951L159.932 208.365C160.061 208.431 160.205 208.465 160.35 208.465C160.495 208.465 160.638 208.431 160.768 208.365L174.024 200.711C174.074 200.693 174.118 200.66 174.148 200.616C174.179 200.573 174.195 200.521 174.195 200.468C174.195 200.415 174.179 200.364 174.148 200.32C174.118 200.277 174.074 200.244 174.024 200.226L161.166 192.811C161.037 192.746 160.895 192.712 160.75 192.712C160.606 192.712 160.464 192.746 160.335 192.811L147.074 200.471C147.023 200.487 146.979 200.519 146.948 200.563C146.917 200.606 146.9 200.657 146.9 200.711C146.9 200.764 146.917 200.815 146.948 200.859C146.979 200.902 147.023 200.934 147.074 200.951Z" fill="#407BFF"/>
<path d="M149.345 200.286L148.613 200.71L149.345 201.135L150.078 200.71L149.345 200.286Z" fill="#407BFF"/>
<path d="M152.234 198.833L149.817 200.23C149.753 200.265 149.753 200.325 149.817 200.363L150.014 200.479C150.05 200.496 150.09 200.504 150.13 200.504C150.17 200.504 150.209 200.496 150.245 200.479L152.663 199.082C152.727 199.043 152.727 198.987 152.663 198.949L152.466 198.833C152.429 198.816 152.39 198.807 152.35 198.807C152.31 198.807 152.27 198.816 152.234 198.833Z" fill="#455A64"/>
<path d="M153.494 197.89L152.761 198.31L153.494 198.734L154.227 198.31L153.494 197.89Z" fill="#407BFF"/>
<path opacity="0.25" d="M153.494 197.89L152.761 198.31L153.494 198.734L154.227 198.31L153.494 197.89Z" fill="black"/>
<path d="M156.426 196.442L154.009 197.852C153.944 197.89 153.944 197.946 154.009 197.985L154.21 198.1C154.246 198.117 154.284 198.126 154.324 198.126C154.363 198.126 154.402 198.117 154.437 198.1L156.855 196.703C156.919 196.669 156.919 196.609 156.855 196.57L156.658 196.454C156.622 196.435 156.583 196.425 156.543 196.422C156.503 196.42 156.463 196.427 156.426 196.442Z" fill="#455A64"/>
<path d="M157.643 195.49L156.91 195.914L157.647 196.334L158.376 195.914L157.643 195.49Z" fill="#407BFF"/>
<path opacity="0.4" d="M157.643 195.49L156.91 195.914L157.647 196.334L158.376 195.914L157.643 195.49Z" fill="black"/>
<path d="M160.622 194.054L158.201 195.447C158.136 195.486 158.136 195.546 158.201 195.58L158.402 195.696C158.438 195.712 158.476 195.721 158.516 195.721C158.555 195.721 158.594 195.712 158.629 195.696L161.051 194.298C161.064 194.293 161.075 194.283 161.082 194.271C161.09 194.26 161.094 194.246 161.094 194.232C161.094 194.218 161.09 194.204 161.082 194.192C161.075 194.181 161.064 194.171 161.051 194.165L160.849 194.054C160.815 194.035 160.776 194.025 160.736 194.025C160.696 194.025 160.657 194.035 160.622 194.054Z" fill="#455A64"/>
<path d="M165.264 198.563C165.202 198.529 165.138 198.501 165.071 198.477L164.904 198.405C164.46 198.234 164.001 198.105 163.533 198.019L163.078 197.937C162.771 197.893 162.462 197.866 162.152 197.856C161.994 197.856 161.835 197.856 161.681 197.856C161.527 197.856 161.432 197.856 161.304 197.856L160.995 197.877L160.541 197.92L160.279 197.963L160.117 197.989L159.885 198.036C159.606 198.096 159.341 198.165 159.084 198.246L158.809 198.345C158.698 198.381 158.59 198.424 158.484 198.473C158.378 198.515 158.274 198.563 158.175 198.619L157.879 198.773C155.736 200.02 155.736 202.043 157.879 203.291C160.022 204.538 163.537 204.534 165.697 203.291C167.857 202.048 167.84 200.025 165.697 198.782C165.557 198.701 165.412 198.628 165.264 198.563ZM164.835 202.802C163.957 203.276 162.975 203.524 161.977 203.526C161.93 203.526 161.87 203.526 161.814 203.526H161.638H161.475C160.514 203.512 159.57 203.266 158.724 202.811C157.035 201.833 157.035 200.239 158.724 199.279C158.916 199.171 159.115 199.075 159.319 198.992C159.478 198.927 159.645 198.872 159.812 198.82L160.069 198.752L160.284 198.705C160.371 198.683 160.46 198.666 160.549 198.653L160.785 198.619H160.858L161.197 198.589H161.257C161.375 198.58 161.494 198.58 161.612 198.589C161.711 198.583 161.81 198.583 161.908 198.589C162.322 198.593 162.736 198.635 163.142 198.713C163.743 198.817 164.323 199.02 164.857 199.313C166.528 200.252 166.528 201.829 164.844 202.802H164.835Z" fill="#407BFF"/>
<path opacity="0.25" d="M163.532 198.019L163.151 198.674C162.744 198.596 162.331 198.554 161.916 198.55C161.818 198.544 161.719 198.544 161.621 198.55C161.502 198.541 161.383 198.541 161.265 198.55H161.205C161.094 198.55 160.978 198.55 160.866 198.58H160.794L160.558 198.614C160.468 198.627 160.38 198.644 160.292 198.666L160.078 198.713L159.821 198.782C159.653 198.833 159.486 198.889 159.328 198.953C159.122 199.034 158.923 199.13 158.732 199.24L157.875 198.747L158.17 198.593C158.27 198.538 158.373 198.489 158.479 198.447C158.585 198.399 158.694 198.356 158.805 198.319L159.079 198.22C159.336 198.139 159.602 198.07 159.881 198.01L160.112 197.963L160.275 197.937L160.536 197.894L160.991 197.852L161.299 197.83C161.428 197.83 161.548 197.83 161.676 197.83C161.805 197.83 161.989 197.83 162.148 197.83C162.461 197.83 162.769 197.873 163.074 197.912L163.532 198.019Z" fill="black"/>
<path opacity="0.4" d="M165.697 198.786L164.84 199.275C164.305 198.981 163.726 198.778 163.125 198.675L163.507 198.019C163.975 198.105 164.434 198.234 164.878 198.405L165.045 198.477C165.112 198.501 165.176 198.529 165.238 198.563C165.395 198.629 165.548 198.703 165.697 198.786Z" fill="black"/>
<path d="M128.712 189.357C128.834 189.281 128.967 189.225 129.106 189.189C129.246 189.151 129.39 189.132 129.535 189.134C129.68 189.135 129.824 189.157 129.963 189.198C130.113 189.247 130.257 189.313 130.392 189.395C130.545 189.472 130.679 189.584 130.782 189.721C130.815 189.766 130.835 189.819 130.842 189.874C130.849 189.93 130.841 189.986 130.821 190.038L132.106 190.359C132.123 190.363 132.14 190.37 132.154 190.381C132.179 190.381 132.192 190.407 132.196 190.424C132.201 190.441 132.196 190.454 132.175 190.467L131.785 190.694C131.749 190.715 131.707 190.724 131.665 190.72H131.558L130.413 190.428L130.148 190.582L130.971 191.058C131.001 191.058 131.018 191.092 131.022 191.114C131.024 191.124 131.023 191.135 131.018 191.144C131.013 191.153 131.006 191.161 130.996 191.165L130.619 191.384C130.591 191.391 130.561 191.391 130.533 191.384C130.499 191.381 130.465 191.371 130.435 191.354L127.945 189.918C127.923 189.904 127.905 189.885 127.893 189.862C127.891 189.852 127.893 189.842 127.897 189.832C127.902 189.823 127.909 189.815 127.919 189.811L128.712 189.357ZM129.569 190.214L129.899 190.025C129.963 189.994 130.013 189.938 130.036 189.871C130.036 189.819 129.998 189.759 129.89 189.699C129.801 189.641 129.697 189.611 129.59 189.614C129.497 189.621 129.406 189.649 129.325 189.695L128.999 189.884L129.569 190.214Z" fill="#455A64"/>
<path d="M133.534 188.975C133.562 188.968 133.592 188.968 133.62 188.975C133.654 188.978 133.688 188.988 133.718 189.005L134.125 189.241C134.155 189.241 134.173 189.275 134.177 189.297C134.179 189.307 134.177 189.317 134.173 189.327C134.168 189.336 134.16 189.344 134.151 189.348L132.78 190.137C132.752 190.145 132.722 190.145 132.694 190.137C132.661 190.134 132.628 190.124 132.6 190.107L130.109 188.667C130.097 188.662 130.086 188.655 130.077 188.645C130.068 188.635 130.061 188.624 130.058 188.611C130.056 188.601 130.058 188.591 130.062 188.583C130.067 188.574 130.075 188.568 130.084 188.564L131.429 187.784C131.457 187.775 131.487 187.775 131.515 187.784C131.55 187.786 131.583 187.797 131.614 187.814L132.021 188.049C132.044 188.061 132.063 188.081 132.072 188.105C132.075 188.115 132.074 188.125 132.069 188.134C132.064 188.143 132.056 188.149 132.047 188.152L131.155 188.667L131.584 188.907L132.411 188.431C132.439 188.422 132.469 188.422 132.497 188.431C132.531 188.434 132.565 188.444 132.595 188.461L133.002 188.697C133.015 188.701 133.026 188.708 133.035 188.718C133.044 188.728 133.05 188.74 133.054 188.752C133.054 188.774 133.054 188.787 133.028 188.8L132.201 189.28L132.63 189.528L133.534 188.975Z" fill="#455A64"/>
<path d="M132.913 186.931C133.034 186.858 133.166 186.803 133.303 186.768C133.443 186.732 133.587 186.716 133.731 186.721C133.877 186.728 134.02 186.752 134.16 186.793C134.317 186.839 134.468 186.904 134.61 186.986C134.735 187.057 134.849 187.145 134.949 187.248C135.017 187.317 135.059 187.408 135.069 187.505C135.071 187.593 135.042 187.68 134.987 187.749C134.911 187.84 134.817 187.916 134.713 187.972L134.344 188.186L135.129 188.641C135.159 188.641 135.176 188.675 135.18 188.696C135.183 188.706 135.182 188.716 135.177 188.725C135.172 188.734 135.164 188.741 135.154 188.744L134.777 188.967C134.749 188.972 134.72 188.972 134.691 188.967C134.657 188.963 134.623 188.953 134.593 188.937L132.103 187.496C132.091 187.491 132.081 187.483 132.073 187.474C132.065 187.464 132.059 187.453 132.055 187.441C132.055 187.441 132.055 187.406 132.077 187.394L132.913 186.931ZM133.748 187.839L134.104 187.634C134.137 187.619 134.166 187.597 134.189 187.57C134.212 187.542 134.229 187.51 134.237 187.475C134.237 187.421 134.186 187.361 134.083 187.295C133.988 187.238 133.88 187.208 133.77 187.209C133.674 187.208 133.579 187.234 133.496 187.282L133.14 187.488L133.748 187.839Z" fill="#455A64"/>
<path d="M135.077 186.841C134.952 186.767 134.839 186.675 134.742 186.566C134.668 186.485 134.617 186.386 134.592 186.279C134.577 186.18 134.597 186.078 134.648 185.992C134.72 185.878 134.823 185.786 134.944 185.726C135.086 185.644 135.241 185.586 135.403 185.555C135.568 185.525 135.736 185.515 135.904 185.525C136.076 185.534 136.246 185.564 136.41 185.615C136.576 185.662 136.737 185.727 136.89 185.808L137.241 186.005L137.576 186.206C137.7 186.281 137.813 186.373 137.91 186.481C137.989 186.563 138.043 186.665 138.068 186.776C138.084 186.876 138.064 186.977 138.013 187.064C137.938 187.176 137.837 187.267 137.717 187.329C137.574 187.41 137.419 187.468 137.258 187.501C137.093 187.532 136.925 187.542 136.757 187.531C136.585 187.522 136.415 187.492 136.251 187.441C136.086 187.391 135.925 187.327 135.771 187.248L135.428 187.055C135.295 186.978 135.184 186.909 135.077 186.841ZM137.014 186.493L136.864 186.403L136.693 186.301L136.521 186.202L136.367 186.121C136.3 186.086 136.229 186.057 136.157 186.035C136.088 186.014 136.018 186 135.947 185.992C135.879 185.983 135.809 185.983 135.741 185.992C135.675 186.004 135.611 186.027 135.553 186.061C135.502 186.086 135.459 186.125 135.428 186.172C135.414 186.209 135.414 186.251 135.428 186.288C135.443 186.334 135.467 186.377 135.501 186.412C135.545 186.457 135.594 186.498 135.647 186.532L135.788 186.622L135.96 186.721L136.135 186.819L136.294 186.905C136.428 186.973 136.573 187.016 136.723 187.034C136.859 187.049 136.997 187.02 137.117 186.952C137.237 186.884 137.284 186.806 137.258 186.725C137.203 186.625 137.117 186.544 137.014 186.493Z" fill="#455A64"/>
<path d="M137.22 184.445C137.342 184.37 137.475 184.313 137.614 184.278C137.754 184.239 137.898 184.22 138.043 184.222C138.188 184.224 138.332 184.245 138.471 184.286C138.621 184.336 138.765 184.402 138.9 184.483C139.053 184.56 139.187 184.672 139.29 184.809C139.323 184.854 139.343 184.907 139.35 184.963C139.357 185.018 139.35 185.074 139.329 185.126L140.614 185.448C140.633 185.451 140.65 185.459 140.666 185.469C140.692 185.469 140.704 185.495 140.709 185.512C140.713 185.529 140.709 185.542 140.687 185.555L140.297 185.782C140.261 185.803 140.219 185.811 140.177 185.808H140.07L138.921 185.516L138.656 185.67L139.483 186.146C139.506 186.158 139.525 186.178 139.534 186.202C139.536 186.212 139.535 186.223 139.53 186.232C139.526 186.241 139.518 186.249 139.509 186.253L139.131 186.472C139.104 186.481 139.074 186.481 139.046 186.472C139.011 186.469 138.977 186.459 138.947 186.442L136.461 184.993C136.431 184.993 136.414 184.959 136.41 184.938C136.408 184.927 136.409 184.917 136.414 184.907C136.419 184.898 136.426 184.891 136.435 184.886L137.22 184.445ZM138.077 185.302L138.403 185.113C138.468 185.084 138.519 185.03 138.544 184.963C138.544 184.908 138.506 184.848 138.398 184.788C138.309 184.73 138.205 184.7 138.098 184.702C138.005 184.709 137.914 184.737 137.833 184.783L137.507 184.972L138.077 185.302Z" fill="#455A64"/>
<path d="M139.98 182.85C140.008 182.843 140.038 182.843 140.066 182.85C140.1 182.853 140.134 182.863 140.164 182.88L140.572 183.116C140.602 183.116 140.619 183.15 140.623 183.172C140.625 183.182 140.624 183.193 140.619 183.202C140.614 183.211 140.607 183.219 140.597 183.223L140.087 183.515L142.067 184.659C142.079 184.664 142.089 184.672 142.097 184.682C142.105 184.691 142.111 184.703 142.115 184.715C142.115 184.715 142.115 184.749 142.093 184.762L141.712 184.981C141.684 184.99 141.654 184.99 141.626 184.981C141.593 184.981 141.56 184.972 141.532 184.955L139.551 183.81L139.046 184.106C139.018 184.115 138.988 184.115 138.96 184.106C138.925 184.103 138.892 184.093 138.861 184.076L138.433 183.84C138.403 183.84 138.386 183.806 138.381 183.785C138.377 183.763 138.381 183.75 138.407 183.738L139.98 182.85Z" fill="#455A64"/>
<path d="M143.996 183.129L156.546 175.886L153.858 174.334L141.309 181.577L143.996 183.129Z" fill="#407BFF"/>
<g opacity="0.3">
<path d="M150.271 184.385C150.243 184.392 150.214 184.394 150.185 184.39C150.156 184.386 150.129 184.376 150.104 184.361C150.078 184.347 150.057 184.327 150.039 184.304C150.021 184.281 150.009 184.254 150.001 184.226C149.994 184.198 149.992 184.169 149.996 184.14C150 184.111 150.01 184.083 150.025 184.058C150.039 184.033 150.059 184.011 150.082 183.994C150.105 183.976 150.132 183.963 150.16 183.956L160.549 177.956C160.574 177.941 160.602 177.932 160.631 177.928C160.659 177.925 160.688 177.927 160.716 177.934C160.744 177.942 160.77 177.955 160.793 177.972C160.816 177.99 160.835 178.012 160.849 178.037C160.864 178.062 160.873 178.09 160.877 178.118C160.88 178.147 160.878 178.176 160.871 178.204C160.863 178.232 160.85 178.258 160.833 178.281C160.815 178.304 160.793 178.323 160.768 178.337L150.383 184.338C150.35 184.362 150.312 184.378 150.271 184.385Z" fill="#455A64"/>
<path d="M152.063 185.422C152.007 185.436 151.946 185.427 151.896 185.397C151.846 185.367 151.81 185.318 151.796 185.261C151.781 185.204 151.79 185.144 151.82 185.094C151.851 185.044 151.899 185.008 151.956 184.993L162.341 178.993C162.391 178.972 162.447 178.97 162.498 178.987C162.549 179.004 162.592 179.039 162.62 179.086C162.647 179.133 162.656 179.188 162.646 179.241C162.636 179.294 162.607 179.341 162.564 179.374L152.175 185.375C152.143 185.401 152.104 185.418 152.063 185.422Z" fill="#455A64"/>
<path d="M153.881 186.459C153.826 186.467 153.771 186.454 153.726 186.424C153.68 186.394 153.647 186.348 153.634 186.295C153.62 186.242 153.626 186.185 153.651 186.137C153.676 186.088 153.718 186.05 153.769 186.031L164.154 180.03C164.205 180.001 164.266 179.993 164.323 180.008C164.38 180.023 164.429 180.06 164.459 180.112C164.487 180.162 164.494 180.222 164.479 180.278C164.464 180.334 164.427 180.382 164.377 180.412L153.988 186.412C153.956 186.436 153.919 186.452 153.881 186.459Z" fill="#455A64"/>
<path d="M155.651 187.492C155.594 187.507 155.533 187.499 155.483 187.469C155.432 187.439 155.395 187.39 155.381 187.334C155.366 187.277 155.374 187.216 155.404 187.166C155.434 187.115 155.482 187.078 155.539 187.064L165.929 181.063C165.954 181.049 165.981 181.039 166.01 181.036C166.039 181.032 166.068 181.034 166.095 181.042C166.123 181.049 166.149 181.062 166.172 181.08C166.195 181.097 166.214 181.119 166.229 181.144C166.243 181.17 166.252 181.197 166.256 181.226C166.26 181.254 166.258 181.283 166.25 181.311C166.242 181.339 166.229 181.365 166.212 181.388C166.194 181.411 166.172 181.43 166.147 181.444L155.762 187.445C155.73 187.471 155.691 187.487 155.651 187.492Z" fill="#455A64"/>
<path d="M157.442 188.529C157.403 188.528 157.365 188.518 157.331 188.498C157.297 188.479 157.269 188.451 157.249 188.418C157.221 188.366 157.213 188.306 157.228 188.249C157.244 188.193 157.28 188.144 157.33 188.114L167.72 182.113C167.745 182.099 167.773 182.089 167.801 182.086C167.83 182.082 167.859 182.084 167.887 182.092C167.915 182.099 167.941 182.112 167.964 182.13C167.986 182.148 168.006 182.169 168.02 182.195C168.034 182.22 168.044 182.247 168.047 182.276C168.051 182.304 168.049 182.334 168.041 182.361C168.034 182.389 168.021 182.415 168.003 182.438C167.986 182.461 167.964 182.48 167.938 182.495L157.553 188.495C157.519 188.515 157.481 188.527 157.442 188.529Z" fill="#455A64"/>
</g>
<g opacity="0.3">
<path d="M164.621 192.665C164.582 192.665 164.544 192.654 164.51 192.634C164.476 192.615 164.448 192.587 164.428 192.554C164.413 192.529 164.404 192.501 164.4 192.473C164.396 192.444 164.398 192.415 164.406 192.387C164.414 192.359 164.427 192.333 164.444 192.31C164.462 192.287 164.484 192.268 164.509 192.254L174.899 186.253C174.949 186.224 175.009 186.217 175.066 186.232C175.122 186.247 175.17 186.284 175.199 186.335C175.228 186.385 175.236 186.446 175.22 186.502C175.205 186.558 175.168 186.606 175.117 186.635L164.728 192.635C164.695 192.654 164.658 192.664 164.621 192.665Z" fill="#455A64"/>
<path d="M166.413 193.698C166.385 193.706 166.355 193.707 166.326 193.703C166.298 193.699 166.27 193.69 166.245 193.675C166.22 193.66 166.198 193.641 166.18 193.618C166.163 193.594 166.15 193.568 166.143 193.54C166.135 193.512 166.134 193.482 166.138 193.454C166.142 193.425 166.151 193.397 166.166 193.372C166.181 193.347 166.2 193.325 166.223 193.307C166.247 193.29 166.273 193.277 166.301 193.27L176.691 187.269C176.716 187.255 176.743 187.246 176.772 187.242C176.801 187.238 176.83 187.24 176.858 187.248C176.885 187.255 176.912 187.268 176.934 187.286C176.957 187.304 176.976 187.326 176.991 187.351C177.005 187.376 177.014 187.403 177.018 187.432C177.022 187.461 177.02 187.49 177.012 187.518C177.005 187.546 176.992 187.572 176.974 187.594C176.956 187.617 176.934 187.636 176.909 187.651L166.524 193.651C166.493 193.678 166.454 193.694 166.413 193.698Z" fill="#455A64"/>
<path d="M168.204 194.736C168.166 194.735 168.128 194.724 168.095 194.705C168.062 194.685 168.035 194.657 168.016 194.624C168 194.599 167.991 194.572 167.986 194.543C167.982 194.514 167.984 194.485 167.992 194.457C167.999 194.429 168.013 194.402 168.031 194.38C168.049 194.357 168.071 194.338 168.097 194.324L178.482 188.324C178.532 188.303 178.588 188.301 178.639 188.318C178.69 188.335 178.733 188.37 178.76 188.417C178.788 188.463 178.797 188.518 178.787 188.571C178.777 188.624 178.748 188.672 178.705 188.705L168.316 194.706C168.281 194.724 168.243 194.734 168.204 194.736Z" fill="#455A64"/>
<path d="M170 195.769C169.96 195.77 169.922 195.76 169.888 195.74C169.854 195.72 169.826 195.692 169.807 195.657C169.792 195.632 169.783 195.605 169.779 195.576C169.775 195.547 169.777 195.518 169.785 195.49C169.793 195.462 169.806 195.436 169.823 195.413C169.841 195.39 169.863 195.371 169.888 195.357L180.273 189.357C180.299 189.337 180.328 189.323 180.358 189.316C180.389 189.308 180.421 189.308 180.453 189.314C180.484 189.32 180.513 189.332 180.539 189.351C180.565 189.369 180.587 189.393 180.603 189.42C180.619 189.447 180.629 189.478 180.632 189.51C180.635 189.541 180.632 189.573 180.622 189.603C180.612 189.633 180.595 189.661 180.574 189.684C180.552 189.708 180.526 189.726 180.496 189.738L170.107 195.739C170.075 195.758 170.038 195.769 170 195.769Z" fill="#455A64"/>
<path d="M171.791 196.806C171.752 196.805 171.714 196.794 171.68 196.775C171.647 196.755 171.619 196.728 171.598 196.694C171.584 196.669 171.574 196.642 171.571 196.613C171.567 196.584 171.569 196.555 171.576 196.527C171.584 196.499 171.597 196.473 171.615 196.451C171.633 196.428 171.655 196.409 171.68 196.394L182.065 190.394C182.116 190.364 182.177 190.356 182.234 190.372C182.291 190.387 182.34 190.424 182.369 190.475C182.384 190.5 182.393 190.528 182.397 190.557C182.401 190.585 182.399 190.614 182.391 190.642C182.384 190.67 182.371 190.696 182.353 190.719C182.335 190.742 182.313 190.761 182.288 190.775L171.903 196.776C171.868 196.794 171.83 196.804 171.791 196.806Z" fill="#455A64"/>
<path d="M173.596 197.852C173.558 197.852 173.521 197.842 173.488 197.823C173.454 197.804 173.427 197.777 173.407 197.744C173.378 197.693 173.37 197.632 173.385 197.575C173.4 197.518 173.438 197.47 173.489 197.44L183.874 191.44C183.924 191.419 183.98 191.417 184.031 191.434C184.082 191.451 184.125 191.486 184.152 191.533C184.18 191.579 184.189 191.634 184.179 191.687C184.169 191.74 184.14 191.788 184.097 191.821L173.707 197.822C173.673 197.84 173.635 197.85 173.596 197.852Z" fill="#455A64"/>
</g>
<path d="M225.256 103.798L214.819 107.433L214.528 107.908L224.454 123.643L234.338 119.185L234.634 118.709L225.256 103.798Z" fill="#37474F"/>
<path d="M225.552 103.322L214.82 107.433L224.75 123.167L234.634 118.709L225.552 103.322Z" fill="#455A64"/>
<path d="M225.633 104.895L216.517 108.671L224.776 121.534L233.185 117.466L225.633 104.895Z" fill="#F0F0F0"/>
<path opacity="0.15" d="M223.636 106.258L223.126 105.701C222.843 105.384 222.016 105.354 221.274 105.628L219.856 106.13C219.118 106.408 218.746 106.888 219.028 107.201L219.538 107.771L223.636 106.258Z" fill="black"/>
<path d="M222.242 104.115C222.126 104.015 221.984 103.949 221.833 103.926C221.681 103.902 221.526 103.922 221.385 103.982L220.841 104.205C220.841 104.205 219.735 102.971 218.411 103.348C217.086 103.725 218.226 105.14 218.226 105.14L217.652 105.388C217.335 105.525 217.223 105.791 217.365 105.988L217.652 106.344L222.572 104.462L222.242 104.115Z" fill="#407BFF"/>
<path opacity="0.15" d="M222.242 104.115C222.126 104.015 221.984 103.949 221.833 103.926C221.681 103.902 221.526 103.922 221.385 103.982L220.841 104.205C220.841 104.205 219.735 102.971 218.411 103.348C217.086 103.725 218.226 105.14 218.226 105.14L217.652 105.388C217.335 105.525 217.223 105.791 217.365 105.988L217.652 106.344L222.572 104.462L222.242 104.115Z" fill="black"/>
<path d="M221.973 104.707C221.505 104.865 221.295 104.955 221.728 105.444C222.161 105.932 222.624 106.408 222.624 106.408L220.447 107.244C220.447 107.244 219.834 106.541 219.589 106.267C219.496 106.126 219.359 106.019 219.2 105.963C219.041 105.907 218.868 105.903 218.707 105.954L218.424 105.735L221.891 104.479L221.973 104.707Z" fill="#407BFF"/>
<path opacity="0.4" d="M221.973 104.707C221.505 104.865 221.295 104.955 221.728 105.444C222.161 105.932 222.624 106.408 222.624 106.408L220.447 107.244C220.447 107.244 219.834 106.541 219.589 106.267C219.496 106.126 219.359 106.019 219.2 105.963C219.041 105.907 218.868 105.903 218.707 105.954L218.424 105.735L221.891 104.479L221.973 104.707Z" fill="black"/>
<path d="M223.782 106.314L223.272 105.744C222.989 105.427 222.161 105.397 221.42 105.671L220.001 106.198C219.264 106.477 218.891 106.957 219.174 107.27L219.68 107.84L223.782 106.314Z" fill="#407BFF"/>
<path opacity="0.15" d="M223.782 106.314L223.272 105.744C222.989 105.427 222.161 105.397 221.42 105.671L220.001 106.198C219.264 106.477 218.891 106.957 219.174 107.27L219.68 107.84L223.782 106.314Z" fill="black"/>
<path d="M230.425 111.406C230.425 111.406 230.571 109.61 229.996 109.044C229.422 108.478 227.236 108.778 226.139 108.401C224.939 107.998 225.226 109.306 225.83 109.687C227.108 110.458 229.598 110.651 230.425 111.406Z" fill="#B16668"/>
<path d="M249.888 165.222C250.205 165.342 250.385 165.937 250.527 167.39C250.612 168.29 250.921 169.482 249.545 170.211C249.042 170.47 248.484 170.602 247.919 170.596C247.353 170.59 246.798 170.446 246.301 170.176C245.113 169.439 244.74 167.755 243.348 166.662C242.126 165.706 240.159 164.746 239.49 163.267C238.924 162.046 238.924 160.301 240.952 160.396C243.425 160.511 244.809 162.457 246.498 162.496C247.415 162.517 249.571 165.106 249.888 165.222Z" fill="#263238"/>
<path d="M249.888 164.506V165.972C249.888 166.688 246.841 167.759 245.988 166.122C245.924 165.98 245.594 163.979 245.594 163.979L249.888 164.506Z" fill="#B16668"/>
<path d="M236.833 173.159C236.833 173.159 237.369 173.159 237.583 175.35C237.664 176.185 237.862 177.9 237.583 178.521C237.304 179.143 235.744 179.421 234.03 179.571C232.744 179.687 231.57 180.313 230.37 180.99C229.234 181.629 227.96 181.979 226.658 182.01H226.576C225.461 182.045 224.349 181.853 223.31 181.444C222.496 181.102 221.596 180.553 221.334 179.644C221.297 179.524 221.282 179.397 221.292 179.271C221.328 179.052 221.446 178.855 221.622 178.719C221.796 178.584 221.988 178.473 222.192 178.388C223.366 177.831 224.553 177.296 225.711 176.708C226.868 176.121 227.956 175.551 229.037 174.895C229.572 174.565 230.095 174.218 230.601 173.841C230.82 173.678 231.06 173.52 231.274 173.352C231.39 173.262 231.608 172.868 231.771 172.877L236.833 173.159Z" fill="#263238"/>
<path d="M236.695 171.535C236.695 171.535 236.695 172.637 236.695 173.25C236.695 173.862 235.958 174.818 234.021 174.763C232.658 174.72 231.702 174.36 231.754 173.25V171.647L236.695 171.535Z" fill="#B16668"/>
<path d="M250.745 146.535C250.431 144.129 249.881 141.761 249.104 139.463C249.104 139.463 249.558 133.351 249.759 127.556C249.937 121.619 249.772 115.678 249.266 109.76C249.266 109.76 229.581 107.896 229.255 115.126C228.929 122.357 229.315 140.29 229.315 143.77C229.315 146.955 229.705 150.122 230.283 156.041C230.836 161.716 231.689 172.157 231.689 172.157C234.004 173.391 236.833 172.024 236.833 172.024C236.833 172.024 238.431 157.597 238.838 153.949C239.123 151.333 238.856 148.686 238.054 146.179C238.054 146.179 238.286 143.401 239.014 137.255C239.529 132.913 239.957 127.732 239.957 127.732C239.957 127.732 240.347 134.778 240.754 138.19C241.136 141.353 241.59 142.617 242.803 148.819C243.982 154.82 245.345 164.806 245.345 164.806C247.659 166.04 249.944 164.579 249.944 164.579C249.944 164.579 251.371 150.971 250.745 146.535Z" fill="#37474F"/>
<path d="M239.948 127.731L240.887 121.688C240.887 121.688 244.719 120.471 246.669 118.191C246.669 118.191 245.627 120.848 242.057 122.275L240.626 127.363L240.231 132.078L239.948 127.731Z" fill="#263238"/>
<path d="M245.195 85.5094C248.268 84.7679 250.205 86.2551 251.341 90.4298C252.31 94.0087 253.733 101.415 254.286 104.184C254.491 105.208 254.894 106.383 252.738 107.677C249.613 109.485 246.387 111.115 243.078 112.559L241.899 108.144L246.661 98.3976L245.195 85.5094Z" fill="#37474F"/>
<path d="M236.717 83.5633L237.634 90.0224L244.003 89.6967L243.446 82.1489L236.717 83.5633Z" fill="#B16668"/>
<path d="M232.542 75.5913C232.542 75.5913 230.987 77.8758 231.154 78.1072C231.321 78.3387 232.44 78.5358 232.44 78.5358L232.542 75.5913Z" fill="#9A4A4D"/>
<path d="M233.056 77.0829C232.681 77.0769 232.316 76.9597 232.007 76.7462C231.698 76.5326 231.459 76.2322 231.321 75.8831C231.183 75.5339 231.151 75.1516 231.231 74.7845C231.31 74.4174 231.496 74.082 231.765 73.8207C232.035 73.5594 232.376 73.384 232.746 73.3165C233.115 73.2491 233.496 73.2927 233.841 73.4418C234.185 73.591 234.478 73.839 234.682 74.1544C234.885 74.4699 234.991 74.8387 234.985 75.2141C234.976 75.7174 234.768 76.1965 234.407 76.5468C234.045 76.897 233.56 77.0897 233.056 77.0829ZM233.108 73.7097C232.816 73.7055 232.53 73.7879 232.285 73.9463C232.04 74.1048 231.848 74.3323 231.733 74.6001C231.617 74.8678 231.584 75.1638 231.636 75.4506C231.689 75.7374 231.826 76.0021 232.029 76.2113C232.232 76.4205 232.493 76.5647 232.778 76.6257C233.063 76.6868 233.36 76.6619 233.631 76.5542C233.902 76.4466 234.135 76.261 234.3 76.0209C234.466 75.7809 234.557 75.4971 234.561 75.2056C234.565 74.8149 234.415 74.4382 234.143 74.1579C233.871 73.8776 233.499 73.7165 233.108 73.7097Z" fill="#263238"/>
<path d="M236.876 69.2693C233.781 69.8694 232.873 71.2109 232.504 76.1013C232.118 81.2103 232.616 82.8262 233.276 83.5248C233.704 83.9963 236.242 84.1206 237.519 83.7906C239.118 83.362 242.735 82.1619 244.462 79.6159C246.49 76.6157 247.077 72.5225 244.981 70.808C242.032 68.3864 238.132 69.0207 236.876 69.2693Z" fill="#B16668"/>
<path d="M236.764 83.9191C235.435 84.0648 233.648 83.9191 233.275 83.5205C234.409 83.5133 235.531 83.2937 236.584 82.8733L236.764 83.9191Z" fill="#9A4A4D"/>
<path d="M231.925 70.8038C231.925 70.8681 231.925 70.9324 231.947 70.9924C232.002 71.2259 232.107 71.4447 232.255 71.6334C232.403 71.8222 232.59 71.9764 232.804 72.0853C233.119 72.2555 233.467 72.3535 233.824 72.3725C233.953 72.3725 234.857 72.4196 234.891 72.3168C234.722 72.6303 234.608 72.9712 234.557 73.324C234.553 73.5019 234.596 73.6776 234.681 73.8339C234.766 73.9902 234.89 74.1218 235.041 74.2155C235.233 74.2852 235.418 74.3728 235.594 74.477C235.881 74.7127 235.77 75.2527 235.894 75.5656C235.933 75.6685 236.64 76.6071 236.674 76.4828C236.674 76.4828 237.214 74.5112 238.877 74.7684C240.54 75.0256 240.746 77.19 239.67 78.4716C238.594 79.7531 237.613 79.2431 237.613 79.2431C237.613 79.2431 237.613 82.0676 238.847 83.692C238.847 83.692 240.266 84.1763 242.898 83.6577C244.514 83.3406 246.824 81.3604 247.814 79.2431C249.914 74.7598 250.12 70.7052 247.257 69.4408C246.862 66.492 243.656 65.6219 241.136 65.5448C239.503 65.4976 237.857 65.6605 236.233 65.4548C235.461 65.3428 234.695 65.1897 233.94 64.9962C233.472 64.8496 232.979 64.7972 232.491 64.8419C232.01 64.9539 231.578 65.2185 231.26 65.5963C230.941 65.974 230.754 66.4446 230.725 66.9377C230.688 67.4521 230.779 67.9676 230.991 68.4379C231.217 68.9195 231.575 69.3269 232.024 69.6123C232.051 69.6267 232.074 69.6491 232.088 69.6766C232.097 69.7089 232.097 69.7428 232.088 69.7751C231.982 70.1077 231.927 70.4546 231.925 70.8038Z" fill="#263238"/>
<path d="M247.029 69.805L248.89 68.7463C248.824 68.6166 248.733 68.5016 248.622 68.4082C248.511 68.3148 248.382 68.2449 248.243 68.203C248.103 68.161 247.957 68.1477 247.813 68.164C247.669 68.1802 247.529 68.2256 247.403 68.2975C247.277 68.3693 247.166 68.4661 247.079 68.5819C246.991 68.6977 246.928 68.8301 246.893 68.9711C246.858 69.1122 246.852 69.2588 246.875 69.4021C246.899 69.5455 246.951 69.6825 247.029 69.805Z" fill="#263238"/>
<path d="M236.627 77.5886L236.717 75.4455C236.433 75.4336 236.155 75.535 235.946 75.7275C235.737 75.9201 235.612 76.1879 235.6 76.472C235.588 76.7562 235.69 77.0335 235.882 77.2429C236.075 77.4523 236.343 77.5766 236.627 77.5886Z" fill="#263238"/>
<path d="M231.372 74.7598L237.09 75.5913L236.854 75.9899L231.364 75.1927L231.372 74.7598Z" fill="#263238"/>
<path d="M249.863 88.9038C249.185 86.2507 248.23 85.385 245.919 85.325C244.728 85.4053 243.543 85.557 242.371 85.7793C242.13 86.8979 239.233 87.6609 236.301 87.0651C235.444 87.318 233.125 87.9437 232.401 88.2095C230.327 88.9595 229.324 91.1154 229.187 97.9474C229.187 97.9474 228.788 114.157 229.187 116.956C234.416 118.996 239.842 118.902 242.838 118.242C249.074 116.845 249.811 114.252 249.811 114.252C249.811 114.252 249.485 107.745 249.275 102.799C249.584 99.649 250.055 97.2788 250.227 94.7672C250.38 92.8053 250.257 90.8317 249.863 88.9038Z" fill="#455A64"/>
<path d="M208.647 93.85C208.836 93.9829 210.229 95.1358 210.838 95.693C210.838 95.693 212.055 90.4126 212.055 90.4083C212.055 90.404 211.493 89.8854 211.442 89.8254C211.243 89.6109 211.058 89.3832 210.889 89.1439C210.535 88.5643 210.232 87.9548 209.985 87.3223C209.682 86.6347 209.297 85.9857 208.84 85.3893C208.395 84.7835 207.947 84.1806 207.499 83.5806C207.425 83.4544 207.314 83.3541 207.182 83.2934C207.067 83.2655 206.946 83.2801 206.841 83.3345C206.736 83.3888 206.655 83.4793 206.612 83.5891C206.53 83.8128 206.512 84.0546 206.56 84.2878C206.628 84.7563 206.745 85.2161 206.912 85.6593C207.01 85.9208 207.297 86.568 206.702 86.5165C206.514 86.4732 206.345 86.3728 206.217 86.2294C205.494 85.5539 204.818 84.8293 204.194 84.0606C203.999 83.7931 203.769 83.5536 203.508 83.3491C203.376 83.2501 203.222 83.1834 203.059 83.1544C202.896 83.1254 202.728 83.1348 202.57 83.182C202.384 83.2844 202.222 83.4241 202.093 83.5922C201.964 83.7604 201.871 83.9534 201.82 84.1592C201.593 84.6465 201.448 85.1678 201.391 85.7022C201.384 86.0438 201.428 86.3846 201.52 86.7137C201.884 88.0173 202.572 89.2073 203.521 90.1726C204.26 91.0046 205.115 91.7263 206.059 92.3156C206.269 92.4442 206.663 92.6671 207.053 92.9114C207.632 93.2414 207.983 93.3914 208.647 93.85Z" fill="#B16668"/>
<path d="M220.52 96.5803L211.151 89.7226L209.321 94.2915C209.321 94.2915 215.591 100.249 218.63 102.838C219.916 103.974 221.335 103.721 222.719 103.044C225.102 101.878 231.184 97.1632 231.184 97.1632C231.184 97.1632 234.433 91.5056 232.401 88.2139C231.333 88.4207 230.334 88.8923 229.495 89.5854C228.042 90.8069 220.7 96.5589 220.7 96.5589" fill="#B16668"/>
<path d="M232.799 88.0681C231.788 88.0197 230.784 88.2621 229.906 88.7667C228.839 89.371 220.7 96.3702 220.7 96.3702L214.112 91.7069C212.291 92.1613 211.065 94.5486 210.893 96.1816C210.893 96.1816 214.421 99.4476 216.517 101.569C219.946 105.028 220.73 104.595 222.624 103.609C224.519 102.624 231.458 97.5574 231.458 97.5574C231.458 97.5574 233.58 95.9802 233.982 94.1972C235.093 89.2767 232.799 88.0681 232.799 88.0681Z" fill="#37474F"/>
<path opacity="0.1" d="M220.7 96.3702C219.865 97.0293 219.249 97.9259 218.934 98.9418C218.901 98.3905 218.994 97.8389 219.205 97.3287C219.417 96.8185 219.742 96.3632 220.156 95.9973L220.7 96.3702Z" fill="black"/>
<path d="M214.112 91.707L212.466 90.5283C211.616 90.9919 210.884 91.6426 210.323 92.4313C209.792 93.1082 209.442 93.9092 209.307 94.7587L210.88 96.1816C211.55 94.4347 212.664 92.8925 214.112 91.707Z" fill="#263238"/>
<path d="M210.028 94.7244C210.049 94.7805 210.086 94.8291 210.134 94.8641C210.183 94.8991 210.241 94.9191 210.301 94.9214C210.36 94.9237 210.42 94.9083 210.471 94.8771C210.522 94.846 210.563 94.8004 210.588 94.7462C210.613 94.6919 210.622 94.6314 210.613 94.5721C210.604 94.5129 210.578 94.4576 210.538 94.4132C210.498 94.3688 210.446 94.3372 210.388 94.3224C210.33 94.3076 210.268 94.3103 210.212 94.3301C210.174 94.3435 210.138 94.3644 210.108 94.3916C210.078 94.4188 210.054 94.4517 210.037 94.4884C210.02 94.5252 210.01 94.565 210.008 94.6055C210.007 94.646 210.013 94.6864 210.028 94.7244Z" fill="#407BFF"/>
<path d="M243.583 83.9748L243.626 84.5962C242.913 85.3069 241.993 85.7735 240.999 85.9292C238.037 86.4778 237 85.5563 237 85.5563L236.923 85.0249C236.923 85.0249 236.64 84.9091 236.16 85.2777C235.428 86.0356 234.742 86.8371 234.107 87.6779C234.107 87.6779 234.673 87.5151 236.524 88.3037C238.373 89.0222 240.409 89.0977 242.306 88.518C243.789 88.0251 244.903 86.5636 244.981 86.0235C245.058 85.4835 244.093 83.7519 243.583 83.9748Z" fill="#263238"/>
<rect x="0.5" y="0.5" width="339" height="239" rx="11.5" stroke="#B5B5B5"/>
</svg>
