<svg width="78" height="62" viewBox="0 0 78 62" fill="none" xmlns="http://www.w3.org/2000/svg">
<path d="M22.3413 47.6347C20.5864 47.5841 18.8825 48.2182 17.6032 49.3976C16.3238 50.5774 15.5731 52.206 15.5156 53.9276C15.5009 54.0662 15.5009 54.2064 15.5156 54.345C15.4359 56.0654 16.0561 57.7467 17.2398 59.0187C18.4235 60.2903 20.0738 61.0489 21.8275 61.1276H22.3413C24.0949 61.182 25.7987 60.5513 27.0786 59.374C28.3584 58.1968 29.1096 56.5694 29.167 54.849C29.167 54.6765 29.167 54.518 29.167 54.345C29.2064 53.4937 29.0737 52.6429 28.7766 51.8417C28.4795 51.0406 28.0238 50.3049 27.4358 49.6772C26.8479 49.0495 26.1391 48.542 25.3504 48.1842C24.5618 47.8263 23.7087 47.6249 22.8404 47.5913H22.356L22.3413 47.6347ZM22.356 59.1114C21.2086 59.0553 20.129 58.561 19.3477 57.7348C18.5664 56.9086 18.1451 55.8155 18.1739 54.6888C18.2026 53.5621 18.679 52.4911 19.5015 51.7045C20.324 50.9174 21.4273 50.4771 22.5762 50.4771C23.7251 50.4771 24.8284 50.9174 25.6509 51.7045C26.4733 52.4911 26.9498 53.5621 26.9785 54.6888C27.0072 55.8155 26.586 56.9086 25.8047 57.7348C25.0233 58.561 23.9438 59.0553 22.7964 59.1114H22.356Z" fill="#9C9C9C"/>
<path d="M43.3468 47.8662L39.6476 56.6212L35.9485 47.8662H32.7925V60.9702H35.1412V51.2501L39.2366 60.9702H40.0586L44.1392 51.2501V60.9702H46.5029V47.8662H43.3468Z" fill="#9C9C9C"/>
<path d="M9.54116 53.2229H2.37783V47.8662H0.0291939V60.9702H2.37783V55.2536H9.54116V60.9702H11.8751V47.8662H9.54116V53.2229Z" fill="#9C9C9C"/>
<path d="M51.5821 60.9702H60.7273V58.9256H53.9164V55.3109H60.5804V53.2807H53.9164V49.8824H60.7273V47.8662H51.5821V60.9702Z" fill="#9C9C9C"/>
<path d="M68.0078 51.3218C68.0078 50.3426 68.8885 49.6945 70.2684 49.6945C71.6968 49.6665 73.0809 50.1824 74.1289 51.1344L75.4798 49.4208C74.1047 48.2028 72.2955 47.5665 70.4447 47.6498C67.5087 47.6498 65.5713 49.3201 65.5713 51.4799C65.5713 56.3186 73.366 54.605 73.366 57.3551C73.366 58.2192 72.6026 59.141 70.6795 59.141C69.8876 59.1359 69.1047 58.974 68.3782 58.665C67.6516 58.3556 66.9966 57.9051 66.452 57.3411L65.1601 59.0976C65.8607 59.8027 66.7055 60.3535 67.6395 60.7135C68.5736 61.0735 69.5748 61.2345 70.5768 61.1857C74.1878 61.1857 75.7436 59.3135 75.7436 57.1392C75.7436 52.2432 67.9787 53.7554 67.9787 51.3792" fill="#9C9C9C"/>
<path d="M19.538 29.1307C19.6094 27.0561 18.8402 25.0384 17.3986 23.519C15.957 21.9995 13.9606 21.1022 11.8462 21.0234C11.5527 21.0234 11.2444 21.0234 10.9508 21.0234H-0.0143852V46.1801H5.43154V37.2091H10.9068C11.9614 37.2853 13.021 37.1558 14.0242 36.8279C15.0275 36.4999 15.9545 35.9802 16.7517 35.2985C17.5489 34.6169 18.2004 33.7871 18.6686 32.8569C19.1368 31.9267 19.4123 30.9147 19.4793 29.8794C19.494 29.6108 19.494 29.3416 19.4793 29.073L19.538 29.1307ZM10.2609 32.5146H5.47556V25.7322H10.2609C10.7149 25.7029 11.1703 25.7616 11.6011 25.9049C12.0319 26.0483 12.4298 26.2735 12.772 26.5677C13.1141 26.8618 13.3938 27.2193 13.5951 27.6195C13.7965 28.0197 13.9154 28.4549 13.9453 28.9002C13.9752 29.3456 13.9154 29.7923 13.7693 30.215C13.6231 30.6376 13.3936 31.0279 13.0937 31.3636C12.7938 31.6992 12.4295 31.9736 12.0215 32.1711C11.6136 32.3686 11.1699 32.4853 10.716 32.5146C10.5646 32.5291 10.4122 32.5291 10.2609 32.5146Z" fill="#9C9C9C"/>
<path d="M32.793 27.1152V39.7728C32.3474 40.4375 31.7642 41.0027 31.0814 41.4319C30.3986 41.861 29.6315 42.1446 28.8297 42.264C26.8921 42.264 25.8939 41.2128 25.8939 38.9808V27.1152H20.9471V40.3776C20.9471 44.1217 23.0902 46.6271 26.9802 46.6271C29.1241 46.6742 31.2118 45.9522 32.8518 44.5968V46.1808H37.8867V27.1152H32.793Z" fill="#9C9C9C"/>
<path d="M75.0249 29.7504C74.1913 28.82 73.1598 28.08 72.0035 27.5824C70.8472 27.0848 69.5934 26.8418 68.331 26.8704C67.0711 26.8761 65.8247 27.1254 64.6628 27.6041C63.5013 28.0827 62.4472 28.7814 61.5608 29.6602C60.6748 30.5389 59.9739 31.5804 59.4982 32.7251C59.0229 33.8697 58.782 35.0952 58.7898 36.3312V36.7488C58.7162 37.978 58.8904 39.2094 59.3024 40.3726C59.7139 41.5358 60.3551 42.6081 61.1895 43.5278C62.0239 44.448 63.0347 45.1977 64.1641 45.7344C65.294 46.2712 66.5205 46.5844 67.7734 46.6558H68.6394C71.4429 46.7731 74.187 45.8415 76.3163 44.0497L74.1146 40.752V40.824C72.7712 41.9764 71.0551 42.6243 69.2706 42.6528C68.0303 42.7378 66.8034 42.3587 65.8364 41.5919C64.8694 40.8251 64.2347 39.7275 64.0597 38.52H77.6671V37.368C77.7685 34.6465 76.8609 31.9812 75.1128 29.8656L75.0249 29.7504ZM72.8669 35.0496H63.8981C63.9761 33.9571 64.4743 32.9345 65.2918 32.1886C66.1098 31.4427 67.1855 31.0293 68.3019 31.032C69.4266 31.0007 70.5184 31.4044 71.3424 32.1561C72.1664 32.9077 72.6559 33.947 72.7053 35.0496" fill="#9C9C9C"/>
<path d="M41.4974 19.785V46.1945H46.5029V17.481L41.4974 19.785Z" fill="#9C9C9C"/>
<path d="M58.085 41.7889C57.6102 42.096 57.0543 42.2612 56.485 42.2641C55.5016 42.2641 54.8557 41.5009 54.8557 40.3345V31.4209H58.4229V27.1009H54.8557V21.3409L49.8943 19.0801V41.6161C49.8943 44.8561 51.7732 46.6271 55.1936 46.6271C56.631 46.7248 58.0586 46.3279 59.23 45.5042L58.085 41.7889Z" fill="#9C9C9C"/>
<path d="M64.0588 17.9273V12.5417H59.0533V15.6233L46.5025 9.86328L20.9319 21.5993V25.5737L46.5025 13.8377L75.9927 27.4025V23.4281L64.0588 17.9273Z" fill="#9C9C9C"/>
<path d="M46.5176 9.86451L59.0385 15.6245V12.6005H64.0441V17.9717L71.0608 21.2405V20.9525C71.0573 15.6745 69.0142 10.594 65.3425 6.73592C61.6709 2.87784 56.6445 0.529229 51.2771 0.163831C45.9098 -0.201567 40.6007 1.44344 36.4211 4.76706C32.2415 8.09065 29.5023 12.8455 28.7559 18.0725L43.2588 11.4341L46.5176 9.86451Z" fill="#9C9C9C"/>
<path d="M76.5568 16.5484L76.0659 17.9032H75.884L75.3931 16.5518V17.9032H75.0777V16.0566H75.4702L75.9749 17.4287L76.4797 16.0566H76.8722V17.9032H76.5568V16.5484ZM74.8009 16.3352H74.2853V17.9032H73.9665V16.3352H73.4479V16.0566H74.8009V16.3352Z" fill="#9C9C9C"/>
</svg>
