<svg width="340" height="240" viewBox="0 0 340 240" fill="none" xmlns="http://www.w3.org/2000/svg">
<path d="M282.318 38.8909H132.497V139.236H282.318V38.8909Z" fill="#FAFAFA"/>
<path d="M282.318 38.8909H132.497V48.9131H282.318V38.8909Z" fill="#EBEBEB"/>
<path d="M138.988 43.9041C139.009 44.1505 138.955 44.3973 138.833 44.6124C138.711 44.8274 138.527 45.0007 138.305 45.1096C138.083 45.2185 137.834 45.2579 137.589 45.2227C137.344 45.1875 137.116 45.0793 136.934 44.9123C136.751 44.7452 136.624 44.5271 136.567 44.2864C136.511 44.0457 136.529 43.7936 136.618 43.5631C136.707 43.3325 136.864 43.1343 137.068 42.9942C137.271 42.8541 137.512 42.7787 137.76 42.7778C137.914 42.7701 138.069 42.7932 138.215 42.8458C138.361 42.8984 138.495 42.9795 138.609 43.0843C138.724 43.189 138.816 43.3155 138.881 43.4562C138.946 43.5969 138.983 43.7492 138.988 43.9041Z" fill="#FAFAFA"/>
<path d="M142.892 43.9041C142.912 44.1505 142.858 44.3973 142.736 44.6124C142.614 44.8274 142.43 45.0007 142.208 45.1096C141.986 45.2185 141.737 45.2579 141.492 45.2227C141.247 45.1875 141.019 45.0793 140.837 44.9123C140.655 44.7452 140.527 44.5271 140.471 44.2864C140.414 44.0457 140.432 43.7936 140.521 43.5631C140.61 43.3325 140.767 43.1343 140.971 42.9942C141.174 42.8541 141.416 42.7787 141.663 42.7778C141.818 42.7701 141.973 42.7932 142.118 42.8458C142.264 42.8984 142.398 42.9795 142.513 43.0843C142.627 43.189 142.719 43.3155 142.784 43.4562C142.849 43.5969 142.886 43.7492 142.892 43.9041Z" fill="#FAFAFA"/>
<path d="M146.803 43.9041C146.824 44.1505 146.769 44.3973 146.648 44.6124C146.526 44.8274 146.342 45.0007 146.12 45.1096C145.898 45.2185 145.648 45.2579 145.404 45.2227C145.159 45.1875 144.931 45.0793 144.748 44.9123C144.566 44.7452 144.438 44.5271 144.382 44.2864C144.326 44.0457 144.343 43.7936 144.433 43.5631C144.522 43.3325 144.679 43.1343 144.882 42.9942C145.086 42.8541 145.327 42.7787 145.574 42.7778C145.729 42.7701 145.884 42.7932 146.03 42.8458C146.176 42.8984 146.31 42.9795 146.424 43.0843C146.538 43.189 146.631 43.3155 146.696 43.4562C146.761 43.5969 146.797 43.7492 146.803 43.9041Z" fill="#FAFAFA"/>
<path d="M269.257 152.322C261.426 146.854 259.653 136.701 259.96 127.575C260.013 126.052 259.845 124.446 260.57 123.107C261.295 121.768 262.986 120.858 264.35 121.502C265.481 122.034 265.989 123.349 266.607 124.438C267.453 125.889 268.691 127.072 270.179 127.85C271.149 128.354 272.349 128.669 273.308 128.132C274.622 127.408 274.778 125.593 274.766 124.078C274.749 121.252 274.732 118.427 274.713 115.604C274.713 114.088 274.713 112.544 275.171 111.098C275.63 109.653 276.683 108.326 278.124 107.924C279.566 107.523 281.348 108.334 281.655 109.833C281.712 110.46 281.725 111.091 281.696 111.721C281.741 112.348 282.032 113.044 282.63 113.22C283.228 113.396 283.858 112.966 284.292 112.524C285.857 110.996 286.918 109.022 287.909 107.064C288.9 105.106 289.863 103.095 291.284 101.428C292.705 99.7614 294.667 98.4385 296.834 98.3156C299 98.1927 301.318 99.5443 301.867 101.662C302.416 103.779 301.171 105.966 299.819 107.695C297.805 110.259 295.433 112.519 292.775 114.408C292.3 114.744 291.779 115.112 291.599 115.673C291.268 116.685 292.226 117.688 293.238 118.02C294.368 118.393 295.593 118.278 296.776 118.43C297.96 118.581 299.234 119.089 299.684 120.207C300.303 121.755 299.008 123.377 297.735 124.442C295.181 126.572 292.28 128.245 289.158 129.39C288.044 129.799 286.873 130.156 285.972 130.938C285.071 131.72 284.534 133.084 285.075 134.153C285.615 135.222 287.012 135.562 288.179 135.345C289.347 135.128 290.391 134.493 291.505 134.075C293.586 133.289 296.277 133.432 297.612 135.23C298.488 136.414 298.562 138.061 298.12 139.474C297.612 140.862 296.83 142.135 295.822 143.217C292.488 147.133 288.212 150.286 283.383 151.957C278.554 153.628 274.078 154.087 269.278 152.33" fill="#407BFF"/>
<path d="M269.138 159.1C269.555 154.868 270.378 150.686 271.596 146.612C273.111 141.641 274.91 136.76 276.986 131.995L278.595 128.235C279.128 127.006 279.652 125.777 280.234 124.614C281.369 122.383 282.627 120.215 284.002 118.122C285.3 116.116 286.602 114.256 287.835 112.528C289.068 110.799 290.256 109.218 291.399 107.818C293.198 105.594 295.172 103.516 297.301 101.604C298.05 100.933 298.648 100.425 299.058 100.089L299.525 99.7081L299.688 99.5852C299.645 99.6397 299.595 99.6891 299.541 99.7327L299.09 100.142C298.681 100.49 298.111 101.011 297.374 101.695C295.286 103.627 293.345 105.712 291.567 107.932C290.44 109.337 289.269 110.93 288.04 112.659C286.811 114.387 285.521 116.251 284.231 118.258C282.873 120.346 281.63 122.508 280.508 124.733C279.926 125.892 279.406 127.1 278.87 128.337L277.26 132.097C275.19 136.853 273.388 141.721 271.862 146.678C270.633 150.731 269.785 154.89 269.331 159.1" fill="#263238"/>
<path d="M280.336 124.598C280.266 124.387 280.217 124.171 280.189 123.951C280.111 123.541 280.017 122.923 279.91 122.169C279.693 120.658 279.468 118.565 279.23 116.255C278.993 113.945 278.739 111.86 278.501 110.361C278.386 109.612 278.284 109.001 278.21 108.584C278.159 108.369 278.13 108.149 278.124 107.928C278.212 108.132 278.277 108.345 278.317 108.563C278.423 108.973 278.554 109.579 278.694 110.328C278.98 111.823 279.267 113.912 279.513 116.226C279.759 118.54 279.951 120.568 280.107 122.14C280.184 122.853 280.25 123.455 280.299 123.934C280.337 124.153 280.35 124.376 280.336 124.598Z" fill="#263238"/>
<path d="M299.819 120.957C299.563 121.008 299.303 121.038 299.041 121.047C298.542 121.092 297.813 121.153 296.928 121.256C295.142 121.448 292.689 121.801 289.994 122.308C287.299 122.816 284.886 123.39 283.15 123.848C282.282 124.074 281.581 124.258 281.102 124.41C280.854 124.495 280.599 124.559 280.34 124.598C280.573 124.476 280.817 124.378 281.069 124.303C281.544 124.139 282.236 123.894 283.117 123.656C284.841 123.144 287.262 122.546 289.961 122.018C292.264 121.576 294.588 121.252 296.924 121.047C297.821 120.969 298.562 120.936 299.054 120.928C299.309 120.913 299.566 120.923 299.819 120.957Z" fill="#263238"/>
<path d="M271.854 146.244C271.854 146.244 271.796 146.166 271.719 146.006C271.641 145.847 271.518 145.597 271.387 145.302C271.1 144.687 270.707 143.791 270.236 142.672C269.298 140.444 268.098 137.319 266.816 133.854C265.534 130.389 264.359 127.256 263.474 125.012L262.413 122.349L262.126 121.624C262.088 121.541 262.061 121.453 262.044 121.362C262.098 121.435 262.143 121.515 262.176 121.6C262.266 121.792 262.376 122.009 262.511 122.304C262.798 122.919 263.187 123.816 263.658 124.934C264.596 127.166 265.8 130.287 267.078 133.756C268.356 137.225 269.536 140.35 270.42 142.599L271.485 145.257L271.768 145.982C271.808 146.065 271.837 146.153 271.854 146.244Z" fill="#263238"/>
<path d="M297.739 137.901C297.658 137.947 297.571 137.983 297.481 138.007L296.731 138.257L293.958 139.158C291.616 139.916 288.396 141.001 284.841 142.205C281.286 143.41 278.051 144.466 275.691 145.175C274.512 145.531 273.558 145.81 272.89 145.994L272.124 146.195C272.037 146.224 271.946 146.242 271.854 146.248C271.934 146.202 272.019 146.166 272.108 146.141L272.861 145.892L275.634 144.991C277.973 144.233 281.192 143.148 284.751 141.943C288.31 140.739 291.542 139.683 293.901 138.97C295.077 138.614 296.035 138.335 296.698 138.151L297.464 137.95C297.553 137.921 297.645 137.905 297.739 137.901Z" fill="#263238"/>
<path d="M97.5724 86.3441C97.5724 86.4342 96.9211 86.5038 96.1184 86.5038C95.3156 86.5038 94.6644 86.4342 94.6644 86.3441C94.6644 86.254 95.3156 86.1843 96.1184 86.1843C96.9211 86.1843 97.5724 86.258 97.5724 86.3441Z" fill="#263238"/>
<path d="M99.1124 82.3916C99.2025 82.3916 99.2762 83.051 99.2762 83.8661C99.2762 84.6811 99.2025 85.3405 99.1124 85.3405C99.0222 85.3405 98.9526 84.6811 98.9526 83.8661C98.9526 83.051 99.0263 82.3916 99.1124 82.3916Z" fill="#263238"/>
<path d="M100.759 86.2498C100.759 86.1597 101.406 86.0901 102.209 86.0901C103.011 86.0901 103.663 86.1597 103.663 86.2498C103.663 86.3399 103.011 86.4096 102.209 86.4096C101.406 86.4096 100.759 86.3399 100.759 86.2498Z" fill="#263238"/>
<path d="M99.2147 90.2021C99.1246 90.2021 99.055 89.5427 99.055 88.7276C99.055 87.9126 99.1246 87.2532 99.2147 87.2532C99.3049 87.2532 99.3745 87.9126 99.3745 88.7276C99.3745 89.5427 99.3049 90.2021 99.2147 90.2021Z" fill="#263238"/>
<path d="M101.562 88.5066C101.496 88.5639 101.209 88.3345 100.923 87.9905C100.636 87.6465 100.46 87.327 100.513 87.2697C100.566 87.2123 100.869 87.4458 101.152 87.7857C101.435 88.1257 101.631 88.4492 101.562 88.5066Z" fill="#263238"/>
<path d="M101.426 84.0258C101.492 84.0872 101.299 84.3821 101.017 84.6811C100.734 84.9801 100.431 85.1685 100.366 85.0907C100.3 85.0129 100.493 84.7344 100.775 84.4354C101.058 84.1364 101.365 83.9644 101.426 84.0258Z" fill="#263238"/>
<path d="M98.0966 85.1685C98.0393 85.2341 97.7649 85.0989 97.4823 84.8655C97.1996 84.632 97.0194 84.3863 97.0727 84.3166C97.1259 84.247 97.4044 84.3822 97.6829 84.6197C97.9615 84.8573 98.154 85.0989 98.0966 85.1685Z" fill="#263238"/>
<path d="M97.9655 87.1426C98.0311 87.204 97.8672 87.4907 97.5969 87.7856C97.3266 88.0805 97.0563 88.2689 96.9908 88.1952C96.9252 88.1214 97.0932 87.847 97.3594 87.5521C97.6256 87.2572 97.9 87.0811 97.9655 87.1426Z" fill="#263238"/>
<path d="M39.6383 129.959C39.3756 130.051 39.0958 130.083 38.8191 130.054C38.5425 130.084 38.2626 130.052 38 129.959C38.2636 129.872 38.5428 129.841 38.8191 129.869C39.0955 129.842 39.3746 129.872 39.6383 129.959Z" fill="#263238"/>
<path d="M40.4984 127.719C40.6185 128.27 40.6185 128.84 40.4984 129.39C40.3728 128.84 40.3728 128.269 40.4984 127.719Z" fill="#263238"/>
<path d="M41.4445 129.906C41.7083 129.819 41.9873 129.789 42.2636 129.816C42.54 129.788 42.8192 129.819 43.0828 129.906C42.8202 129.998 42.5403 130.031 42.2636 130C41.987 130.03 41.7072 129.998 41.4445 129.906Z" fill="#263238"/>
<path d="M40.5721 132.15C40.4814 131.888 40.4493 131.608 40.4779 131.331C40.447 131.048 40.4792 130.761 40.5721 130.492C40.6602 130.762 40.6909 131.048 40.6622 131.331C40.6887 131.608 40.658 131.887 40.5721 132.15Z" fill="#263238"/>
<path d="M41.9032 131.188C41.8664 131.221 41.7025 131.09 41.5387 130.897C41.3749 130.705 41.2766 130.52 41.3175 130.488C41.3585 130.455 41.5182 130.586 41.6821 130.778C41.8459 130.971 41.9401 131.155 41.9032 131.188Z" fill="#263238"/>
<path d="M41.8254 128.645C41.8623 128.678 41.7558 128.845 41.5879 129.017C41.4199 129.189 41.252 129.292 41.2192 129.259C41.1865 129.226 41.2889 129.058 41.4568 128.886C41.6247 128.714 41.7885 128.608 41.8254 128.645Z" fill="#263238"/>
<path d="M39.9373 129.292C39.9045 129.333 39.7489 129.255 39.5891 129.12C39.4294 128.985 39.3229 128.849 39.3557 128.808C39.3884 128.768 39.5441 128.849 39.7038 128.98C39.8635 129.112 39.9659 129.255 39.9373 129.292Z" fill="#263238"/>
<path d="M39.8595 130.43C39.9004 130.463 39.8062 130.627 39.6506 130.795C39.4949 130.963 39.3475 131.069 39.3106 131.037C39.2738 131.004 39.3639 130.84 39.5195 130.672C39.6752 130.504 39.8226 130.381 39.8595 130.43Z" fill="#263238"/>
<path d="M101.418 122.648L101.512 122.878C101.595 123.075 101.715 123.253 101.867 123.403C102.019 123.553 102.199 123.671 102.397 123.75L102.643 123.853L102.405 123.947C102.206 124.029 102.025 124.15 101.872 124.303C101.72 124.455 101.599 124.636 101.517 124.836L101.451 125.003L101.349 124.795C101.17 124.414 100.847 124.119 100.452 123.975L100.235 123.898L100.517 123.758C100.869 123.588 101.147 123.297 101.304 122.939L101.418 122.648Z" fill="#263238"/>
<path d="M57.3482 93.4419L57.4424 93.6713C57.5245 93.8675 57.6445 94.0457 57.7956 94.1954C57.9467 94.3451 58.126 94.4635 58.323 94.5436L58.5687 94.6419L58.3353 94.7402C58.135 94.821 57.953 94.9413 57.8003 95.094C57.6476 95.2467 57.5273 95.4287 57.4465 95.629L57.3769 95.7969L57.2786 95.5881C57.1896 95.399 57.0643 95.2293 56.9096 95.0887C56.755 94.9482 56.5742 94.8395 56.3775 94.7689L56.1646 94.6911L56.4431 94.5518C56.7958 94.3831 57.0752 94.092 57.2294 93.7327L57.3482 93.4419Z" fill="#263238"/>
<path d="M264.641 58.3086H111.912C108.616 58.3086 105.944 60.9803 105.944 64.2761V161.23C105.944 164.526 108.616 167.198 111.912 167.198H264.641C267.937 167.198 270.609 164.526 270.609 161.23V64.2761C270.609 60.9803 267.937 58.3086 264.641 58.3086Z" fill="#263238"/>
<path d="M99.0673 159.146H277.457V161.386C277.457 163.319 276.689 165.174 275.321 166.541C273.954 167.908 272.1 168.676 270.166 168.676H106.337C104.404 168.676 102.549 167.908 101.182 166.541C99.8149 165.174 99.0468 163.319 99.0468 161.386V159.146H99.0673Z" fill="#263238"/>
<path d="M265.727 62.6377H110.363V154.595H265.727V62.6377Z" fill="#455A64"/>
<path d="M172.041 159.146L174.257 162.668H205.405L207.461 159.146H172.041Z" fill="#455A64"/>
<path d="M261.504 65.7505H114.901C114.162 65.7505 113.562 66.3501 113.562 67.0898V152.961C113.562 153.7 114.162 154.3 114.901 154.3H261.504C262.244 154.3 262.843 153.7 262.843 152.961V67.0898C262.843 66.3501 262.244 65.7505 261.504 65.7505Z" fill="#EBEBEB"/>
<path d="M262.843 72.2383H113.562V154.3H262.843V72.2383Z" fill="#FAFAFA"/>
<path d="M125.808 69.1706C125.808 69.4071 125.738 69.6383 125.607 69.835C125.475 70.0317 125.289 70.185 125.07 70.2755C124.851 70.366 124.611 70.3897 124.379 70.3435C124.147 70.2974 123.934 70.1835 123.767 70.0162C123.599 69.849 123.486 69.6359 123.439 69.4039C123.393 69.1719 123.417 68.9314 123.507 68.7129C123.598 68.4944 123.751 68.3076 123.948 68.1762C124.145 68.0448 124.376 67.9746 124.612 67.9746C124.93 67.9746 125.234 68.1006 125.458 68.3249C125.682 68.5492 125.808 68.8534 125.808 69.1706Z" fill="#263238"/>
<path d="M118.579 69.1706C118.579 69.4061 118.508 69.6361 118.376 69.8316C118.245 70.0271 118.059 70.1792 117.841 70.2688C117.623 70.3584 117.383 70.3814 117.152 70.3349C116.922 70.2885 116.71 70.1746 116.543 70.0078C116.377 69.8409 116.264 69.6286 116.218 69.3975C116.173 69.1664 116.196 68.927 116.287 68.7094C116.377 68.4919 116.53 68.306 116.726 68.1752C116.922 68.0444 117.152 67.9746 117.387 67.9746C117.544 67.9746 117.7 68.0056 117.845 68.0657C117.989 68.1259 118.121 68.214 118.232 68.3251C118.342 68.4363 118.43 68.5681 118.49 68.7132C118.549 68.8583 118.58 69.0137 118.579 69.1706Z" fill="#263238"/>
<path d="M122.048 69.1706C122.048 69.4061 121.977 69.6361 121.846 69.8316C121.714 70.0271 121.528 70.1792 121.31 70.2688C121.092 70.3584 120.852 70.3814 120.622 70.3349C120.391 70.2885 120.179 70.1746 120.012 70.0078C119.846 69.8409 119.733 69.6286 119.687 69.3975C119.642 69.1664 119.665 68.927 119.756 68.7094C119.846 68.4919 119.999 68.306 120.195 68.1752C120.391 68.0444 120.621 67.9746 120.857 67.9746C121.013 67.9746 121.169 68.0056 121.314 68.0657C121.458 68.1259 121.59 68.214 121.701 68.3251C121.812 68.4363 121.899 68.5681 121.959 68.7132C122.019 68.8583 122.049 69.0137 122.048 69.1706Z" fill="#263238"/>
<path d="M269.192 159.145C269.192 159.207 232.645 159.252 187.572 159.252C142.498 159.252 105.944 159.207 105.944 159.145C105.944 159.084 142.482 159.039 187.572 159.039C232.662 159.039 269.192 159.1 269.192 159.145Z" fill="#455A64"/>
<path d="M157.972 113.576H123.908V115.854H157.972V113.576Z" fill="#EF0627"/>
<path d="M201.972 81.9368H167.908V84.214H201.972V81.9368Z" fill="#EF0627"/>
<path d="M252.657 90.4231C252.657 90.4805 233.686 90.5296 210.295 90.5296C186.904 90.5296 167.925 90.4805 167.925 90.4231C167.925 90.3658 186.892 90.3167 210.295 90.3167C233.698 90.3167 252.657 90.3658 252.657 90.4231Z" fill="#EF0627"/>
<path d="M252.657 95.3995C252.657 95.4568 233.686 95.5059 210.295 95.5059C186.904 95.5059 167.925 95.4568 167.925 95.3995C167.925 95.3421 186.892 95.293 210.295 95.293C233.698 95.293 252.657 95.3421 252.657 95.3995Z" fill="#EF0627"/>
<path d="M252.657 100.376C252.657 100.433 233.686 100.482 210.295 100.482C186.904 100.482 167.925 100.433 167.925 100.376C167.925 100.318 186.892 100.269 210.295 100.269C233.698 100.269 252.657 100.314 252.657 100.376Z" fill="#EF0627"/>
<path d="M252.657 105.352C252.657 105.409 233.686 105.459 210.295 105.459C186.904 105.459 167.925 105.409 167.925 105.352C167.925 105.295 186.892 105.246 210.295 105.246C233.698 105.246 252.657 105.291 252.657 105.352Z" fill="#EF0627"/>
<path d="M252.657 110.328C252.657 110.386 233.686 110.435 210.295 110.435C186.904 110.435 167.925 110.386 167.925 110.328C167.925 110.271 186.892 110.222 210.295 110.222C233.698 110.222 252.657 110.267 252.657 110.328Z" fill="#EF0627"/>
<path d="M200.985 115.305C200.985 115.362 193.58 115.411 184.447 115.411C175.313 115.411 167.908 115.362 167.908 115.305C167.908 115.247 175.313 115.198 184.447 115.198C193.58 115.198 200.985 115.243 200.985 115.305Z" fill="#EF0627"/>
<path d="M252.022 124.962C252.022 125.02 239.551 125.069 224.171 125.069C208.792 125.069 196.32 125.02 196.32 124.962C196.32 124.905 208.788 124.856 224.171 124.856C239.555 124.856 252.022 124.901 252.022 124.962Z" fill="#EF0627"/>
<path d="M252.022 130.242C252.022 130.303 239.551 130.348 224.171 130.348C208.792 130.348 196.32 130.303 196.32 130.242C196.32 130.18 208.788 130.135 224.171 130.135C239.555 130.135 252.022 130.184 252.022 130.242Z" fill="#EF0627"/>
<path d="M252.022 135.525C252.022 135.583 239.551 135.632 224.171 135.632C208.792 135.632 196.32 135.583 196.32 135.525C196.32 135.468 208.788 135.419 224.171 135.419C239.555 135.419 252.022 135.468 252.022 135.525Z" fill="#EF0627"/>
<path d="M252.022 140.809C252.022 140.866 239.551 140.915 224.171 140.915C208.792 140.915 196.32 140.866 196.32 140.809C196.32 140.752 208.788 140.702 224.171 140.702C239.555 140.702 252.022 140.747 252.022 140.809Z" fill="#EF0627"/>
<path d="M158.046 124.455C158.046 124.516 150.612 124.561 141.446 124.561C132.28 124.561 124.846 124.516 124.846 124.455C124.846 124.393 132.275 124.348 141.446 124.348C150.616 124.348 158.046 124.397 158.046 124.455Z" fill="#EF0627"/>
<path d="M158.046 128.604C158.046 128.661 150.612 128.71 141.446 128.71C132.28 128.71 124.846 128.661 124.846 128.604C124.846 128.546 132.275 128.497 141.446 128.497C150.616 128.497 158.046 128.546 158.046 128.604Z" fill="#EF0627"/>
<path d="M158.046 132.752C158.046 132.81 150.612 132.859 141.446 132.859C132.28 132.859 124.846 132.81 124.846 132.752C124.846 132.695 132.275 132.646 141.446 132.646C150.616 132.646 158.046 132.691 158.046 132.752Z" fill="#EF0627"/>
<path d="M158.046 136.901C158.046 136.959 150.612 137.008 141.446 137.008C132.28 137.008 124.87 136.959 124.87 136.901C124.87 136.844 132.3 136.795 141.47 136.795C150.641 136.795 158.046 136.84 158.046 136.901Z" fill="#EF0627"/>
<path d="M158.046 141.046C158.046 141.108 150.612 141.157 141.446 141.157C132.28 141.157 124.846 141.108 124.846 141.046C124.846 140.985 132.275 140.94 141.446 140.94C150.616 140.94 158.046 140.989 158.046 141.046Z" fill="#EF0627"/>
<path d="M192.057 122.439H167.888V145.822H192.057V122.439Z" fill="#F5F5F5"/>
<path d="M169.764 143.823L176.448 131.79L181.916 139.482L185.241 135.398L190.185 143.823H169.764Z" fill="#EBEBEB"/>
<path d="M184.258 129.451C184.258 129.796 184.156 130.132 183.965 130.418C183.774 130.705 183.502 130.928 183.184 131.06C182.866 131.191 182.516 131.226 182.178 131.159C181.841 131.091 181.53 130.926 181.287 130.682C181.043 130.439 180.878 130.129 180.811 129.791C180.743 129.453 180.778 129.103 180.91 128.785C181.041 128.467 181.264 128.195 181.551 128.004C181.837 127.813 182.173 127.711 182.518 127.711C182.746 127.71 182.973 127.755 183.185 127.842C183.396 127.929 183.588 128.058 183.75 128.219C183.912 128.381 184.04 128.573 184.127 128.785C184.214 128.996 184.259 129.223 184.258 129.451Z" fill="#EBEBEB"/>
<path d="M190.185 143.889C190.182 143.856 190.182 143.823 190.185 143.79C190.185 143.721 190.185 143.631 190.185 143.52C190.185 143.27 190.185 142.918 190.185 142.468C190.185 141.538 190.185 140.199 190.16 138.495C190.16 135.079 190.132 130.217 190.111 124.377L190.21 124.475H169.788C169.76 124.5 170.005 124.258 169.903 124.364V127.006C169.903 127.883 169.903 128.751 169.903 129.611V134.649C169.903 137.925 169.903 141.018 169.903 143.868L169.805 143.766L184.57 143.819L188.735 143.844H189.837H190.124H190.226H190.136H189.861H188.776L184.631 143.872L169.805 143.922H169.702V143.823C169.702 140.956 169.702 137.876 169.702 134.604C169.702 132.965 169.702 131.282 169.702 129.566V124.385C169.596 124.483 169.841 124.242 169.817 124.266H190.238H190.336V124.364C190.336 130.23 190.296 135.116 190.287 138.548C190.287 140.24 190.287 141.575 190.259 142.496C190.259 142.939 190.259 143.283 190.259 143.528C190.259 143.639 190.259 143.725 190.259 143.79C190.237 143.825 190.212 143.858 190.185 143.889Z" fill="#EBEBEB"/>
<path d="M157.333 78.0459H124.551V109.759H157.333V78.0459Z" fill="#F5F5F5"/>
<path d="M127.094 107.048L136.162 90.7263L143.58 101.158L148.085 95.6166L154.79 107.048H127.094Z" fill="#EF0627"/>
<path d="M146.737 87.552C146.737 88.0186 146.599 88.4747 146.34 88.8627C146.081 89.2506 145.712 89.553 145.281 89.7316C144.85 89.9101 144.376 89.9568 143.918 89.8658C143.46 89.7748 143.04 89.5501 142.71 89.2202C142.38 88.8902 142.156 88.4699 142.065 88.0123C141.974 87.5546 142.02 87.0803 142.199 86.6492C142.377 86.2181 142.68 85.8497 143.068 85.5905C143.456 85.3312 143.912 85.1929 144.378 85.1929C145.004 85.1929 145.604 85.4414 146.047 85.8838C146.489 86.3263 146.737 86.9263 146.737 87.552Z" fill="#EF0627"/>
<path d="M154.79 107.134C154.79 107.134 154.79 107.089 154.79 107.007C154.79 106.925 154.79 106.79 154.79 106.634C154.79 106.298 154.79 105.815 154.79 105.209C154.79 103.951 154.769 102.133 154.753 99.8229C154.753 95.1906 154.712 88.5924 154.683 80.6713L154.818 80.8064H127.123L127.279 80.6549V84.2468C127.279 85.4346 127.279 86.6101 127.279 87.7773C127.279 90.1078 127.279 92.3891 127.279 94.609C127.279 99.0529 127.279 103.251 127.279 107.113L127.144 106.978L147.168 107.048L152.816 107.085H154.315H154.724H154.859C154.82 107.092 154.78 107.092 154.741 107.085H154.364H152.893L147.274 107.121L127.164 107.191H127.025V107.052C127.025 103.19 127.025 98.9915 127.025 94.5476C127.025 92.3277 127.025 90.0423 127.025 87.7159V80.6754L127.184 80.5156L154.88 80.5361H155.015V80.6672C154.986 88.6252 154.962 95.248 154.945 99.9171C154.945 102.211 154.921 104.013 154.913 105.27C154.913 105.872 154.913 106.343 154.913 106.671C154.913 106.822 154.913 106.937 154.913 107.027C154.877 107.069 154.836 107.105 154.79 107.134Z" fill="#EF0627"/>
<path d="M204.663 101.682L201.387 101.637L201.51 92.7169C201.508 91.1501 201.198 89.599 200.597 88.1521C199.996 86.7052 199.115 85.3908 198.006 84.2841C196.897 83.1773 195.581 82.2999 194.133 81.7018C192.685 81.1037 191.133 80.7967 189.566 80.7983C188 80.7999 186.449 81.1101 185.002 81.7112C183.555 82.3123 182.24 83.1924 181.134 84.3015C178.899 86.5412 177.645 89.5772 177.648 92.7415L177.525 101.682L174.248 101.637L174.371 92.7169C174.375 88.6836 175.98 84.8168 178.834 81.9672C181.688 79.1176 185.558 77.5185 189.591 77.5217C193.624 77.525 197.491 79.1303 200.341 81.9846C203.19 84.8388 204.789 88.7082 204.786 92.7415L204.663 101.682Z" fill="#263238"/>
<path d="M204.966 97.3369H174.543C170.406 97.3369 167.052 100.691 167.052 104.828V134.207C167.052 138.344 170.406 141.698 174.543 141.698H204.966C209.104 141.698 212.458 138.344 212.458 134.207V104.828C212.458 100.691 209.104 97.3369 204.966 97.3369Z" fill="#407BFF"/>
<g opacity="0.3">
<path d="M194.277 117.177C194.279 116.387 194.076 115.611 193.686 114.925C193.296 114.238 192.733 113.666 192.053 113.264C191.374 112.863 190.601 112.646 189.812 112.635C189.023 112.625 188.244 112.821 187.554 113.204C186.864 113.587 186.286 114.144 185.878 114.819C185.469 115.495 185.245 116.265 185.226 117.055C185.208 117.844 185.396 118.624 185.772 119.318C186.149 120.012 186.7 120.595 187.371 121.01L186.212 126.372H193.634C193.634 126.372 192.814 123.001 192.274 120.924C192.889 120.511 193.393 119.953 193.742 119.3C194.091 118.646 194.275 117.917 194.277 117.177Z" fill="black"/>
</g>
<g opacity="0.2">
<path d="M169.956 128.247C169.661 128.247 169.547 123.066 169.665 116.689C169.784 110.312 170.145 105.143 170.439 105.152C170.734 105.16 170.849 110.333 170.73 116.71C170.611 123.087 170.251 128.252 169.956 128.247Z" fill="white"/>
</g>
<g opacity="0.2">
<path d="M169.989 133.379C169.694 133.379 169.452 132.88 169.444 132.253C169.436 131.626 169.665 131.118 169.96 131.114C170.255 131.11 170.501 131.614 170.509 132.241C170.517 132.867 170.284 133.375 169.989 133.379Z" fill="white"/>
</g>
<g opacity="0.2">
<path d="M184.234 127.109C184 127.031 184.553 124.672 185.516 121.534L185.639 122.05C185.2 121.616 184.746 121.162 184.271 120.658C183.536 119.82 183.103 118.76 183.042 117.648C182.992 116.754 183.203 115.864 183.648 115.088C183.931 114.575 184.324 114.131 184.799 113.789C185.135 113.556 185.36 113.494 185.397 113.552C185.504 113.679 184.811 114.228 184.324 115.419C184.019 116.165 183.925 116.98 184.055 117.776C184.184 118.571 184.531 119.315 185.057 119.925L186.376 121.317L186.593 121.551L186.495 121.837C185.418 124.954 184.467 127.182 184.234 127.109Z" fill="white"/>
</g>
<g opacity="0.2">
<path d="M202.976 100.417C202.976 100.564 201.161 100.687 198.233 100.761C195.305 100.835 191.27 100.863 186.765 100.831C184.529 100.831 182.399 100.781 180.462 100.741C178.524 100.7 176.776 100.581 175.379 100.741C174.271 100.821 173.201 101.182 172.27 101.789C171.619 102.235 171.353 102.608 171.279 102.559C171.205 102.51 171.381 102.063 172.008 101.47C172.932 100.667 174.071 100.154 175.285 99.9951C176.098 99.8689 176.919 99.8045 177.742 99.8026L180.494 99.7739C182.432 99.7739 184.562 99.7739 186.798 99.7739C191.27 99.8067 195.317 99.9009 198.245 100.02C201.174 100.138 202.976 100.27 202.976 100.417Z" fill="white"/>
</g>
<path d="M49.7506 195.208L49.4598 196.298C49.4598 196.298 45.5156 202.716 45.9826 203.334C46.3014 203.733 46.7339 204.024 47.2227 204.171C47.7115 204.317 48.2333 204.311 48.7185 204.153C50.0906 203.809 55.8819 198.309 55.8819 198.309L56.2137 197.428L49.7506 195.208Z" fill="#407BFF"/>
<g opacity="0.3">
<path d="M46.3758 201.86C46.3758 201.86 48.0837 201.106 49.0707 203.314C49.0707 203.314 49.808 203.035 51.8558 201.323C53.9037 199.611 55.8819 197.932 55.8819 197.932C55.8819 197.932 56.0949 197.76 56.0335 197.932C55.972 198.104 55.8819 198.395 55.8819 198.395L51.9296 201.88C51.9296 201.88 49.5622 203.928 48.9683 204.076C48.3745 204.223 47.7724 204.436 47.0188 204.1C46.5362 203.923 46.1355 203.574 45.8925 203.121C45.8925 203.023 46.3758 201.86 46.3758 201.86Z" fill="black"/>
</g>
<path d="M49.3001 204.035C49.2755 204.035 49.2346 203.817 49.0912 203.49C48.906 203.063 48.6248 202.686 48.2696 202.386C47.9144 202.086 47.4947 201.872 47.0434 201.761C46.6952 201.679 46.47 201.675 46.47 201.655C46.6645 201.626 46.8629 201.64 47.0515 201.696C47.5297 201.784 47.977 201.994 48.3499 202.306C48.7169 202.62 48.9987 203.022 49.169 203.473C49.2482 203.65 49.2927 203.841 49.3001 204.035Z" fill="#263238"/>
<path d="M56.2137 197.649C56.1873 197.684 56.157 197.716 56.1236 197.744L55.8451 197.989L54.8334 198.882L51.4053 201.782C50.7909 202.337 50.1305 202.838 49.4312 203.281C48.8426 203.646 48.1507 203.809 47.4611 203.744C46.991 203.693 46.5548 203.475 46.2324 203.129C46.1172 203.012 46.0266 202.873 45.9662 202.72C46.054 202.866 46.1555 203.003 46.2693 203.129C46.596 203.434 47.0158 203.621 47.4611 203.658C48.1267 203.703 48.7894 203.535 49.3534 203.179C50.0439 202.738 50.6972 202.243 51.307 201.696C52.6381 200.59 53.8382 199.587 54.7597 198.829L55.8123 197.969L56.1072 197.74C56.1383 197.705 56.1742 197.674 56.2137 197.649Z" fill="#263238"/>
<path d="M49.9636 200.348C49.7065 200.222 49.4624 200.071 49.2346 199.898C48.9842 199.757 48.7471 199.594 48.526 199.41C48.808 199.483 49.0726 199.611 49.3042 199.787C49.559 199.929 49.7832 200.119 49.9636 200.348Z" fill="#263238"/>
<path d="M50.8114 199.427C50.5023 199.328 50.2023 199.204 49.9145 199.054C49.6098 198.946 49.3163 198.809 49.038 198.645C49.3628 198.688 49.6775 198.787 49.9677 198.939C50.2743 199.053 50.5595 199.218 50.8114 199.427Z" fill="#263238"/>
<path d="M51.5978 198.636C51.5691 198.665 51.2128 198.35 50.6968 198.1C50.1807 197.85 49.7138 197.748 49.722 197.69C50.0828 197.689 50.4375 197.784 50.75 197.965C51.0855 198.112 51.3775 198.343 51.5978 198.636Z" fill="#263238"/>
<path d="M52.0524 197.694C52.0524 197.723 51.7002 197.481 51.2333 197.285C50.7664 197.088 50.3732 196.994 50.3814 196.957C50.6963 196.95 51.0079 197.023 51.2865 197.17C51.584 197.273 51.8485 197.454 52.0524 197.694Z" fill="#263238"/>
<path d="M51.8558 196.801C51.6731 196.724 51.5064 196.613 51.3644 196.474C51.2039 196.335 51.0559 196.183 50.922 196.019C50.8404 195.922 50.7652 195.819 50.6968 195.712C50.6529 195.655 50.6184 195.591 50.5944 195.524C50.5779 195.482 50.573 195.437 50.5802 195.393C50.5874 195.349 50.6065 195.308 50.6353 195.274C50.6964 195.222 50.7713 195.19 50.8506 195.18C50.9299 195.171 51.0102 195.185 51.0817 195.22C51.2056 195.272 51.3172 195.348 51.4094 195.446C51.5591 195.608 51.6624 195.807 51.7084 196.023C51.741 196.164 51.7547 196.309 51.7494 196.453C51.7494 196.556 51.7494 196.613 51.7248 196.613C51.7002 196.613 51.7248 196.384 51.6224 196.048C51.5672 195.852 51.4645 195.674 51.3234 195.528C51.2415 195.445 51.144 195.38 51.0367 195.335C50.9908 195.308 50.9384 195.294 50.8852 195.294C50.8319 195.294 50.7795 195.308 50.7336 195.335C50.6681 195.401 50.7336 195.519 50.7991 195.622C50.8647 195.724 50.9425 195.831 51.0121 195.925C51.1378 196.089 51.2746 196.243 51.4217 196.388C51.6838 196.658 51.864 196.781 51.8558 196.801Z" fill="#263238"/>
<path d="M51.7698 196.691C51.7698 196.691 51.7698 196.63 51.8108 196.531C51.8712 196.396 51.9512 196.27 52.0483 196.158C52.2774 195.885 52.5871 195.692 52.933 195.606C53.0086 195.589 53.0868 195.589 53.1624 195.606C53.2076 195.616 53.2491 195.639 53.2824 195.671C53.3156 195.704 53.3392 195.745 53.3508 195.79C53.3544 195.867 53.3409 195.943 53.3111 196.014C53.2813 196.085 53.2361 196.148 53.1788 196.199C53.0928 196.3 52.9936 196.388 52.8839 196.462C52.6987 196.585 52.4892 196.668 52.2695 196.703C52.1217 196.728 51.9709 196.728 51.8231 196.703C51.7207 196.703 51.6674 196.662 51.6674 196.654C51.8621 196.658 52.0569 196.645 52.249 196.613C52.4522 196.566 52.6443 196.48 52.8142 196.359C52.9158 196.291 53.0068 196.208 53.0846 196.113C53.1282 196.075 53.1633 196.028 53.1873 195.975C53.2113 195.922 53.2237 195.864 53.2238 195.806C53.2238 195.712 53.0764 195.692 52.9576 195.716C52.8398 195.743 52.7257 195.785 52.6176 195.839C52.4296 195.93 52.2591 196.053 52.1139 196.204C51.9867 196.357 51.8717 196.52 51.7698 196.691Z" fill="#263238"/>
<path d="M55.0915 197.137C54.9071 197.091 54.7131 197.101 54.5344 197.166C54.1113 197.349 53.761 197.667 53.5392 198.071C53.3161 198.476 53.2245 198.939 53.2771 199.398C53.318 199.75 53.4122 199.955 53.3917 199.963C53.2796 199.798 53.2093 199.609 53.1869 199.41C53.1057 198.93 53.191 198.436 53.4286 198.01C53.6614 197.578 54.0448 197.247 54.5058 197.08C54.6001 197.038 54.7035 197.022 54.8062 197.032C54.9088 197.042 55.0071 197.078 55.0915 197.137Z" fill="#263238"/>
<path d="M52.7528 199.722C52.5628 199.97 52.3379 200.189 52.0852 200.373C51.8622 200.592 51.61 200.78 51.3357 200.93C51.5257 200.682 51.7505 200.462 52.0033 200.279C52.2271 200.06 52.4792 199.873 52.7528 199.722Z" fill="#263238"/>
<path d="M53.5351 199.304C53.5719 199.304 53.617 199.386 53.6416 199.492C53.6661 199.599 53.6416 199.693 53.6416 199.705C53.6416 199.718 53.5597 199.636 53.5351 199.517C53.5105 199.398 53.5023 199.308 53.5351 199.304Z" fill="#263238"/>
<path d="M53.6375 198.497C53.6702 198.497 53.6784 198.608 53.6375 198.71C53.5965 198.812 53.5597 198.898 53.5269 198.894C53.4941 198.89 53.4859 198.796 53.5269 198.681C53.5678 198.567 53.6047 198.485 53.6375 198.497Z" fill="#263238"/>
<path d="M54.0675 197.809C54.0962 197.838 54.0675 197.916 53.9856 198.006C53.9037 198.096 53.8423 198.145 53.8136 198.129C53.7849 198.112 53.8136 198.018 53.8873 197.924C53.961 197.83 54.047 197.785 54.0675 197.809Z" fill="#263238"/>
<path d="M54.7638 197.383C54.7638 197.416 54.7024 197.481 54.6041 197.531C54.5058 197.58 54.4116 197.588 54.3911 197.559C54.3706 197.531 54.4443 197.465 54.5508 197.412C54.6573 197.359 54.7515 197.35 54.7638 197.383Z" fill="#263238"/>
<path d="M55.5707 197.289C55.5707 197.326 55.4724 197.355 55.3659 197.355C55.2594 197.355 55.1652 197.326 55.1611 197.293C55.157 197.26 55.2471 197.228 55.3659 197.228C55.4846 197.228 55.5748 197.252 55.5707 197.289Z" fill="#263238"/>
<path d="M104.158 93.5686C103.904 93.8758 103.544 97.1278 103.544 97.1278C103.544 97.1278 97.5437 107.367 96.7082 107.51C95.8726 107.654 92.2315 100.404 92.2315 100.404L88.4921 103.849C88.4921 103.849 90.4417 112.999 96.5361 114.567C99.4032 115.309 104.433 106.183 107.783 98.5941C107.84 98.4712 109.573 94.3427 109.573 94.3427L104.158 93.5686Z" fill="#A56959"/>
<path d="M109.507 94.6992C109.507 94.6992 109.507 94.7442 109.487 94.8016C109.331 95.293 108.401 97.3163 108.115 97.2959C107.828 97.2754 107.165 96.8044 107.234 96.5136C107.304 96.2228 108.483 93.9988 108.483 93.9988C108.483 93.9988 108.688 93.6588 109.335 93.8391C109.737 93.9537 109.507 94.6992 109.507 94.6992Z" fill="#A56959"/>
<path d="M108.606 93.4253C108.606 93.4253 108.606 93.4703 108.606 93.5318C108.451 94.0192 107.521 96.0466 107.234 96.022C106.947 95.9974 106.284 95.5305 106.358 95.2397C106.431 94.9489 107.586 92.729 107.586 92.729C107.586 92.729 107.795 92.3891 108.438 92.5693C108.836 92.6799 108.606 93.4253 108.606 93.4253Z" fill="#A56959"/>
<path d="M107.57 92.5326C107.57 92.5326 107.57 92.5776 107.57 92.6349C107.414 93.1264 106.485 95.1538 106.198 95.1292C105.911 95.1047 105.252 94.6378 105.321 94.347C105.391 94.0562 106.55 91.8363 106.55 91.8363C106.55 91.8363 106.759 91.4963 107.406 91.6724C107.799 91.7871 107.57 92.5326 107.57 92.5326Z" fill="#A56959"/>
<path d="M106.534 91.6643C106.54 91.6981 106.54 91.7328 106.534 91.7666C106.374 92.2581 105.448 94.2855 105.162 94.2609C104.875 94.2364 104.212 93.7695 104.281 93.4787C104.351 93.1879 105.51 90.9639 105.51 90.9639C105.51 90.9639 105.719 90.6239 106.366 90.8041C106.759 90.9188 106.534 91.6643 106.534 91.6643Z" fill="#A56959"/>
<path d="M107.488 95.9115C107.708 95.6206 107.887 95.3009 108.021 94.9613C108.2 94.6489 108.338 94.3143 108.43 93.9661C108.216 94.2607 108.037 94.5797 107.898 94.9163C107.721 95.2301 107.584 95.5643 107.488 95.9115Z" fill="#7C4435"/>
<path d="M106.284 95.3913C106.571 94.9601 106.818 94.5036 107.021 94.0274C107.267 93.5729 107.471 93.0972 107.631 92.6062C107.345 93.0374 107.098 93.4939 106.894 93.9701C106.649 94.4246 106.444 94.9003 106.284 95.3913Z" fill="#7C4435"/>
<g opacity="0.78">
<path d="M105.108 94.7524C105.393 94.3205 105.638 93.864 105.842 93.3885C106.089 92.935 106.294 92.4591 106.452 91.9673C106.167 92.3985 105.921 92.8534 105.715 93.3271C105.47 93.7828 105.267 94.2598 105.108 94.7524Z" fill="#7C4435"/>
</g>
<path d="M104.166 97.5948L103.757 95.8009C103.577 95.0153 103.708 94.1906 104.121 93.4991L104.441 92.9707L108.36 94.953C108.36 94.953 107.382 96.2268 106.395 95.4773L107.115 97.0255L104.166 97.5948Z" fill="#A56959"/>
<path d="M106.767 97.1646C106.743 97.1646 106.767 96.9557 106.73 96.6076C106.655 96.1251 106.404 95.6875 106.026 95.3789L105.649 95.0758L106.108 95.2232L107.128 95.555H107.103C107.325 95.5936 107.553 95.5683 107.762 95.482C107.97 95.3957 108.149 95.252 108.279 95.0676C108.299 95.0398 108.315 95.0095 108.328 94.9775L108.381 95.1086C107.251 94.5966 106.235 94.1174 105.514 93.7283C105.117 93.5369 104.741 93.305 104.392 93.0361C104.798 93.1968 105.195 93.3814 105.579 93.5891C106.304 93.9413 107.324 94.4082 108.447 94.9079L108.537 94.9488L108.504 95.043C108.485 95.087 108.463 95.1294 108.438 95.17C108.293 95.4087 108.068 95.5885 107.803 95.6779C107.563 95.757 107.309 95.7808 107.058 95.7475L106.051 95.3953L106.132 95.2437C106.534 95.5862 106.784 96.0734 106.829 96.5994C106.859 96.7899 106.837 96.985 106.767 97.1646Z" fill="#7C4435"/>
<path d="M107.799 95.4281C107.84 95.4281 107.767 95.6493 107.799 95.9401C107.811 96.0158 107.846 96.0862 107.898 96.1418C107.951 96.1974 108.019 96.2356 108.094 96.2514C108.193 96.2484 108.29 96.2191 108.374 96.1666C108.458 96.1141 108.527 96.0402 108.573 95.9524C108.836 95.5428 109.098 95.1619 109.257 94.8834C109.417 94.6049 109.503 94.4247 109.532 94.4329C109.561 94.4411 109.532 94.6459 109.393 94.953C109.204 95.3399 108.989 95.7135 108.75 96.0712C108.682 96.1875 108.583 96.283 108.465 96.3473C108.346 96.4115 108.212 96.4421 108.078 96.4357C107.967 96.409 107.868 96.3478 107.794 96.2609C107.721 96.1741 107.676 96.066 107.668 95.9524C107.656 95.8129 107.677 95.6724 107.73 95.5428C107.758 95.4691 107.787 95.424 107.799 95.4281Z" fill="#7C4435"/>
<path d="M90.7857 121.612C90.7857 121.612 87.4477 113.392 87.4641 113.236L88.3283 110.177L88.6764 108.407L89.8068 109.722L95.3238 103.955C95.4262 104.095 92.8254 100.318 90.1918 96.624C88.357 94.0519 86.3705 93.4867 85.2114 93.4048C84.7293 93.2571 84.2342 93.1556 83.7329 93.1017L74.239 93.0198C72.1669 93.0396 70.165 93.7729 68.5705 95.0963C68.1323 95.4567 64.4952 100.294 62.0173 105.078L69.6518 110.586L70.9092 108.375V108.42C71.0156 109.169 71.4703 111.356 71.6177 112.106C72.0805 114.412 72.228 117.189 71.1017 119.093C70.2459 121.226 69.5156 123.408 68.9145 125.626H92.3421C92.3421 125.626 91.5885 123.59 90.7857 121.612Z" fill="#455A64"/>
<path d="M71.9372 118.176L71.118 117.529V117.455L71.0853 117.496L65.7895 113.228L68.0626 109.481L62.5744 105.471C62.5989 105.737 57.4834 113.322 58.1756 114.813C59.1544 116.919 65.8018 121.129 68.5214 122.788C67.7808 122.884 67.0475 123.029 66.326 123.222C65.6339 123.447 67.8906 124.041 68.4394 124.16C68.6524 124.201 69.0907 123.861 69.5576 123.41L69.6845 123.484L69.832 123.14C70.3319 122.625 70.7971 122.078 71.2245 121.502C71.3392 121.326 71.3351 120.527 71.2901 119.683L71.9372 118.176Z" fill="#A56959"/>
<path d="M101.299 197.436L101.267 196.662L93.4152 196.887L93.4848 199.443H93.9681C96.1307 199.496 104.961 199.574 106.39 199.128C107.984 198.649 101.299 197.436 101.299 197.436Z" fill="#407BFF"/>
<g opacity="0.3">
<path d="M96.315 199.312C96.1754 198.689 95.8014 198.144 95.2706 197.789C94.7314 197.418 94.079 197.248 93.4275 197.309L93.4889 199.357L96.315 199.312Z" fill="black"/>
</g>
<g opacity="0.3">
<path d="M104.568 198.137C104.568 198.137 106.915 198.698 106.616 199.062C106.317 199.427 97.429 199.648 93.4848 199.443V199.284L103.896 199.091C103.896 199.091 104.113 198.165 104.568 198.137Z" fill="black"/>
</g>
<path d="M93.3701 199.279H93.5012H93.9108H95.332C96.5361 199.279 98.199 199.279 100.026 199.234C101.852 199.189 103.519 199.111 104.715 199.042L106.137 198.948L106.522 198.919H106.112L104.691 198.984C103.495 199.038 101.824 199.103 100.005 199.152C98.1867 199.202 96.5116 199.214 95.3115 199.222H93.8903H93.5053L93.3701 199.279Z" fill="#263238"/>
<path d="M103.908 199.206C103.963 198.983 104.046 198.769 104.154 198.567C104.29 198.377 104.447 198.202 104.621 198.047C104.388 198.136 104.194 198.304 104.072 198.522C104 198.619 103.949 198.73 103.921 198.847C103.893 198.965 103.888 199.087 103.908 199.206Z" fill="#263238"/>
<path d="M101.566 198.178C101.59 198.178 101.697 198.063 101.803 197.891C101.91 197.719 101.983 197.571 101.963 197.559C101.943 197.547 101.832 197.678 101.725 197.846C101.619 198.014 101.545 198.165 101.566 198.178Z" fill="#263238"/>
<path d="M100.923 197.883C100.943 197.883 101.062 197.821 101.193 197.703C101.324 197.584 101.418 197.481 101.398 197.461C101.377 197.44 101.263 197.522 101.127 197.641C100.992 197.76 100.906 197.866 100.923 197.883Z" fill="#263238"/>
<path d="M100.505 197.191C100.637 197.232 100.777 197.245 100.914 197.228C101.053 197.24 101.192 197.223 101.324 197.178C101.192 197.137 101.052 197.125 100.914 197.142C100.776 197.126 100.636 197.143 100.505 197.191Z" fill="#263238"/>
<path d="M100.349 196.728C100.642 196.863 100.976 196.878 101.279 196.769C101.126 196.746 100.971 196.739 100.816 196.748C100.661 196.728 100.505 196.722 100.349 196.728Z" fill="#263238"/>
<path d="M101.811 197.535C101.978 197.565 102.149 197.565 102.315 197.535C102.496 197.511 102.674 197.47 102.848 197.412C102.953 197.381 103.055 197.339 103.151 197.285C103.18 197.27 103.205 197.249 103.226 197.224C103.246 197.198 103.261 197.169 103.27 197.137C103.275 197.102 103.271 197.066 103.256 197.033C103.241 197 103.218 196.973 103.188 196.953C102.994 196.869 102.779 196.852 102.574 196.903C102.37 196.954 102.188 197.071 102.057 197.236C101.98 197.326 101.926 197.435 101.902 197.551C101.902 197.629 101.902 197.678 101.902 197.678C101.947 197.529 102.021 197.39 102.119 197.268C102.228 197.142 102.369 197.049 102.528 196.998C102.725 196.931 102.939 196.938 103.13 197.019C103.212 197.072 103.183 197.162 103.097 197.211C103.008 197.261 102.913 197.301 102.815 197.33C102.648 197.391 102.477 197.437 102.303 197.469C102.004 197.514 101.811 197.522 101.811 197.535Z" fill="#263238"/>
<path d="M101.934 197.555C101.964 197.507 101.984 197.454 101.993 197.398C102.001 197.343 101.998 197.286 101.983 197.231C101.963 197.108 101.912 196.991 101.836 196.892C101.791 196.823 101.731 196.767 101.659 196.728C101.588 196.689 101.508 196.668 101.426 196.666C101.402 196.671 101.38 196.68 101.359 196.693C101.339 196.706 101.321 196.724 101.307 196.744C101.294 196.764 101.284 196.787 101.279 196.811C101.274 196.835 101.274 196.859 101.279 196.883C101.294 196.959 101.325 197.03 101.369 197.092C101.439 197.193 101.522 197.286 101.615 197.367C101.696 197.451 101.798 197.513 101.91 197.547C101.91 197.547 101.807 197.469 101.664 197.322C101.582 197.237 101.508 197.146 101.443 197.047C101.373 196.953 101.32 196.777 101.443 196.752C101.566 196.728 101.701 196.851 101.779 196.941C101.851 197.028 101.902 197.13 101.93 197.24C101.943 197.344 101.945 197.45 101.934 197.555Z" fill="#263238"/>
<path d="M93.4684 197.289C93.4684 197.289 93.6896 197.264 94.0459 197.289C94.5027 197.325 94.942 197.48 95.3197 197.739C95.6831 197.992 95.9672 198.343 96.1388 198.751C96.2658 199.058 96.2863 199.267 96.3027 199.267C96.3191 199.267 96.3027 199.214 96.3027 199.12C96.2873 198.98 96.2543 198.842 96.2044 198.71C96.0462 198.28 95.7604 197.908 95.3852 197.645C94.9936 197.376 94.5332 197.224 94.0582 197.207C93.9152 197.192 93.7711 197.192 93.6282 197.207C93.5704 197.225 93.5163 197.252 93.4684 197.289Z" fill="#263238"/>
<path d="M97.2775 198.579C98.0363 198.691 98.8085 198.677 99.5629 198.538C99.5629 198.513 99.0509 198.538 98.4202 198.563C97.7894 198.587 97.2816 198.55 97.2775 198.579Z" fill="#263238"/>
<path d="M95.7457 198.616C95.7457 198.616 95.7907 198.714 95.848 198.821C95.9054 198.927 95.9341 199.026 95.9586 199.026C95.9832 199.026 95.9955 198.907 95.93 198.784C95.8644 198.661 95.762 198.596 95.7457 198.616Z" fill="#263238"/>
<path d="M95.1477 197.961C95.1477 197.981 95.1845 198.055 95.2665 198.129C95.3484 198.202 95.4303 198.247 95.4508 198.231C95.4712 198.215 95.4139 198.141 95.332 198.063C95.2501 197.985 95.1682 197.944 95.1477 197.961Z" fill="#263238"/>
<path d="M94.3122 197.678C94.3122 197.703 94.4227 197.699 94.5374 197.735C94.6521 197.772 94.7381 197.825 94.7586 197.805C94.7791 197.785 94.7094 197.69 94.5661 197.649C94.4227 197.608 94.304 197.658 94.3122 197.678Z" fill="#263238"/>
<path d="M93.7428 197.551C93.7428 197.571 93.7797 197.608 93.8452 197.633C93.9108 197.657 93.9681 197.653 93.9804 197.633C93.9927 197.612 93.9394 197.575 93.8739 197.551C93.8084 197.526 93.7428 197.526 93.7428 197.551Z" fill="#263238"/>
<path d="M78.2938 73.7289C77.8346 73.3416 77.2653 73.1083 76.6663 73.062C76.0674 73.0157 75.469 73.1587 74.9558 73.4708C74.452 73.7944 74.0547 74.29 73.51 74.5275C72.6048 74.9371 71.5399 74.6176 70.561 74.7733C69.8381 74.9124 69.1878 75.3029 68.7252 75.8757C68.2627 76.4484 68.0178 77.1664 68.034 77.9024C68.0749 78.6888 68.4108 79.5407 68.034 80.2247C67.6981 80.8309 66.9404 81.0438 66.3957 81.478C65.9502 81.8671 65.669 82.4108 65.6089 82.9992C65.5489 83.5877 65.7144 84.177 66.0721 84.6481C66.3981 84.9576 66.7058 85.2858 66.9937 85.631C67.3787 86.2331 67.3254 87.0031 67.4237 87.7076C67.522 88.412 67.9275 89.2148 68.6524 89.2599C69.2299 89.2967 69.7419 88.8175 70.3153 88.8503C71.1344 88.9158 71.4498 89.8824 71.9167 90.5418C72.2175 90.9552 72.6233 91.2806 73.0921 91.4844C73.5609 91.6882 74.0756 91.763 74.583 91.7009C75.3162 91.6026 76.0411 91.2176 76.7538 91.3978C77.6548 91.6272 78.1955 92.6798 79.1129 92.8109C79.7969 92.9092 80.4317 92.4545 80.9396 91.9917C81.4475 91.5289 81.9635 90.9883 82.6434 90.8654C83.4626 90.7179 84.249 91.2135 85.0722 91.3282C85.6069 91.3907 86.1483 91.2953 86.6294 91.0536C87.1105 90.812 87.5103 90.4347 87.7795 89.9684C88.23 89.1493 88.23 88.1417 88.6519 87.3062C88.9847 86.7737 89.3499 86.2621 89.7454 85.7744C89.9452 85.5308 90.086 85.2445 90.1571 84.9376C90.2281 84.6307 90.2274 84.3116 90.155 84.005C90.0076 83.5955 89.6471 83.2555 89.471 82.8419C89.2089 82.2193 89.4014 81.5148 89.471 80.8431C89.5406 80.1714 89.4014 79.3564 88.787 79.0779C88.5176 79.0097 88.2534 78.9221 87.9965 78.8158C87.5173 78.5209 87.5419 77.8369 87.501 77.2758C87.4871 76.863 87.3741 76.4597 87.1717 76.0997C86.9693 75.7397 86.6832 75.4337 86.3378 75.2074C85.621 74.7978 84.5602 75.0026 84.1998 75.7399" fill="#263238"/>
<path d="M73.7106 81.2815C73.341 80.607 73.1219 79.8604 73.0684 79.0931C73.0149 78.3258 73.1283 77.556 73.4007 76.8367C73.6732 76.1174 74.0983 75.4657 74.6467 74.9263C75.1951 74.387 75.8539 73.973 76.5777 73.7126C77.6153 73.3819 78.7071 73.2554 79.7928 73.3399C80.7238 73.3345 81.6458 73.5228 82.5001 73.8928C82.9248 74.0823 83.2982 74.3703 83.5895 74.7328C83.8808 75.0953 84.0816 75.522 84.1752 75.9775" fill="#407BFF"/>
<path d="M78.8221 97.8611C79.3269 97.9 79.8344 97.8367 80.3141 97.6747C80.7938 97.5127 81.2359 97.2556 81.6138 96.9186C81.9917 96.5816 82.2976 96.1718 82.5132 95.7137C82.7289 95.2556 82.8498 94.7587 82.8687 94.2528C82.9465 92.2049 83.0161 90.1325 83.0161 90.1325C83.0161 90.1325 86.1207 89.8458 86.346 86.774C86.5712 83.7022 86.4688 76.6084 86.4688 76.6084C84.767 75.7514 82.8673 75.3641 80.9658 75.4865C79.0643 75.6089 77.2299 76.2365 75.652 77.3046L75.1728 77.6282L75.3489 94.1504C75.3594 95.091 75.7218 95.9937 76.3646 96.6805C77.0075 97.3673 77.8842 97.7885 78.8221 97.8611Z" fill="#A56959"/>
<path d="M85.0067 82.0146C84.9441 81.9522 84.9015 81.8727 84.8842 81.786C84.8669 81.6994 84.8757 81.6096 84.9095 81.528C84.9433 81.4464 85.0005 81.3766 85.0739 81.3275C85.1473 81.2784 85.2337 81.2522 85.322 81.2522C85.4104 81.2522 85.4967 81.2784 85.5701 81.3275C85.6436 81.3766 85.7008 81.4464 85.7346 81.528C85.7683 81.6096 85.7771 81.6994 85.7598 81.786C85.7425 81.8727 85.6999 81.9522 85.6374 82.0146C85.5537 82.0981 85.4403 82.1451 85.322 82.1451C85.2038 82.1451 85.0903 82.0981 85.0067 82.0146Z" fill="#263238"/>
<path d="M86.2026 81.4945C86.1535 81.5477 85.8627 81.2979 85.4408 81.2692C85.0189 81.2405 84.6995 81.4412 84.6544 81.3839C84.6094 81.3265 84.6872 81.2651 84.8264 81.1709C85.0141 81.0531 85.2346 80.9983 85.4556 81.0145C85.6766 81.0307 85.8867 81.1171 86.0552 81.261C86.1903 81.3757 86.2272 81.474 86.2026 81.4945Z" fill="#263238"/>
<path d="M80.9928 81.4371C81.0451 81.4688 81.0904 81.5109 81.1257 81.5608C81.1611 81.6107 81.1858 81.6673 81.1984 81.7272C81.2109 81.787 81.211 81.8488 81.1987 81.9087C81.1864 81.9686 81.1619 82.0254 81.1268 82.0754C81.0916 82.1255 81.0466 82.1677 80.9944 82.1997C80.9422 82.2316 80.8841 82.2524 80.8235 82.2609C80.763 82.2694 80.7013 82.2654 80.6423 82.2491C80.5834 82.2328 80.5284 82.2045 80.4809 82.1661C80.4286 82.1344 80.3834 82.0923 80.348 82.0424C80.3126 81.9925 80.2879 81.9359 80.2754 81.876C80.2628 81.8161 80.2627 81.7544 80.275 81.6944C80.2873 81.6345 80.3118 81.5778 80.3469 81.5278C80.3821 81.4777 80.4271 81.4354 80.4793 81.4035C80.5315 81.3716 80.5896 81.3507 80.6502 81.3422C80.7108 81.3337 80.7724 81.3378 80.8314 81.3541C80.8903 81.3704 80.9453 81.3986 80.9928 81.4371Z" fill="#263238"/>
<path d="M81.5867 81.5927C81.4865 81.4978 81.3652 81.428 81.2328 81.3888C81.1004 81.3497 80.9607 81.3423 80.8249 81.3674C80.4153 81.3306 80.0795 81.5395 80.0344 81.4821C79.9894 81.4248 80.0672 81.3633 80.2106 81.2691C80.3981 81.1493 80.6193 81.0933 80.8413 81.1094C81.0648 81.126 81.2772 81.2136 81.4475 81.3593C81.5703 81.4739 81.6113 81.5722 81.5867 81.5927Z" fill="#263238"/>
<path d="M83.094 84.8817C83.3173 84.8091 83.5513 84.7745 83.7861 84.7793C83.9008 84.7793 83.9868 84.7547 83.9991 84.6933C84.0092 84.5831 83.9879 84.4723 83.9377 84.3738C83.8476 84.0871 83.7534 83.7963 83.6551 83.4932C83.385 82.7456 83.1888 81.9732 83.0694 81.1873C83.1349 81.1668 83.479 82.1662 83.8885 83.4195L84.1507 84.3083C84.2142 84.4543 84.2257 84.6176 84.1834 84.7711C84.1655 84.8124 84.1379 84.8488 84.103 84.8773C84.068 84.9058 84.0268 84.9256 83.9827 84.9349C83.9189 84.9443 83.8541 84.9443 83.7902 84.9349C83.5568 84.9572 83.3213 84.9391 83.094 84.8817Z" fill="#263238"/>
<path d="M83.0243 90.0914C81.6041 90.0302 80.2341 89.5484 79.0883 88.707C79.0883 88.707 79.9075 90.9761 82.9834 90.886L83.0243 90.0914Z" fill="#7C4435"/>
<path d="M77.9784 75.5474C78.052 76.181 78.3328 76.7727 78.7771 77.2304C79.2215 77.6881 79.8046 77.9862 80.4358 78.0785C81.1894 78.1686 82.0086 77.9597 82.6885 78.2997C83.1468 78.6025 83.5374 78.9972 83.8353 79.4588C83.9857 79.6888 84.1861 79.882 84.4215 80.0238C84.657 80.1656 84.9214 80.2525 85.1951 80.2779C85.4576 80.2466 85.7159 80.1861 85.9651 80.0977C86.0902 80.0543 86.2234 80.0391 86.3551 80.0532C86.4869 80.0674 86.6138 80.1106 86.7269 80.1796C87.1162 79.2772 87.2726 78.2913 87.1815 77.3126C87.1304 76.8259 86.9446 76.3631 86.6451 75.976C86.3456 75.589 85.9442 75.293 85.4859 75.1214C84.8756 74.9371 84.2162 75.0559 83.5895 74.9453C83.0776 74.8266 82.5824 74.645 82.1151 74.4047C81.3403 73.9863 80.462 73.7987 79.5839 73.864C78.7156 73.9951 77.8801 74.7077 77.9047 75.5842" fill="#263238"/>
<path d="M75.3899 83.952C76.5039 84.849 77.8473 82.5308 78.4412 81.085C78.9846 79.594 79.2766 78.0231 79.3054 76.4364C79.3887 75.9218 79.2933 75.3942 79.0351 74.9414C78.7156 74.5073 78.5723 75.0397 78.2159 74.6342C77.532 73.8397 76.2705 74.2697 75.6479 74.54C74.6117 74.9865 73.9646 76.1456 73.7598 77.321C73.6179 78.5082 73.6607 79.7102 73.8868 80.8843C73.9646 81.425 74.0424 81.9656 74.1161 82.5226C74.1421 82.9065 74.2526 83.2799 74.4397 83.6162C74.5282 83.7774 74.671 83.9021 74.8427 83.968C75.0144 84.034 75.2039 84.0371 75.3776 83.9766" fill="#263238"/>
<path d="M75.3489 81.4247C75.348 81.3051 75.3012 81.1903 75.2181 81.1042C75.135 81.0181 75.022 80.9672 74.9025 80.9619C74.3291 80.9619 73.3912 81.1749 73.3052 82.7558C73.1823 85.0167 75.353 84.4515 75.353 84.3941C75.353 84.3368 75.353 82.3053 75.3489 81.4247Z" fill="#A56959"/>
<path d="M74.8656 83.5013C74.8656 83.5013 74.8247 83.5259 74.7551 83.5504C74.6602 83.5871 74.555 83.5871 74.4602 83.5504C74.318 83.4502 74.2051 83.3139 74.1331 83.1555C74.0611 82.9971 74.0326 82.8224 74.0506 82.6494C74.0544 82.4556 74.102 82.2652 74.1898 82.0924C74.2156 82.0228 74.2577 81.9604 74.3126 81.9106C74.3674 81.8607 74.4335 81.8247 74.5052 81.8057C74.5512 81.7966 74.5989 81.804 74.64 81.8264C74.6812 81.8488 74.7132 81.885 74.7305 81.9285C74.7551 81.9941 74.7305 82.035 74.751 82.0432C74.7714 82.0514 74.8042 82.0064 74.7878 81.9122C74.7805 81.8552 74.7529 81.8028 74.71 81.7647C74.6495 81.7138 74.572 81.6875 74.4929 81.691C74.3993 81.7046 74.3107 81.7418 74.2355 81.7991C74.1602 81.8565 74.1008 81.932 74.0629 82.0186C73.9575 82.2098 73.8986 82.4231 73.8909 82.6412C73.8692 82.8416 73.907 83.044 73.9995 83.2232C74.0919 83.4023 74.2351 83.5503 74.411 83.6487C74.4705 83.6713 74.5344 83.6797 74.5976 83.6733C74.6609 83.6669 74.7218 83.6459 74.7755 83.6119C74.8574 83.5545 74.8738 83.5054 74.8656 83.5013Z" fill="#7C4435"/>
<path d="M82.0086 85.4264C81.9302 85.5615 81.9074 85.7217 81.9449 85.8733C81.9824 86.0249 82.0773 86.1559 82.2097 86.2388C82.342 86.3217 82.5014 86.35 82.6541 86.3176C82.8069 86.2853 82.9411 86.1948 83.0284 86.0654C83.0752 86.0016 83.109 85.9293 83.1278 85.8525C83.1467 85.7757 83.1502 85.696 83.1382 85.6178C83.1262 85.5397 83.099 85.4646 83.058 85.397C83.017 85.3294 82.9631 85.2705 82.8994 85.2237C82.8357 85.1769 82.7633 85.1431 82.6865 85.1243C82.6098 85.1054 82.53 85.1019 82.4518 85.1139C82.3737 85.1259 82.2987 85.1531 82.231 85.1941C82.1634 85.2351 82.1045 85.289 82.0577 85.3527" fill="#7C4435"/>
<path d="M83.4175 85.8645C83.2647 85.9273 83.1004 85.9573 82.9353 85.9523C82.7701 85.9474 82.6079 85.9077 82.4591 85.8358C81.939 85.6515 81.64 85.287 81.7014 85.2501C81.7628 85.2133 82.0618 85.4713 82.5206 85.631C82.9793 85.7908 83.4134 85.7867 83.4175 85.8645Z" fill="#263238"/>
<path d="M77.6548 73.7781C76.8152 73.6634 76.2213 72.8443 76.078 72.0129C75.9985 71.1699 76.099 70.3197 76.3729 69.5186C77.0629 69.9985 77.5619 70.7061 77.7821 71.5173C78.0023 72.3285 77.9297 73.1913 77.577 73.9542" fill="#407BFF"/>
<path d="M77.6466 73.6511C77.5648 73.3394 77.5887 73.0094 77.7148 72.7129C77.8408 72.4164 78.0617 72.1701 78.3429 72.0128C78.9066 71.7099 79.5524 71.5951 80.186 71.6851C80.2421 71.6869 80.2969 71.7023 80.3457 71.7302C80.3737 71.7541 80.3965 71.7836 80.4127 71.8167C80.4289 71.8498 80.4382 71.8859 80.4399 71.9227C80.4623 72.2356 80.3904 72.548 80.2334 72.8196C80.0764 73.0912 79.8416 73.3095 79.5593 73.4463C78.989 73.7057 78.3714 73.8451 77.7449 73.8559C77.6488 73.8725 77.5501 73.8641 77.4582 73.8313C77.4355 73.8223 77.4149 73.8088 77.3974 73.7918C77.3799 73.7747 77.366 73.7544 77.3565 73.7319C77.347 73.7094 77.342 73.6852 77.3419 73.6608C77.3418 73.6364 77.3465 73.6122 77.3558 73.5896" fill="#407BFF"/>
<path d="M88.828 77.7101C88.828 77.7101 88.828 77.6651 88.7747 77.6036C88.7411 77.5604 88.6991 77.5243 88.6512 77.4976C88.6034 77.4708 88.5507 77.454 88.4962 77.448C88.4126 77.4258 88.3237 77.4364 88.2476 77.4775C88.1715 77.5186 88.114 77.5871 88.0866 77.6692C88.062 77.7753 88.0736 77.8866 88.1197 77.9853C88.1657 78.0841 88.2435 78.1645 88.3406 78.2139C88.4651 78.2595 88.6013 78.2621 88.7275 78.2212C88.8537 78.1804 88.9626 78.0985 89.0368 77.9886C89.121 77.8553 89.1707 77.7032 89.1815 77.5459C89.1922 77.3886 89.1636 77.2311 89.0983 77.0876C88.9474 76.7453 88.6808 76.467 88.3453 76.3015C88.0099 76.136 87.6268 76.0939 87.2634 76.1824L87.1405 76.2193L86.5712 76.3995L87.0381 76.035C87.1737 75.9159 87.2715 75.7598 87.3195 75.5859C87.3675 75.412 87.3637 75.2278 87.3085 75.0561C87.252 74.8932 87.1598 74.745 87.0386 74.6224C86.9174 74.4998 86.7703 74.4059 86.6081 74.3475C86.3199 74.2538 86.014 74.2279 85.7141 74.272C85.4143 74.316 85.1287 74.4288 84.8797 74.6015C84.6585 74.7366 84.4701 74.8963 84.2776 75.011C84.1153 75.1129 83.9286 75.1695 83.737 75.1749C83.4093 75.1749 83.2864 75.0028 83.2987 75.0028C83.431 75.0762 83.5824 75.1076 83.7329 75.0929C83.9073 75.0746 84.0739 75.0111 84.2162 74.9086C84.3882 74.798 84.5684 74.6301 84.8019 74.4786C85.0517 74.3105 85.3289 74.1872 85.621 74.1141C85.9681 74.0253 86.3341 74.0453 86.6695 74.1714C86.8591 74.2371 87.0313 74.345 87.1732 74.4869C87.3151 74.6288 87.4229 74.801 87.4887 74.9905C87.5632 75.2053 87.5711 75.4376 87.5111 75.6569C87.4512 75.8762 87.3263 76.0723 87.1528 76.2193L87.0504 76.035L87.1938 75.9899C87.6065 75.8883 88.0419 75.9372 88.4218 76.1279C88.8017 76.3186 89.1011 76.6385 89.2662 77.0302C89.3415 77.2047 89.3712 77.3955 89.3525 77.5846C89.3339 77.7737 89.2676 77.955 89.1597 78.1115C89.0598 78.2499 88.9154 78.3498 88.7506 78.3946C88.5859 78.4393 88.4108 78.4261 88.2546 78.3572C88.1298 78.2905 88.0319 78.1827 87.9775 78.0521C87.923 77.9215 87.9153 77.7761 87.9556 77.6405C87.9761 77.5852 88.0083 77.535 88.05 77.4932C88.0917 77.4515 88.1419 77.4193 88.1972 77.3988C88.2863 77.3661 88.3828 77.359 88.4757 77.3784C88.5391 77.3886 88.5992 77.4136 88.6511 77.4513C88.703 77.489 88.7454 77.5384 88.7747 77.5954C88.8566 77.6651 88.828 77.7101 88.828 77.7101Z" fill="#263238"/>
<path d="M66.3424 81.3594C66.4163 81.3405 66.4938 81.3405 66.5677 81.3594C66.7457 81.4145 66.9029 81.5223 67.0184 81.6685C67.134 81.8147 67.2024 81.9926 67.2148 82.1785C67.2199 82.2753 67.2059 82.3722 67.1736 82.4635C67.1413 82.5549 67.0913 82.639 67.0264 82.711C66.8742 82.8751 66.6704 82.982 66.4489 83.0141C66.3243 83.0348 66.1966 83.0279 66.0749 82.994C65.9531 82.96 65.8404 82.8998 65.7444 82.8175C65.5638 82.6103 65.4437 82.3573 65.3975 82.0864C65.3512 81.8154 65.3806 81.5369 65.4823 81.2816C65.584 80.9791 65.7503 80.7023 65.9695 80.4703C66.1887 80.2383 66.4557 80.0568 66.752 79.9382C67.0674 79.8153 67.3991 79.7662 67.7104 79.672C67.8649 79.6347 68.0103 79.5665 68.1377 79.4715C68.2651 79.3764 68.372 79.2565 68.4517 79.119C68.5895 78.8122 68.6296 78.4705 68.5664 78.1402C68.5043 77.785 68.4083 77.4367 68.2797 77.0998C68.1485 76.7437 68.0739 76.3691 68.0585 75.9899C68.0635 75.6035 68.2092 75.2322 68.4681 74.9455C68.7129 74.6746 69.0274 74.4762 69.3774 74.3721C69.7088 74.2789 70.0558 74.2539 70.3972 74.2984C71.0689 74.368 71.6259 74.7079 72.1584 74.7857C72.414 74.8364 72.6791 74.8004 72.912 74.6834C73.1257 74.5612 73.3169 74.4033 73.4772 74.2164C73.7465 73.8597 74.0867 73.5627 74.4765 73.3441C74.7862 73.2013 75.1286 73.1447 75.4677 73.1802C75.6804 73.2003 75.8873 73.26 76.078 73.3563C76.1271 73.3811 76.175 73.4085 76.2213 73.4383L76.2623 73.4751C76.0102 73.3591 75.74 73.2871 75.4636 73.2621C75.1412 73.2414 74.819 73.3064 74.5298 73.4505C74.16 73.6729 73.8395 73.9684 73.5878 74.3188C73.4181 74.5214 73.2161 74.6944 72.9898 74.8308C72.7264 74.9666 72.4258 75.0126 72.1338 74.9619C71.5358 74.8718 70.9993 74.5523 70.3767 74.4949C70.0592 74.4423 69.7336 74.4685 69.4286 74.5713C69.1236 74.6742 68.8486 74.8505 68.6278 75.0847C68.4075 75.3363 68.2866 75.6596 68.2879 75.994C68.3005 76.3498 68.3711 76.7012 68.4968 77.0343C68.6303 77.3828 68.7291 77.7436 68.7917 78.1115C68.8608 78.4856 68.8121 78.872 68.6524 79.2173C68.5602 79.3785 68.4359 79.519 68.2873 79.6303C68.1387 79.7416 67.9688 79.8213 67.7882 79.8644C67.4524 79.9668 67.1247 80.0119 66.838 80.1184C66.5663 80.2275 66.3211 80.3937 66.119 80.6056C65.9169 80.8176 65.7627 81.0705 65.6666 81.3471C65.5629 81.5753 65.5244 81.8277 65.5555 82.0765C65.5866 82.3252 65.686 82.5604 65.8427 82.756C66.0024 82.8805 66.2025 82.9414 66.4045 82.927C66.6064 82.9127 66.7959 82.824 66.9363 82.6782C67.0394 82.5622 67.1013 82.4154 67.1124 82.2606C67.1235 82.1059 67.0832 81.9517 66.9977 81.8222C66.9045 81.6354 66.7455 81.4895 66.5513 81.4126C66.4202 81.3676 66.3424 81.3676 66.3424 81.3594Z" fill="#263238"/>
<path d="M79.375 83.5301C79.3633 83.5363 79.3503 83.5401 79.3371 83.5412C79.3238 83.5423 79.3104 83.5408 79.2978 83.5365C79.2851 83.5323 79.2735 83.5256 79.2635 83.5167C79.2536 83.5079 79.2455 83.4971 79.2399 83.485C79.2333 83.46 79.2364 83.4335 79.2485 83.4107C79.2607 83.3879 79.281 83.3706 79.3054 83.3621C79.3295 83.3516 79.3567 83.3504 79.3816 83.3587C79.4066 83.3671 79.4276 83.3843 79.4406 83.4072C79.4471 83.4322 79.444 83.4587 79.4319 83.4815C79.4197 83.5043 79.3994 83.5216 79.375 83.5301Z" fill="#263238"/>
<path d="M80.1819 83.4646C80.167 83.4663 80.152 83.465 80.1377 83.4607C80.1233 83.4564 80.11 83.4493 80.0986 83.4397C80.0871 83.4301 80.0776 83.4183 80.0708 83.405C80.0641 83.3917 80.06 83.3771 80.059 83.3622C80.056 83.3474 80.056 83.3322 80.0589 83.3174C80.0618 83.3026 80.0676 83.2885 80.076 83.2759C80.0844 83.2634 80.0952 83.2526 80.1077 83.2442C80.1202 83.2358 80.1343 83.23 80.1491 83.2271C80.1769 83.2294 80.2032 83.2411 80.2234 83.2603C80.2437 83.2795 80.2568 83.305 80.2606 83.3327C80.2644 83.3604 80.2587 83.3885 80.2444 83.4125C80.2301 83.4365 80.208 83.4548 80.1819 83.4646Z" fill="#263238"/>
<path d="M80.915 83.6325C80.8842 83.6238 80.8577 83.6038 80.841 83.5764C80.8243 83.5491 80.8186 83.5164 80.8249 83.485C80.8249 83.4072 80.8904 83.354 80.9478 83.3622C80.9786 83.3708 81.0051 83.3908 81.0218 83.4182C81.0385 83.4455 81.0443 83.4782 81.0379 83.5096C81.0359 83.5416 81.0224 83.5717 80.9997 83.5943C80.9771 83.617 80.947 83.6305 80.915 83.6325Z" fill="#263238"/>
<path d="M80.0467 84.1362C80.1055 84.1362 80.1532 84.0903 80.1532 84.0338C80.1532 83.9772 80.1055 83.9314 80.0467 83.9314C79.9879 83.9314 79.9402 83.9772 79.9402 84.0338C79.9402 84.0903 79.9879 84.1362 80.0467 84.1362Z" fill="#263238"/>
<path d="M85.1418 83.7388C85.1186 83.7443 85.0943 83.7426 85.0721 83.734C85.0499 83.7255 85.0307 83.7104 85.0172 83.6909C85.0036 83.6713 84.9962 83.6481 84.996 83.6243C84.9958 83.6004 85.0027 83.5771 85.0159 83.5573C85.0291 83.5375 85.048 83.5221 85.0701 83.5131C85.0921 83.5042 85.1164 83.502 85.1397 83.507C85.163 83.512 85.1842 83.5239 85.2007 83.5412C85.2171 83.5584 85.228 83.5802 85.2319 83.6037C85.2369 83.6334 85.2303 83.664 85.2136 83.6891C85.1968 83.7142 85.1712 83.732 85.1418 83.7388Z" fill="#263238"/>
<path d="M85.6866 83.7636C85.6292 83.7636 85.6087 83.6612 85.6374 83.5793C85.6661 83.4973 85.7316 83.4441 85.7889 83.4605C85.8463 83.4769 85.8668 83.5629 85.8381 83.6489C85.8094 83.7349 85.7439 83.784 85.6866 83.7636Z" fill="#263238"/>
<path d="M85.4162 84.5047C85.4015 84.5018 85.3876 84.496 85.3752 84.4875C85.3628 84.4791 85.3523 84.4682 85.3442 84.4556C85.3362 84.4429 85.3308 84.4288 85.3284 84.414C85.326 84.3992 85.3266 84.3841 85.3302 84.3696C85.3317 84.355 85.3361 84.3409 85.3432 84.328C85.3502 84.3152 85.3597 84.3039 85.3711 84.2947C85.3825 84.2856 85.3957 84.2788 85.4098 84.2748C85.4238 84.2708 85.4385 84.2696 85.4531 84.2713C85.4676 84.2737 85.4815 84.279 85.4939 84.2871C85.5062 84.2951 85.5168 84.3056 85.5249 84.3179C85.5329 84.3302 85.5384 84.3441 85.5408 84.3586C85.5433 84.3732 85.5427 84.388 85.5391 84.4023C85.536 84.432 85.5214 84.4594 85.4985 84.4785C85.4755 84.4976 85.446 84.507 85.4162 84.5047Z" fill="#263238"/>
<path d="M101.844 196.892L92.6042 129.943L92.3462 125.622L69.2258 124.524L68.2592 128.165C65.0154 139.601 48.6243 194.897 48.6243 194.897L56.6315 197.424L80.4686 134.063L91.5639 196.781L101.844 196.892Z" fill="#263238"/>
<path d="M91.1666 124.975C91.1052 124.975 91.0479 124.848 91.0315 124.68C91.0151 124.512 91.0315 124.368 91.1052 124.364C91.1789 124.36 91.224 124.491 91.2404 124.659C91.2567 124.827 91.224 124.971 91.1666 124.975Z" fill="#455A64"/>
<path d="M91.4083 127.412C91.3509 127.412 91.2731 127.15 91.2404 126.814C91.2076 126.478 91.2404 126.199 91.2854 126.195C91.3305 126.191 91.4206 126.457 91.4533 126.793C91.4861 127.129 91.4656 127.408 91.4083 127.412Z" fill="#455A64"/>
<path d="M91.6622 129.849C91.6008 129.849 91.527 129.587 91.4902 129.251C91.4533 128.915 91.4902 128.636 91.5311 128.628C91.5721 128.62 91.6663 128.89 91.7032 129.226C91.74 129.562 91.7195 129.84 91.6622 129.849Z" fill="#455A64"/>
<path d="M91.9243 132.281C91.8629 132.281 91.7892 132.019 91.7523 131.683C91.7155 131.348 91.7523 131.069 91.7892 131.065C91.8261 131.061 91.9284 131.327 91.9612 131.663C91.994 131.999 91.9817 132.273 91.9243 132.281Z" fill="#455A64"/>
<path d="M92.1947 134.714C92.1373 134.714 92.0595 134.452 92.0226 134.116C91.9858 133.781 91.9981 133.506 92.0595 133.498C92.1209 133.49 92.1947 133.76 92.2315 134.096C92.2684 134.432 92.252 134.706 92.1947 134.714Z" fill="#455A64"/>
<path d="M92.4773 137.147C92.4158 137.147 92.338 136.885 92.2971 136.549C92.2561 136.213 92.2766 135.939 92.3339 135.931C92.3913 135.923 92.4732 136.189 92.51 136.525C92.5469 136.861 92.5346 137.139 92.4773 137.147Z" fill="#455A64"/>
<path d="M92.764 139.58C92.7066 139.58 92.6247 139.318 92.5838 138.982C92.5428 138.646 92.5592 138.368 92.6165 138.364C92.6739 138.359 92.7558 138.622 92.7967 138.957C92.8377 139.293 92.8213 139.572 92.764 139.58Z" fill="#455A64"/>
<path d="M93.0589 142.009C93.0015 142.009 92.9196 141.751 92.8786 141.415C92.8377 141.079 92.85 140.801 92.9114 140.792C92.9729 140.784 93.0507 141.05 93.0916 141.386C93.1326 141.722 93.1162 142.001 93.0589 142.009Z" fill="#455A64"/>
<path d="M93.3619 144.437C93.3005 144.437 93.2186 144.179 93.1776 143.844C93.1367 143.508 93.149 143.229 93.2104 143.225C93.2718 143.221 93.3497 143.483 93.3906 143.819C93.4316 144.155 93.4193 144.429 93.3619 144.437Z" fill="#455A64"/>
<path d="M93.6691 146.866C93.6077 146.866 93.5258 146.608 93.4848 146.272C93.4439 145.937 93.4561 145.662 93.5135 145.654C93.5708 145.646 93.6527 145.912 93.6978 146.248C93.7428 146.584 93.7428 146.858 93.6691 146.866Z" fill="#455A64"/>
<path d="M93.9804 149.295C93.9231 149.295 93.8411 149.037 93.7961 148.701C93.751 148.365 93.7633 148.091 93.8248 148.083C93.8862 148.075 93.964 148.341 94.0091 148.677C94.0541 149.012 94.0377 149.27 93.9804 149.295Z" fill="#455A64"/>
<path d="M94.2958 151.728C94.2384 151.728 94.1565 151.47 94.1115 151.134C94.0664 150.798 94.0787 150.52 94.1401 150.516C94.2016 150.512 94.2794 150.77 94.3244 151.105C94.3695 151.441 94.3572 151.728 94.2958 151.728Z" fill="#455A64"/>
<path d="M94.6193 154.153C94.5579 154.153 94.476 153.895 94.4309 153.559C94.3859 153.223 94.3982 152.944 94.4555 152.936C94.5128 152.928 94.5988 153.194 94.6439 153.53C94.689 153.866 94.6767 154.144 94.6193 154.153Z" fill="#455A64"/>
<path d="M94.9429 156.577C94.8815 156.577 94.7995 156.319 94.7545 155.983C94.7094 155.648 94.7217 155.373 94.7791 155.365C94.8364 155.357 94.9224 155.623 94.9675 155.959C95.0125 156.295 95.0002 156.569 94.9429 156.577Z" fill="#455A64"/>
<path d="M95.2665 159.006C95.2091 159.006 95.1272 158.748 95.0781 158.412C95.0289 158.076 95.0453 157.798 95.1026 157.79C95.16 157.782 95.246 158.048 95.291 158.384C95.3361 158.719 95.3238 158.998 95.2665 159.006Z" fill="#455A64"/>
<path d="M95.5941 161.431C95.5368 161.431 95.4508 161.173 95.4057 160.837C95.3607 160.501 95.3729 160.227 95.4303 160.218C95.4876 160.21 95.5736 160.476 95.6187 160.808C95.6637 161.14 95.6556 161.423 95.5941 161.431Z" fill="#455A64"/>
<path d="M95.9259 163.855C95.8644 163.855 95.7825 163.601 95.7375 163.266C95.6924 162.93 95.7006 162.651 95.7375 162.643C95.7743 162.635 95.8808 162.901 95.9259 163.237C95.9709 163.573 95.9832 163.851 95.9259 163.855Z" fill="#455A64"/>
<path d="M96.2617 166.28C96.2044 166.28 96.1184 166.022 96.0692 165.69C96.0201 165.359 96.0283 165.076 96.0692 165.068C96.1102 165.06 96.2126 165.326 96.2576 165.658C96.3027 165.989 96.3191 166.272 96.2617 166.28Z" fill="#455A64"/>
<path d="M96.6099 168.701C96.5525 168.701 96.4665 168.443 96.4174 168.111C96.3682 167.779 96.3723 167.501 96.4174 167.488C96.4624 167.476 96.5648 167.746 96.6139 168.078C96.6631 168.41 96.6754 168.693 96.6099 168.701Z" fill="#455A64"/>
<path d="M96.9826 171.117C96.9252 171.117 96.8351 170.863 96.786 170.527C96.7368 170.191 96.7409 169.917 96.786 169.909C96.831 169.901 96.9293 170.163 96.9826 170.499C97.0358 170.835 97.0399 171.109 96.9826 171.117Z" fill="#455A64"/>
<path d="M97.3471 173.538C97.2897 173.538 97.2037 173.284 97.1505 172.948C97.0973 172.612 97.1054 172.338 97.1505 172.33C97.1955 172.321 97.2938 172.583 97.3471 172.919C97.4003 173.255 97.429 173.53 97.3471 173.538Z" fill="#455A64"/>
<path d="M97.7157 175.954C97.6584 175.954 97.5683 175.7 97.5191 175.369C97.47 175.037 97.4741 174.754 97.5191 174.746C97.5642 174.738 97.6666 175 97.7157 175.336C97.7648 175.672 97.773 175.946 97.7157 175.954Z" fill="#455A64"/>
<path d="M98.0843 178.375C98.0229 178.375 97.9369 178.117 97.8836 177.785C97.8304 177.453 97.8427 177.175 97.8836 177.163C97.9246 177.15 98.0311 177.421 98.0802 177.752C98.1294 178.084 98.1417 178.35 98.0843 178.375Z" fill="#455A64"/>
<path d="M98.4529 180.808C98.3915 180.808 98.3055 180.554 98.2522 180.218C98.199 179.882 98.2072 179.607 98.2522 179.599C98.2973 179.591 98.3956 179.853 98.4488 180.189C98.5021 180.525 98.5103 180.783 98.4529 180.808Z" fill="#455A64"/>
<path d="M98.8175 183.216C98.7601 183.216 98.6741 182.958 98.6209 182.626C98.5676 182.294 98.5758 182.012 98.6209 182.004C98.6659 181.995 98.7683 182.258 98.8216 182.593C98.8748 182.929 98.8789 183.204 98.8175 183.216Z" fill="#455A64"/>
<path d="M99.1861 185.637C99.1287 185.637 99.0427 185.379 98.9895 185.047C98.9362 184.715 98.9444 184.432 98.9895 184.424C99.0345 184.416 99.1369 184.678 99.1902 185.014C99.2434 185.35 99.2475 185.624 99.1861 185.637Z" fill="#455A64"/>
<path d="M99.5547 188.057C99.4973 188.057 99.4072 187.799 99.3581 187.467C99.3089 187.135 99.313 186.853 99.3581 186.845C99.4031 186.836 99.5055 187.099 99.5547 187.434C99.6038 187.77 99.612 188.049 99.5547 188.057Z" fill="#455A64"/>
<path d="M99.9233 190.478C99.8619 190.478 99.7759 190.224 99.7226 189.888C99.6694 189.552 99.6817 189.274 99.7226 189.265C99.7636 189.257 99.8701 189.523 99.9192 189.855C99.9684 190.187 99.9806 190.469 99.9233 190.478Z" fill="#455A64"/>
<path d="M100.296 192.898C100.235 192.898 100.149 192.644 100.099 192.309C100.05 191.973 100.054 191.698 100.099 191.69C100.144 191.682 100.247 191.944 100.296 192.28C100.345 192.616 100.345 192.89 100.296 192.898Z" fill="#455A64"/>
<path d="M100.648 195.323C100.591 195.323 100.501 195.069 100.452 194.733C100.403 194.397 100.411 194.119 100.452 194.111C100.493 194.102 100.595 194.364 100.648 194.7C100.701 195.036 100.706 195.315 100.648 195.323Z" fill="#455A64"/>
<path d="M100.91 197.158C100.853 197.158 100.788 197.035 100.763 196.867C100.738 196.699 100.763 196.556 100.824 196.547C100.886 196.539 100.951 196.67 100.976 196.838C101 197.006 100.968 197.15 100.91 197.158Z" fill="#455A64"/>
<path d="M56.0622 195.675C56.1195 195.675 56.1236 195.839 56.0622 195.999C56.0007 196.158 55.927 196.277 55.8697 196.261C55.8123 196.244 55.8082 196.097 55.8697 195.937C55.9311 195.777 56.0089 195.659 56.0622 195.675Z" fill="#455A64"/>
<path d="M56.824 193.304C56.8772 193.324 56.824 193.603 56.7338 193.93C56.6437 194.258 56.5004 194.508 56.4431 194.491C56.3857 194.475 56.4431 194.193 56.5332 193.865C56.6233 193.537 56.7666 193.287 56.824 193.304Z" fill="#455A64"/>
<path d="M57.5899 190.94C57.6472 190.94 57.5899 191.235 57.4997 191.563C57.4096 191.891 57.2622 192.14 57.2049 192.12C57.1475 192.099 57.2049 191.825 57.2991 191.497C57.3933 191.17 57.5366 190.92 57.5899 190.94Z" fill="#455A64"/>
<path d="M58.3721 188.59C58.4295 188.59 58.3721 188.885 58.2779 189.212C58.1837 189.54 58.0363 189.786 57.983 189.769C57.9298 189.753 57.983 189.47 58.0772 189.147C58.1714 188.823 58.3189 188.557 58.3721 188.59Z" fill="#455A64"/>
<path d="M59.1667 186.218C59.2241 186.218 59.1667 186.513 59.0684 186.841C58.9701 187.168 58.8227 187.414 58.7694 187.394C58.7162 187.373 58.7694 187.099 58.8677 186.771C58.966 186.444 59.1094 186.198 59.1667 186.218Z" fill="#455A64"/>
<path d="M59.9695 183.859C60.0268 183.879 59.9695 184.158 59.8712 184.486C59.7729 184.813 59.6213 185.059 59.5681 185.038C59.5148 185.018 59.5681 184.739 59.6664 184.416C59.7647 184.092 59.9162 183.843 59.9695 183.859Z" fill="#455A64"/>
<path d="M60.7845 181.508C60.8419 181.528 60.7845 181.807 60.6821 182.131C60.5797 182.454 60.4323 182.704 60.3749 182.683C60.3176 182.663 60.375 182.384 60.4814 182.061C60.5879 181.737 60.7313 181.488 60.7845 181.508Z" fill="#455A64"/>
<path d="M61.6119 179.169C61.6651 179.169 61.6119 179.468 61.5054 179.792C61.3989 180.116 61.2514 180.365 61.1982 180.345C61.145 180.324 61.1982 180.046 61.3047 179.722C61.4112 179.399 61.5545 179.141 61.6119 179.169Z" fill="#455A64"/>
<path d="M62.4433 176.81C62.5006 176.831 62.4433 177.109 62.3368 177.433C62.2303 177.756 62.0829 178.006 62.0255 177.986C61.9682 177.965 62.0255 177.687 62.1361 177.363C62.2467 177.04 62.3901 176.794 62.4433 176.81Z" fill="#455A64"/>
<path d="M63.287 174.468C63.3443 174.488 63.287 174.766 63.1764 175.09C63.0658 175.414 62.9225 175.659 62.8651 175.639C62.8078 175.618 62.8651 175.34 62.9757 175.016C63.0863 174.693 63.2338 174.447 63.287 174.468Z" fill="#455A64"/>
<path d="M64.1389 172.129C64.1963 172.149 64.1389 172.424 64.0242 172.747C63.9096 173.071 63.7662 173.317 63.713 173.296C63.6597 173.276 63.713 172.997 63.8235 172.678C63.9341 172.358 64.0857 172.108 64.1389 172.129Z" fill="#455A64"/>
<path d="M64.999 169.79C65.0523 169.79 64.999 170.089 64.8844 170.409C64.7697 170.728 64.6222 170.978 64.569 170.958C64.5157 170.937 64.569 170.659 64.6837 170.335C64.7983 170.011 64.9417 169.77 64.999 169.79Z" fill="#455A64"/>
<path d="M65.8632 167.452C65.9206 167.472 65.8632 167.751 65.7485 168.074C65.6339 168.398 65.4864 168.639 65.4291 168.619C65.3717 168.598 65.4291 168.324 65.5479 168C65.6666 167.677 65.81 167.431 65.8632 167.452Z" fill="#455A64"/>
<path d="M66.7356 165.121C66.793 165.142 66.7356 165.416 66.6168 165.74C66.4981 166.063 66.3547 166.305 66.3015 166.284C66.2482 166.264 66.3015 165.985 66.4202 165.666C66.539 165.346 66.6824 165.101 66.7356 165.121Z" fill="#455A64"/>
<path d="M67.6162 162.786C67.6694 162.807 67.6162 163.085 67.4974 163.409C67.3786 163.732 67.2312 163.974 67.1739 163.954C67.1165 163.933 67.1739 163.655 67.2967 163.331C67.4196 163.008 67.5589 162.786 67.6162 162.786Z" fill="#455A64"/>
<path d="M68.5009 160.46C68.5541 160.481 68.5009 160.755 68.378 161.079C68.2551 161.402 68.1118 161.644 68.0585 161.623C68.0053 161.603 68.0585 161.324 68.1773 161.001C68.2961 160.677 68.4435 160.436 68.5009 160.46Z" fill="#455A64"/>
<path d="M69.3896 158.13C69.4429 158.15 69.3896 158.429 69.2668 158.752C69.1439 159.076 69.0005 159.313 68.9432 159.293C68.8859 159.272 68.9432 158.994 69.0661 158.674C69.189 158.355 69.3323 158.109 69.3896 158.13Z" fill="#455A64"/>
<path d="M70.2825 155.824C70.3358 155.844 70.2825 156.123 70.1596 156.446C70.0368 156.77 69.8893 157.007 69.8361 156.987C69.7828 156.966 69.8361 156.688 69.9589 156.368C70.0818 156.049 70.2293 155.783 70.2825 155.824Z" fill="#455A64"/>
<path d="M71.1795 153.481C71.2327 153.501 71.1795 153.78 71.0566 154.099C70.9337 154.419 70.7863 154.665 70.7289 154.64C70.6716 154.615 70.7289 154.345 70.8559 154.022C70.9829 153.698 71.1262 153.46 71.1795 153.481Z" fill="#455A64"/>
<path d="M72.0805 151.155C72.1338 151.179 72.0805 151.453 71.9536 151.777C71.8266 152.101 71.6833 152.338 71.63 152.318C71.5768 152.297 71.63 152.019 71.757 151.699C71.8839 151.38 72.0355 151.134 72.0805 151.155Z" fill="#455A64"/>
<path d="M72.9816 148.836C73.0389 148.857 72.9816 149.131 72.8546 149.455C72.7277 149.778 72.5843 150.016 72.5311 149.995C72.4778 149.975 72.5311 149.697 72.658 149.377C72.785 149.058 72.9284 148.812 72.9816 148.836Z" fill="#455A64"/>
<path d="M73.8868 146.514C73.9441 146.535 73.8868 146.813 73.7598 147.133C73.6328 147.452 73.4895 147.694 73.4362 147.673C73.383 147.653 73.4362 147.374 73.5632 147.055C73.6902 146.735 73.8335 146.494 73.8868 146.514Z" fill="#455A64"/>
<path d="M74.796 144.192C74.8493 144.216 74.796 144.491 74.669 144.814C74.5421 145.138 74.3946 145.376 74.3414 145.355C74.2881 145.335 74.3414 145.056 74.4684 144.737C74.5953 144.417 74.7387 144.171 74.796 144.192Z" fill="#455A64"/>
<path d="M75.7217 141.874C75.779 141.898 75.7217 142.173 75.5947 142.492C75.4677 142.812 75.3244 143.057 75.267 143.033C75.2097 143.008 75.267 142.734 75.3981 142.414C75.5292 142.095 75.6479 141.853 75.7217 141.874Z" fill="#455A64"/>
<path d="M76.6514 139.572C76.7046 139.596 76.6514 139.871 76.508 140.186C76.3647 140.502 76.2213 140.743 76.1681 140.719C76.1148 140.694 76.1681 140.424 76.3114 140.104C76.4548 139.785 76.5981 139.551 76.6514 139.572Z" fill="#455A64"/>
<path d="M77.7204 137.323C77.7736 137.352 77.6917 137.622 77.5402 137.93C77.3886 138.237 77.2207 138.462 77.1674 138.437C77.1142 138.413 77.192 138.143 77.3477 137.835C77.5033 137.528 77.6671 137.295 77.7204 137.323Z" fill="#455A64"/>
<path d="M79.0433 135.218C79.0883 135.255 78.9696 135.509 78.7771 135.792C78.5846 136.074 78.3675 136.271 78.3347 136.242C78.302 136.213 78.4043 135.955 78.6009 135.669C78.7975 135.382 78.9982 135.181 79.0433 135.218Z" fill="#455A64"/>
<path d="M80.4686 134.063C80.4686 134.121 80.3744 134.202 80.2351 134.276C80.0959 134.35 79.9607 134.391 79.9239 134.346C79.887 134.301 79.9771 134.174 80.1368 134.088C80.2966 134.002 80.4522 134.006 80.4686 134.063Z" fill="#455A64"/>
<path d="M76.7251 98.975L62.0747 98.5654H47.1376C46.1787 98.5848 45.2667 98.9838 44.6017 99.6749C43.9367 100.366 43.5731 101.293 43.5907 102.252V112.409C43.5405 119.428 45.2141 126.351 48.4646 132.572C51.2251 137.753 55.4969 143.086 62.0747 146.473C68.1241 144.204 72.6376 138.147 75.3981 132.957C78.6485 126.736 80.3221 119.813 80.272 112.794V102.657C80.2895 101.699 79.9258 100.772 79.2607 100.082C78.5956 99.3914 77.6836 98.9933 76.7251 98.975Z" fill="#407BFF"/>
<path d="M61.5709 122.685L56.1482 118.2L57.9749 115.989L61.2432 118.692L66.5882 112.561L68.7507 114.44L61.5709 122.685Z" fill="white"/>
<g opacity="0.3">
<path d="M76.7251 98.975L62.0747 98.5654H47.1376C46.1787 98.5848 45.2667 98.9838 44.6017 99.6749C43.9367 100.366 43.5731 101.293 43.5907 102.252V112.409C43.5405 119.428 45.2141 126.351 48.4646 132.572C51.2251 137.753 55.4969 143.086 62.0747 146.473C68.1241 144.204 72.6376 138.147 75.3981 132.957C78.6485 126.736 80.3221 119.813 80.272 112.794V102.657C80.2895 101.699 79.9258 100.772 79.2607 100.082C78.5956 99.3914 77.6836 98.9933 76.7251 98.975ZM76.2418 113.539C76.2813 119.091 74.9565 124.568 72.3836 129.488C70.2006 133.584 66.9896 137.807 61.7839 140.489C56.5823 137.807 53.49 133.588 51.307 129.488C48.7402 124.566 47.4196 119.09 47.4611 113.539V105.524C47.4479 104.766 47.7352 104.034 48.2602 103.488C48.7851 102.942 49.5051 102.625 50.2626 102.608H73.4444C74.2027 102.624 74.9237 102.94 75.4495 103.487C75.9753 104.033 76.2632 104.766 76.25 105.524L76.2418 113.539Z" fill="black"/>
</g>
<rect x="0.5" y="0.5" width="339" height="239" rx="11.5" stroke="#B5B5B5"/>
</svg>
