<svg width="174" height="34" viewBox="0 0 174 34" fill="none" xmlns="http://www.w3.org/2000/svg">
<path d="M43.6861 0.712593H48.6992V5.14486H43.6861V0.712593ZM43.6861 26.7008H48.6992V8.01212H43.6861V26.7008ZM63.7964 8.01212H68.6245V25.5471C68.6975 26.6032 68.534 27.6624 68.1459 28.6495C67.7577 29.6366 67.1544 30.5274 66.3783 31.2586C64.4491 32.7714 62.0181 33.5207 59.5591 33.3605C54.4071 33.3605 51.2348 31.1902 50.7137 27.546H55.6921C56.0973 28.6884 57.1626 29.6252 59.4896 29.6252C62.3261 29.6252 63.6809 28.2772 63.6809 25.7297V23.4452H63.5765C62.9767 24.1578 62.219 24.725 61.3619 25.1034C60.5048 25.4815 59.5711 25.6606 58.6329 25.627C54.4416 25.627 50.3084 22.3484 50.3084 16.7167C50.3084 11.085 53.7008 7.57802 58.4938 7.57802C59.5053 7.5286 60.513 7.72826 61.4267 8.159C62.3402 8.58977 63.1308 9.23807 63.7271 10.0455H63.7964V8.01212ZM63.9123 16.5682C63.9123 13.838 62.4304 11.5077 59.4085 11.5077C56.8731 11.5077 55.1827 13.4725 55.1827 16.6025C55.1827 19.7325 56.8731 21.6173 59.4548 21.6173C62.6504 21.6173 63.9123 19.3212 63.9123 16.5682ZM81.6262 7.55519C80.5 7.5065 79.3819 7.76551 78.3951 8.30368C77.4086 8.84182 76.5914 9.63826 76.0341 10.6052H75.9185V8.01212H71.021V26.7008H76.0341V16.1227C76.0341 13.5867 77.655 11.839 79.8664 11.839C80.3194 11.8184 80.7714 11.8946 81.1915 12.0624C81.6118 12.2301 81.9906 12.4853 82.3016 12.8107C82.6127 13.1361 82.8488 13.5239 82.994 13.9476C83.1392 14.3714 83.19 14.8211 83.143 15.2659V26.6892H88.1444V14.5234C88.1444 10.4567 85.5395 7.55519 81.6262 7.55519ZM109.216 26.7008H114.218V0.712593H109.216V26.7008ZM117.066 26.7008H122.415V16.0085H132.395V11.4391H122.415V5.19055H134.455V0.712593H117.089L117.066 26.7008ZM136.597 5.14486H141.611V0.712593H136.597V5.14486ZM136.597 26.7008H141.611V8.01212H136.597V26.7008ZM168.668 21.149H173.611C172.905 24.4503 169.918 27.2491 165.055 27.2491C158.803 27.2491 155.261 22.9196 155.261 17.3678C155.261 11.8161 159.058 7.55519 164.523 7.55519C170.601 7.55519 173.843 12.1245 173.843 18.7843H160.193C160.563 21.6516 162.184 23.4336 165.021 23.4336C165.801 23.5152 166.586 23.3337 167.248 22.9188C167.91 22.504 168.41 21.8802 168.668 21.149ZM160.274 15.3688H168.668C168.679 14.8427 168.582 14.3198 168.384 13.8314C168.185 13.3429 167.889 12.8989 167.513 12.5257C167.137 12.1526 166.689 11.858 166.195 11.6595C165.701 11.4611 165.172 11.3628 164.639 11.3706C161.999 11.3706 160.714 12.9242 160.274 15.3688ZM106.669 14.4549V26.7008H102.316V24.1304C101.401 25.8211 99.5254 27.1461 96.2721 27.1461C92.405 27.1461 89.6843 25.1472 89.6843 21.4346C89.6843 17.3221 93.0767 16.0199 97.2678 15.4373C100.405 15.0032 101.899 14.7519 101.899 13.324C101.899 11.8961 100.776 11.1078 98.6455 11.1078C96.3299 11.1078 95.1723 11.9532 94.9986 13.7238H90.5411C90.6915 10.4567 93.1575 7.58945 98.6455 7.58945C104.133 7.58945 106.669 10.0912 106.669 14.4549ZM101.957 17.3221C100.854 17.8492 99.6864 18.2331 98.4834 18.4645C95.8668 19.0471 94.5818 19.6068 94.5818 21.366C94.5818 23.1252 95.7394 23.7308 97.534 23.7308C100.405 23.7308 101.991 21.9829 101.991 20.1666L101.957 17.3221ZM3.33765 25.0672C3.98658 25.5306 4.69028 25.914 5.43322 26.2096V18.6244H0.234819C0.217523 19.861 0.488298 21.0851 1.02626 22.2021C1.56423 23.3191 2.35501 24.2994 3.33765 25.0672ZM1.73992 4.45946C1.20791 5.52395 0.945693 6.69994 0.975792 7.88645C0.920464 9.07524 1.18405 10.2574 1.73992 11.3135C2.23418 12.1463 2.90569 12.8635 3.70814 13.4154C4.24364 13.7581 4.80938 14.0525 5.3985 14.295V1.15811C4.84622 1.40073 4.31892 1.69529 3.82393 2.0377C2.95094 2.67736 2.23806 3.50579 1.73992 4.45946ZM38.5108 13.3011C37.5299 12.6848 36.4658 12.2079 35.35 11.8846C34.1924 11.5305 32.8609 11.2107 31.4947 10.9137C30.499 10.6928 29.6423 10.4872 28.9243 10.2968C28.3017 10.1312 27.6998 9.89752 27.1298 9.59996C26.6989 9.37445 26.3265 9.05389 26.0415 8.66325C25.8007 8.25514 25.6841 7.78712 25.7057 7.3153C25.6959 6.85498 25.8108 6.40043 26.0389 5.99871C26.2668 5.59699 26.5995 5.26276 27.0024 5.03062C28.0536 4.42474 29.2598 4.13121 30.476 4.18529C31.7109 4.14688 32.9265 4.49472 33.9492 5.17912C34.4271 5.5249 34.8223 5.97022 35.1064 6.48351C35.3907 6.99678 35.5568 7.56546 35.5932 8.1492H40.7569C40.7346 6.97696 40.4513 5.82392 39.9271 4.77172C39.4029 3.71955 38.6506 2.79397 37.7235 2.06055C35.623 0.602118 33.087 -0.117979 30.5222 0.0157689C29.1438 0.000978936 27.7696 0.166146 26.4353 0.506972C25.2791 0.80277 24.188 1.30618 23.2166 1.99201C22.3171 2.63809 21.5835 3.48316 21.0747 4.45946C20.5431 5.52411 20.281 6.69999 20.3106 7.88645C20.2547 9.07529 20.5183 10.2576 21.0747 11.3135C21.5708 12.1747 22.255 12.9161 23.0777 13.4839C23.9725 14.0712 24.9523 14.5218 25.9837 14.8204C27.0835 15.1517 28.2298 15.4487 29.457 15.7229C30.476 15.9399 31.3904 16.157 32.1894 16.3626C32.9044 16.5334 33.5992 16.7785 34.2617 17.0937C34.7798 17.3361 35.2321 17.6962 35.5817 18.1446C35.9073 18.6057 36.0699 19.1597 36.0448 19.721C36.0636 20.2696 35.9141 20.811 35.6164 21.2746C35.3206 21.7108 34.9236 22.071 34.4586 22.3256C33.9502 22.6062 33.3987 22.803 32.8262 22.9082C32.1742 23.0344 31.5109 23.0957 30.8462 23.0909C29.3512 23.1985 27.8591 22.8473 26.5741 22.0857C26.0577 21.6678 25.6376 21.1459 25.342 20.5549C25.0465 19.9639 24.8825 19.3174 24.8606 18.6587H19.5928C19.5755 19.8953 19.8463 21.1193 20.3842 22.2364C20.9222 23.3534 21.713 24.3337 22.6956 25.1015C24.6637 26.6245 27.4618 27.3861 31.0894 27.3861C32.4829 27.3984 33.8708 27.2138 35.2112 26.8378C36.3852 26.4778 37.4808 25.9043 38.4413 25.1472C39.3529 24.4543 40.0899 23.5629 40.5948 22.5426C41.1329 21.4388 41.4026 20.2262 41.3821 19.0014C41.4296 17.7924 41.1585 16.5919 40.5948 15.5173C40.0878 14.6262 39.3735 13.8666 38.5108 13.3011ZM12.3335 18.6244H7.0541C7.03681 19.861 7.30759 21.0851 7.84556 22.2021C8.38352 23.3191 9.1743 24.2994 10.1569 25.0672C12.4496 26.629 15.187 27.4292 17.9719 27.3518V23.0224C16.5918 23.0765 15.2263 22.7267 14.0471 22.0172C13.537 21.6012 13.121 21.0843 12.8259 20.4999C12.5308 19.9156 12.363 19.2767 12.3335 18.6244ZM13.8965 0.506972C15.228 0.171615 16.5977 0.00652734 17.9719 0.0157689V4.24241C16.7558 4.18833 15.5497 4.48186 14.4986 5.08774C14.0956 5.31988 13.7629 5.65411 13.5349 6.05583C13.3069 6.45755 13.1919 6.9121 13.2019 7.37242C13.1836 7.84535 13.3042 8.31346 13.5492 8.72037C13.8341 9.11101 14.2066 9.43155 14.6375 9.65708C15.2136 9.93577 15.8194 10.1503 16.4436 10.2968L18.0298 10.6852V15.8828L16.9646 15.6543C15.8069 15.3802 14.6491 15.0832 13.4913 14.7519C12.4626 14.4559 11.4863 14.0051 10.5969 13.4154C9.7679 12.8512 9.07917 12.1092 8.58236 11.2449C8.03587 10.206 7.77256 9.04471 7.81823 7.87505C7.7886 6.68856 8.05079 5.51268 8.58236 4.44803C9.07277 3.48314 9.78193 2.64273 10.6548 1.99201C11.6331 1.30365 12.7323 0.800137 13.8965 0.506972ZM144.042 8.01212V12.5815V26.7008H149.055V12.5815H155.203V8.01212H144.042Z" fill="#9C9C9C"/>
</svg>
