<svg width="176" height="51" viewBox="0 0 176 51" fill="none" xmlns="http://www.w3.org/2000/svg">
<mask id="mask0_347_1999" style="mask-type:luminance" maskUnits="userSpaceOnUse" x="0" y="0" width="175" height="51">
<path d="M174.925 0.927246H0V51H174.925V0.927246Z" fill="white"/>
</mask>
<g mask="url(#mask0_347_1999)">
<path d="M159.225 1.74271C158.329 2.00703 157.789 2.69877 157.789 3.51423C157.789 4.44778 158.275 5.03269 159.004 5.03269C159.447 5.03269 159.76 4.86397 159.976 4.53777C160.283 4.06537 160.435 3.46924 160.667 2.85061C161.099 1.72584 161.563 1.18032 162.47 1.18032C163.593 1.18032 164.333 2.0239 164.333 3.31739C164.333 4.44218 163.739 5.24637 162.627 5.5838L162.427 4.8527C163.258 4.61649 163.69 4.04849 163.69 3.23304C163.69 2.44569 163.247 1.95641 162.556 1.95641C162.216 1.95641 161.946 2.12513 161.709 2.42882C161.477 2.73813 161.32 3.28365 161.072 3.97539C160.618 5.2239 160.143 5.80315 159.063 5.80315C157.913 5.80315 157.136 4.93143 157.136 3.5536C157.136 2.26011 157.762 1.38278 158.999 0.983485L159.236 1.74271H159.225ZM157.125 9.53176C157.125 7.76589 158.404 6.74232 160.731 6.74232C163.031 6.74232 164.333 7.82775 164.333 9.47553C164.333 10.8253 163.631 11.6689 162.254 11.9782L162.07 11.2246C163.118 10.9996 163.679 10.4035 163.679 9.54866C163.679 8.31141 162.654 7.55778 160.71 7.55778C158.82 7.55778 157.795 8.31701 157.795 9.57115C157.795 10.516 158.388 11.1683 159.49 11.3708L159.338 12.1019C157.859 11.7476 157.125 10.8984 157.125 9.53739V9.53176ZM164.214 13.3166V14.104H161.234V17.7595H164.214V18.5468H157.238V17.7595H160.559V14.104H157.233V13.3166H164.209H164.214ZM164.327 22.6579C164.327 24.3732 162.967 25.5261 160.731 25.5261C158.496 25.5261 157.131 24.3732 157.131 22.6579C157.131 20.937 158.507 19.7897 160.737 19.7897C162.972 19.7785 164.338 20.937 164.338 22.6579H164.327ZM157.795 22.6579C157.795 23.9233 158.853 24.7162 160.731 24.7162C162.621 24.7162 163.668 23.9289 163.668 22.6579C163.668 21.3869 162.621 20.5939 160.737 20.5939C158.863 20.5939 157.811 21.3813 157.811 22.6579H157.795ZM164.327 29.4965C164.327 31.2118 162.967 32.3647 160.731 32.3647C158.496 32.3647 157.131 31.2118 157.131 29.4965C157.131 27.7756 158.507 26.6171 160.737 26.6171C162.972 26.6171 164.338 27.7756 164.338 29.4853L164.327 29.4965ZM157.795 29.4965C157.795 30.7619 158.853 31.5549 160.731 31.5549C162.621 31.5549 163.668 30.7675 163.668 29.4909C163.668 28.2199 162.621 27.4269 160.737 27.4269C158.863 27.4269 157.811 28.2143 157.811 29.4853L157.795 29.4965ZM164.214 33.6526V34.468H157.897V37.713H157.238V33.6582H164.214V33.6526ZM164.327 42.5777C164.327 44.2986 162.967 45.4457 160.731 45.4457C158.496 45.4457 157.131 44.2986 157.131 42.5777C157.131 40.8568 158.507 39.7096 160.737 39.7096C162.972 39.7096 164.338 40.8568 164.338 42.5777H164.327ZM157.795 42.5777C157.795 43.843 158.853 44.6359 160.731 44.6359C162.621 44.6359 163.668 43.8486 163.668 42.5777C163.668 41.3123 162.621 40.5195 160.737 40.5195C158.863 40.5195 157.811 41.3067 157.811 42.5777H157.795ZM164.214 46.7393V50.9965H163.566V47.538H161.234V50.1025H160.575V47.538H157.238V46.7393H164.214ZM168.598 5.69066C168.004 5.24077 167.723 4.62213 167.723 3.7673C167.723 2.04077 169.051 0.927246 171.286 0.927246C173.608 0.927246 174.925 1.99578 174.925 3.79542C174.925 5.07765 174.24 5.92124 172.874 6.32616L172.728 5.49944C173.737 5.21827 174.261 4.64462 174.261 3.7673C174.261 2.49068 173.235 1.74271 171.346 1.74271C169.445 1.74271 168.387 2.5413 168.387 3.82354C168.387 4.8752 168.997 5.5782 170.061 5.5782H170.547V3.9079H171.216V6.41052H167.831V5.71879L168.587 5.69066H168.598ZM174.807 8.32827V10.3641C174.807 12.3325 174.299 13.2716 172.971 13.2716C172.053 13.2716 171.459 12.7655 171.189 11.7644L167.842 13.4741V12.5912L171 10.994V9.12123H167.836V8.33387H174.801L174.807 8.32827ZM174.159 9.1156H171.643V10.336C171.643 11.7982 171.994 12.4562 172.901 12.4562C173.927 12.4562 174.164 11.8207 174.164 10.3641V9.12686L174.159 9.1156ZM174.807 16.7472V17.9732L167.842 20.2115V19.3679L170.002 18.7155V16.0161L167.842 15.3694V14.5145L174.807 16.7528V16.7472ZM170.649 18.4906L174.288 17.3996V17.2871L170.649 16.1905V18.4794V18.4906ZM174.807 21.5331V23.2596C174.807 24.2382 174.698 24.9468 174.266 25.5654C173.673 26.3528 172.658 26.8139 171.324 26.8139C169.013 26.8139 167.836 25.5654 167.836 23.0853V21.5331H174.801H174.807ZM174.159 22.3205H168.522V22.9672C168.522 23.8895 168.609 24.5588 169.008 25.0762C169.456 25.6779 170.25 26.0154 171.319 26.0154C172.436 26.0154 173.246 25.6891 173.711 25.0593C174.116 24.5194 174.164 23.9008 174.164 23.0741V22.3148L174.159 22.3205ZM174.807 29.0635H170.315C169.883 29.0635 169.505 29.0635 169.181 29.2491C168.684 29.5134 168.387 30.0927 168.387 30.88C168.387 31.6673 168.679 32.2579 169.17 32.5109C169.537 32.7077 169.942 32.7077 170.433 32.7077H174.796V33.5063H170.18C168.56 33.5063 167.712 32.5953 167.712 30.8856C167.712 29.1647 168.549 28.2705 170.18 28.2705H174.796V29.0747L174.807 29.0635ZM174.807 36.7964V38.0224L167.842 40.2549V39.4113L170.002 38.7534V36.054L167.842 35.4072V34.5636L174.807 36.8019V36.7964ZM170.649 38.5399L174.288 37.4487V37.3364L170.649 36.2452V38.534V38.5399ZM174.142 42.4428V40.3227H174.807V45.3838H174.142V43.2637H167.826V42.4428H174.142ZM174.807 46.7055V50.9965H174.159V47.5098H171.826V49.9843H171.178V47.5098H168.5V50.9965H167.836V46.7055H174.801H174.807Z" fill="#9C9C9C"/>
<path d="M35.6114 28.1298C39.0127 28.3772 39.0127 29.9294 39.0127 32.7244V40.6203C39.0127 43.5673 39.0127 45.1759 38.0676 46.694C36.6262 49.0395 33.8028 49.8434 31.5729 49.8434C28.6467 49.8434 26.8596 48.4768 26.0876 47.1047C25.2507 45.6425 25.2507 43.7867 25.2507 40.4461V33.1519C25.2507 28.1298 25.3587 28.1298 28.6845 28.1298V27.3593H18.5075V28.1298H19.015C21.9844 28.1298 22.0168 28.5234 22.0168 33.2194V40.3393C22.0168 44.2648 22.0168 45.8786 23.129 47.594C24.0036 48.9324 26.1902 50.9965 30.8062 50.9965C35.0499 50.9965 37.7709 49.253 38.9586 47.0035C39.8225 45.3163 39.8225 43.809 39.8225 40.7611V33.0394C39.8225 30.1712 39.8225 28.3716 43.0943 28.1298V27.3593H35.6114V28.1298ZM60.6731 28.1298H61.1481C64.0744 28.1298 64.1445 28.4503 64.1445 33.1462V44.5402C64.1445 49.0395 64.1445 49.8041 61.3211 49.8041H60.6731V50.5747H70.8499V49.7986H70.2023C67.3785 49.7986 67.3785 49.028 67.3785 44.5347V33.1519C67.3785 28.411 67.4433 28.1298 70.3695 28.1298H70.8446V27.3593H60.6731V28.1298ZM51.5058 36.5488C48.914 35.3564 46.15 34.091 46.15 31.3185C46.15 29.7776 47.1595 27.7755 49.9833 27.7755C52.4882 27.7755 55.301 29.7551 55.8842 32.9382H56.6292V27.3593H55.9276C55.8518 27.7811 55.6251 28.889 55.0473 29.3951C54.2374 28.4784 52.8231 26.9375 49.8915 26.9375C46.1877 26.9375 44.0066 29.6707 44.0066 32.6907C44.0066 37.111 47.6779 38.7645 50.1615 39.8779C50.3665 39.9513 51.4734 40.4405 51.673 40.5528C53.9407 41.5651 56.2243 42.8979 56.2243 45.6314C56.2243 47.7682 54.5723 50.1529 51.2735 50.1529C46.5009 50.1529 45.0377 45.3894 44.6492 43.3479H43.8283V50.5858H44.5627C44.8111 49.0673 45.2377 48.4038 45.4427 48.0888C45.9825 48.7189 47.8992 50.9965 51.5706 50.9965C55.8464 50.9965 58.5727 48.2296 58.5727 44.3041C58.5727 39.8779 55.8411 38.5451 51.5001 36.5432L51.5058 36.5488ZM127.684 36.5488C125.082 35.3564 122.323 34.091 122.323 31.3185C122.323 29.7776 123.333 27.7755 126.157 27.7755C128.662 27.7755 131.475 29.7551 132.057 32.9382H132.797V27.3593H132.095C132.02 27.7811 131.793 28.889 131.21 29.3951C130.4 28.4784 128.996 26.9375 126.059 26.9375C122.35 26.9375 120.164 29.6707 120.164 32.6907C120.164 37.111 123.835 38.7645 126.318 39.8779C126.534 39.9513 127.636 40.4405 127.841 40.5528C130.098 41.5651 132.387 42.8979 132.387 45.6314C132.387 47.7682 130.735 50.1529 127.436 50.1529C122.658 50.1529 121.2 45.3894 120.811 43.3479H119.991V50.5858H120.731C120.979 49.0673 121.406 48.4038 121.611 48.0888C122.15 48.7189 124.067 50.9965 127.739 50.9965C132.02 50.9965 134.746 48.2296 134.746 44.3041C134.746 39.8779 132.02 38.5451 127.674 36.5432L127.684 36.5488ZM145.155 36.5488C142.564 35.3564 139.8 34.091 139.8 31.3185C139.8 29.7776 140.809 27.7755 143.633 27.7755C146.138 27.7755 148.951 29.7551 149.534 32.9382H150.274V27.3593H149.572C149.496 27.7811 149.269 28.889 148.692 29.3951C147.882 28.4784 146.478 26.9375 143.541 26.9375C139.837 26.9375 137.656 29.6707 137.656 32.6907C137.656 37.111 141.328 38.7645 143.811 39.8779C144.016 39.9513 145.123 40.4405 145.323 40.5528C147.59 41.5651 149.874 42.8979 149.874 45.6314C149.874 47.7682 148.217 50.1529 144.918 50.1529C140.145 50.1529 138.682 45.3894 138.293 43.3479H137.483V50.5858H138.212C138.461 49.0673 138.893 48.4038 139.092 48.0888C139.632 48.7189 141.549 50.9965 145.22 50.9965C149.496 50.9965 152.222 48.2296 152.222 44.3041C152.222 39.8779 149.496 38.5451 145.15 36.5432L145.155 36.5488ZM88.9095 28.1298C92.7157 28.1691 92.7157 29.9575 92.7157 31.6391V45.2263H92.6509L79.5262 27.3593H72.961V28.1298C75.7901 28.1298 76.2544 28.1298 76.2544 33.1462V45.4513C76.2544 47.6277 76.2544 48.19 75.7577 48.7133C74.8397 49.6299 73.3282 49.7255 72.6585 49.8041V50.5747H80.9729V49.7986C78.8512 49.7593 78.0467 49.1236 77.8417 48.9212C77.1667 48.3252 77.0696 47.8697 77.0696 45.4457V29.3614H77.1344L92.7263 50.5802H93.5362V31.8809C93.5362 30.025 93.5362 28.4503 97.0022 28.1241V27.3593H88.9201V28.1298H88.9095ZM109.625 49.8097H107.978C104.912 49.8097 104.707 49.5287 104.707 44.197V38.6859H107.136C109.69 38.6859 110.429 38.8657 110.429 42.3749H111.207V34.4116H110.429C110.429 37.111 110.23 37.9153 107.098 37.9153H104.707V28.1298H107.967C111.865 28.1298 113.491 28.276 114.419 32.9382H115.186V27.3593H98.5842V28.1298C101.446 28.1298 101.473 28.5515 101.473 33.1462V44.5402C101.473 49.028 101.473 49.8041 98.5788 49.8041H98.1362V50.5747H116.59V43.3534H115.818C114.716 49.8323 111.86 49.8041 109.62 49.8041L109.625 49.8097ZM10.6899 38.1292V38.0558C12.0288 37.8872 16.9796 37.111 16.9796 32.657C16.9796 27.1118 9.9394 27.348 7.85544 27.348C6.9106 27.348 0 27.3593 0 27.3593V28.1298C3.34733 28.1298 3.4445 28.1298 3.4445 33.2194V44.5458C3.4445 49.0336 3.4445 49.8097 0.615477 49.8097H0V50.5802H8.53029C10.4469 50.5802 13.6053 50.5802 15.4949 49.343C17.1793 48.2578 18.1944 46.3286 18.1944 44.2589C18.1944 40.1536 14.8902 38.4101 10.6899 38.1292ZM6.67306 28.1354C6.67306 28.1354 8.10918 28.1129 8.73545 28.1354C11.9748 28.1916 13.5081 29.2714 13.5081 32.8313C13.5081 37.2515 10.8518 37.8479 6.67306 37.7411V28.1354ZM9.37251 49.7704C6.67306 49.7704 6.67306 49.1069 6.67306 43.7752V38.5788C10.042 38.3653 11.9262 38.9613 12.871 39.6644C14.1128 40.6092 14.5879 42.0825 14.5879 44.1522C14.5879 45.3782 14.6203 49.7593 9.36714 49.7593L9.37251 49.7704Z" fill="#9C9C9C"/>
<path d="M25.4289 16.7416V1.99578H28.5225C30.9682 1.99578 32.2693 1.99578 32.9658 6.31493H33.5704V1.30967H14.3935V6.31493H15.063C15.3059 4.83584 15.6569 3.54235 16.1428 2.91247C16.8446 1.99578 17.5789 1.99578 19.6629 1.99578H22.5243V16.7303C22.5243 20.7683 22.5621 21.4656 19.9868 21.4656H18.961V22.1574H28.9706V21.4656H27.9664C25.4289 21.4656 25.4289 20.7739 25.4289 16.7416ZM100.582 0.927246C95.1399 0.927246 89.7841 4.48717 89.7841 11.5732C89.7841 18.5019 94.5891 22.5398 100.674 22.5398C107.325 22.5398 111.59 18.0632 111.59 11.697C111.596 4.23408 106.019 0.927246 100.582 0.927246ZM100.798 21.7806C95.5338 21.7806 93.1747 18.1813 93.1747 11.7026C93.1747 7.31597 94.4432 1.69209 100.679 1.69209C107.601 1.69209 108.2 8.7107 108.2 11.7307C108.2 15.2625 107.363 21.7862 100.803 21.7862L100.798 21.7806ZM148.184 3.69981C146.338 2.06889 143.989 1.30405 139.6 1.30405C137.91 1.30405 130.708 1.30405 130.708 1.30405V1.99578H131.28C133.942 1.99578 134.001 2.44569 134.001 6.6636V16.7416C134.001 19.6098 133.926 20.9201 132.921 21.37C132.382 21.5669 131.928 21.5387 131.637 21.4713C130.405 21.2182 129.331 20.2902 126.939 16.9272C126.788 16.7416 126.059 15.7293 125.914 15.51C125.546 15.0038 123.673 12.3943 122.372 11.7026V11.6351C125.546 11.2977 128.095 9.55426 128.095 6.40489C128.095 5.05519 127.609 3.85728 126.394 2.81687C125.255 1.84394 123.495 1.30967 119.413 1.30967C118.566 1.30967 112.006 1.30967 112.006 1.30967V1.99578C114.975 1.99578 115.056 1.99578 115.056 6.50611V16.7416C115.056 20.7739 115.056 21.4656 112.486 21.4656H111.855V22.1574H121.438V21.4656H120.466C117.929 21.4656 117.961 20.7739 117.961 16.7416V12.1187H118.749C119.073 12.1187 119.683 12.0794 120.169 12.5855C120.774 13.2154 122.113 14.8182 123.317 16.6797C124.127 17.9451 126.189 21.0326 127.7 22.163H139.508C142.467 22.163 145.733 22.1967 148.362 19.8572C151.083 17.4727 151.44 13.6934 151.44 11.9275C151.451 9.59365 150.932 6.13495 148.184 3.70544V3.69981ZM119.624 11.3483H117.961V2.142C118.35 2.142 118.647 2.142 119.192 2.142C121.881 2.142 124.845 2.09701 124.845 6.6411C124.845 9.72297 123.516 11.3651 119.608 11.3651L119.624 11.3483ZM145.339 20.0091C143.676 21.37 141.468 21.4319 140.048 21.4319C136.873 21.4319 136.906 21.3082 136.906 15.8249V1.99578C136.906 1.99578 138.326 1.98454 139.351 1.98454C140.933 1.98454 144.265 1.81582 146.343 4.8977C147.92 7.22598 148.217 10.156 148.217 12.1412C148.217 14.627 147.763 18.0632 145.344 20.0147L145.339 20.0091ZM6.89441 9.56552C4.57288 8.49699 2.08938 7.36097 2.08938 4.86957C2.08938 3.48611 2.991 1.69209 5.5339 1.69209C7.77983 1.69209 10.3065 3.46361 10.8248 6.32616H11.4889V1.29842H10.8518C10.7979 1.67522 10.5927 2.67627 10.069 3.12618C9.34013 2.31072 8.07139 0.927246 5.4421 0.927246C2.11638 0.927246 0.15117 3.38488 0.15117 6.10122C0.15117 10.0604 3.4445 11.5451 5.68506 12.5518C5.86862 12.608 6.86203 13.058 7.0456 13.1479C9.07017 14.0646 11.1272 15.2569 11.1272 17.7145C11.1272 19.6379 9.65325 21.7806 6.68925 21.7806C2.40252 21.7806 1.08518 17.5064 0.739651 15.673H0V22.1574H0.69106C0.874624 20.8751 1.26875 20.2059 1.44691 19.9191C1.93281 20.4814 3.66048 22.5342 6.9538 22.5342C10.7979 22.5342 13.2435 20.0484 13.2435 16.5166C13.2435 12.5518 10.7924 11.3539 6.89441 9.55989V9.56552ZM65.8129 1.99578C69.2302 2.02952 69.2302 3.22179 69.2302 5.14514V17.4052H69.1765L57.369 1.30967H51.4788V1.99578C54.0161 1.99578 54.4481 1.99578 54.4481 6.49488V17.557C54.4481 19.5141 54.4264 20.144 53.9891 20.6389C53.3144 21.3925 52.2833 21.6343 51.4193 21.4544C50.2206 21.1338 49.8537 20.3746 49.33 19.0698C49.2976 18.9461 49.1788 18.6593 49.0275 18.3388L42.0197 0.994733H41.4422L35.6328 15.4931C35.4815 15.8305 34.9958 17.0678 34.904 17.2927C33.9323 19.9359 33.484 21.1282 31.3677 21.4769V22.1686H37.3229V21.4769C35.595 21.4769 35.1471 20.3746 35.1471 19.5198C35.1471 18.6425 35.6598 17.4389 36.1729 16.123C36.2376 15.9655 36.2647 15.8418 36.2971 15.808L36.8098 14.4808H44.4332L45.9447 18.3219C45.9988 18.4569 46.2689 19.0867 46.3066 19.2105C46.5226 19.6829 46.6304 20.0316 46.6304 20.3465C46.6304 21.4825 45.5775 21.4825 44.1578 21.4825V22.1743H58.6702V21.4825C56.7641 21.4488 56.0407 20.8807 55.8625 20.6952C55.2526 20.1609 55.1608 19.7503 55.1608 17.5739V3.10368H55.2149L69.2302 22.1574H69.9483V5.37012C69.9483 3.69981 70.0023 1.93954 73.0581 1.93954C76.1139 1.93954 76.1733 3.69981 76.1733 5.37012V16.7303C76.1733 20.7627 76.1733 21.4544 73.636 21.4544H73.0257V22.1461H82.3119V21.4544H81.6479C79.0779 21.4544 79.0779 20.7627 79.0779 16.7303V11.5339H80.9512C82.7655 11.5339 83.9746 11.5339 83.9746 14.9982H84.7037V7.66464H83.9746C83.9746 10.5891 83.0029 10.8365 80.9512 10.8365H79.0779V1.99578H82.9759C84.9197 1.99578 86.1451 1.99578 87.1115 3.44674C87.9214 4.63899 87.9644 5.53884 88.0402 6.31493H88.7529V1.30967H65.8076V1.99578H65.8129ZM37.1122 13.7778L40.6213 4.89207L44.1578 13.7778H37.1069H37.1122Z" fill="#9C9C9C"/>
</g>
</svg>
