<svg width="44" height="44" viewBox="0 0 44 44" fill="none" xmlns="http://www.w3.org/2000/svg">
<rect x="0.5" y="43.5" width="43" height="43" rx="21.5" transform="rotate(-90 0.5 43.5)" stroke="#005AFF"/>
<path d="M26.7146 32.3807L29.8843 30.3514C30.2715 30.1038 30.5431 29.7181 30.6419 29.2688C30.7406 28.8195 30.6582 28.356 30.4081 27.9683L28.2281 24.5531C27.9804 24.1659 27.5923 23.8937 27.143 23.7949C26.6913 23.6956 26.2302 23.7786 25.8401 24.0281L23.1689 25.7344C22.1172 24.9807 21.2196 24.0327 20.5244 22.9415C19.8204 21.8473 19.3401 20.6436 19.0926 19.3708L21.7638 17.6645C22.151 17.4168 22.4226 17.0312 22.5214 16.5819C22.5709 16.3605 22.5757 16.1314 22.5356 15.9081C22.4955 15.6848 22.4112 15.4717 22.2876 15.2814L20.1081 11.8637C19.8604 11.4765 19.4723 11.2043 19.0231 11.1056C18.5713 11.0063 18.1103 11.0892 17.7201 11.3388L14.551 13.3656C13.8898 13.7885 13.4154 14.4675 13.2469 15.2342C13.212 15.3929 13.1904 15.5494 13.1829 15.7116C13.0045 19.0614 14.0206 22.6483 16.0393 25.8079C18.0635 28.9661 20.894 31.3904 24.0112 32.6388C24.8954 32.9944 25.908 32.8945 26.7146 32.3807ZM24.6823 30.9715C21.9082 29.8625 19.377 27.6832 17.5578 24.8388C15.7386 21.9944 14.8212 18.7851 14.978 15.8016C14.9964 15.4268 15.2 15.0825 15.5193 14.8762L18.6318 12.8856L20.7449 16.1863L17.1718 18.4673L17.145 18.4845L17.2244 19.0548C17.4608 20.7832 18.0702 22.4395 19.0104 23.909C19.9506 25.3784 21.199 26.6259 22.6693 27.5648L23.1537 27.8761L26.7493 25.5744L28.8624 28.8751L25.7499 30.8657C25.4282 31.0715 25.0302 31.112 24.6823 30.9715Z" fill="#005AFF"/>
</svg>
