<svg width="41" height="34" viewBox="0 0 41 34" fill="none" xmlns="http://www.w3.org/2000/svg">
<path d="M35.8691 8.82256C35.8931 9.1704 35.8931 9.51822 35.8931 9.86926C35.8931 20.5654 27.7903 32.9012 12.9741 32.9012V32.8949C8.59735 32.9012 4.31151 31.6414 0.627014 29.266C1.26343 29.3429 1.90303 29.3813 2.54423 29.3829C6.17131 29.3861 9.69471 28.163 12.5482 25.9111C9.10138 25.8453 6.0788 23.587 5.02288 20.2897C6.23033 20.5237 7.47445 20.4757 8.65955 20.1503C4.90168 19.3873 2.19811 16.0693 2.19811 12.2159C2.19811 12.1806 2.19811 12.147 2.19811 12.1133C3.31782 12.7401 4.5715 13.0879 5.8539 13.1263C2.31455 10.7492 1.22355 6.0175 3.36089 2.318C7.45052 7.37515 13.4845 10.4495 19.9619 10.7749C19.3127 7.96342 20.1995 5.01729 22.2922 3.0409C25.5366 -0.0238347 30.639 0.133248 33.6886 3.39194C35.4927 3.0345 37.2217 2.36929 38.8039 1.42679C38.2026 3.30059 36.944 4.89226 35.2629 5.90369C36.8595 5.71453 38.4195 5.28497 39.8885 4.62938C38.8071 6.25793 37.445 7.67648 35.8691 8.82256Z" fill="white"/>
</svg>
