<svg width="180" height="31" viewBox="0 0 180 31" fill="none" xmlns="http://www.w3.org/2000/svg">
<path d="M41.796 27.1575C41.796 28.0846 41.5893 29.0762 40.8811 29.835H59.2743V20.5387C57.9977 21.1293 56.4231 21.42 54.9033 21.42H50.9151V18.36H53.0064C54.1433 18.36 55.1526 18.4702 56.2346 18.9353V10.8997C55.1526 11.3648 54.1433 11.475 53.0064 11.475H50.9151V8.0325H54.9033C56.4231 8.0325 57.9977 8.3232 59.2743 8.91072V0H40.8476C41.5558 0.61812 41.796 1.75032 41.796 2.6775V27.1575ZM25.8375 11.475V8.415H26.223C27.2637 8.415 28.4715 8.5833 29.2572 9.00558V0H16.3463V29.835H26.7874C26.0792 29.2168 25.8375 28.0846 25.8375 27.1575V18.7425H30.7771V27.1575C30.7771 28.0846 30.5368 29.2168 29.8271 29.835H40.2761V0H30.7771V11.475H25.8375ZM3.08197 8.415H5.31949V27.1575C5.31949 28.0846 5.07813 29.2168 4.36958 29.835H14.8186V0H0V9.00558C0.833246 8.5833 2.04116 8.415 3.08197 8.415ZM160.335 11.475H148.964C148.383 11.475 147.714 11.4199 147.046 11.2057V18.6293C147.714 18.4181 148.383 18.36 148.964 18.36H151.985V20.655C151.611 20.9916 150.797 21.1783 149.964 21.1783C146.508 21.1783 143.966 18.4334 143.966 15.1103C143.966 11.781 146.438 8.7975 149.894 8.7975C151.985 8.7975 154.344 9.486 156.925 10.7131V0H149.325C141.121 0 134.583 6.39234 134.583 15.0338C134.583 23.4946 141.167 30.6 149.705 30.6C154.411 30.6 158.794 28.6722 161.083 26.316C160.627 25.4715 160.335 24.633 160.335 23.6202V11.475ZM174.971 8.0325C176.491 8.0325 178.066 8.3232 179.343 8.91072V0H160.916C161.624 0.61812 161.864 1.75032 161.864 2.6775V27.1575C161.864 28.0846 161.657 29.0762 160.949 29.835H179.343V20.5387C178.066 21.1293 176.491 21.42 174.971 21.42H170.983V18.36H173.075C174.211 18.36 175.221 18.4702 176.303 18.9353V10.8997C175.221 11.3648 174.211 11.475 173.075 11.475H170.983V8.0325H174.971ZM130.896 16.371C132.479 14.6115 133.443 12.3043 133.443 9.95724C133.443 3.08448 128.361 0.003063 122.904 0.003063L111.144 0C111.849 0.61812 112.092 1.74114 112.092 2.66526L112.089 27.1575C112.089 28.0785 111.843 29.0823 111.137 29.835H122.457C121.749 29.0823 121.588 28.0296 121.588 27.1575V21.0865C124.835 21.7077 126.996 24.7401 126.996 27.1698C126.996 28.0908 126.78 29.0823 126.075 29.835H137.364C136.656 29.0823 136.473 27.9899 136.407 27.0687C136.027 21.8025 134.227 18.0877 130.896 16.371ZM121.588 13.4273V7.99272C123.108 7.99272 125.047 8.415 125.047 10.71C125.047 13.005 123.108 13.4273 121.588 13.4273ZM80.1721 16.4475L77.1324 8.0325H81.692L84.7317 0H63.4537C64.1193 0.67626 64.7424 1.43208 65.2016 2.31642L76.9711 29.835H83.4001L93.0909 6.885V27.1575C93.0848 28.1091 92.8507 29.2168 92.1393 29.835H110.569V20.5387C109.308 21.1293 107.721 21.8025 106.201 21.8025H102.21V18.36H104.298C105.441 18.36 106.447 18.4702 107.53 18.9353V10.8997C106.447 11.3648 105.441 11.475 104.298 11.475H102.21V8.415H106.201C107.721 8.415 109.308 8.7057 110.569 9.29628V0H86.2515L80.1721 16.4475Z" fill="#9C9C9C"/>
</svg>
